G04 #@! TF.GenerationSoftware,KiCad,Pcbnew,8.0.7-8.0.7-0~ubuntu22.04.1*
G04 #@! TF.CreationDate,2025-01-27T17:28:36+02:00*
G04 #@! TF.ProjectId,speaker_amp2,73706561-6b65-4725-9f61-6d70322e6b69,rev?*
G04 #@! TF.SameCoordinates,Original*
G04 #@! TF.FileFunction,Legend,Top*
G04 #@! TF.FilePolarity,Positive*
%FSLAX46Y46*%
G04 Gerber Fmt 4.6, Leading zero omitted, Abs format (unit mm)*
G04 Created by KiCad (PCBNEW 8.0.7-8.0.7-0~ubuntu22.04.1) date 2025-01-27 17:28:36*
%MOMM*%
%LPD*%
G01*
G04 APERTURE LIST*
G04 Aperture macros list*
%AMRoundRect*
0 Rectangle with rounded corners*
0 $1 Rounding radius*
0 $2 $3 $4 $5 $6 $7 $8 $9 X,Y pos of 4 corners*
0 Add a 4 corners polygon primitive as box body*
4,1,4,$2,$3,$4,$5,$6,$7,$8,$9,$2,$3,0*
0 Add four circle primitives for the rounded corners*
1,1,$1+$1,$2,$3*
1,1,$1+$1,$4,$5*
1,1,$1+$1,$6,$7*
1,1,$1+$1,$8,$9*
0 Add four rect primitives between the rounded corners*
20,1,$1+$1,$2,$3,$4,$5,0*
20,1,$1+$1,$4,$5,$6,$7,0*
20,1,$1+$1,$6,$7,$8,$9,0*
20,1,$1+$1,$8,$9,$2,$3,0*%
G04 Aperture macros list end*
%ADD10C,0.150000*%
%ADD11C,0.200000*%
%ADD12C,0.254000*%
%ADD13C,0.280000*%
%ADD14C,0.120000*%
%ADD15C,0.152400*%
%ADD16C,0.250000*%
%ADD17C,0.100000*%
%ADD18C,0.127000*%
%ADD19RoundRect,0.237500X0.300000X0.237500X-0.300000X0.237500X-0.300000X-0.237500X0.300000X-0.237500X0*%
%ADD20RoundRect,0.237500X0.237500X-0.300000X0.237500X0.300000X-0.237500X0.300000X-0.237500X-0.300000X0*%
%ADD21R,4.400000X3.400000*%
%ADD22RoundRect,0.250000X-0.337500X-0.475000X0.337500X-0.475000X0.337500X0.475000X-0.337500X0.475000X0*%
%ADD23R,2.600000X1.500000*%
%ADD24RoundRect,0.237500X-0.300000X-0.237500X0.300000X-0.237500X0.300000X0.237500X-0.300000X0.237500X0*%
%ADD25C,3.600000*%
%ADD26C,5.600000*%
%ADD27C,1.020000*%
%ADD28R,1.520000X1.520000*%
%ADD29C,1.520000*%
%ADD30RoundRect,0.250000X0.450000X-0.350000X0.450000X0.350000X-0.450000X0.350000X-0.450000X-0.350000X0*%
%ADD31RoundRect,0.250000X0.350000X0.450000X-0.350000X0.450000X-0.350000X-0.450000X0.350000X-0.450000X0*%
%ADD32R,0.212474X1.355433*%
%ADD33R,4.700001X2.899999*%
%ADD34R,3.600000X2.200000*%
%ADD35R,2.500000X7.500000*%
%ADD36R,1.500000X2.600000*%
%ADD37RoundRect,0.250000X0.375000X0.625000X-0.375000X0.625000X-0.375000X-0.625000X0.375000X-0.625000X0*%
%ADD38C,1.800000*%
%ADD39RoundRect,0.250000X0.337500X0.475000X-0.337500X0.475000X-0.337500X-0.475000X0.337500X-0.475000X0*%
%ADD40RoundRect,0.250000X-0.350000X-0.450000X0.350000X-0.450000X0.350000X0.450000X-0.350000X0.450000X0*%
%ADD41C,1.300000*%
%ADD42C,1.700000*%
%ADD43RoundRect,0.237500X-0.237500X0.300000X-0.237500X-0.300000X0.237500X-0.300000X0.237500X0.300000X0*%
%ADD44R,1.665000X1.665000*%
%ADD45C,1.665000*%
%ADD46RoundRect,0.277778X-3.022222X0.722222X-3.022222X-0.722222X3.022222X-0.722222X3.022222X0.722222X0*%
%ADD47RoundRect,0.249999X-2.450001X0.737501X-2.450001X-0.737501X2.450001X-0.737501X2.450001X0.737501X0*%
%ADD48RoundRect,0.250000X-0.475000X0.337500X-0.475000X-0.337500X0.475000X-0.337500X0.475000X0.337500X0*%
%ADD49RoundRect,0.250000X0.475000X-0.337500X0.475000X0.337500X-0.475000X0.337500X-0.475000X-0.337500X0*%
%ADD50R,1.600000X1.600000*%
%ADD51C,1.600000*%
G04 APERTURE END LIST*
D10*
X103812969Y-66684461D02*
X103991541Y-66743985D01*
X103991541Y-66743985D02*
X104051064Y-66803509D01*
X104051064Y-66803509D02*
X104110588Y-66922557D01*
X104110588Y-66922557D02*
X104110588Y-67101128D01*
X104110588Y-67101128D02*
X104051064Y-67220176D01*
X104051064Y-67220176D02*
X103991541Y-67279700D01*
X103991541Y-67279700D02*
X103872493Y-67339223D01*
X103872493Y-67339223D02*
X103396303Y-67339223D01*
X103396303Y-67339223D02*
X103396303Y-66089223D01*
X103396303Y-66089223D02*
X103812969Y-66089223D01*
X103812969Y-66089223D02*
X103932017Y-66148747D01*
X103932017Y-66148747D02*
X103991541Y-66208271D01*
X103991541Y-66208271D02*
X104051064Y-66327319D01*
X104051064Y-66327319D02*
X104051064Y-66446366D01*
X104051064Y-66446366D02*
X103991541Y-66565414D01*
X103991541Y-66565414D02*
X103932017Y-66624938D01*
X103932017Y-66624938D02*
X103812969Y-66684461D01*
X103812969Y-66684461D02*
X103396303Y-66684461D01*
X104467731Y-66089223D02*
X105182017Y-66089223D01*
X104824874Y-67339223D02*
X104824874Y-66089223D01*
X106491541Y-67279700D02*
X106670112Y-67339223D01*
X106670112Y-67339223D02*
X106967731Y-67339223D01*
X106967731Y-67339223D02*
X107086779Y-67279700D01*
X107086779Y-67279700D02*
X107146303Y-67220176D01*
X107146303Y-67220176D02*
X107205826Y-67101128D01*
X107205826Y-67101128D02*
X107205826Y-66982080D01*
X107205826Y-66982080D02*
X107146303Y-66863033D01*
X107146303Y-66863033D02*
X107086779Y-66803509D01*
X107086779Y-66803509D02*
X106967731Y-66743985D01*
X106967731Y-66743985D02*
X106729636Y-66684461D01*
X106729636Y-66684461D02*
X106610588Y-66624938D01*
X106610588Y-66624938D02*
X106551065Y-66565414D01*
X106551065Y-66565414D02*
X106491541Y-66446366D01*
X106491541Y-66446366D02*
X106491541Y-66327319D01*
X106491541Y-66327319D02*
X106551065Y-66208271D01*
X106551065Y-66208271D02*
X106610588Y-66148747D01*
X106610588Y-66148747D02*
X106729636Y-66089223D01*
X106729636Y-66089223D02*
X107027255Y-66089223D01*
X107027255Y-66089223D02*
X107205826Y-66148747D01*
X107741541Y-66505890D02*
X107741541Y-67755890D01*
X107741541Y-66565414D02*
X107860588Y-66505890D01*
X107860588Y-66505890D02*
X108098683Y-66505890D01*
X108098683Y-66505890D02*
X108217731Y-66565414D01*
X108217731Y-66565414D02*
X108277255Y-66624938D01*
X108277255Y-66624938D02*
X108336779Y-66743985D01*
X108336779Y-66743985D02*
X108336779Y-67101128D01*
X108336779Y-67101128D02*
X108277255Y-67220176D01*
X108277255Y-67220176D02*
X108217731Y-67279700D01*
X108217731Y-67279700D02*
X108098683Y-67339223D01*
X108098683Y-67339223D02*
X107860588Y-67339223D01*
X107860588Y-67339223D02*
X107741541Y-67279700D01*
X109348683Y-67279700D02*
X109229635Y-67339223D01*
X109229635Y-67339223D02*
X108991540Y-67339223D01*
X108991540Y-67339223D02*
X108872493Y-67279700D01*
X108872493Y-67279700D02*
X108812969Y-67160652D01*
X108812969Y-67160652D02*
X108812969Y-66684461D01*
X108812969Y-66684461D02*
X108872493Y-66565414D01*
X108872493Y-66565414D02*
X108991540Y-66505890D01*
X108991540Y-66505890D02*
X109229635Y-66505890D01*
X109229635Y-66505890D02*
X109348683Y-66565414D01*
X109348683Y-66565414D02*
X109408207Y-66684461D01*
X109408207Y-66684461D02*
X109408207Y-66803509D01*
X109408207Y-66803509D02*
X108812969Y-66922557D01*
X110479636Y-67339223D02*
X110479636Y-66684461D01*
X110479636Y-66684461D02*
X110420112Y-66565414D01*
X110420112Y-66565414D02*
X110301064Y-66505890D01*
X110301064Y-66505890D02*
X110062969Y-66505890D01*
X110062969Y-66505890D02*
X109943922Y-66565414D01*
X110479636Y-67279700D02*
X110360588Y-67339223D01*
X110360588Y-67339223D02*
X110062969Y-67339223D01*
X110062969Y-67339223D02*
X109943922Y-67279700D01*
X109943922Y-67279700D02*
X109884398Y-67160652D01*
X109884398Y-67160652D02*
X109884398Y-67041604D01*
X109884398Y-67041604D02*
X109943922Y-66922557D01*
X109943922Y-66922557D02*
X110062969Y-66863033D01*
X110062969Y-66863033D02*
X110360588Y-66863033D01*
X110360588Y-66863033D02*
X110479636Y-66803509D01*
X111074874Y-67339223D02*
X111074874Y-66089223D01*
X111193921Y-66863033D02*
X111551064Y-67339223D01*
X111551064Y-66505890D02*
X111074874Y-66982080D01*
X112562969Y-67279700D02*
X112443921Y-67339223D01*
X112443921Y-67339223D02*
X112205826Y-67339223D01*
X112205826Y-67339223D02*
X112086779Y-67279700D01*
X112086779Y-67279700D02*
X112027255Y-67160652D01*
X112027255Y-67160652D02*
X112027255Y-66684461D01*
X112027255Y-66684461D02*
X112086779Y-66565414D01*
X112086779Y-66565414D02*
X112205826Y-66505890D01*
X112205826Y-66505890D02*
X112443921Y-66505890D01*
X112443921Y-66505890D02*
X112562969Y-66565414D01*
X112562969Y-66565414D02*
X112622493Y-66684461D01*
X112622493Y-66684461D02*
X112622493Y-66803509D01*
X112622493Y-66803509D02*
X112027255Y-66922557D01*
X113158208Y-67339223D02*
X113158208Y-66505890D01*
X113158208Y-66743985D02*
X113217731Y-66624938D01*
X113217731Y-66624938D02*
X113277255Y-66565414D01*
X113277255Y-66565414D02*
X113396303Y-66505890D01*
X113396303Y-66505890D02*
X113515350Y-66505890D01*
X114824875Y-66982080D02*
X115420113Y-66982080D01*
X114705827Y-67339223D02*
X115122494Y-66089223D01*
X115122494Y-66089223D02*
X115539160Y-67339223D01*
X115955828Y-67339223D02*
X115955828Y-66505890D01*
X115955828Y-66624938D02*
X116015351Y-66565414D01*
X116015351Y-66565414D02*
X116134399Y-66505890D01*
X116134399Y-66505890D02*
X116312970Y-66505890D01*
X116312970Y-66505890D02*
X116432018Y-66565414D01*
X116432018Y-66565414D02*
X116491542Y-66684461D01*
X116491542Y-66684461D02*
X116491542Y-67339223D01*
X116491542Y-66684461D02*
X116551066Y-66565414D01*
X116551066Y-66565414D02*
X116670113Y-66505890D01*
X116670113Y-66505890D02*
X116848685Y-66505890D01*
X116848685Y-66505890D02*
X116967732Y-66565414D01*
X116967732Y-66565414D02*
X117027256Y-66684461D01*
X117027256Y-66684461D02*
X117027256Y-67339223D01*
X117622495Y-66505890D02*
X117622495Y-67755890D01*
X117622495Y-66565414D02*
X117741542Y-66505890D01*
X117741542Y-66505890D02*
X117979637Y-66505890D01*
X117979637Y-66505890D02*
X118098685Y-66565414D01*
X118098685Y-66565414D02*
X118158209Y-66624938D01*
X118158209Y-66624938D02*
X118217733Y-66743985D01*
X118217733Y-66743985D02*
X118217733Y-67101128D01*
X118217733Y-67101128D02*
X118158209Y-67220176D01*
X118158209Y-67220176D02*
X118098685Y-67279700D01*
X118098685Y-67279700D02*
X117979637Y-67339223D01*
X117979637Y-67339223D02*
X117741542Y-67339223D01*
X117741542Y-67339223D02*
X117622495Y-67279700D01*
X119586780Y-66505890D02*
X119884399Y-67339223D01*
X119884399Y-67339223D02*
X120182018Y-66505890D01*
X121312970Y-67339223D02*
X120598685Y-67339223D01*
X120955828Y-67339223D02*
X120955828Y-66089223D01*
X120955828Y-66089223D02*
X120836780Y-66267795D01*
X120836780Y-66267795D02*
X120717732Y-66386842D01*
X120717732Y-66386842D02*
X120598685Y-66446366D01*
X122801066Y-66863033D02*
X123753447Y-66863033D01*
X126015351Y-67339223D02*
X125598685Y-66743985D01*
X125301066Y-67339223D02*
X125301066Y-66089223D01*
X125301066Y-66089223D02*
X125777256Y-66089223D01*
X125777256Y-66089223D02*
X125896304Y-66148747D01*
X125896304Y-66148747D02*
X125955827Y-66208271D01*
X125955827Y-66208271D02*
X126015351Y-66327319D01*
X126015351Y-66327319D02*
X126015351Y-66505890D01*
X126015351Y-66505890D02*
X125955827Y-66624938D01*
X125955827Y-66624938D02*
X125896304Y-66684461D01*
X125896304Y-66684461D02*
X125777256Y-66743985D01*
X125777256Y-66743985D02*
X125301066Y-66743985D01*
X127027256Y-67279700D02*
X126908208Y-67339223D01*
X126908208Y-67339223D02*
X126670113Y-67339223D01*
X126670113Y-67339223D02*
X126551066Y-67279700D01*
X126551066Y-67279700D02*
X126491542Y-67160652D01*
X126491542Y-67160652D02*
X126491542Y-66684461D01*
X126491542Y-66684461D02*
X126551066Y-66565414D01*
X126551066Y-66565414D02*
X126670113Y-66505890D01*
X126670113Y-66505890D02*
X126908208Y-66505890D01*
X126908208Y-66505890D02*
X127027256Y-66565414D01*
X127027256Y-66565414D02*
X127086780Y-66684461D01*
X127086780Y-66684461D02*
X127086780Y-66803509D01*
X127086780Y-66803509D02*
X126491542Y-66922557D01*
X127503447Y-66505890D02*
X127801066Y-67339223D01*
X127801066Y-67339223D02*
X128098685Y-66505890D01*
X128991542Y-66684461D02*
X129170114Y-66743985D01*
X129170114Y-66743985D02*
X129229637Y-66803509D01*
X129229637Y-66803509D02*
X129289161Y-66922557D01*
X129289161Y-66922557D02*
X129289161Y-67101128D01*
X129289161Y-67101128D02*
X129229637Y-67220176D01*
X129229637Y-67220176D02*
X129170114Y-67279700D01*
X129170114Y-67279700D02*
X129051066Y-67339223D01*
X129051066Y-67339223D02*
X128574876Y-67339223D01*
X128574876Y-67339223D02*
X128574876Y-66089223D01*
X128574876Y-66089223D02*
X128991542Y-66089223D01*
X128991542Y-66089223D02*
X129110590Y-66148747D01*
X129110590Y-66148747D02*
X129170114Y-66208271D01*
X129170114Y-66208271D02*
X129229637Y-66327319D01*
X129229637Y-66327319D02*
X129229637Y-66446366D01*
X129229637Y-66446366D02*
X129170114Y-66565414D01*
X129170114Y-66565414D02*
X129110590Y-66624938D01*
X129110590Y-66624938D02*
X128991542Y-66684461D01*
X128991542Y-66684461D02*
X128574876Y-66684461D01*
D11*
X118750625Y-147744838D02*
X118083958Y-146792457D01*
X117607768Y-147744838D02*
X117607768Y-145744838D01*
X117607768Y-145744838D02*
X118369673Y-145744838D01*
X118369673Y-145744838D02*
X118560149Y-145840076D01*
X118560149Y-145840076D02*
X118655387Y-145935314D01*
X118655387Y-145935314D02*
X118750625Y-146125790D01*
X118750625Y-146125790D02*
X118750625Y-146411504D01*
X118750625Y-146411504D02*
X118655387Y-146601980D01*
X118655387Y-146601980D02*
X118560149Y-146697219D01*
X118560149Y-146697219D02*
X118369673Y-146792457D01*
X118369673Y-146792457D02*
X117607768Y-146792457D01*
X120369673Y-147649600D02*
X120179197Y-147744838D01*
X120179197Y-147744838D02*
X119798244Y-147744838D01*
X119798244Y-147744838D02*
X119607768Y-147649600D01*
X119607768Y-147649600D02*
X119512530Y-147459123D01*
X119512530Y-147459123D02*
X119512530Y-146697219D01*
X119512530Y-146697219D02*
X119607768Y-146506742D01*
X119607768Y-146506742D02*
X119798244Y-146411504D01*
X119798244Y-146411504D02*
X120179197Y-146411504D01*
X120179197Y-146411504D02*
X120369673Y-146506742D01*
X120369673Y-146506742D02*
X120464911Y-146697219D01*
X120464911Y-146697219D02*
X120464911Y-146887695D01*
X120464911Y-146887695D02*
X119512530Y-147078171D01*
X121607768Y-147744838D02*
X121417292Y-147649600D01*
X121417292Y-147649600D02*
X121322054Y-147459123D01*
X121322054Y-147459123D02*
X121322054Y-145744838D01*
X123226816Y-147744838D02*
X123226816Y-146697219D01*
X123226816Y-146697219D02*
X123131578Y-146506742D01*
X123131578Y-146506742D02*
X122941102Y-146411504D01*
X122941102Y-146411504D02*
X122560149Y-146411504D01*
X122560149Y-146411504D02*
X122369673Y-146506742D01*
X123226816Y-147649600D02*
X123036340Y-147744838D01*
X123036340Y-147744838D02*
X122560149Y-147744838D01*
X122560149Y-147744838D02*
X122369673Y-147649600D01*
X122369673Y-147649600D02*
X122274435Y-147459123D01*
X122274435Y-147459123D02*
X122274435Y-147268647D01*
X122274435Y-147268647D02*
X122369673Y-147078171D01*
X122369673Y-147078171D02*
X122560149Y-146982933D01*
X122560149Y-146982933D02*
X123036340Y-146982933D01*
X123036340Y-146982933D02*
X123226816Y-146887695D01*
X124083959Y-147649600D02*
X124274435Y-147744838D01*
X124274435Y-147744838D02*
X124655387Y-147744838D01*
X124655387Y-147744838D02*
X124845864Y-147649600D01*
X124845864Y-147649600D02*
X124941102Y-147459123D01*
X124941102Y-147459123D02*
X124941102Y-147363885D01*
X124941102Y-147363885D02*
X124845864Y-147173409D01*
X124845864Y-147173409D02*
X124655387Y-147078171D01*
X124655387Y-147078171D02*
X124369673Y-147078171D01*
X124369673Y-147078171D02*
X124179197Y-146982933D01*
X124179197Y-146982933D02*
X124083959Y-146792457D01*
X124083959Y-146792457D02*
X124083959Y-146697219D01*
X124083959Y-146697219D02*
X124179197Y-146506742D01*
X124179197Y-146506742D02*
X124369673Y-146411504D01*
X124369673Y-146411504D02*
X124655387Y-146411504D01*
X124655387Y-146411504D02*
X124845864Y-146506742D01*
X125798245Y-147744838D02*
X125798245Y-145744838D01*
X125988721Y-146982933D02*
X126560150Y-147744838D01*
X126560150Y-146411504D02*
X125798245Y-147173409D01*
X127703007Y-147744838D02*
X127512531Y-147649600D01*
X127512531Y-147649600D02*
X127417293Y-147554361D01*
X127417293Y-147554361D02*
X127322055Y-147363885D01*
X127322055Y-147363885D02*
X127322055Y-146792457D01*
X127322055Y-146792457D02*
X127417293Y-146601980D01*
X127417293Y-146601980D02*
X127512531Y-146506742D01*
X127512531Y-146506742D02*
X127703007Y-146411504D01*
X127703007Y-146411504D02*
X127988722Y-146411504D01*
X127988722Y-146411504D02*
X128179198Y-146506742D01*
X128179198Y-146506742D02*
X128274436Y-146601980D01*
X128274436Y-146601980D02*
X128369674Y-146792457D01*
X128369674Y-146792457D02*
X128369674Y-147363885D01*
X128369674Y-147363885D02*
X128274436Y-147554361D01*
X128274436Y-147554361D02*
X128179198Y-147649600D01*
X128179198Y-147649600D02*
X127988722Y-147744838D01*
X127988722Y-147744838D02*
X127703007Y-147744838D01*
D10*
X91183333Y-83709580D02*
X91135714Y-83757200D01*
X91135714Y-83757200D02*
X90992857Y-83804819D01*
X90992857Y-83804819D02*
X90897619Y-83804819D01*
X90897619Y-83804819D02*
X90754762Y-83757200D01*
X90754762Y-83757200D02*
X90659524Y-83661961D01*
X90659524Y-83661961D02*
X90611905Y-83566723D01*
X90611905Y-83566723D02*
X90564286Y-83376247D01*
X90564286Y-83376247D02*
X90564286Y-83233390D01*
X90564286Y-83233390D02*
X90611905Y-83042914D01*
X90611905Y-83042914D02*
X90659524Y-82947676D01*
X90659524Y-82947676D02*
X90754762Y-82852438D01*
X90754762Y-82852438D02*
X90897619Y-82804819D01*
X90897619Y-82804819D02*
X90992857Y-82804819D01*
X90992857Y-82804819D02*
X91135714Y-82852438D01*
X91135714Y-82852438D02*
X91183333Y-82900057D01*
X92135714Y-83804819D02*
X91564286Y-83804819D01*
X91850000Y-83804819D02*
X91850000Y-82804819D01*
X91850000Y-82804819D02*
X91754762Y-82947676D01*
X91754762Y-82947676D02*
X91659524Y-83042914D01*
X91659524Y-83042914D02*
X91564286Y-83090533D01*
X91470833Y-96359580D02*
X91423214Y-96407200D01*
X91423214Y-96407200D02*
X91280357Y-96454819D01*
X91280357Y-96454819D02*
X91185119Y-96454819D01*
X91185119Y-96454819D02*
X91042262Y-96407200D01*
X91042262Y-96407200D02*
X90947024Y-96311961D01*
X90947024Y-96311961D02*
X90899405Y-96216723D01*
X90899405Y-96216723D02*
X90851786Y-96026247D01*
X90851786Y-96026247D02*
X90851786Y-95883390D01*
X90851786Y-95883390D02*
X90899405Y-95692914D01*
X90899405Y-95692914D02*
X90947024Y-95597676D01*
X90947024Y-95597676D02*
X91042262Y-95502438D01*
X91042262Y-95502438D02*
X91185119Y-95454819D01*
X91185119Y-95454819D02*
X91280357Y-95454819D01*
X91280357Y-95454819D02*
X91423214Y-95502438D01*
X91423214Y-95502438D02*
X91470833Y-95550057D01*
X92327976Y-95788152D02*
X92327976Y-96454819D01*
X92089881Y-95407200D02*
X91851786Y-96121485D01*
X91851786Y-96121485D02*
X92470833Y-96121485D01*
X93357142Y-132359580D02*
X93309523Y-132407200D01*
X93309523Y-132407200D02*
X93166666Y-132454819D01*
X93166666Y-132454819D02*
X93071428Y-132454819D01*
X93071428Y-132454819D02*
X92928571Y-132407200D01*
X92928571Y-132407200D02*
X92833333Y-132311961D01*
X92833333Y-132311961D02*
X92785714Y-132216723D01*
X92785714Y-132216723D02*
X92738095Y-132026247D01*
X92738095Y-132026247D02*
X92738095Y-131883390D01*
X92738095Y-131883390D02*
X92785714Y-131692914D01*
X92785714Y-131692914D02*
X92833333Y-131597676D01*
X92833333Y-131597676D02*
X92928571Y-131502438D01*
X92928571Y-131502438D02*
X93071428Y-131454819D01*
X93071428Y-131454819D02*
X93166666Y-131454819D01*
X93166666Y-131454819D02*
X93309523Y-131502438D01*
X93309523Y-131502438D02*
X93357142Y-131550057D01*
X93690476Y-131454819D02*
X94309523Y-131454819D01*
X94309523Y-131454819D02*
X93976190Y-131835771D01*
X93976190Y-131835771D02*
X94119047Y-131835771D01*
X94119047Y-131835771D02*
X94214285Y-131883390D01*
X94214285Y-131883390D02*
X94261904Y-131931009D01*
X94261904Y-131931009D02*
X94309523Y-132026247D01*
X94309523Y-132026247D02*
X94309523Y-132264342D01*
X94309523Y-132264342D02*
X94261904Y-132359580D01*
X94261904Y-132359580D02*
X94214285Y-132407200D01*
X94214285Y-132407200D02*
X94119047Y-132454819D01*
X94119047Y-132454819D02*
X93833333Y-132454819D01*
X93833333Y-132454819D02*
X93738095Y-132407200D01*
X93738095Y-132407200D02*
X93690476Y-132359580D01*
X95166666Y-131454819D02*
X94976190Y-131454819D01*
X94976190Y-131454819D02*
X94880952Y-131502438D01*
X94880952Y-131502438D02*
X94833333Y-131550057D01*
X94833333Y-131550057D02*
X94738095Y-131692914D01*
X94738095Y-131692914D02*
X94690476Y-131883390D01*
X94690476Y-131883390D02*
X94690476Y-132264342D01*
X94690476Y-132264342D02*
X94738095Y-132359580D01*
X94738095Y-132359580D02*
X94785714Y-132407200D01*
X94785714Y-132407200D02*
X94880952Y-132454819D01*
X94880952Y-132454819D02*
X95071428Y-132454819D01*
X95071428Y-132454819D02*
X95166666Y-132407200D01*
X95166666Y-132407200D02*
X95214285Y-132359580D01*
X95214285Y-132359580D02*
X95261904Y-132264342D01*
X95261904Y-132264342D02*
X95261904Y-132026247D01*
X95261904Y-132026247D02*
X95214285Y-131931009D01*
X95214285Y-131931009D02*
X95166666Y-131883390D01*
X95166666Y-131883390D02*
X95071428Y-131835771D01*
X95071428Y-131835771D02*
X94880952Y-131835771D01*
X94880952Y-131835771D02*
X94785714Y-131883390D01*
X94785714Y-131883390D02*
X94738095Y-131931009D01*
X94738095Y-131931009D02*
X94690476Y-132026247D01*
X104833333Y-116604819D02*
X104357143Y-116604819D01*
X104357143Y-116604819D02*
X104357143Y-115604819D01*
X105595238Y-115604819D02*
X105404762Y-115604819D01*
X105404762Y-115604819D02*
X105309524Y-115652438D01*
X105309524Y-115652438D02*
X105261905Y-115700057D01*
X105261905Y-115700057D02*
X105166667Y-115842914D01*
X105166667Y-115842914D02*
X105119048Y-116033390D01*
X105119048Y-116033390D02*
X105119048Y-116414342D01*
X105119048Y-116414342D02*
X105166667Y-116509580D01*
X105166667Y-116509580D02*
X105214286Y-116557200D01*
X105214286Y-116557200D02*
X105309524Y-116604819D01*
X105309524Y-116604819D02*
X105500000Y-116604819D01*
X105500000Y-116604819D02*
X105595238Y-116557200D01*
X105595238Y-116557200D02*
X105642857Y-116509580D01*
X105642857Y-116509580D02*
X105690476Y-116414342D01*
X105690476Y-116414342D02*
X105690476Y-116176247D01*
X105690476Y-116176247D02*
X105642857Y-116081009D01*
X105642857Y-116081009D02*
X105595238Y-116033390D01*
X105595238Y-116033390D02*
X105500000Y-115985771D01*
X105500000Y-115985771D02*
X105309524Y-115985771D01*
X105309524Y-115985771D02*
X105214286Y-116033390D01*
X105214286Y-116033390D02*
X105166667Y-116081009D01*
X105166667Y-116081009D02*
X105119048Y-116176247D01*
X60357142Y-69709580D02*
X60309523Y-69757200D01*
X60309523Y-69757200D02*
X60166666Y-69804819D01*
X60166666Y-69804819D02*
X60071428Y-69804819D01*
X60071428Y-69804819D02*
X59928571Y-69757200D01*
X59928571Y-69757200D02*
X59833333Y-69661961D01*
X59833333Y-69661961D02*
X59785714Y-69566723D01*
X59785714Y-69566723D02*
X59738095Y-69376247D01*
X59738095Y-69376247D02*
X59738095Y-69233390D01*
X59738095Y-69233390D02*
X59785714Y-69042914D01*
X59785714Y-69042914D02*
X59833333Y-68947676D01*
X59833333Y-68947676D02*
X59928571Y-68852438D01*
X59928571Y-68852438D02*
X60071428Y-68804819D01*
X60071428Y-68804819D02*
X60166666Y-68804819D01*
X60166666Y-68804819D02*
X60309523Y-68852438D01*
X60309523Y-68852438D02*
X60357142Y-68900057D01*
X61309523Y-69804819D02*
X60738095Y-69804819D01*
X61023809Y-69804819D02*
X61023809Y-68804819D01*
X61023809Y-68804819D02*
X60928571Y-68947676D01*
X60928571Y-68947676D02*
X60833333Y-69042914D01*
X60833333Y-69042914D02*
X60738095Y-69090533D01*
X62214285Y-68804819D02*
X61738095Y-68804819D01*
X61738095Y-68804819D02*
X61690476Y-69281009D01*
X61690476Y-69281009D02*
X61738095Y-69233390D01*
X61738095Y-69233390D02*
X61833333Y-69185771D01*
X61833333Y-69185771D02*
X62071428Y-69185771D01*
X62071428Y-69185771D02*
X62166666Y-69233390D01*
X62166666Y-69233390D02*
X62214285Y-69281009D01*
X62214285Y-69281009D02*
X62261904Y-69376247D01*
X62261904Y-69376247D02*
X62261904Y-69614342D01*
X62261904Y-69614342D02*
X62214285Y-69709580D01*
X62214285Y-69709580D02*
X62166666Y-69757200D01*
X62166666Y-69757200D02*
X62071428Y-69804819D01*
X62071428Y-69804819D02*
X61833333Y-69804819D01*
X61833333Y-69804819D02*
X61738095Y-69757200D01*
X61738095Y-69757200D02*
X61690476Y-69709580D01*
X93607142Y-125422080D02*
X93559523Y-125469700D01*
X93559523Y-125469700D02*
X93416666Y-125517319D01*
X93416666Y-125517319D02*
X93321428Y-125517319D01*
X93321428Y-125517319D02*
X93178571Y-125469700D01*
X93178571Y-125469700D02*
X93083333Y-125374461D01*
X93083333Y-125374461D02*
X93035714Y-125279223D01*
X93035714Y-125279223D02*
X92988095Y-125088747D01*
X92988095Y-125088747D02*
X92988095Y-124945890D01*
X92988095Y-124945890D02*
X93035714Y-124755414D01*
X93035714Y-124755414D02*
X93083333Y-124660176D01*
X93083333Y-124660176D02*
X93178571Y-124564938D01*
X93178571Y-124564938D02*
X93321428Y-124517319D01*
X93321428Y-124517319D02*
X93416666Y-124517319D01*
X93416666Y-124517319D02*
X93559523Y-124564938D01*
X93559523Y-124564938D02*
X93607142Y-124612557D01*
X93940476Y-124517319D02*
X94559523Y-124517319D01*
X94559523Y-124517319D02*
X94226190Y-124898271D01*
X94226190Y-124898271D02*
X94369047Y-124898271D01*
X94369047Y-124898271D02*
X94464285Y-124945890D01*
X94464285Y-124945890D02*
X94511904Y-124993509D01*
X94511904Y-124993509D02*
X94559523Y-125088747D01*
X94559523Y-125088747D02*
X94559523Y-125326842D01*
X94559523Y-125326842D02*
X94511904Y-125422080D01*
X94511904Y-125422080D02*
X94464285Y-125469700D01*
X94464285Y-125469700D02*
X94369047Y-125517319D01*
X94369047Y-125517319D02*
X94083333Y-125517319D01*
X94083333Y-125517319D02*
X93988095Y-125469700D01*
X93988095Y-125469700D02*
X93940476Y-125422080D01*
X95416666Y-124850652D02*
X95416666Y-125517319D01*
X95178571Y-124469700D02*
X94940476Y-125183985D01*
X94940476Y-125183985D02*
X95559523Y-125183985D01*
X39761905Y-75954819D02*
X39761905Y-74954819D01*
X39761905Y-74954819D02*
X40000000Y-74954819D01*
X40000000Y-74954819D02*
X40142857Y-75002438D01*
X40142857Y-75002438D02*
X40238095Y-75097676D01*
X40238095Y-75097676D02*
X40285714Y-75192914D01*
X40285714Y-75192914D02*
X40333333Y-75383390D01*
X40333333Y-75383390D02*
X40333333Y-75526247D01*
X40333333Y-75526247D02*
X40285714Y-75716723D01*
X40285714Y-75716723D02*
X40238095Y-75811961D01*
X40238095Y-75811961D02*
X40142857Y-75907200D01*
X40142857Y-75907200D02*
X40000000Y-75954819D01*
X40000000Y-75954819D02*
X39761905Y-75954819D01*
X40666667Y-74954819D02*
X41285714Y-74954819D01*
X41285714Y-74954819D02*
X40952381Y-75335771D01*
X40952381Y-75335771D02*
X41095238Y-75335771D01*
X41095238Y-75335771D02*
X41190476Y-75383390D01*
X41190476Y-75383390D02*
X41238095Y-75431009D01*
X41238095Y-75431009D02*
X41285714Y-75526247D01*
X41285714Y-75526247D02*
X41285714Y-75764342D01*
X41285714Y-75764342D02*
X41238095Y-75859580D01*
X41238095Y-75859580D02*
X41190476Y-75907200D01*
X41190476Y-75907200D02*
X41095238Y-75954819D01*
X41095238Y-75954819D02*
X40809524Y-75954819D01*
X40809524Y-75954819D02*
X40714286Y-75907200D01*
X40714286Y-75907200D02*
X40666667Y-75859580D01*
X91557142Y-122559580D02*
X91509523Y-122607200D01*
X91509523Y-122607200D02*
X91366666Y-122654819D01*
X91366666Y-122654819D02*
X91271428Y-122654819D01*
X91271428Y-122654819D02*
X91128571Y-122607200D01*
X91128571Y-122607200D02*
X91033333Y-122511961D01*
X91033333Y-122511961D02*
X90985714Y-122416723D01*
X90985714Y-122416723D02*
X90938095Y-122226247D01*
X90938095Y-122226247D02*
X90938095Y-122083390D01*
X90938095Y-122083390D02*
X90985714Y-121892914D01*
X90985714Y-121892914D02*
X91033333Y-121797676D01*
X91033333Y-121797676D02*
X91128571Y-121702438D01*
X91128571Y-121702438D02*
X91271428Y-121654819D01*
X91271428Y-121654819D02*
X91366666Y-121654819D01*
X91366666Y-121654819D02*
X91509523Y-121702438D01*
X91509523Y-121702438D02*
X91557142Y-121750057D01*
X91890476Y-121654819D02*
X92509523Y-121654819D01*
X92509523Y-121654819D02*
X92176190Y-122035771D01*
X92176190Y-122035771D02*
X92319047Y-122035771D01*
X92319047Y-122035771D02*
X92414285Y-122083390D01*
X92414285Y-122083390D02*
X92461904Y-122131009D01*
X92461904Y-122131009D02*
X92509523Y-122226247D01*
X92509523Y-122226247D02*
X92509523Y-122464342D01*
X92509523Y-122464342D02*
X92461904Y-122559580D01*
X92461904Y-122559580D02*
X92414285Y-122607200D01*
X92414285Y-122607200D02*
X92319047Y-122654819D01*
X92319047Y-122654819D02*
X92033333Y-122654819D01*
X92033333Y-122654819D02*
X91938095Y-122607200D01*
X91938095Y-122607200D02*
X91890476Y-122559580D01*
X93414285Y-121654819D02*
X92938095Y-121654819D01*
X92938095Y-121654819D02*
X92890476Y-122131009D01*
X92890476Y-122131009D02*
X92938095Y-122083390D01*
X92938095Y-122083390D02*
X93033333Y-122035771D01*
X93033333Y-122035771D02*
X93271428Y-122035771D01*
X93271428Y-122035771D02*
X93366666Y-122083390D01*
X93366666Y-122083390D02*
X93414285Y-122131009D01*
X93414285Y-122131009D02*
X93461904Y-122226247D01*
X93461904Y-122226247D02*
X93461904Y-122464342D01*
X93461904Y-122464342D02*
X93414285Y-122559580D01*
X93414285Y-122559580D02*
X93366666Y-122607200D01*
X93366666Y-122607200D02*
X93271428Y-122654819D01*
X93271428Y-122654819D02*
X93033333Y-122654819D01*
X93033333Y-122654819D02*
X92938095Y-122607200D01*
X92938095Y-122607200D02*
X92890476Y-122559580D01*
X93583333Y-86609580D02*
X93535714Y-86657200D01*
X93535714Y-86657200D02*
X93392857Y-86704819D01*
X93392857Y-86704819D02*
X93297619Y-86704819D01*
X93297619Y-86704819D02*
X93154762Y-86657200D01*
X93154762Y-86657200D02*
X93059524Y-86561961D01*
X93059524Y-86561961D02*
X93011905Y-86466723D01*
X93011905Y-86466723D02*
X92964286Y-86276247D01*
X92964286Y-86276247D02*
X92964286Y-86133390D01*
X92964286Y-86133390D02*
X93011905Y-85942914D01*
X93011905Y-85942914D02*
X93059524Y-85847676D01*
X93059524Y-85847676D02*
X93154762Y-85752438D01*
X93154762Y-85752438D02*
X93297619Y-85704819D01*
X93297619Y-85704819D02*
X93392857Y-85704819D01*
X93392857Y-85704819D02*
X93535714Y-85752438D01*
X93535714Y-85752438D02*
X93583333Y-85800057D01*
X93964286Y-85800057D02*
X94011905Y-85752438D01*
X94011905Y-85752438D02*
X94107143Y-85704819D01*
X94107143Y-85704819D02*
X94345238Y-85704819D01*
X94345238Y-85704819D02*
X94440476Y-85752438D01*
X94440476Y-85752438D02*
X94488095Y-85800057D01*
X94488095Y-85800057D02*
X94535714Y-85895295D01*
X94535714Y-85895295D02*
X94535714Y-85990533D01*
X94535714Y-85990533D02*
X94488095Y-86133390D01*
X94488095Y-86133390D02*
X93916667Y-86704819D01*
X93916667Y-86704819D02*
X94535714Y-86704819D01*
X82609580Y-118442857D02*
X82657200Y-118490476D01*
X82657200Y-118490476D02*
X82704819Y-118633333D01*
X82704819Y-118633333D02*
X82704819Y-118728571D01*
X82704819Y-118728571D02*
X82657200Y-118871428D01*
X82657200Y-118871428D02*
X82561961Y-118966666D01*
X82561961Y-118966666D02*
X82466723Y-119014285D01*
X82466723Y-119014285D02*
X82276247Y-119061904D01*
X82276247Y-119061904D02*
X82133390Y-119061904D01*
X82133390Y-119061904D02*
X81942914Y-119014285D01*
X81942914Y-119014285D02*
X81847676Y-118966666D01*
X81847676Y-118966666D02*
X81752438Y-118871428D01*
X81752438Y-118871428D02*
X81704819Y-118728571D01*
X81704819Y-118728571D02*
X81704819Y-118633333D01*
X81704819Y-118633333D02*
X81752438Y-118490476D01*
X81752438Y-118490476D02*
X81800057Y-118442857D01*
X81800057Y-118061904D02*
X81752438Y-118014285D01*
X81752438Y-118014285D02*
X81704819Y-117919047D01*
X81704819Y-117919047D02*
X81704819Y-117680952D01*
X81704819Y-117680952D02*
X81752438Y-117585714D01*
X81752438Y-117585714D02*
X81800057Y-117538095D01*
X81800057Y-117538095D02*
X81895295Y-117490476D01*
X81895295Y-117490476D02*
X81990533Y-117490476D01*
X81990533Y-117490476D02*
X82133390Y-117538095D01*
X82133390Y-117538095D02*
X82704819Y-118109523D01*
X82704819Y-118109523D02*
X82704819Y-117490476D01*
X81704819Y-116585714D02*
X81704819Y-117061904D01*
X81704819Y-117061904D02*
X82181009Y-117109523D01*
X82181009Y-117109523D02*
X82133390Y-117061904D01*
X82133390Y-117061904D02*
X82085771Y-116966666D01*
X82085771Y-116966666D02*
X82085771Y-116728571D01*
X82085771Y-116728571D02*
X82133390Y-116633333D01*
X82133390Y-116633333D02*
X82181009Y-116585714D01*
X82181009Y-116585714D02*
X82276247Y-116538095D01*
X82276247Y-116538095D02*
X82514342Y-116538095D01*
X82514342Y-116538095D02*
X82609580Y-116585714D01*
X82609580Y-116585714D02*
X82657200Y-116633333D01*
X82657200Y-116633333D02*
X82704819Y-116728571D01*
X82704819Y-116728571D02*
X82704819Y-116966666D01*
X82704819Y-116966666D02*
X82657200Y-117061904D01*
X82657200Y-117061904D02*
X82609580Y-117109523D01*
X88295834Y-82184964D02*
X88248215Y-82232584D01*
X88248215Y-82232584D02*
X88105358Y-82280203D01*
X88105358Y-82280203D02*
X88010120Y-82280203D01*
X88010120Y-82280203D02*
X87867263Y-82232584D01*
X87867263Y-82232584D02*
X87772025Y-82137345D01*
X87772025Y-82137345D02*
X87724406Y-82042107D01*
X87724406Y-82042107D02*
X87676787Y-81851631D01*
X87676787Y-81851631D02*
X87676787Y-81708774D01*
X87676787Y-81708774D02*
X87724406Y-81518298D01*
X87724406Y-81518298D02*
X87772025Y-81423060D01*
X87772025Y-81423060D02*
X87867263Y-81327822D01*
X87867263Y-81327822D02*
X88010120Y-81280203D01*
X88010120Y-81280203D02*
X88105358Y-81280203D01*
X88105358Y-81280203D02*
X88248215Y-81327822D01*
X88248215Y-81327822D02*
X88295834Y-81375441D01*
X89200596Y-81280203D02*
X88724406Y-81280203D01*
X88724406Y-81280203D02*
X88676787Y-81756393D01*
X88676787Y-81756393D02*
X88724406Y-81708774D01*
X88724406Y-81708774D02*
X88819644Y-81661155D01*
X88819644Y-81661155D02*
X89057739Y-81661155D01*
X89057739Y-81661155D02*
X89152977Y-81708774D01*
X89152977Y-81708774D02*
X89200596Y-81756393D01*
X89200596Y-81756393D02*
X89248215Y-81851631D01*
X89248215Y-81851631D02*
X89248215Y-82089726D01*
X89248215Y-82089726D02*
X89200596Y-82184964D01*
X89200596Y-82184964D02*
X89152977Y-82232584D01*
X89152977Y-82232584D02*
X89057739Y-82280203D01*
X89057739Y-82280203D02*
X88819644Y-82280203D01*
X88819644Y-82280203D02*
X88724406Y-82232584D01*
X88724406Y-82232584D02*
X88676787Y-82184964D01*
X88057142Y-120709580D02*
X88009523Y-120757200D01*
X88009523Y-120757200D02*
X87866666Y-120804819D01*
X87866666Y-120804819D02*
X87771428Y-120804819D01*
X87771428Y-120804819D02*
X87628571Y-120757200D01*
X87628571Y-120757200D02*
X87533333Y-120661961D01*
X87533333Y-120661961D02*
X87485714Y-120566723D01*
X87485714Y-120566723D02*
X87438095Y-120376247D01*
X87438095Y-120376247D02*
X87438095Y-120233390D01*
X87438095Y-120233390D02*
X87485714Y-120042914D01*
X87485714Y-120042914D02*
X87533333Y-119947676D01*
X87533333Y-119947676D02*
X87628571Y-119852438D01*
X87628571Y-119852438D02*
X87771428Y-119804819D01*
X87771428Y-119804819D02*
X87866666Y-119804819D01*
X87866666Y-119804819D02*
X88009523Y-119852438D01*
X88009523Y-119852438D02*
X88057142Y-119900057D01*
X88438095Y-119900057D02*
X88485714Y-119852438D01*
X88485714Y-119852438D02*
X88580952Y-119804819D01*
X88580952Y-119804819D02*
X88819047Y-119804819D01*
X88819047Y-119804819D02*
X88914285Y-119852438D01*
X88914285Y-119852438D02*
X88961904Y-119900057D01*
X88961904Y-119900057D02*
X89009523Y-119995295D01*
X89009523Y-119995295D02*
X89009523Y-120090533D01*
X89009523Y-120090533D02*
X88961904Y-120233390D01*
X88961904Y-120233390D02*
X88390476Y-120804819D01*
X88390476Y-120804819D02*
X89009523Y-120804819D01*
X89580952Y-120233390D02*
X89485714Y-120185771D01*
X89485714Y-120185771D02*
X89438095Y-120138152D01*
X89438095Y-120138152D02*
X89390476Y-120042914D01*
X89390476Y-120042914D02*
X89390476Y-119995295D01*
X89390476Y-119995295D02*
X89438095Y-119900057D01*
X89438095Y-119900057D02*
X89485714Y-119852438D01*
X89485714Y-119852438D02*
X89580952Y-119804819D01*
X89580952Y-119804819D02*
X89771428Y-119804819D01*
X89771428Y-119804819D02*
X89866666Y-119852438D01*
X89866666Y-119852438D02*
X89914285Y-119900057D01*
X89914285Y-119900057D02*
X89961904Y-119995295D01*
X89961904Y-119995295D02*
X89961904Y-120042914D01*
X89961904Y-120042914D02*
X89914285Y-120138152D01*
X89914285Y-120138152D02*
X89866666Y-120185771D01*
X89866666Y-120185771D02*
X89771428Y-120233390D01*
X89771428Y-120233390D02*
X89580952Y-120233390D01*
X89580952Y-120233390D02*
X89485714Y-120281009D01*
X89485714Y-120281009D02*
X89438095Y-120328628D01*
X89438095Y-120328628D02*
X89390476Y-120423866D01*
X89390476Y-120423866D02*
X89390476Y-120614342D01*
X89390476Y-120614342D02*
X89438095Y-120709580D01*
X89438095Y-120709580D02*
X89485714Y-120757200D01*
X89485714Y-120757200D02*
X89580952Y-120804819D01*
X89580952Y-120804819D02*
X89771428Y-120804819D01*
X89771428Y-120804819D02*
X89866666Y-120757200D01*
X89866666Y-120757200D02*
X89914285Y-120709580D01*
X89914285Y-120709580D02*
X89961904Y-120614342D01*
X89961904Y-120614342D02*
X89961904Y-120423866D01*
X89961904Y-120423866D02*
X89914285Y-120328628D01*
X89914285Y-120328628D02*
X89866666Y-120281009D01*
X89866666Y-120281009D02*
X89771428Y-120233390D01*
X70166666Y-69954819D02*
X70166666Y-70669104D01*
X70166666Y-70669104D02*
X70119047Y-70811961D01*
X70119047Y-70811961D02*
X70023809Y-70907200D01*
X70023809Y-70907200D02*
X69880952Y-70954819D01*
X69880952Y-70954819D02*
X69785714Y-70954819D01*
X71071428Y-70288152D02*
X71071428Y-70954819D01*
X70833333Y-69907200D02*
X70595238Y-70621485D01*
X70595238Y-70621485D02*
X71214285Y-70621485D01*
X78083333Y-92454819D02*
X77750000Y-91978628D01*
X77511905Y-92454819D02*
X77511905Y-91454819D01*
X77511905Y-91454819D02*
X77892857Y-91454819D01*
X77892857Y-91454819D02*
X77988095Y-91502438D01*
X77988095Y-91502438D02*
X78035714Y-91550057D01*
X78035714Y-91550057D02*
X78083333Y-91645295D01*
X78083333Y-91645295D02*
X78083333Y-91788152D01*
X78083333Y-91788152D02*
X78035714Y-91883390D01*
X78035714Y-91883390D02*
X77988095Y-91931009D01*
X77988095Y-91931009D02*
X77892857Y-91978628D01*
X77892857Y-91978628D02*
X77511905Y-91978628D01*
X78988095Y-91454819D02*
X78511905Y-91454819D01*
X78511905Y-91454819D02*
X78464286Y-91931009D01*
X78464286Y-91931009D02*
X78511905Y-91883390D01*
X78511905Y-91883390D02*
X78607143Y-91835771D01*
X78607143Y-91835771D02*
X78845238Y-91835771D01*
X78845238Y-91835771D02*
X78940476Y-91883390D01*
X78940476Y-91883390D02*
X78988095Y-91931009D01*
X78988095Y-91931009D02*
X79035714Y-92026247D01*
X79035714Y-92026247D02*
X79035714Y-92264342D01*
X79035714Y-92264342D02*
X78988095Y-92359580D01*
X78988095Y-92359580D02*
X78940476Y-92407200D01*
X78940476Y-92407200D02*
X78845238Y-92454819D01*
X78845238Y-92454819D02*
X78607143Y-92454819D01*
X78607143Y-92454819D02*
X78511905Y-92407200D01*
X78511905Y-92407200D02*
X78464286Y-92359580D01*
X61833333Y-98384819D02*
X61500000Y-97908628D01*
X61261905Y-98384819D02*
X61261905Y-97384819D01*
X61261905Y-97384819D02*
X61642857Y-97384819D01*
X61642857Y-97384819D02*
X61738095Y-97432438D01*
X61738095Y-97432438D02*
X61785714Y-97480057D01*
X61785714Y-97480057D02*
X61833333Y-97575295D01*
X61833333Y-97575295D02*
X61833333Y-97718152D01*
X61833333Y-97718152D02*
X61785714Y-97813390D01*
X61785714Y-97813390D02*
X61738095Y-97861009D01*
X61738095Y-97861009D02*
X61642857Y-97908628D01*
X61642857Y-97908628D02*
X61261905Y-97908628D01*
X62785714Y-98384819D02*
X62214286Y-98384819D01*
X62500000Y-98384819D02*
X62500000Y-97384819D01*
X62500000Y-97384819D02*
X62404762Y-97527676D01*
X62404762Y-97527676D02*
X62309524Y-97622914D01*
X62309524Y-97622914D02*
X62214286Y-97670533D01*
X81833333Y-80202080D02*
X81785714Y-80249700D01*
X81785714Y-80249700D02*
X81642857Y-80297319D01*
X81642857Y-80297319D02*
X81547619Y-80297319D01*
X81547619Y-80297319D02*
X81404762Y-80249700D01*
X81404762Y-80249700D02*
X81309524Y-80154461D01*
X81309524Y-80154461D02*
X81261905Y-80059223D01*
X81261905Y-80059223D02*
X81214286Y-79868747D01*
X81214286Y-79868747D02*
X81214286Y-79725890D01*
X81214286Y-79725890D02*
X81261905Y-79535414D01*
X81261905Y-79535414D02*
X81309524Y-79440176D01*
X81309524Y-79440176D02*
X81404762Y-79344938D01*
X81404762Y-79344938D02*
X81547619Y-79297319D01*
X81547619Y-79297319D02*
X81642857Y-79297319D01*
X81642857Y-79297319D02*
X81785714Y-79344938D01*
X81785714Y-79344938D02*
X81833333Y-79392557D01*
X82404762Y-79725890D02*
X82309524Y-79678271D01*
X82309524Y-79678271D02*
X82261905Y-79630652D01*
X82261905Y-79630652D02*
X82214286Y-79535414D01*
X82214286Y-79535414D02*
X82214286Y-79487795D01*
X82214286Y-79487795D02*
X82261905Y-79392557D01*
X82261905Y-79392557D02*
X82309524Y-79344938D01*
X82309524Y-79344938D02*
X82404762Y-79297319D01*
X82404762Y-79297319D02*
X82595238Y-79297319D01*
X82595238Y-79297319D02*
X82690476Y-79344938D01*
X82690476Y-79344938D02*
X82738095Y-79392557D01*
X82738095Y-79392557D02*
X82785714Y-79487795D01*
X82785714Y-79487795D02*
X82785714Y-79535414D01*
X82785714Y-79535414D02*
X82738095Y-79630652D01*
X82738095Y-79630652D02*
X82690476Y-79678271D01*
X82690476Y-79678271D02*
X82595238Y-79725890D01*
X82595238Y-79725890D02*
X82404762Y-79725890D01*
X82404762Y-79725890D02*
X82309524Y-79773509D01*
X82309524Y-79773509D02*
X82261905Y-79821128D01*
X82261905Y-79821128D02*
X82214286Y-79916366D01*
X82214286Y-79916366D02*
X82214286Y-80106842D01*
X82214286Y-80106842D02*
X82261905Y-80202080D01*
X82261905Y-80202080D02*
X82309524Y-80249700D01*
X82309524Y-80249700D02*
X82404762Y-80297319D01*
X82404762Y-80297319D02*
X82595238Y-80297319D01*
X82595238Y-80297319D02*
X82690476Y-80249700D01*
X82690476Y-80249700D02*
X82738095Y-80202080D01*
X82738095Y-80202080D02*
X82785714Y-80106842D01*
X82785714Y-80106842D02*
X82785714Y-79916366D01*
X82785714Y-79916366D02*
X82738095Y-79821128D01*
X82738095Y-79821128D02*
X82690476Y-79773509D01*
X82690476Y-79773509D02*
X82595238Y-79725890D01*
X77738095Y-89154819D02*
X77738095Y-89964342D01*
X77738095Y-89964342D02*
X77785714Y-90059580D01*
X77785714Y-90059580D02*
X77833333Y-90107200D01*
X77833333Y-90107200D02*
X77928571Y-90154819D01*
X77928571Y-90154819D02*
X78119047Y-90154819D01*
X78119047Y-90154819D02*
X78214285Y-90107200D01*
X78214285Y-90107200D02*
X78261904Y-90059580D01*
X78261904Y-90059580D02*
X78309523Y-89964342D01*
X78309523Y-89964342D02*
X78309523Y-89154819D01*
X79309523Y-90154819D02*
X78738095Y-90154819D01*
X79023809Y-90154819D02*
X79023809Y-89154819D01*
X79023809Y-89154819D02*
X78928571Y-89297676D01*
X78928571Y-89297676D02*
X78833333Y-89392914D01*
X78833333Y-89392914D02*
X78738095Y-89440533D01*
X98583333Y-87704819D02*
X98107143Y-87704819D01*
X98107143Y-87704819D02*
X98107143Y-86704819D01*
X98869048Y-86800057D02*
X98916667Y-86752438D01*
X98916667Y-86752438D02*
X99011905Y-86704819D01*
X99011905Y-86704819D02*
X99250000Y-86704819D01*
X99250000Y-86704819D02*
X99345238Y-86752438D01*
X99345238Y-86752438D02*
X99392857Y-86800057D01*
X99392857Y-86800057D02*
X99440476Y-86895295D01*
X99440476Y-86895295D02*
X99440476Y-86990533D01*
X99440476Y-86990533D02*
X99392857Y-87133390D01*
X99392857Y-87133390D02*
X98821429Y-87704819D01*
X98821429Y-87704819D02*
X99440476Y-87704819D01*
D12*
X59324318Y-78461666D02*
X59324318Y-79066428D01*
X59324318Y-79066428D02*
X58054318Y-79066428D01*
X58054318Y-77433571D02*
X58054318Y-78038333D01*
X58054318Y-78038333D02*
X58659080Y-78098809D01*
X58659080Y-78098809D02*
X58598603Y-78038333D01*
X58598603Y-78038333D02*
X58538127Y-77917380D01*
X58538127Y-77917380D02*
X58538127Y-77614999D01*
X58538127Y-77614999D02*
X58598603Y-77494047D01*
X58598603Y-77494047D02*
X58659080Y-77433571D01*
X58659080Y-77433571D02*
X58780032Y-77373094D01*
X58780032Y-77373094D02*
X59082413Y-77373094D01*
X59082413Y-77373094D02*
X59203365Y-77433571D01*
X59203365Y-77433571D02*
X59263842Y-77494047D01*
X59263842Y-77494047D02*
X59324318Y-77614999D01*
X59324318Y-77614999D02*
X59324318Y-77917380D01*
X59324318Y-77917380D02*
X59263842Y-78038333D01*
X59263842Y-78038333D02*
X59203365Y-78098809D01*
D10*
X61833333Y-103464819D02*
X61500000Y-102988628D01*
X61261905Y-103464819D02*
X61261905Y-102464819D01*
X61261905Y-102464819D02*
X61642857Y-102464819D01*
X61642857Y-102464819D02*
X61738095Y-102512438D01*
X61738095Y-102512438D02*
X61785714Y-102560057D01*
X61785714Y-102560057D02*
X61833333Y-102655295D01*
X61833333Y-102655295D02*
X61833333Y-102798152D01*
X61833333Y-102798152D02*
X61785714Y-102893390D01*
X61785714Y-102893390D02*
X61738095Y-102941009D01*
X61738095Y-102941009D02*
X61642857Y-102988628D01*
X61642857Y-102988628D02*
X61261905Y-102988628D01*
X62214286Y-102560057D02*
X62261905Y-102512438D01*
X62261905Y-102512438D02*
X62357143Y-102464819D01*
X62357143Y-102464819D02*
X62595238Y-102464819D01*
X62595238Y-102464819D02*
X62690476Y-102512438D01*
X62690476Y-102512438D02*
X62738095Y-102560057D01*
X62738095Y-102560057D02*
X62785714Y-102655295D01*
X62785714Y-102655295D02*
X62785714Y-102750533D01*
X62785714Y-102750533D02*
X62738095Y-102893390D01*
X62738095Y-102893390D02*
X62166667Y-103464819D01*
X62166667Y-103464819D02*
X62785714Y-103464819D01*
X75833333Y-92454819D02*
X75500000Y-91978628D01*
X75261905Y-92454819D02*
X75261905Y-91454819D01*
X75261905Y-91454819D02*
X75642857Y-91454819D01*
X75642857Y-91454819D02*
X75738095Y-91502438D01*
X75738095Y-91502438D02*
X75785714Y-91550057D01*
X75785714Y-91550057D02*
X75833333Y-91645295D01*
X75833333Y-91645295D02*
X75833333Y-91788152D01*
X75833333Y-91788152D02*
X75785714Y-91883390D01*
X75785714Y-91883390D02*
X75738095Y-91931009D01*
X75738095Y-91931009D02*
X75642857Y-91978628D01*
X75642857Y-91978628D02*
X75261905Y-91978628D01*
X76690476Y-91788152D02*
X76690476Y-92454819D01*
X76452381Y-91407200D02*
X76214286Y-92121485D01*
X76214286Y-92121485D02*
X76833333Y-92121485D01*
X93511905Y-145704819D02*
X93511905Y-144704819D01*
X93511905Y-144704819D02*
X93750000Y-144704819D01*
X93750000Y-144704819D02*
X93892857Y-144752438D01*
X93892857Y-144752438D02*
X93988095Y-144847676D01*
X93988095Y-144847676D02*
X94035714Y-144942914D01*
X94035714Y-144942914D02*
X94083333Y-145133390D01*
X94083333Y-145133390D02*
X94083333Y-145276247D01*
X94083333Y-145276247D02*
X94035714Y-145466723D01*
X94035714Y-145466723D02*
X93988095Y-145561961D01*
X93988095Y-145561961D02*
X93892857Y-145657200D01*
X93892857Y-145657200D02*
X93750000Y-145704819D01*
X93750000Y-145704819D02*
X93511905Y-145704819D01*
X94464286Y-144800057D02*
X94511905Y-144752438D01*
X94511905Y-144752438D02*
X94607143Y-144704819D01*
X94607143Y-144704819D02*
X94845238Y-144704819D01*
X94845238Y-144704819D02*
X94940476Y-144752438D01*
X94940476Y-144752438D02*
X94988095Y-144800057D01*
X94988095Y-144800057D02*
X95035714Y-144895295D01*
X95035714Y-144895295D02*
X95035714Y-144990533D01*
X95035714Y-144990533D02*
X94988095Y-145133390D01*
X94988095Y-145133390D02*
X94416667Y-145704819D01*
X94416667Y-145704819D02*
X95035714Y-145704819D01*
X80666666Y-74681009D02*
X80333333Y-74681009D01*
X80333333Y-75204819D02*
X80333333Y-74204819D01*
X80333333Y-74204819D02*
X80809523Y-74204819D01*
X81714285Y-75204819D02*
X81142857Y-75204819D01*
X81428571Y-75204819D02*
X81428571Y-74204819D01*
X81428571Y-74204819D02*
X81333333Y-74347676D01*
X81333333Y-74347676D02*
X81238095Y-74442914D01*
X81238095Y-74442914D02*
X81142857Y-74490533D01*
D13*
X55791666Y-124895024D02*
X55791666Y-123145024D01*
X55791666Y-123145024D02*
X56375000Y-124395024D01*
X56375000Y-124395024D02*
X56958333Y-123145024D01*
X56958333Y-123145024D02*
X56958333Y-124895024D01*
X58791666Y-124728357D02*
X58708333Y-124811691D01*
X58708333Y-124811691D02*
X58458333Y-124895024D01*
X58458333Y-124895024D02*
X58291666Y-124895024D01*
X58291666Y-124895024D02*
X58041666Y-124811691D01*
X58041666Y-124811691D02*
X57875000Y-124645024D01*
X57875000Y-124645024D02*
X57791666Y-124478357D01*
X57791666Y-124478357D02*
X57708333Y-124145024D01*
X57708333Y-124145024D02*
X57708333Y-123895024D01*
X57708333Y-123895024D02*
X57791666Y-123561691D01*
X57791666Y-123561691D02*
X57875000Y-123395024D01*
X57875000Y-123395024D02*
X58041666Y-123228357D01*
X58041666Y-123228357D02*
X58291666Y-123145024D01*
X58291666Y-123145024D02*
X58458333Y-123145024D01*
X58458333Y-123145024D02*
X58708333Y-123228357D01*
X58708333Y-123228357D02*
X58791666Y-123311691D01*
X59541666Y-123145024D02*
X59541666Y-124561691D01*
X59541666Y-124561691D02*
X59625000Y-124728357D01*
X59625000Y-124728357D02*
X59708333Y-124811691D01*
X59708333Y-124811691D02*
X59875000Y-124895024D01*
X59875000Y-124895024D02*
X60208333Y-124895024D01*
X60208333Y-124895024D02*
X60375000Y-124811691D01*
X60375000Y-124811691D02*
X60458333Y-124728357D01*
X60458333Y-124728357D02*
X60541666Y-124561691D01*
X60541666Y-124561691D02*
X60541666Y-123145024D01*
X62291666Y-124895024D02*
X61291666Y-124895024D01*
X61791666Y-124895024D02*
X61791666Y-123145024D01*
X61791666Y-123145024D02*
X61624999Y-123395024D01*
X61624999Y-123395024D02*
X61458333Y-123561691D01*
X61458333Y-123561691D02*
X61291666Y-123645024D01*
D10*
X88069642Y-139359580D02*
X88022023Y-139407200D01*
X88022023Y-139407200D02*
X87879166Y-139454819D01*
X87879166Y-139454819D02*
X87783928Y-139454819D01*
X87783928Y-139454819D02*
X87641071Y-139407200D01*
X87641071Y-139407200D02*
X87545833Y-139311961D01*
X87545833Y-139311961D02*
X87498214Y-139216723D01*
X87498214Y-139216723D02*
X87450595Y-139026247D01*
X87450595Y-139026247D02*
X87450595Y-138883390D01*
X87450595Y-138883390D02*
X87498214Y-138692914D01*
X87498214Y-138692914D02*
X87545833Y-138597676D01*
X87545833Y-138597676D02*
X87641071Y-138502438D01*
X87641071Y-138502438D02*
X87783928Y-138454819D01*
X87783928Y-138454819D02*
X87879166Y-138454819D01*
X87879166Y-138454819D02*
X88022023Y-138502438D01*
X88022023Y-138502438D02*
X88069642Y-138550057D01*
X88402976Y-138454819D02*
X89022023Y-138454819D01*
X89022023Y-138454819D02*
X88688690Y-138835771D01*
X88688690Y-138835771D02*
X88831547Y-138835771D01*
X88831547Y-138835771D02*
X88926785Y-138883390D01*
X88926785Y-138883390D02*
X88974404Y-138931009D01*
X88974404Y-138931009D02*
X89022023Y-139026247D01*
X89022023Y-139026247D02*
X89022023Y-139264342D01*
X89022023Y-139264342D02*
X88974404Y-139359580D01*
X88974404Y-139359580D02*
X88926785Y-139407200D01*
X88926785Y-139407200D02*
X88831547Y-139454819D01*
X88831547Y-139454819D02*
X88545833Y-139454819D01*
X88545833Y-139454819D02*
X88450595Y-139407200D01*
X88450595Y-139407200D02*
X88402976Y-139359580D01*
X89402976Y-138550057D02*
X89450595Y-138502438D01*
X89450595Y-138502438D02*
X89545833Y-138454819D01*
X89545833Y-138454819D02*
X89783928Y-138454819D01*
X89783928Y-138454819D02*
X89879166Y-138502438D01*
X89879166Y-138502438D02*
X89926785Y-138550057D01*
X89926785Y-138550057D02*
X89974404Y-138645295D01*
X89974404Y-138645295D02*
X89974404Y-138740533D01*
X89974404Y-138740533D02*
X89926785Y-138883390D01*
X89926785Y-138883390D02*
X89355357Y-139454819D01*
X89355357Y-139454819D02*
X89974404Y-139454819D01*
X88357143Y-100609580D02*
X88309524Y-100657200D01*
X88309524Y-100657200D02*
X88166667Y-100704819D01*
X88166667Y-100704819D02*
X88071429Y-100704819D01*
X88071429Y-100704819D02*
X87928572Y-100657200D01*
X87928572Y-100657200D02*
X87833334Y-100561961D01*
X87833334Y-100561961D02*
X87785715Y-100466723D01*
X87785715Y-100466723D02*
X87738096Y-100276247D01*
X87738096Y-100276247D02*
X87738096Y-100133390D01*
X87738096Y-100133390D02*
X87785715Y-99942914D01*
X87785715Y-99942914D02*
X87833334Y-99847676D01*
X87833334Y-99847676D02*
X87928572Y-99752438D01*
X87928572Y-99752438D02*
X88071429Y-99704819D01*
X88071429Y-99704819D02*
X88166667Y-99704819D01*
X88166667Y-99704819D02*
X88309524Y-99752438D01*
X88309524Y-99752438D02*
X88357143Y-99800057D01*
X89309524Y-100704819D02*
X88738096Y-100704819D01*
X89023810Y-100704819D02*
X89023810Y-99704819D01*
X89023810Y-99704819D02*
X88928572Y-99847676D01*
X88928572Y-99847676D02*
X88833334Y-99942914D01*
X88833334Y-99942914D02*
X88738096Y-99990533D01*
X89690477Y-99800057D02*
X89738096Y-99752438D01*
X89738096Y-99752438D02*
X89833334Y-99704819D01*
X89833334Y-99704819D02*
X90071429Y-99704819D01*
X90071429Y-99704819D02*
X90166667Y-99752438D01*
X90166667Y-99752438D02*
X90214286Y-99800057D01*
X90214286Y-99800057D02*
X90261905Y-99895295D01*
X90261905Y-99895295D02*
X90261905Y-99990533D01*
X90261905Y-99990533D02*
X90214286Y-100133390D01*
X90214286Y-100133390D02*
X89642858Y-100704819D01*
X89642858Y-100704819D02*
X90261905Y-100704819D01*
X83357142Y-68954819D02*
X83023809Y-68478628D01*
X82785714Y-68954819D02*
X82785714Y-67954819D01*
X82785714Y-67954819D02*
X83166666Y-67954819D01*
X83166666Y-67954819D02*
X83261904Y-68002438D01*
X83261904Y-68002438D02*
X83309523Y-68050057D01*
X83309523Y-68050057D02*
X83357142Y-68145295D01*
X83357142Y-68145295D02*
X83357142Y-68288152D01*
X83357142Y-68288152D02*
X83309523Y-68383390D01*
X83309523Y-68383390D02*
X83261904Y-68431009D01*
X83261904Y-68431009D02*
X83166666Y-68478628D01*
X83166666Y-68478628D02*
X82785714Y-68478628D01*
X84309523Y-68954819D02*
X83738095Y-68954819D01*
X84023809Y-68954819D02*
X84023809Y-67954819D01*
X84023809Y-67954819D02*
X83928571Y-68097676D01*
X83928571Y-68097676D02*
X83833333Y-68192914D01*
X83833333Y-68192914D02*
X83738095Y-68240533D01*
X85166666Y-67954819D02*
X84976190Y-67954819D01*
X84976190Y-67954819D02*
X84880952Y-68002438D01*
X84880952Y-68002438D02*
X84833333Y-68050057D01*
X84833333Y-68050057D02*
X84738095Y-68192914D01*
X84738095Y-68192914D02*
X84690476Y-68383390D01*
X84690476Y-68383390D02*
X84690476Y-68764342D01*
X84690476Y-68764342D02*
X84738095Y-68859580D01*
X84738095Y-68859580D02*
X84785714Y-68907200D01*
X84785714Y-68907200D02*
X84880952Y-68954819D01*
X84880952Y-68954819D02*
X85071428Y-68954819D01*
X85071428Y-68954819D02*
X85166666Y-68907200D01*
X85166666Y-68907200D02*
X85214285Y-68859580D01*
X85214285Y-68859580D02*
X85261904Y-68764342D01*
X85261904Y-68764342D02*
X85261904Y-68526247D01*
X85261904Y-68526247D02*
X85214285Y-68431009D01*
X85214285Y-68431009D02*
X85166666Y-68383390D01*
X85166666Y-68383390D02*
X85071428Y-68335771D01*
X85071428Y-68335771D02*
X84880952Y-68335771D01*
X84880952Y-68335771D02*
X84785714Y-68383390D01*
X84785714Y-68383390D02*
X84738095Y-68431009D01*
X84738095Y-68431009D02*
X84690476Y-68526247D01*
X88295834Y-79859580D02*
X88248215Y-79907200D01*
X88248215Y-79907200D02*
X88105358Y-79954819D01*
X88105358Y-79954819D02*
X88010120Y-79954819D01*
X88010120Y-79954819D02*
X87867263Y-79907200D01*
X87867263Y-79907200D02*
X87772025Y-79811961D01*
X87772025Y-79811961D02*
X87724406Y-79716723D01*
X87724406Y-79716723D02*
X87676787Y-79526247D01*
X87676787Y-79526247D02*
X87676787Y-79383390D01*
X87676787Y-79383390D02*
X87724406Y-79192914D01*
X87724406Y-79192914D02*
X87772025Y-79097676D01*
X87772025Y-79097676D02*
X87867263Y-79002438D01*
X87867263Y-79002438D02*
X88010120Y-78954819D01*
X88010120Y-78954819D02*
X88105358Y-78954819D01*
X88105358Y-78954819D02*
X88248215Y-79002438D01*
X88248215Y-79002438D02*
X88295834Y-79050057D01*
X88772025Y-79954819D02*
X88962501Y-79954819D01*
X88962501Y-79954819D02*
X89057739Y-79907200D01*
X89057739Y-79907200D02*
X89105358Y-79859580D01*
X89105358Y-79859580D02*
X89200596Y-79716723D01*
X89200596Y-79716723D02*
X89248215Y-79526247D01*
X89248215Y-79526247D02*
X89248215Y-79145295D01*
X89248215Y-79145295D02*
X89200596Y-79050057D01*
X89200596Y-79050057D02*
X89152977Y-79002438D01*
X89152977Y-79002438D02*
X89057739Y-78954819D01*
X89057739Y-78954819D02*
X88867263Y-78954819D01*
X88867263Y-78954819D02*
X88772025Y-79002438D01*
X88772025Y-79002438D02*
X88724406Y-79050057D01*
X88724406Y-79050057D02*
X88676787Y-79145295D01*
X88676787Y-79145295D02*
X88676787Y-79383390D01*
X88676787Y-79383390D02*
X88724406Y-79478628D01*
X88724406Y-79478628D02*
X88772025Y-79526247D01*
X88772025Y-79526247D02*
X88867263Y-79573866D01*
X88867263Y-79573866D02*
X89057739Y-79573866D01*
X89057739Y-79573866D02*
X89152977Y-79526247D01*
X89152977Y-79526247D02*
X89200596Y-79478628D01*
X89200596Y-79478628D02*
X89248215Y-79383390D01*
X124616677Y-106014818D02*
X124616677Y-106729103D01*
X124616677Y-106729103D02*
X124569058Y-106871960D01*
X124569058Y-106871960D02*
X124473820Y-106967199D01*
X124473820Y-106967199D02*
X124330963Y-107014818D01*
X124330963Y-107014818D02*
X124235725Y-107014818D01*
X125616677Y-107014818D02*
X125045249Y-107014818D01*
X125330963Y-107014818D02*
X125330963Y-106014818D01*
X125330963Y-106014818D02*
X125235725Y-106157675D01*
X125235725Y-106157675D02*
X125140487Y-106252913D01*
X125140487Y-106252913D02*
X125045249Y-106300532D01*
X124616677Y-72604819D02*
X124616677Y-73319104D01*
X124616677Y-73319104D02*
X124569058Y-73461961D01*
X124569058Y-73461961D02*
X124473820Y-73557200D01*
X124473820Y-73557200D02*
X124330963Y-73604819D01*
X124330963Y-73604819D02*
X124235725Y-73604819D01*
X125045249Y-72700057D02*
X125092868Y-72652438D01*
X125092868Y-72652438D02*
X125188106Y-72604819D01*
X125188106Y-72604819D02*
X125426201Y-72604819D01*
X125426201Y-72604819D02*
X125521439Y-72652438D01*
X125521439Y-72652438D02*
X125569058Y-72700057D01*
X125569058Y-72700057D02*
X125616677Y-72795295D01*
X125616677Y-72795295D02*
X125616677Y-72890533D01*
X125616677Y-72890533D02*
X125569058Y-73033390D01*
X125569058Y-73033390D02*
X124997630Y-73604819D01*
X124997630Y-73604819D02*
X125616677Y-73604819D01*
X93011905Y-71704819D02*
X93011905Y-70704819D01*
X93011905Y-70704819D02*
X93250000Y-70704819D01*
X93250000Y-70704819D02*
X93392857Y-70752438D01*
X93392857Y-70752438D02*
X93488095Y-70847676D01*
X93488095Y-70847676D02*
X93535714Y-70942914D01*
X93535714Y-70942914D02*
X93583333Y-71133390D01*
X93583333Y-71133390D02*
X93583333Y-71276247D01*
X93583333Y-71276247D02*
X93535714Y-71466723D01*
X93535714Y-71466723D02*
X93488095Y-71561961D01*
X93488095Y-71561961D02*
X93392857Y-71657200D01*
X93392857Y-71657200D02*
X93250000Y-71704819D01*
X93250000Y-71704819D02*
X93011905Y-71704819D01*
X94535714Y-71704819D02*
X93964286Y-71704819D01*
X94250000Y-71704819D02*
X94250000Y-70704819D01*
X94250000Y-70704819D02*
X94154762Y-70847676D01*
X94154762Y-70847676D02*
X94059524Y-70942914D01*
X94059524Y-70942914D02*
X93964286Y-70990533D01*
X53112666Y-144774818D02*
X53112666Y-145489103D01*
X53112666Y-145489103D02*
X53065047Y-145631960D01*
X53065047Y-145631960D02*
X52969809Y-145727199D01*
X52969809Y-145727199D02*
X52826952Y-145774818D01*
X52826952Y-145774818D02*
X52731714Y-145774818D01*
X54065047Y-144774818D02*
X53588857Y-144774818D01*
X53588857Y-144774818D02*
X53541238Y-145251008D01*
X53541238Y-145251008D02*
X53588857Y-145203389D01*
X53588857Y-145203389D02*
X53684095Y-145155770D01*
X53684095Y-145155770D02*
X53922190Y-145155770D01*
X53922190Y-145155770D02*
X54017428Y-145203389D01*
X54017428Y-145203389D02*
X54065047Y-145251008D01*
X54065047Y-145251008D02*
X54112666Y-145346246D01*
X54112666Y-145346246D02*
X54112666Y-145584341D01*
X54112666Y-145584341D02*
X54065047Y-145679579D01*
X54065047Y-145679579D02*
X54017428Y-145727199D01*
X54017428Y-145727199D02*
X53922190Y-145774818D01*
X53922190Y-145774818D02*
X53684095Y-145774818D01*
X53684095Y-145774818D02*
X53588857Y-145727199D01*
X53588857Y-145727199D02*
X53541238Y-145679579D01*
X88144642Y-118459580D02*
X88097023Y-118507200D01*
X88097023Y-118507200D02*
X87954166Y-118554819D01*
X87954166Y-118554819D02*
X87858928Y-118554819D01*
X87858928Y-118554819D02*
X87716071Y-118507200D01*
X87716071Y-118507200D02*
X87620833Y-118411961D01*
X87620833Y-118411961D02*
X87573214Y-118316723D01*
X87573214Y-118316723D02*
X87525595Y-118126247D01*
X87525595Y-118126247D02*
X87525595Y-117983390D01*
X87525595Y-117983390D02*
X87573214Y-117792914D01*
X87573214Y-117792914D02*
X87620833Y-117697676D01*
X87620833Y-117697676D02*
X87716071Y-117602438D01*
X87716071Y-117602438D02*
X87858928Y-117554819D01*
X87858928Y-117554819D02*
X87954166Y-117554819D01*
X87954166Y-117554819D02*
X88097023Y-117602438D01*
X88097023Y-117602438D02*
X88144642Y-117650057D01*
X88525595Y-117650057D02*
X88573214Y-117602438D01*
X88573214Y-117602438D02*
X88668452Y-117554819D01*
X88668452Y-117554819D02*
X88906547Y-117554819D01*
X88906547Y-117554819D02*
X89001785Y-117602438D01*
X89001785Y-117602438D02*
X89049404Y-117650057D01*
X89049404Y-117650057D02*
X89097023Y-117745295D01*
X89097023Y-117745295D02*
X89097023Y-117840533D01*
X89097023Y-117840533D02*
X89049404Y-117983390D01*
X89049404Y-117983390D02*
X88477976Y-118554819D01*
X88477976Y-118554819D02*
X89097023Y-118554819D01*
X89573214Y-118554819D02*
X89763690Y-118554819D01*
X89763690Y-118554819D02*
X89858928Y-118507200D01*
X89858928Y-118507200D02*
X89906547Y-118459580D01*
X89906547Y-118459580D02*
X90001785Y-118316723D01*
X90001785Y-118316723D02*
X90049404Y-118126247D01*
X90049404Y-118126247D02*
X90049404Y-117745295D01*
X90049404Y-117745295D02*
X90001785Y-117650057D01*
X90001785Y-117650057D02*
X89954166Y-117602438D01*
X89954166Y-117602438D02*
X89858928Y-117554819D01*
X89858928Y-117554819D02*
X89668452Y-117554819D01*
X89668452Y-117554819D02*
X89573214Y-117602438D01*
X89573214Y-117602438D02*
X89525595Y-117650057D01*
X89525595Y-117650057D02*
X89477976Y-117745295D01*
X89477976Y-117745295D02*
X89477976Y-117983390D01*
X89477976Y-117983390D02*
X89525595Y-118078628D01*
X89525595Y-118078628D02*
X89573214Y-118126247D01*
X89573214Y-118126247D02*
X89668452Y-118173866D01*
X89668452Y-118173866D02*
X89858928Y-118173866D01*
X89858928Y-118173866D02*
X89954166Y-118126247D01*
X89954166Y-118126247D02*
X90001785Y-118078628D01*
X90001785Y-118078628D02*
X90049404Y-117983390D01*
X93583333Y-93409580D02*
X93535714Y-93457200D01*
X93535714Y-93457200D02*
X93392857Y-93504819D01*
X93392857Y-93504819D02*
X93297619Y-93504819D01*
X93297619Y-93504819D02*
X93154762Y-93457200D01*
X93154762Y-93457200D02*
X93059524Y-93361961D01*
X93059524Y-93361961D02*
X93011905Y-93266723D01*
X93011905Y-93266723D02*
X92964286Y-93076247D01*
X92964286Y-93076247D02*
X92964286Y-92933390D01*
X92964286Y-92933390D02*
X93011905Y-92742914D01*
X93011905Y-92742914D02*
X93059524Y-92647676D01*
X93059524Y-92647676D02*
X93154762Y-92552438D01*
X93154762Y-92552438D02*
X93297619Y-92504819D01*
X93297619Y-92504819D02*
X93392857Y-92504819D01*
X93392857Y-92504819D02*
X93535714Y-92552438D01*
X93535714Y-92552438D02*
X93583333Y-92600057D01*
X93916667Y-92504819D02*
X94535714Y-92504819D01*
X94535714Y-92504819D02*
X94202381Y-92885771D01*
X94202381Y-92885771D02*
X94345238Y-92885771D01*
X94345238Y-92885771D02*
X94440476Y-92933390D01*
X94440476Y-92933390D02*
X94488095Y-92981009D01*
X94488095Y-92981009D02*
X94535714Y-93076247D01*
X94535714Y-93076247D02*
X94535714Y-93314342D01*
X94535714Y-93314342D02*
X94488095Y-93409580D01*
X94488095Y-93409580D02*
X94440476Y-93457200D01*
X94440476Y-93457200D02*
X94345238Y-93504819D01*
X94345238Y-93504819D02*
X94059524Y-93504819D01*
X94059524Y-93504819D02*
X93964286Y-93457200D01*
X93964286Y-93457200D02*
X93916667Y-93409580D01*
X91532142Y-135109580D02*
X91484523Y-135157200D01*
X91484523Y-135157200D02*
X91341666Y-135204819D01*
X91341666Y-135204819D02*
X91246428Y-135204819D01*
X91246428Y-135204819D02*
X91103571Y-135157200D01*
X91103571Y-135157200D02*
X91008333Y-135061961D01*
X91008333Y-135061961D02*
X90960714Y-134966723D01*
X90960714Y-134966723D02*
X90913095Y-134776247D01*
X90913095Y-134776247D02*
X90913095Y-134633390D01*
X90913095Y-134633390D02*
X90960714Y-134442914D01*
X90960714Y-134442914D02*
X91008333Y-134347676D01*
X91008333Y-134347676D02*
X91103571Y-134252438D01*
X91103571Y-134252438D02*
X91246428Y-134204819D01*
X91246428Y-134204819D02*
X91341666Y-134204819D01*
X91341666Y-134204819D02*
X91484523Y-134252438D01*
X91484523Y-134252438D02*
X91532142Y-134300057D01*
X91865476Y-134204819D02*
X92484523Y-134204819D01*
X92484523Y-134204819D02*
X92151190Y-134585771D01*
X92151190Y-134585771D02*
X92294047Y-134585771D01*
X92294047Y-134585771D02*
X92389285Y-134633390D01*
X92389285Y-134633390D02*
X92436904Y-134681009D01*
X92436904Y-134681009D02*
X92484523Y-134776247D01*
X92484523Y-134776247D02*
X92484523Y-135014342D01*
X92484523Y-135014342D02*
X92436904Y-135109580D01*
X92436904Y-135109580D02*
X92389285Y-135157200D01*
X92389285Y-135157200D02*
X92294047Y-135204819D01*
X92294047Y-135204819D02*
X92008333Y-135204819D01*
X92008333Y-135204819D02*
X91913095Y-135157200D01*
X91913095Y-135157200D02*
X91865476Y-135109580D01*
X92817857Y-134204819D02*
X93484523Y-134204819D01*
X93484523Y-134204819D02*
X93055952Y-135204819D01*
X88144641Y-137109580D02*
X88097022Y-137157200D01*
X88097022Y-137157200D02*
X87954165Y-137204819D01*
X87954165Y-137204819D02*
X87858927Y-137204819D01*
X87858927Y-137204819D02*
X87716070Y-137157200D01*
X87716070Y-137157200D02*
X87620832Y-137061961D01*
X87620832Y-137061961D02*
X87573213Y-136966723D01*
X87573213Y-136966723D02*
X87525594Y-136776247D01*
X87525594Y-136776247D02*
X87525594Y-136633390D01*
X87525594Y-136633390D02*
X87573213Y-136442914D01*
X87573213Y-136442914D02*
X87620832Y-136347676D01*
X87620832Y-136347676D02*
X87716070Y-136252438D01*
X87716070Y-136252438D02*
X87858927Y-136204819D01*
X87858927Y-136204819D02*
X87954165Y-136204819D01*
X87954165Y-136204819D02*
X88097022Y-136252438D01*
X88097022Y-136252438D02*
X88144641Y-136300057D01*
X88477975Y-136204819D02*
X89097022Y-136204819D01*
X89097022Y-136204819D02*
X88763689Y-136585771D01*
X88763689Y-136585771D02*
X88906546Y-136585771D01*
X88906546Y-136585771D02*
X89001784Y-136633390D01*
X89001784Y-136633390D02*
X89049403Y-136681009D01*
X89049403Y-136681009D02*
X89097022Y-136776247D01*
X89097022Y-136776247D02*
X89097022Y-137014342D01*
X89097022Y-137014342D02*
X89049403Y-137109580D01*
X89049403Y-137109580D02*
X89001784Y-137157200D01*
X89001784Y-137157200D02*
X88906546Y-137204819D01*
X88906546Y-137204819D02*
X88620832Y-137204819D01*
X88620832Y-137204819D02*
X88525594Y-137157200D01*
X88525594Y-137157200D02*
X88477975Y-137109580D01*
X90049403Y-137204819D02*
X89477975Y-137204819D01*
X89763689Y-137204819D02*
X89763689Y-136204819D01*
X89763689Y-136204819D02*
X89668451Y-136347676D01*
X89668451Y-136347676D02*
X89573213Y-136442914D01*
X89573213Y-136442914D02*
X89477975Y-136490533D01*
D12*
X49349318Y-77752143D02*
X48079318Y-77752143D01*
X48079318Y-77752143D02*
X48079318Y-77268333D01*
X48079318Y-77268333D02*
X48139794Y-77147381D01*
X48139794Y-77147381D02*
X48200270Y-77086904D01*
X48200270Y-77086904D02*
X48321222Y-77026428D01*
X48321222Y-77026428D02*
X48502651Y-77026428D01*
X48502651Y-77026428D02*
X48623603Y-77086904D01*
X48623603Y-77086904D02*
X48684080Y-77147381D01*
X48684080Y-77147381D02*
X48744556Y-77268333D01*
X48744556Y-77268333D02*
X48744556Y-77752143D01*
X49288842Y-76542619D02*
X49349318Y-76361190D01*
X49349318Y-76361190D02*
X49349318Y-76058809D01*
X49349318Y-76058809D02*
X49288842Y-75937857D01*
X49288842Y-75937857D02*
X49228365Y-75877381D01*
X49228365Y-75877381D02*
X49107413Y-75816904D01*
X49107413Y-75816904D02*
X48986461Y-75816904D01*
X48986461Y-75816904D02*
X48865508Y-75877381D01*
X48865508Y-75877381D02*
X48805032Y-75937857D01*
X48805032Y-75937857D02*
X48744556Y-76058809D01*
X48744556Y-76058809D02*
X48684080Y-76300714D01*
X48684080Y-76300714D02*
X48623603Y-76421666D01*
X48623603Y-76421666D02*
X48563127Y-76482143D01*
X48563127Y-76482143D02*
X48442175Y-76542619D01*
X48442175Y-76542619D02*
X48321222Y-76542619D01*
X48321222Y-76542619D02*
X48200270Y-76482143D01*
X48200270Y-76482143D02*
X48139794Y-76421666D01*
X48139794Y-76421666D02*
X48079318Y-76300714D01*
X48079318Y-76300714D02*
X48079318Y-75998333D01*
X48079318Y-75998333D02*
X48139794Y-75816904D01*
X49349318Y-74607380D02*
X49349318Y-75333095D01*
X49349318Y-74970238D02*
X48079318Y-74970238D01*
X48079318Y-74970238D02*
X48260746Y-75091190D01*
X48260746Y-75091190D02*
X48381699Y-75212142D01*
X48381699Y-75212142D02*
X48442175Y-75333095D01*
D10*
X88457143Y-98359580D02*
X88409524Y-98407200D01*
X88409524Y-98407200D02*
X88266667Y-98454819D01*
X88266667Y-98454819D02*
X88171429Y-98454819D01*
X88171429Y-98454819D02*
X88028572Y-98407200D01*
X88028572Y-98407200D02*
X87933334Y-98311961D01*
X87933334Y-98311961D02*
X87885715Y-98216723D01*
X87885715Y-98216723D02*
X87838096Y-98026247D01*
X87838096Y-98026247D02*
X87838096Y-97883390D01*
X87838096Y-97883390D02*
X87885715Y-97692914D01*
X87885715Y-97692914D02*
X87933334Y-97597676D01*
X87933334Y-97597676D02*
X88028572Y-97502438D01*
X88028572Y-97502438D02*
X88171429Y-97454819D01*
X88171429Y-97454819D02*
X88266667Y-97454819D01*
X88266667Y-97454819D02*
X88409524Y-97502438D01*
X88409524Y-97502438D02*
X88457143Y-97550057D01*
X89409524Y-98454819D02*
X88838096Y-98454819D01*
X89123810Y-98454819D02*
X89123810Y-97454819D01*
X89123810Y-97454819D02*
X89028572Y-97597676D01*
X89028572Y-97597676D02*
X88933334Y-97692914D01*
X88933334Y-97692914D02*
X88838096Y-97740533D01*
X90028572Y-97454819D02*
X90123810Y-97454819D01*
X90123810Y-97454819D02*
X90219048Y-97502438D01*
X90219048Y-97502438D02*
X90266667Y-97550057D01*
X90266667Y-97550057D02*
X90314286Y-97645295D01*
X90314286Y-97645295D02*
X90361905Y-97835771D01*
X90361905Y-97835771D02*
X90361905Y-98073866D01*
X90361905Y-98073866D02*
X90314286Y-98264342D01*
X90314286Y-98264342D02*
X90266667Y-98359580D01*
X90266667Y-98359580D02*
X90219048Y-98407200D01*
X90219048Y-98407200D02*
X90123810Y-98454819D01*
X90123810Y-98454819D02*
X90028572Y-98454819D01*
X90028572Y-98454819D02*
X89933334Y-98407200D01*
X89933334Y-98407200D02*
X89885715Y-98359580D01*
X89885715Y-98359580D02*
X89838096Y-98264342D01*
X89838096Y-98264342D02*
X89790477Y-98073866D01*
X89790477Y-98073866D02*
X89790477Y-97835771D01*
X89790477Y-97835771D02*
X89838096Y-97645295D01*
X89838096Y-97645295D02*
X89885715Y-97550057D01*
X89885715Y-97550057D02*
X89933334Y-97502438D01*
X89933334Y-97502438D02*
X90028572Y-97454819D01*
X77588095Y-127954819D02*
X77588095Y-128764342D01*
X77588095Y-128764342D02*
X77635714Y-128859580D01*
X77635714Y-128859580D02*
X77683333Y-128907200D01*
X77683333Y-128907200D02*
X77778571Y-128954819D01*
X77778571Y-128954819D02*
X77969047Y-128954819D01*
X77969047Y-128954819D02*
X78064285Y-128907200D01*
X78064285Y-128907200D02*
X78111904Y-128859580D01*
X78111904Y-128859580D02*
X78159523Y-128764342D01*
X78159523Y-128764342D02*
X78159523Y-127954819D01*
X78588095Y-128050057D02*
X78635714Y-128002438D01*
X78635714Y-128002438D02*
X78730952Y-127954819D01*
X78730952Y-127954819D02*
X78969047Y-127954819D01*
X78969047Y-127954819D02*
X79064285Y-128002438D01*
X79064285Y-128002438D02*
X79111904Y-128050057D01*
X79111904Y-128050057D02*
X79159523Y-128145295D01*
X79159523Y-128145295D02*
X79159523Y-128240533D01*
X79159523Y-128240533D02*
X79111904Y-128383390D01*
X79111904Y-128383390D02*
X78540476Y-128954819D01*
X78540476Y-128954819D02*
X79159523Y-128954819D01*
X61833333Y-106004819D02*
X61500000Y-105528628D01*
X61261905Y-106004819D02*
X61261905Y-105004819D01*
X61261905Y-105004819D02*
X61642857Y-105004819D01*
X61642857Y-105004819D02*
X61738095Y-105052438D01*
X61738095Y-105052438D02*
X61785714Y-105100057D01*
X61785714Y-105100057D02*
X61833333Y-105195295D01*
X61833333Y-105195295D02*
X61833333Y-105338152D01*
X61833333Y-105338152D02*
X61785714Y-105433390D01*
X61785714Y-105433390D02*
X61738095Y-105481009D01*
X61738095Y-105481009D02*
X61642857Y-105528628D01*
X61642857Y-105528628D02*
X61261905Y-105528628D01*
X62166667Y-105004819D02*
X62833333Y-105004819D01*
X62833333Y-105004819D02*
X62404762Y-106004819D01*
X56107142Y-69709580D02*
X56059523Y-69757200D01*
X56059523Y-69757200D02*
X55916666Y-69804819D01*
X55916666Y-69804819D02*
X55821428Y-69804819D01*
X55821428Y-69804819D02*
X55678571Y-69757200D01*
X55678571Y-69757200D02*
X55583333Y-69661961D01*
X55583333Y-69661961D02*
X55535714Y-69566723D01*
X55535714Y-69566723D02*
X55488095Y-69376247D01*
X55488095Y-69376247D02*
X55488095Y-69233390D01*
X55488095Y-69233390D02*
X55535714Y-69042914D01*
X55535714Y-69042914D02*
X55583333Y-68947676D01*
X55583333Y-68947676D02*
X55678571Y-68852438D01*
X55678571Y-68852438D02*
X55821428Y-68804819D01*
X55821428Y-68804819D02*
X55916666Y-68804819D01*
X55916666Y-68804819D02*
X56059523Y-68852438D01*
X56059523Y-68852438D02*
X56107142Y-68900057D01*
X57059523Y-69804819D02*
X56488095Y-69804819D01*
X56773809Y-69804819D02*
X56773809Y-68804819D01*
X56773809Y-68804819D02*
X56678571Y-68947676D01*
X56678571Y-68947676D02*
X56583333Y-69042914D01*
X56583333Y-69042914D02*
X56488095Y-69090533D01*
X57916666Y-68804819D02*
X57726190Y-68804819D01*
X57726190Y-68804819D02*
X57630952Y-68852438D01*
X57630952Y-68852438D02*
X57583333Y-68900057D01*
X57583333Y-68900057D02*
X57488095Y-69042914D01*
X57488095Y-69042914D02*
X57440476Y-69233390D01*
X57440476Y-69233390D02*
X57440476Y-69614342D01*
X57440476Y-69614342D02*
X57488095Y-69709580D01*
X57488095Y-69709580D02*
X57535714Y-69757200D01*
X57535714Y-69757200D02*
X57630952Y-69804819D01*
X57630952Y-69804819D02*
X57821428Y-69804819D01*
X57821428Y-69804819D02*
X57916666Y-69757200D01*
X57916666Y-69757200D02*
X57964285Y-69709580D01*
X57964285Y-69709580D02*
X58011904Y-69614342D01*
X58011904Y-69614342D02*
X58011904Y-69376247D01*
X58011904Y-69376247D02*
X57964285Y-69281009D01*
X57964285Y-69281009D02*
X57916666Y-69233390D01*
X57916666Y-69233390D02*
X57821428Y-69185771D01*
X57821428Y-69185771D02*
X57630952Y-69185771D01*
X57630952Y-69185771D02*
X57535714Y-69233390D01*
X57535714Y-69233390D02*
X57488095Y-69281009D01*
X57488095Y-69281009D02*
X57440476Y-69376247D01*
X127416666Y-135504819D02*
X127416666Y-136219104D01*
X127416666Y-136219104D02*
X127369047Y-136361961D01*
X127369047Y-136361961D02*
X127273809Y-136457200D01*
X127273809Y-136457200D02*
X127130952Y-136504819D01*
X127130952Y-136504819D02*
X127035714Y-136504819D01*
X127797619Y-135504819D02*
X128416666Y-135504819D01*
X128416666Y-135504819D02*
X128083333Y-135885771D01*
X128083333Y-135885771D02*
X128226190Y-135885771D01*
X128226190Y-135885771D02*
X128321428Y-135933390D01*
X128321428Y-135933390D02*
X128369047Y-135981009D01*
X128369047Y-135981009D02*
X128416666Y-136076247D01*
X128416666Y-136076247D02*
X128416666Y-136314342D01*
X128416666Y-136314342D02*
X128369047Y-136409580D01*
X128369047Y-136409580D02*
X128321428Y-136457200D01*
X128321428Y-136457200D02*
X128226190Y-136504819D01*
X128226190Y-136504819D02*
X127940476Y-136504819D01*
X127940476Y-136504819D02*
X127845238Y-136457200D01*
X127845238Y-136457200D02*
X127797619Y-136409580D01*
X114807142Y-73959580D02*
X114759523Y-74007200D01*
X114759523Y-74007200D02*
X114616666Y-74054819D01*
X114616666Y-74054819D02*
X114521428Y-74054819D01*
X114521428Y-74054819D02*
X114378571Y-74007200D01*
X114378571Y-74007200D02*
X114283333Y-73911961D01*
X114283333Y-73911961D02*
X114235714Y-73816723D01*
X114235714Y-73816723D02*
X114188095Y-73626247D01*
X114188095Y-73626247D02*
X114188095Y-73483390D01*
X114188095Y-73483390D02*
X114235714Y-73292914D01*
X114235714Y-73292914D02*
X114283333Y-73197676D01*
X114283333Y-73197676D02*
X114378571Y-73102438D01*
X114378571Y-73102438D02*
X114521428Y-73054819D01*
X114521428Y-73054819D02*
X114616666Y-73054819D01*
X114616666Y-73054819D02*
X114759523Y-73102438D01*
X114759523Y-73102438D02*
X114807142Y-73150057D01*
X115759523Y-74054819D02*
X115188095Y-74054819D01*
X115473809Y-74054819D02*
X115473809Y-73054819D01*
X115473809Y-73054819D02*
X115378571Y-73197676D01*
X115378571Y-73197676D02*
X115283333Y-73292914D01*
X115283333Y-73292914D02*
X115188095Y-73340533D01*
X116330952Y-73483390D02*
X116235714Y-73435771D01*
X116235714Y-73435771D02*
X116188095Y-73388152D01*
X116188095Y-73388152D02*
X116140476Y-73292914D01*
X116140476Y-73292914D02*
X116140476Y-73245295D01*
X116140476Y-73245295D02*
X116188095Y-73150057D01*
X116188095Y-73150057D02*
X116235714Y-73102438D01*
X116235714Y-73102438D02*
X116330952Y-73054819D01*
X116330952Y-73054819D02*
X116521428Y-73054819D01*
X116521428Y-73054819D02*
X116616666Y-73102438D01*
X116616666Y-73102438D02*
X116664285Y-73150057D01*
X116664285Y-73150057D02*
X116711904Y-73245295D01*
X116711904Y-73245295D02*
X116711904Y-73292914D01*
X116711904Y-73292914D02*
X116664285Y-73388152D01*
X116664285Y-73388152D02*
X116616666Y-73435771D01*
X116616666Y-73435771D02*
X116521428Y-73483390D01*
X116521428Y-73483390D02*
X116330952Y-73483390D01*
X116330952Y-73483390D02*
X116235714Y-73531009D01*
X116235714Y-73531009D02*
X116188095Y-73578628D01*
X116188095Y-73578628D02*
X116140476Y-73673866D01*
X116140476Y-73673866D02*
X116140476Y-73864342D01*
X116140476Y-73864342D02*
X116188095Y-73959580D01*
X116188095Y-73959580D02*
X116235714Y-74007200D01*
X116235714Y-74007200D02*
X116330952Y-74054819D01*
X116330952Y-74054819D02*
X116521428Y-74054819D01*
X116521428Y-74054819D02*
X116616666Y-74007200D01*
X116616666Y-74007200D02*
X116664285Y-73959580D01*
X116664285Y-73959580D02*
X116711904Y-73864342D01*
X116711904Y-73864342D02*
X116711904Y-73673866D01*
X116711904Y-73673866D02*
X116664285Y-73578628D01*
X116664285Y-73578628D02*
X116616666Y-73531009D01*
X116616666Y-73531009D02*
X116521428Y-73483390D01*
X61833333Y-88224819D02*
X61500000Y-87748628D01*
X61261905Y-88224819D02*
X61261905Y-87224819D01*
X61261905Y-87224819D02*
X61642857Y-87224819D01*
X61642857Y-87224819D02*
X61738095Y-87272438D01*
X61738095Y-87272438D02*
X61785714Y-87320057D01*
X61785714Y-87320057D02*
X61833333Y-87415295D01*
X61833333Y-87415295D02*
X61833333Y-87558152D01*
X61833333Y-87558152D02*
X61785714Y-87653390D01*
X61785714Y-87653390D02*
X61738095Y-87701009D01*
X61738095Y-87701009D02*
X61642857Y-87748628D01*
X61642857Y-87748628D02*
X61261905Y-87748628D01*
X62166667Y-87224819D02*
X62785714Y-87224819D01*
X62785714Y-87224819D02*
X62452381Y-87605771D01*
X62452381Y-87605771D02*
X62595238Y-87605771D01*
X62595238Y-87605771D02*
X62690476Y-87653390D01*
X62690476Y-87653390D02*
X62738095Y-87701009D01*
X62738095Y-87701009D02*
X62785714Y-87796247D01*
X62785714Y-87796247D02*
X62785714Y-88034342D01*
X62785714Y-88034342D02*
X62738095Y-88129580D01*
X62738095Y-88129580D02*
X62690476Y-88177200D01*
X62690476Y-88177200D02*
X62595238Y-88224819D01*
X62595238Y-88224819D02*
X62309524Y-88224819D01*
X62309524Y-88224819D02*
X62214286Y-88177200D01*
X62214286Y-88177200D02*
X62166667Y-88129580D01*
X117607142Y-123609580D02*
X117559523Y-123657200D01*
X117559523Y-123657200D02*
X117416666Y-123704819D01*
X117416666Y-123704819D02*
X117321428Y-123704819D01*
X117321428Y-123704819D02*
X117178571Y-123657200D01*
X117178571Y-123657200D02*
X117083333Y-123561961D01*
X117083333Y-123561961D02*
X117035714Y-123466723D01*
X117035714Y-123466723D02*
X116988095Y-123276247D01*
X116988095Y-123276247D02*
X116988095Y-123133390D01*
X116988095Y-123133390D02*
X117035714Y-122942914D01*
X117035714Y-122942914D02*
X117083333Y-122847676D01*
X117083333Y-122847676D02*
X117178571Y-122752438D01*
X117178571Y-122752438D02*
X117321428Y-122704819D01*
X117321428Y-122704819D02*
X117416666Y-122704819D01*
X117416666Y-122704819D02*
X117559523Y-122752438D01*
X117559523Y-122752438D02*
X117607142Y-122800057D01*
X117940476Y-122704819D02*
X118559523Y-122704819D01*
X118559523Y-122704819D02*
X118226190Y-123085771D01*
X118226190Y-123085771D02*
X118369047Y-123085771D01*
X118369047Y-123085771D02*
X118464285Y-123133390D01*
X118464285Y-123133390D02*
X118511904Y-123181009D01*
X118511904Y-123181009D02*
X118559523Y-123276247D01*
X118559523Y-123276247D02*
X118559523Y-123514342D01*
X118559523Y-123514342D02*
X118511904Y-123609580D01*
X118511904Y-123609580D02*
X118464285Y-123657200D01*
X118464285Y-123657200D02*
X118369047Y-123704819D01*
X118369047Y-123704819D02*
X118083333Y-123704819D01*
X118083333Y-123704819D02*
X117988095Y-123657200D01*
X117988095Y-123657200D02*
X117940476Y-123609580D01*
X119130952Y-123133390D02*
X119035714Y-123085771D01*
X119035714Y-123085771D02*
X118988095Y-123038152D01*
X118988095Y-123038152D02*
X118940476Y-122942914D01*
X118940476Y-122942914D02*
X118940476Y-122895295D01*
X118940476Y-122895295D02*
X118988095Y-122800057D01*
X118988095Y-122800057D02*
X119035714Y-122752438D01*
X119035714Y-122752438D02*
X119130952Y-122704819D01*
X119130952Y-122704819D02*
X119321428Y-122704819D01*
X119321428Y-122704819D02*
X119416666Y-122752438D01*
X119416666Y-122752438D02*
X119464285Y-122800057D01*
X119464285Y-122800057D02*
X119511904Y-122895295D01*
X119511904Y-122895295D02*
X119511904Y-122942914D01*
X119511904Y-122942914D02*
X119464285Y-123038152D01*
X119464285Y-123038152D02*
X119416666Y-123085771D01*
X119416666Y-123085771D02*
X119321428Y-123133390D01*
X119321428Y-123133390D02*
X119130952Y-123133390D01*
X119130952Y-123133390D02*
X119035714Y-123181009D01*
X119035714Y-123181009D02*
X118988095Y-123228628D01*
X118988095Y-123228628D02*
X118940476Y-123323866D01*
X118940476Y-123323866D02*
X118940476Y-123514342D01*
X118940476Y-123514342D02*
X118988095Y-123609580D01*
X118988095Y-123609580D02*
X119035714Y-123657200D01*
X119035714Y-123657200D02*
X119130952Y-123704819D01*
X119130952Y-123704819D02*
X119321428Y-123704819D01*
X119321428Y-123704819D02*
X119416666Y-123657200D01*
X119416666Y-123657200D02*
X119464285Y-123609580D01*
X119464285Y-123609580D02*
X119511904Y-123514342D01*
X119511904Y-123514342D02*
X119511904Y-123323866D01*
X119511904Y-123323866D02*
X119464285Y-123228628D01*
X119464285Y-123228628D02*
X119416666Y-123181009D01*
X119416666Y-123181009D02*
X119321428Y-123133390D01*
X83357142Y-148954819D02*
X83023809Y-148478628D01*
X82785714Y-148954819D02*
X82785714Y-147954819D01*
X82785714Y-147954819D02*
X83166666Y-147954819D01*
X83166666Y-147954819D02*
X83261904Y-148002438D01*
X83261904Y-148002438D02*
X83309523Y-148050057D01*
X83309523Y-148050057D02*
X83357142Y-148145295D01*
X83357142Y-148145295D02*
X83357142Y-148288152D01*
X83357142Y-148288152D02*
X83309523Y-148383390D01*
X83309523Y-148383390D02*
X83261904Y-148431009D01*
X83261904Y-148431009D02*
X83166666Y-148478628D01*
X83166666Y-148478628D02*
X82785714Y-148478628D01*
X84309523Y-148954819D02*
X83738095Y-148954819D01*
X84023809Y-148954819D02*
X84023809Y-147954819D01*
X84023809Y-147954819D02*
X83928571Y-148097676D01*
X83928571Y-148097676D02*
X83833333Y-148192914D01*
X83833333Y-148192914D02*
X83738095Y-148240533D01*
X84642857Y-147954819D02*
X85309523Y-147954819D01*
X85309523Y-147954819D02*
X84880952Y-148954819D01*
X98583333Y-107454819D02*
X98107143Y-107454819D01*
X98107143Y-107454819D02*
X98107143Y-106454819D01*
X99345238Y-106788152D02*
X99345238Y-107454819D01*
X99107143Y-106407200D02*
X98869048Y-107121485D01*
X98869048Y-107121485D02*
X99488095Y-107121485D01*
X68391666Y-147465171D02*
X68391666Y-148179456D01*
X68391666Y-148179456D02*
X68344047Y-148322313D01*
X68344047Y-148322313D02*
X68248809Y-148417552D01*
X68248809Y-148417552D02*
X68105952Y-148465171D01*
X68105952Y-148465171D02*
X68010714Y-148465171D01*
X69296428Y-147465171D02*
X69105952Y-147465171D01*
X69105952Y-147465171D02*
X69010714Y-147512790D01*
X69010714Y-147512790D02*
X68963095Y-147560409D01*
X68963095Y-147560409D02*
X68867857Y-147703266D01*
X68867857Y-147703266D02*
X68820238Y-147893742D01*
X68820238Y-147893742D02*
X68820238Y-148274694D01*
X68820238Y-148274694D02*
X68867857Y-148369932D01*
X68867857Y-148369932D02*
X68915476Y-148417552D01*
X68915476Y-148417552D02*
X69010714Y-148465171D01*
X69010714Y-148465171D02*
X69201190Y-148465171D01*
X69201190Y-148465171D02*
X69296428Y-148417552D01*
X69296428Y-148417552D02*
X69344047Y-148369932D01*
X69344047Y-148369932D02*
X69391666Y-148274694D01*
X69391666Y-148274694D02*
X69391666Y-148036599D01*
X69391666Y-148036599D02*
X69344047Y-147941361D01*
X69344047Y-147941361D02*
X69296428Y-147893742D01*
X69296428Y-147893742D02*
X69201190Y-147846123D01*
X69201190Y-147846123D02*
X69010714Y-147846123D01*
X69010714Y-147846123D02*
X68915476Y-147893742D01*
X68915476Y-147893742D02*
X68867857Y-147941361D01*
X68867857Y-147941361D02*
X68820238Y-148036599D01*
X61833333Y-108544819D02*
X61500000Y-108068628D01*
X61261905Y-108544819D02*
X61261905Y-107544819D01*
X61261905Y-107544819D02*
X61642857Y-107544819D01*
X61642857Y-107544819D02*
X61738095Y-107592438D01*
X61738095Y-107592438D02*
X61785714Y-107640057D01*
X61785714Y-107640057D02*
X61833333Y-107735295D01*
X61833333Y-107735295D02*
X61833333Y-107878152D01*
X61833333Y-107878152D02*
X61785714Y-107973390D01*
X61785714Y-107973390D02*
X61738095Y-108021009D01*
X61738095Y-108021009D02*
X61642857Y-108068628D01*
X61642857Y-108068628D02*
X61261905Y-108068628D01*
X62690476Y-107544819D02*
X62500000Y-107544819D01*
X62500000Y-107544819D02*
X62404762Y-107592438D01*
X62404762Y-107592438D02*
X62357143Y-107640057D01*
X62357143Y-107640057D02*
X62261905Y-107782914D01*
X62261905Y-107782914D02*
X62214286Y-107973390D01*
X62214286Y-107973390D02*
X62214286Y-108354342D01*
X62214286Y-108354342D02*
X62261905Y-108449580D01*
X62261905Y-108449580D02*
X62309524Y-108497200D01*
X62309524Y-108497200D02*
X62404762Y-108544819D01*
X62404762Y-108544819D02*
X62595238Y-108544819D01*
X62595238Y-108544819D02*
X62690476Y-108497200D01*
X62690476Y-108497200D02*
X62738095Y-108449580D01*
X62738095Y-108449580D02*
X62785714Y-108354342D01*
X62785714Y-108354342D02*
X62785714Y-108116247D01*
X62785714Y-108116247D02*
X62738095Y-108021009D01*
X62738095Y-108021009D02*
X62690476Y-107973390D01*
X62690476Y-107973390D02*
X62595238Y-107925771D01*
X62595238Y-107925771D02*
X62404762Y-107925771D01*
X62404762Y-107925771D02*
X62309524Y-107973390D01*
X62309524Y-107973390D02*
X62261905Y-108021009D01*
X62261905Y-108021009D02*
X62214286Y-108116247D01*
X98583333Y-78704819D02*
X98107143Y-78704819D01*
X98107143Y-78704819D02*
X98107143Y-77704819D01*
X99440476Y-78704819D02*
X98869048Y-78704819D01*
X99154762Y-78704819D02*
X99154762Y-77704819D01*
X99154762Y-77704819D02*
X99059524Y-77847676D01*
X99059524Y-77847676D02*
X98964286Y-77942914D01*
X98964286Y-77942914D02*
X98869048Y-77990533D01*
X114807142Y-93609580D02*
X114759523Y-93657200D01*
X114759523Y-93657200D02*
X114616666Y-93704819D01*
X114616666Y-93704819D02*
X114521428Y-93704819D01*
X114521428Y-93704819D02*
X114378571Y-93657200D01*
X114378571Y-93657200D02*
X114283333Y-93561961D01*
X114283333Y-93561961D02*
X114235714Y-93466723D01*
X114235714Y-93466723D02*
X114188095Y-93276247D01*
X114188095Y-93276247D02*
X114188095Y-93133390D01*
X114188095Y-93133390D02*
X114235714Y-92942914D01*
X114235714Y-92942914D02*
X114283333Y-92847676D01*
X114283333Y-92847676D02*
X114378571Y-92752438D01*
X114378571Y-92752438D02*
X114521428Y-92704819D01*
X114521428Y-92704819D02*
X114616666Y-92704819D01*
X114616666Y-92704819D02*
X114759523Y-92752438D01*
X114759523Y-92752438D02*
X114807142Y-92800057D01*
X115759523Y-93704819D02*
X115188095Y-93704819D01*
X115473809Y-93704819D02*
X115473809Y-92704819D01*
X115473809Y-92704819D02*
X115378571Y-92847676D01*
X115378571Y-92847676D02*
X115283333Y-92942914D01*
X115283333Y-92942914D02*
X115188095Y-92990533D01*
X116235714Y-93704819D02*
X116426190Y-93704819D01*
X116426190Y-93704819D02*
X116521428Y-93657200D01*
X116521428Y-93657200D02*
X116569047Y-93609580D01*
X116569047Y-93609580D02*
X116664285Y-93466723D01*
X116664285Y-93466723D02*
X116711904Y-93276247D01*
X116711904Y-93276247D02*
X116711904Y-92895295D01*
X116711904Y-92895295D02*
X116664285Y-92800057D01*
X116664285Y-92800057D02*
X116616666Y-92752438D01*
X116616666Y-92752438D02*
X116521428Y-92704819D01*
X116521428Y-92704819D02*
X116330952Y-92704819D01*
X116330952Y-92704819D02*
X116235714Y-92752438D01*
X116235714Y-92752438D02*
X116188095Y-92800057D01*
X116188095Y-92800057D02*
X116140476Y-92895295D01*
X116140476Y-92895295D02*
X116140476Y-93133390D01*
X116140476Y-93133390D02*
X116188095Y-93228628D01*
X116188095Y-93228628D02*
X116235714Y-93276247D01*
X116235714Y-93276247D02*
X116330952Y-93323866D01*
X116330952Y-93323866D02*
X116521428Y-93323866D01*
X116521428Y-93323866D02*
X116616666Y-93276247D01*
X116616666Y-93276247D02*
X116664285Y-93228628D01*
X116664285Y-93228628D02*
X116711904Y-93133390D01*
X98583333Y-98454819D02*
X98107143Y-98454819D01*
X98107143Y-98454819D02*
X98107143Y-97454819D01*
X98821429Y-97454819D02*
X99440476Y-97454819D01*
X99440476Y-97454819D02*
X99107143Y-97835771D01*
X99107143Y-97835771D02*
X99250000Y-97835771D01*
X99250000Y-97835771D02*
X99345238Y-97883390D01*
X99345238Y-97883390D02*
X99392857Y-97931009D01*
X99392857Y-97931009D02*
X99440476Y-98026247D01*
X99440476Y-98026247D02*
X99440476Y-98264342D01*
X99440476Y-98264342D02*
X99392857Y-98359580D01*
X99392857Y-98359580D02*
X99345238Y-98407200D01*
X99345238Y-98407200D02*
X99250000Y-98454819D01*
X99250000Y-98454819D02*
X98964286Y-98454819D01*
X98964286Y-98454819D02*
X98869048Y-98407200D01*
X98869048Y-98407200D02*
X98821429Y-98359580D01*
X104833333Y-141504819D02*
X104357143Y-141504819D01*
X104357143Y-141504819D02*
X104357143Y-140504819D01*
X105071429Y-140504819D02*
X105738095Y-140504819D01*
X105738095Y-140504819D02*
X105309524Y-141504819D01*
X76607142Y-121159580D02*
X76559523Y-121207200D01*
X76559523Y-121207200D02*
X76416666Y-121254819D01*
X76416666Y-121254819D02*
X76321428Y-121254819D01*
X76321428Y-121254819D02*
X76178571Y-121207200D01*
X76178571Y-121207200D02*
X76083333Y-121111961D01*
X76083333Y-121111961D02*
X76035714Y-121016723D01*
X76035714Y-121016723D02*
X75988095Y-120826247D01*
X75988095Y-120826247D02*
X75988095Y-120683390D01*
X75988095Y-120683390D02*
X76035714Y-120492914D01*
X76035714Y-120492914D02*
X76083333Y-120397676D01*
X76083333Y-120397676D02*
X76178571Y-120302438D01*
X76178571Y-120302438D02*
X76321428Y-120254819D01*
X76321428Y-120254819D02*
X76416666Y-120254819D01*
X76416666Y-120254819D02*
X76559523Y-120302438D01*
X76559523Y-120302438D02*
X76607142Y-120350057D01*
X76988095Y-120350057D02*
X77035714Y-120302438D01*
X77035714Y-120302438D02*
X77130952Y-120254819D01*
X77130952Y-120254819D02*
X77369047Y-120254819D01*
X77369047Y-120254819D02*
X77464285Y-120302438D01*
X77464285Y-120302438D02*
X77511904Y-120350057D01*
X77511904Y-120350057D02*
X77559523Y-120445295D01*
X77559523Y-120445295D02*
X77559523Y-120540533D01*
X77559523Y-120540533D02*
X77511904Y-120683390D01*
X77511904Y-120683390D02*
X76940476Y-121254819D01*
X76940476Y-121254819D02*
X77559523Y-121254819D01*
X78416666Y-120588152D02*
X78416666Y-121254819D01*
X78178571Y-120207200D02*
X77940476Y-120921485D01*
X77940476Y-120921485D02*
X78559523Y-120921485D01*
X79583333Y-79609580D02*
X79535714Y-79657200D01*
X79535714Y-79657200D02*
X79392857Y-79704819D01*
X79392857Y-79704819D02*
X79297619Y-79704819D01*
X79297619Y-79704819D02*
X79154762Y-79657200D01*
X79154762Y-79657200D02*
X79059524Y-79561961D01*
X79059524Y-79561961D02*
X79011905Y-79466723D01*
X79011905Y-79466723D02*
X78964286Y-79276247D01*
X78964286Y-79276247D02*
X78964286Y-79133390D01*
X78964286Y-79133390D02*
X79011905Y-78942914D01*
X79011905Y-78942914D02*
X79059524Y-78847676D01*
X79059524Y-78847676D02*
X79154762Y-78752438D01*
X79154762Y-78752438D02*
X79297619Y-78704819D01*
X79297619Y-78704819D02*
X79392857Y-78704819D01*
X79392857Y-78704819D02*
X79535714Y-78752438D01*
X79535714Y-78752438D02*
X79583333Y-78800057D01*
X79916667Y-78704819D02*
X80583333Y-78704819D01*
X80583333Y-78704819D02*
X80154762Y-79704819D01*
X78916666Y-144181009D02*
X78583333Y-144181009D01*
X78583333Y-144704819D02*
X78583333Y-143704819D01*
X78583333Y-143704819D02*
X79059523Y-143704819D01*
X79392857Y-143800057D02*
X79440476Y-143752438D01*
X79440476Y-143752438D02*
X79535714Y-143704819D01*
X79535714Y-143704819D02*
X79773809Y-143704819D01*
X79773809Y-143704819D02*
X79869047Y-143752438D01*
X79869047Y-143752438D02*
X79916666Y-143800057D01*
X79916666Y-143800057D02*
X79964285Y-143895295D01*
X79964285Y-143895295D02*
X79964285Y-143990533D01*
X79964285Y-143990533D02*
X79916666Y-144133390D01*
X79916666Y-144133390D02*
X79345238Y-144704819D01*
X79345238Y-144704819D02*
X79964285Y-144704819D01*
X39857142Y-87704819D02*
X39523809Y-87228628D01*
X39285714Y-87704819D02*
X39285714Y-86704819D01*
X39285714Y-86704819D02*
X39666666Y-86704819D01*
X39666666Y-86704819D02*
X39761904Y-86752438D01*
X39761904Y-86752438D02*
X39809523Y-86800057D01*
X39809523Y-86800057D02*
X39857142Y-86895295D01*
X39857142Y-86895295D02*
X39857142Y-87038152D01*
X39857142Y-87038152D02*
X39809523Y-87133390D01*
X39809523Y-87133390D02*
X39761904Y-87181009D01*
X39761904Y-87181009D02*
X39666666Y-87228628D01*
X39666666Y-87228628D02*
X39285714Y-87228628D01*
X40809523Y-87704819D02*
X40238095Y-87704819D01*
X40523809Y-87704819D02*
X40523809Y-86704819D01*
X40523809Y-86704819D02*
X40428571Y-86847676D01*
X40428571Y-86847676D02*
X40333333Y-86942914D01*
X40333333Y-86942914D02*
X40238095Y-86990533D01*
X41380952Y-87133390D02*
X41285714Y-87085771D01*
X41285714Y-87085771D02*
X41238095Y-87038152D01*
X41238095Y-87038152D02*
X41190476Y-86942914D01*
X41190476Y-86942914D02*
X41190476Y-86895295D01*
X41190476Y-86895295D02*
X41238095Y-86800057D01*
X41238095Y-86800057D02*
X41285714Y-86752438D01*
X41285714Y-86752438D02*
X41380952Y-86704819D01*
X41380952Y-86704819D02*
X41571428Y-86704819D01*
X41571428Y-86704819D02*
X41666666Y-86752438D01*
X41666666Y-86752438D02*
X41714285Y-86800057D01*
X41714285Y-86800057D02*
X41761904Y-86895295D01*
X41761904Y-86895295D02*
X41761904Y-86942914D01*
X41761904Y-86942914D02*
X41714285Y-87038152D01*
X41714285Y-87038152D02*
X41666666Y-87085771D01*
X41666666Y-87085771D02*
X41571428Y-87133390D01*
X41571428Y-87133390D02*
X41380952Y-87133390D01*
X41380952Y-87133390D02*
X41285714Y-87181009D01*
X41285714Y-87181009D02*
X41238095Y-87228628D01*
X41238095Y-87228628D02*
X41190476Y-87323866D01*
X41190476Y-87323866D02*
X41190476Y-87514342D01*
X41190476Y-87514342D02*
X41238095Y-87609580D01*
X41238095Y-87609580D02*
X41285714Y-87657200D01*
X41285714Y-87657200D02*
X41380952Y-87704819D01*
X41380952Y-87704819D02*
X41571428Y-87704819D01*
X41571428Y-87704819D02*
X41666666Y-87657200D01*
X41666666Y-87657200D02*
X41714285Y-87609580D01*
X41714285Y-87609580D02*
X41761904Y-87514342D01*
X41761904Y-87514342D02*
X41761904Y-87323866D01*
X41761904Y-87323866D02*
X41714285Y-87228628D01*
X41714285Y-87228628D02*
X41666666Y-87181009D01*
X41666666Y-87181009D02*
X41571428Y-87133390D01*
X60857142Y-111084819D02*
X60523809Y-110608628D01*
X60285714Y-111084819D02*
X60285714Y-110084819D01*
X60285714Y-110084819D02*
X60666666Y-110084819D01*
X60666666Y-110084819D02*
X60761904Y-110132438D01*
X60761904Y-110132438D02*
X60809523Y-110180057D01*
X60809523Y-110180057D02*
X60857142Y-110275295D01*
X60857142Y-110275295D02*
X60857142Y-110418152D01*
X60857142Y-110418152D02*
X60809523Y-110513390D01*
X60809523Y-110513390D02*
X60761904Y-110561009D01*
X60761904Y-110561009D02*
X60666666Y-110608628D01*
X60666666Y-110608628D02*
X60285714Y-110608628D01*
X61809523Y-111084819D02*
X61238095Y-111084819D01*
X61523809Y-111084819D02*
X61523809Y-110084819D01*
X61523809Y-110084819D02*
X61428571Y-110227676D01*
X61428571Y-110227676D02*
X61333333Y-110322914D01*
X61333333Y-110322914D02*
X61238095Y-110370533D01*
X62428571Y-110084819D02*
X62523809Y-110084819D01*
X62523809Y-110084819D02*
X62619047Y-110132438D01*
X62619047Y-110132438D02*
X62666666Y-110180057D01*
X62666666Y-110180057D02*
X62714285Y-110275295D01*
X62714285Y-110275295D02*
X62761904Y-110465771D01*
X62761904Y-110465771D02*
X62761904Y-110703866D01*
X62761904Y-110703866D02*
X62714285Y-110894342D01*
X62714285Y-110894342D02*
X62666666Y-110989580D01*
X62666666Y-110989580D02*
X62619047Y-111037200D01*
X62619047Y-111037200D02*
X62523809Y-111084819D01*
X62523809Y-111084819D02*
X62428571Y-111084819D01*
X62428571Y-111084819D02*
X62333333Y-111037200D01*
X62333333Y-111037200D02*
X62285714Y-110989580D01*
X62285714Y-110989580D02*
X62238095Y-110894342D01*
X62238095Y-110894342D02*
X62190476Y-110703866D01*
X62190476Y-110703866D02*
X62190476Y-110465771D01*
X62190476Y-110465771D02*
X62238095Y-110275295D01*
X62238095Y-110275295D02*
X62285714Y-110180057D01*
X62285714Y-110180057D02*
X62333333Y-110132438D01*
X62333333Y-110132438D02*
X62428571Y-110084819D01*
D14*
X88746267Y-82840000D02*
X88453733Y-82840000D01*
X88746267Y-83860000D02*
X88453733Y-83860000D01*
X88896267Y-95490000D02*
X88603733Y-95490000D01*
X88896267Y-96510000D02*
X88603733Y-96510000D01*
X91240000Y-132146267D02*
X91240000Y-131853733D01*
X92260000Y-132146267D02*
X92260000Y-131853733D01*
X99800000Y-120100000D02*
X99800000Y-118700000D01*
X99800000Y-127700000D02*
X99800000Y-124900000D01*
X101200000Y-117300000D02*
X99800000Y-118700000D01*
X108800000Y-127700000D02*
X99800000Y-127700000D01*
X108800000Y-127700000D02*
X110200000Y-126300000D01*
X110200000Y-117300000D02*
X101200000Y-117300000D01*
X110200000Y-117300000D02*
X110200000Y-120100000D01*
X110200000Y-124900000D02*
X110200000Y-126300000D01*
X60738748Y-70615000D02*
X61261252Y-70615000D01*
X60738748Y-72085000D02*
X61261252Y-72085000D01*
X91240000Y-125096267D02*
X91240000Y-124803733D01*
X92260000Y-125096267D02*
X92260000Y-124803733D01*
X38900000Y-81500000D02*
X38900000Y-76850000D01*
X42100000Y-76850000D02*
X38900000Y-76850000D01*
X42100000Y-81500000D02*
X42100000Y-76850000D01*
X89146267Y-121690000D02*
X88853733Y-121690000D01*
X89146267Y-122710000D02*
X88853733Y-122710000D01*
X91240000Y-86396267D02*
X91240000Y-86103733D01*
X92260000Y-86396267D02*
X92260000Y-86103733D01*
X81740000Y-121196267D02*
X81740000Y-120903733D01*
X82760000Y-121196267D02*
X82760000Y-120903733D01*
X85316233Y-81315384D02*
X85608767Y-81315384D01*
X85316233Y-82335384D02*
X85608767Y-82335384D01*
X85596267Y-119840000D02*
X85303733Y-119840000D01*
X85596267Y-120860000D02*
X85303733Y-120860000D01*
D15*
X66365000Y-73164658D02*
X66365000Y-80314643D01*
X66365000Y-80314643D02*
X72179906Y-80314643D01*
X68200000Y-82092643D02*
X68835000Y-80568643D01*
X68835000Y-80568643D02*
X69470000Y-82092643D01*
X69470000Y-82092643D02*
X68200000Y-82092643D01*
X72179913Y-73164658D02*
X66365000Y-73164658D01*
X73370094Y-80314643D02*
X75135000Y-80314643D01*
X75135000Y-73164658D02*
X73370087Y-73164658D01*
X75135000Y-80314643D02*
X75135000Y-73164658D01*
D14*
X77515000Y-94977064D02*
X77515000Y-94522936D01*
X78985000Y-94977064D02*
X78985000Y-94522936D01*
X65477064Y-97195000D02*
X65022936Y-97195000D01*
X65477064Y-98665000D02*
X65022936Y-98665000D01*
X81490000Y-82376267D02*
X81490000Y-82083733D01*
X82510000Y-82376267D02*
X82510000Y-82083733D01*
D10*
X79862500Y-87928099D02*
X79862500Y-91373437D01*
X89562500Y-87928099D02*
X89562500Y-91373437D01*
D16*
X89337502Y-85622668D02*
G75*
G02*
X89087500Y-85622668I-125001J0D01*
G01*
X89087500Y-85622668D02*
G75*
G02*
X89337502Y-85622668I125001J0D01*
G01*
D14*
X100350000Y-82950000D02*
X100350000Y-81600000D01*
X100350000Y-85750000D02*
X100350000Y-88150000D01*
X100350000Y-88150000D02*
X107000000Y-88150000D01*
X101500000Y-80550000D02*
X100350000Y-81600000D01*
X108150000Y-80550000D02*
X101500000Y-80550000D01*
X108150000Y-82950000D02*
X108150000Y-80550000D01*
X108150000Y-87100000D02*
X107000000Y-88150000D01*
X108150000Y-87100000D02*
X108150000Y-85750000D01*
D17*
X59750000Y-74750000D02*
X57750000Y-74750000D01*
X59750000Y-81750000D02*
X57750000Y-81750000D01*
D14*
X65477064Y-102275000D02*
X65022936Y-102275000D01*
X65477064Y-103745000D02*
X65022936Y-103745000D01*
X75265000Y-94977064D02*
X75265000Y-94522936D01*
X76735000Y-94977064D02*
X76735000Y-94522936D01*
X92000000Y-146400000D02*
X96650000Y-146400000D01*
X92000000Y-149600000D02*
X96650000Y-149600000D01*
X96650000Y-149600000D02*
X96650000Y-146400000D01*
X81602064Y-75840000D02*
X80397936Y-75840000D01*
X81602064Y-77660000D02*
X80397936Y-77660000D01*
D17*
X44950000Y-83980000D02*
X72890000Y-83980000D01*
X72890000Y-132240000D01*
X44950000Y-132240000D01*
X44950000Y-83980000D01*
D14*
X85511252Y-138265000D02*
X84988748Y-138265000D01*
X85511252Y-139735000D02*
X84988748Y-139735000D01*
X85201249Y-99515000D02*
X85723753Y-99515000D01*
X85201249Y-100985000D02*
X85723753Y-100985000D01*
X87272936Y-67765000D02*
X87727064Y-67765000D01*
X87272936Y-69235000D02*
X87727064Y-69235000D01*
X84951248Y-78765000D02*
X85473752Y-78765000D01*
X84951248Y-80235000D02*
X85473752Y-80235000D01*
D15*
X119597017Y-97175000D02*
X121121017Y-97810000D01*
X119597017Y-98445000D02*
X119597017Y-97175000D01*
X121121017Y-97810000D02*
X119597017Y-98445000D01*
X121375017Y-95340000D02*
X121375017Y-101154906D01*
X121375017Y-102345094D02*
X121375017Y-104110000D01*
X121375017Y-104110000D02*
X128525002Y-104110000D01*
X128525002Y-95340000D02*
X121375017Y-95340000D01*
X128525002Y-101154913D02*
X128525002Y-95340000D01*
X128525002Y-104110000D02*
X128525002Y-102345087D01*
X119597017Y-77575000D02*
X121121017Y-78210000D01*
X119597017Y-78845000D02*
X119597017Y-77575000D01*
X121121017Y-78210000D02*
X119597017Y-78845000D01*
X121375017Y-75740000D02*
X121375017Y-81554906D01*
X121375017Y-82745094D02*
X121375017Y-84510000D01*
X121375017Y-84510000D02*
X128525002Y-84510000D01*
X128525002Y-75740000D02*
X121375017Y-75740000D01*
X128525002Y-81554913D02*
X128525002Y-75740000D01*
X128525002Y-84510000D02*
X128525002Y-82745087D01*
D14*
X91500000Y-66900000D02*
X96150000Y-66900000D01*
X91500000Y-70100000D02*
X96150000Y-70100000D01*
X96150000Y-70100000D02*
X96150000Y-66900000D01*
D18*
X47438008Y-139934999D02*
X48962008Y-140569999D01*
X47438008Y-141204999D02*
X47438008Y-139934999D01*
X48962008Y-140569999D02*
X47438008Y-141204999D01*
X49216008Y-136330000D02*
X49216008Y-142310001D01*
X49216008Y-142310001D02*
X51302269Y-142310001D01*
X53069726Y-142310001D02*
X57655991Y-142310001D01*
X57655991Y-136330000D02*
X49216008Y-136330000D01*
X57655991Y-142310001D02*
X57655991Y-136330000D01*
D14*
X85511252Y-117365000D02*
X84988748Y-117365000D01*
X85511252Y-118835000D02*
X84988748Y-118835000D01*
X91240000Y-92903733D02*
X91240000Y-93196267D01*
X92260000Y-92903733D02*
X92260000Y-93196267D01*
X88853733Y-134240000D02*
X89146267Y-134240000D01*
X88853733Y-135260000D02*
X89146267Y-135260000D01*
X85646267Y-136240000D02*
X85353733Y-136240000D01*
X85646267Y-137260000D02*
X85353733Y-137260000D01*
D17*
X43750000Y-73670000D02*
X43750000Y-73670000D01*
X43850000Y-73670000D02*
X43850000Y-73670000D01*
D11*
X44250000Y-70460000D02*
X44250000Y-81960000D01*
X44250000Y-81960000D02*
X51800000Y-81960000D01*
X51800000Y-70460000D02*
X44250000Y-70460000D01*
X51800000Y-81960000D02*
X51800000Y-70460000D01*
D17*
X43750000Y-73670000D02*
G75*
G02*
X43850000Y-73670000I50000J0D01*
G01*
X43850000Y-73670000D02*
G75*
G02*
X43750000Y-73670000I-50000J0D01*
G01*
D14*
X85566234Y-97490000D02*
X85858768Y-97490000D01*
X85566234Y-98510000D02*
X85858768Y-98510000D01*
D10*
X79862500Y-126739831D02*
X79862500Y-130185169D01*
X89562500Y-126739831D02*
X89562500Y-130185169D01*
D16*
X89337502Y-124434400D02*
G75*
G02*
X89087500Y-124434400I-125001J0D01*
G01*
X89087500Y-124434400D02*
G75*
G02*
X89337502Y-124434400I125001J0D01*
G01*
D14*
X65477064Y-104815000D02*
X65022936Y-104815000D01*
X65477064Y-106285000D02*
X65022936Y-106285000D01*
X57011252Y-70615000D02*
X56488748Y-70615000D01*
X57011252Y-72085000D02*
X56488748Y-72085000D01*
D15*
X122397006Y-126165000D02*
X123921006Y-126800000D01*
X122397006Y-127435000D02*
X122397006Y-126165000D01*
X123921006Y-126800000D02*
X122397006Y-127435000D01*
X124175006Y-124330000D02*
X124175006Y-130144906D01*
X124175006Y-131335094D02*
X124175006Y-133100000D01*
X124175006Y-133100000D02*
X131324991Y-133100000D01*
X131324991Y-124330000D02*
X124175006Y-124330000D01*
X131324991Y-130144913D02*
X131324991Y-124330000D01*
X131324991Y-133100000D02*
X131324991Y-131335087D01*
D14*
X112165000Y-77350000D02*
X112165000Y-82350000D01*
X118735000Y-77350000D02*
X118735000Y-82350000D01*
X65477064Y-87035000D02*
X65022936Y-87035000D01*
X65477064Y-88505000D02*
X65022936Y-88505000D01*
X115640000Y-127334252D02*
X115640000Y-130165748D01*
X120860000Y-127334252D02*
X120860000Y-130165748D01*
X87272936Y-147765000D02*
X87727064Y-147765000D01*
X87272936Y-149235000D02*
X87727064Y-149235000D01*
X100350000Y-102600000D02*
X100350000Y-101250000D01*
X100350000Y-105400000D02*
X100350000Y-107800000D01*
X100350000Y-107800000D02*
X107000000Y-107800000D01*
X101500000Y-100200000D02*
X100350000Y-101250000D01*
X108150000Y-100200000D02*
X101500000Y-100200000D01*
X108150000Y-102600000D02*
X108150000Y-100200000D01*
X108150000Y-106750000D02*
X107000000Y-107800000D01*
X108150000Y-106750000D02*
X108150000Y-105400000D01*
D15*
X64340000Y-138175010D02*
X64340000Y-145324995D01*
X64340000Y-145324995D02*
X70154906Y-145324995D01*
X66175000Y-147102995D02*
X66810000Y-145578995D01*
X66810000Y-145578995D02*
X67445000Y-147102995D01*
X67445000Y-147102995D02*
X66175000Y-147102995D01*
X70154913Y-138175010D02*
X64340000Y-138175010D01*
X71345094Y-145324995D02*
X73110000Y-145324995D01*
X73110000Y-138175010D02*
X71345087Y-138175010D01*
X73110000Y-145324995D02*
X73110000Y-138175010D01*
D14*
X65427064Y-107355000D02*
X64972936Y-107355000D01*
X65427064Y-108825000D02*
X64972936Y-108825000D01*
X100300000Y-73950000D02*
X100300000Y-72600000D01*
X100300000Y-76750000D02*
X100300000Y-79150000D01*
X100300000Y-79150000D02*
X106950000Y-79150000D01*
X101450000Y-71550000D02*
X100300000Y-72600000D01*
X108100000Y-71550000D02*
X101450000Y-71550000D01*
X108100000Y-73950000D02*
X108100000Y-71550000D01*
X108100000Y-78100000D02*
X106950000Y-79150000D01*
X108100000Y-78100000D02*
X108100000Y-76750000D01*
X112165000Y-97000000D02*
X112165000Y-102000000D01*
X118735000Y-97000000D02*
X118735000Y-102000000D01*
X100350000Y-93550000D02*
X100350000Y-92200000D01*
X100350000Y-96350000D02*
X100350000Y-98750000D01*
X100350000Y-98750000D02*
X107000000Y-98750000D01*
X101500000Y-91150000D02*
X100350000Y-92200000D01*
X108150000Y-91150000D02*
X101500000Y-91150000D01*
X108150000Y-93550000D02*
X108150000Y-91150000D01*
X108150000Y-97700000D02*
X107000000Y-98750000D01*
X108150000Y-97700000D02*
X108150000Y-96350000D01*
X99800000Y-132150000D02*
X99800000Y-130750000D01*
X99800000Y-139750000D02*
X99800000Y-136950000D01*
X101200000Y-129350000D02*
X99800000Y-130750000D01*
X108800000Y-139750000D02*
X99800000Y-139750000D01*
X108800000Y-139750000D02*
X110200000Y-138350000D01*
X110200000Y-129350000D02*
X101200000Y-129350000D01*
X110200000Y-129350000D02*
X110200000Y-132150000D01*
X110200000Y-136950000D02*
X110200000Y-138350000D01*
X79265000Y-120538748D02*
X79265000Y-121061252D01*
X80735000Y-120538748D02*
X80735000Y-121061252D01*
X79015000Y-82261252D02*
X79015000Y-81738748D01*
X80485000Y-82261252D02*
X80485000Y-81738748D01*
X79852064Y-140840000D02*
X78647936Y-140840000D01*
X79852064Y-142660000D02*
X78647936Y-142660000D01*
X39765000Y-84477064D02*
X39765000Y-84022936D01*
X41235000Y-84477064D02*
X41235000Y-84022936D01*
X65477064Y-109895000D02*
X65022936Y-109895000D01*
X65477064Y-111365000D02*
X65022936Y-111365000D01*
%LPC*%
D19*
X89462500Y-83350000D03*
X87737500Y-83350000D03*
X89612500Y-96000000D03*
X87887500Y-96000000D03*
D20*
X91750000Y-132862500D03*
X91750000Y-131137500D03*
D21*
X99300000Y-122500000D03*
X110700000Y-122500000D03*
D22*
X59962500Y-71350000D03*
X62037500Y-71350000D03*
D20*
X91750000Y-125812500D03*
X91750000Y-124087500D03*
D23*
X40500000Y-77750000D03*
X40500000Y-80750000D03*
D19*
X89862500Y-122200000D03*
X88137500Y-122200000D03*
D20*
X91750000Y-87112500D03*
X91750000Y-85387500D03*
X82250000Y-121912500D03*
X82250000Y-120187500D03*
D24*
X84600000Y-81825384D03*
X86325000Y-81825384D03*
D25*
X133500000Y-67000000D03*
D26*
X133500000Y-67000000D03*
D19*
X86312500Y-120350000D03*
X84587500Y-120350000D03*
D27*
X72775000Y-73739660D03*
X72775000Y-79739648D03*
D28*
X68835000Y-76739649D03*
D29*
X71834999Y-76739649D03*
D30*
X78250000Y-95750000D03*
X78250000Y-93750000D03*
D31*
X66250000Y-97930000D03*
X64250000Y-97930000D03*
D25*
X41500000Y-147000000D03*
D26*
X41500000Y-147000000D03*
D20*
X82000000Y-83092500D03*
X82000000Y-81367500D03*
D32*
X89212501Y-86875384D03*
X88712500Y-86875384D03*
X88212501Y-86875384D03*
X87712499Y-86875384D03*
X87212500Y-86875384D03*
X86712501Y-86875384D03*
X86212500Y-86875384D03*
X85712501Y-86875384D03*
X85212499Y-86875384D03*
X84712500Y-86875384D03*
X84212501Y-86875384D03*
X83712499Y-86875384D03*
X83212500Y-86875384D03*
X82712499Y-86875384D03*
X82212500Y-86875384D03*
X81712501Y-86875384D03*
X81212499Y-86875384D03*
X80712500Y-86875384D03*
X80212499Y-86875384D03*
X80212499Y-92426152D03*
X80712500Y-92426152D03*
X81212499Y-92426152D03*
X81712501Y-92426152D03*
X82212500Y-92426152D03*
X82712499Y-92426152D03*
X83212500Y-92426152D03*
X83712499Y-92426152D03*
X84212501Y-92426152D03*
X84712500Y-92426152D03*
X85212499Y-92426152D03*
X85712501Y-92426152D03*
X86212500Y-92426152D03*
X86712501Y-92426152D03*
X87212500Y-92426152D03*
X87712499Y-92426152D03*
X88212501Y-92426152D03*
X88712500Y-92426152D03*
X89212501Y-92426152D03*
D33*
X84712500Y-89650768D03*
D34*
X100050000Y-84350000D03*
X108450000Y-84350000D03*
D35*
X61500000Y-78250000D03*
X56000000Y-78250000D03*
D31*
X66250000Y-103010000D03*
X64250000Y-103010000D03*
D30*
X76000000Y-95750000D03*
X76000000Y-93750000D03*
D36*
X95750000Y-148000000D03*
X92750000Y-148000000D03*
D37*
X82400000Y-76750000D03*
X79600000Y-76750000D03*
D25*
X133500000Y-147000000D03*
D26*
X133500000Y-147000000D03*
D38*
X46250000Y-85230000D03*
X46250000Y-87770000D03*
X46250000Y-90310000D03*
X46250000Y-92850000D03*
X46250000Y-95390000D03*
X46250000Y-97930000D03*
X46250000Y-100470000D03*
X46250000Y-103010000D03*
X46250000Y-105550000D03*
X46250000Y-108090000D03*
X46250000Y-110630000D03*
X46250000Y-113170000D03*
X46250000Y-115710000D03*
X46250000Y-118250000D03*
X46250000Y-120790000D03*
X46250000Y-123330000D03*
X46250000Y-125870000D03*
X46250000Y-128410000D03*
X46250000Y-130950000D03*
X71590000Y-85230000D03*
X71590000Y-87770000D03*
X71590000Y-90310000D03*
X71590000Y-92850000D03*
X71590000Y-95390000D03*
X71590000Y-97930000D03*
X71590000Y-100470000D03*
X71590000Y-103010000D03*
X71590000Y-105550000D03*
X71590000Y-108090000D03*
X71590000Y-110630000D03*
X71590000Y-113170000D03*
X71590000Y-115710000D03*
X71590000Y-118250000D03*
X71590000Y-120790000D03*
X71590000Y-123330000D03*
X71590000Y-125870000D03*
X71590000Y-128410000D03*
X71590000Y-130950000D03*
D39*
X86287500Y-139000000D03*
X84212500Y-139000000D03*
D22*
X84425001Y-100250000D03*
X86500001Y-100250000D03*
D40*
X86500000Y-68500000D03*
X88500000Y-68500000D03*
D22*
X84175000Y-79500000D03*
X86250000Y-79500000D03*
D27*
X127950000Y-101750000D03*
X121950012Y-101750000D03*
D28*
X124950011Y-97810000D03*
D29*
X124950011Y-100809999D03*
D27*
X127950000Y-82150000D03*
X121950012Y-82150000D03*
D28*
X124950011Y-78210000D03*
D29*
X124950011Y-81209999D03*
D36*
X95250000Y-68500000D03*
X92250000Y-68500000D03*
D41*
X52185998Y-141909999D03*
D42*
X50936000Y-140569999D03*
X53436000Y-140569999D03*
X55936000Y-140569999D03*
X50936000Y-138069999D03*
X53436000Y-138069999D03*
X55936000Y-138069999D03*
D39*
X86287500Y-118100000D03*
X84212500Y-118100000D03*
D43*
X91750000Y-92187500D03*
X91750000Y-93912500D03*
D24*
X88137500Y-134750000D03*
X89862500Y-134750000D03*
D19*
X86362500Y-136750000D03*
X84637500Y-136750000D03*
D44*
X46250000Y-73670000D03*
D45*
X46250000Y-76210000D03*
X46250000Y-78750000D03*
D24*
X84850001Y-98000000D03*
X86575001Y-98000000D03*
D32*
X89212501Y-125687116D03*
X88712500Y-125687116D03*
X88212501Y-125687116D03*
X87712499Y-125687116D03*
X87212500Y-125687116D03*
X86712501Y-125687116D03*
X86212500Y-125687116D03*
X85712501Y-125687116D03*
X85212499Y-125687116D03*
X84712500Y-125687116D03*
X84212501Y-125687116D03*
X83712499Y-125687116D03*
X83212500Y-125687116D03*
X82712499Y-125687116D03*
X82212500Y-125687116D03*
X81712501Y-125687116D03*
X81212499Y-125687116D03*
X80712500Y-125687116D03*
X80212499Y-125687116D03*
X80212499Y-131237884D03*
X80712500Y-131237884D03*
X81212499Y-131237884D03*
X81712501Y-131237884D03*
X82212500Y-131237884D03*
X82712499Y-131237884D03*
X83212500Y-131237884D03*
X83712499Y-131237884D03*
X84212501Y-131237884D03*
X84712500Y-131237884D03*
X85212499Y-131237884D03*
X85712501Y-131237884D03*
X86212500Y-131237884D03*
X86712501Y-131237884D03*
X87212500Y-131237884D03*
X87712499Y-131237884D03*
X88212501Y-131237884D03*
X88712500Y-131237884D03*
X89212501Y-131237884D03*
D33*
X84712500Y-128462500D03*
D31*
X66250000Y-105550000D03*
X64250000Y-105550000D03*
D39*
X57787500Y-71350000D03*
X55712500Y-71350000D03*
D27*
X130749989Y-130740000D03*
X124750001Y-130740000D03*
D28*
X127750000Y-126800000D03*
D29*
X127750000Y-129799999D03*
D46*
X115450000Y-76250000D03*
X115450000Y-83450000D03*
D25*
X41250000Y-67000000D03*
D26*
X41250000Y-67000000D03*
D31*
X66250000Y-87770000D03*
X64250000Y-87770000D03*
D47*
X118250000Y-126112500D03*
X118250000Y-131387500D03*
D40*
X86500000Y-148500000D03*
X88500000Y-148500000D03*
D34*
X100050000Y-104000000D03*
X108450000Y-104000000D03*
D27*
X70750000Y-138750012D03*
X70750000Y-144750000D03*
D28*
X66810000Y-141750001D03*
D29*
X69809999Y-141750001D03*
D31*
X66200000Y-108090000D03*
X64200000Y-108090000D03*
D34*
X100000000Y-75350000D03*
X108400000Y-75350000D03*
D46*
X115450000Y-95900000D03*
X115450000Y-103100000D03*
D34*
X100050000Y-94950000D03*
X108450000Y-94950000D03*
D21*
X99300000Y-134550000D03*
X110700000Y-134550000D03*
D48*
X80000000Y-119762500D03*
X80000000Y-121837500D03*
D49*
X79750000Y-83037500D03*
X79750000Y-80962500D03*
D37*
X80650000Y-141750000D03*
X77850000Y-141750000D03*
D30*
X40500000Y-85250000D03*
X40500000Y-83250000D03*
D31*
X66250000Y-110630000D03*
X64250000Y-110630000D03*
D50*
X86297349Y-114850000D03*
D51*
X89797349Y-114850000D03*
D50*
X86250000Y-76250000D03*
D51*
X89750000Y-76250000D03*
D50*
X86250000Y-141750000D03*
D51*
X89750000Y-141750000D03*
D50*
X86500000Y-102750000D03*
D51*
X90000000Y-102750000D03*
%LPD*%
M02*
