M48
; DRILL file {KiCad 8.0.7-8.0.7-0~ubuntu22.04.1} date 2025-01-27T17:28:59+0200
; FORMAT={-:-/ absolute / metric / decimal}
; #@! TF.CreationDate,2025-01-27T17:28:59+02:00
; #@! TF.GenerationSoftware,Kicad,Pcbnew,8.0.7-8.0.7-0~ubuntu22.04.1
; #@! TF.FileFunction,Plated,1,2,PTH
FMAT,2
METRIC
; #@! TA.AperFunction,Plated,PTH,ViaDrill
T1C0.300
; #@! TA.AperFunction,Plated,PTH,ComponentDrill
T2C0.800
; #@! TA.AperFunction,Plated,PTH,ComponentDrill
T3C1.000
; #@! TA.AperFunction,Plated,PTH,ComponentDrill
T4C1.020
; #@! TA.AperFunction,Plated,PTH,ComponentDrill
T5C1.110
; #@! TA.AperFunction,Plated,PTH,ComponentDrill
T6C1.200
; #@! TA.AperFunction,Plated,PTH,ComponentDrill
T7C3.200
%
G90
G05
T1
X39.5Y-72.75
X39.5Y-88.75
X39.5Y-92.75
X39.5Y-96.75
X39.5Y-100.75
X39.5Y-104.75
X39.5Y-108.75
X39.5Y-112.75
X39.5Y-116.75
X39.5Y-120.75
X39.5Y-124.75
X39.5Y-128.75
X39.5Y-132.75
X39.5Y-136.75
X39.5Y-140.75
X43.5Y-72.75
X43.5Y-76.75
X43.5Y-80.75
X45.75Y-135.6
X47.5Y-64.75
X47.5Y-68.75
X47.5Y-148.75
X49.9Y-108.09
X50.25Y-120.75
X51.5Y-64.75
X51.5Y-68.75
X51.5Y-80.75
X51.5Y-88.75
X51.5Y-92.75
X51.5Y-96.75
X51.5Y-100.75
X51.5Y-148.75
X52.25Y-110.63
X52.75Y-120.75
X54.75Y-113.17
X55.25Y-120.75
X55.5Y-64.75
X55.5Y-68.75
X55.5Y-88.75
X55.5Y-92.75
X55.5Y-96.75
X55.5Y-100.75
X55.5Y-104.75
X55.5Y-148.75
X57.3Y-115.71
X57.75Y-120.75
X59.5Y-64.75
X59.5Y-68.75
X59.5Y-88.75
X59.5Y-92.75
X59.5Y-96.75
X59.5Y-100.75
X59.5Y-104.75
X59.5Y-148.75
X60.75Y-133.25
X62.75Y-108.0
X63.5Y-64.75
X63.5Y-68.75
X63.5Y-113.75
X63.5Y-116.75
X63.5Y-120.75
X63.5Y-124.75
X63.5Y-148.75
X64.75Y-133.25
X67.5Y-64.75
X67.5Y-68.75
X67.5Y-72.75
X67.5Y-80.75
X67.5Y-92.75
X67.5Y-113.75
X67.5Y-116.75
X67.5Y-120.75
X67.5Y-124.75
X67.5Y-128.75
X67.5Y-148.75
X71.5Y-64.75
X71.5Y-68.75
X71.5Y-148.75
X74.35Y-129.0
X74.425Y-86.225
X75.2Y-123.45
X75.2Y-124.8
X75.25Y-126.1
X75.5Y-64.75
X75.5Y-68.75
X75.5Y-72.75
X75.5Y-80.75
X75.5Y-87.625
X75.5Y-144.75
X75.5Y-148.75
X75.8Y-129.0
X76.0Y-97.25
X77.35Y-99.15
X77.5Y-120.35
X77.5Y-121.75
X79.5Y-64.75
X79.5Y-68.75
X79.5Y-72.75
X79.5Y-104.75
X79.5Y-108.75
X79.5Y-112.75
X79.5Y-116.75
X79.5Y-136.75
X79.5Y-144.75
X79.5Y-148.75
X80.25Y-95.25
X80.46Y-127.26
X80.46Y-128.46
X80.46Y-129.66
X80.47Y-88.44
X80.47Y-89.64
X80.47Y-90.84
X81.66Y-127.26
X81.66Y-128.46
X81.66Y-129.66
X81.67Y-88.44
X81.67Y-89.64
X81.67Y-90.84
X82.86Y-127.26
X82.86Y-128.46
X82.86Y-129.66
X82.87Y-88.44
X82.87Y-89.64
X82.87Y-90.84
X83.35Y-96.95
X83.45Y-135.7
X83.5Y-64.75
X83.5Y-108.75
X83.5Y-148.75
X83.85Y-123.8
X83.9Y-84.95
X84.06Y-127.26
X84.06Y-128.46
X84.06Y-129.66
X84.07Y-88.44
X84.07Y-89.64
X84.07Y-90.84
X85.35Y-127.26
X85.35Y-128.46
X85.35Y-129.66
X85.36Y-88.44
X85.36Y-89.64
X85.36Y-90.84
X86.55Y-127.26
X86.55Y-128.46
X86.55Y-129.66
X86.56Y-88.44
X86.56Y-89.64
X86.56Y-90.84
X87.5Y-64.75
X87.5Y-72.75
X87.5Y-108.75
X87.5Y-144.75
X87.75Y-127.26
X87.75Y-128.46
X87.75Y-129.66
X87.76Y-88.44
X87.76Y-89.64
X87.76Y-90.84
X88.95Y-127.26
X88.95Y-128.46
X88.95Y-129.66
X88.96Y-88.44
X88.96Y-89.64
X88.96Y-90.84
X91.5Y-64.75
X91.5Y-72.75
X91.5Y-108.75
X91.5Y-144.75
X95.5Y-64.75
X95.5Y-80.75
X95.5Y-88.75
X95.5Y-99.5
X95.5Y-108.75
X95.5Y-112.75
X95.5Y-116.75
X95.5Y-128.75
X95.5Y-140.75
X95.5Y-144.75
X99.5Y-64.75
X99.5Y-68.75
X99.5Y-80.75
X99.5Y-88.75
X99.5Y-99.5
X99.5Y-108.75
X99.5Y-112.75
X99.5Y-116.75
X99.5Y-128.75
X99.5Y-140.75
X99.5Y-144.75
X99.5Y-148.75
X103.5Y-64.75
X103.5Y-68.75
X103.5Y-108.75
X103.5Y-112.75
X103.5Y-116.75
X103.5Y-128.75
X103.5Y-140.75
X103.5Y-144.75
X103.5Y-148.75
X104.0Y-101.75
X104.0Y-105.75
X104.25Y-73.25
X104.25Y-77.25
X104.25Y-80.75
X104.25Y-84.75
X104.25Y-88.75
X104.25Y-92.75
X104.25Y-96.75
X104.75Y-120.5
X104.75Y-124.5
X105.0Y-132.25
X105.0Y-136.25
X107.5Y-64.75
X107.5Y-68.75
X107.5Y-80.75
X107.5Y-88.75
X107.5Y-108.75
X107.5Y-112.75
X107.5Y-116.75
X107.5Y-128.75
X107.5Y-140.75
X107.5Y-144.75
X107.5Y-148.75
X111.5Y-64.75
X111.5Y-68.75
X111.5Y-88.75
X111.5Y-108.75
X111.5Y-112.75
X111.5Y-116.75
X111.5Y-128.75
X111.5Y-140.75
X111.5Y-144.75
X111.5Y-148.75
X115.5Y-64.75
X115.5Y-68.75
X115.5Y-88.75
X115.5Y-108.75
X115.5Y-112.75
X115.5Y-116.75
X115.5Y-140.75
X115.5Y-144.75
X115.5Y-148.75
X119.5Y-64.75
X119.5Y-68.75
X119.5Y-88.75
X119.5Y-108.75
X119.5Y-112.75
X119.5Y-116.75
X119.5Y-136.75
X119.5Y-140.75
X119.5Y-144.75
X119.5Y-148.75
X123.5Y-64.75
X123.5Y-68.75
X123.5Y-88.75
X123.5Y-92.75
X123.5Y-108.75
X123.5Y-112.75
X123.5Y-116.75
X123.5Y-136.75
X123.5Y-140.75
X123.5Y-144.75
X123.5Y-148.75
X127.5Y-64.75
X127.5Y-68.75
X127.5Y-72.75
X127.5Y-76.75
X127.5Y-84.75
X127.5Y-88.75
X127.5Y-92.75
X127.5Y-96.75
X127.5Y-108.75
X127.5Y-112.75
X127.5Y-116.75
X127.5Y-120.75
X127.5Y-136.75
X127.5Y-140.75
X127.5Y-144.75
X127.5Y-148.75
X131.5Y-72.75
X131.5Y-76.75
X131.5Y-80.75
X131.5Y-84.75
X131.5Y-88.75
X131.5Y-92.75
X131.5Y-96.75
X131.5Y-100.75
X131.5Y-104.75
X131.5Y-108.75
X131.5Y-112.75
X131.5Y-116.75
X131.5Y-120.75
X131.5Y-136.75
X131.5Y-140.75
X135.5Y-72.75
X135.5Y-76.75
X135.5Y-80.75
X135.5Y-84.75
X135.5Y-88.75
X135.5Y-92.75
X135.5Y-96.75
X135.5Y-100.75
X135.5Y-104.75
X135.5Y-108.75
X135.5Y-112.75
X135.5Y-116.75
X135.5Y-120.75
X135.5Y-124.75
X135.5Y-128.75
X135.5Y-132.75
X135.5Y-136.75
X135.5Y-140.75
T2
X86.25Y-76.25
X86.25Y-141.75
X86.297Y-114.85
X86.5Y-102.75
X89.75Y-76.25
X89.75Y-141.75
X89.797Y-114.85
X90.0Y-102.75
T3
X46.25Y-85.23
X46.25Y-87.77
X46.25Y-90.31
X46.25Y-92.85
X46.25Y-95.39
X46.25Y-97.93
X46.25Y-100.47
X46.25Y-103.01
X46.25Y-105.55
X46.25Y-108.09
X46.25Y-110.63
X46.25Y-113.17
X46.25Y-115.71
X46.25Y-118.25
X46.25Y-120.79
X46.25Y-123.33
X46.25Y-125.87
X46.25Y-128.41
X46.25Y-130.95
X71.59Y-85.23
X71.59Y-87.77
X71.59Y-90.31
X71.59Y-92.85
X71.59Y-95.39
X71.59Y-97.93
X71.59Y-100.47
X71.59Y-103.01
X71.59Y-105.55
X71.59Y-108.09
X71.59Y-110.63
X71.59Y-113.17
X71.59Y-115.71
X71.59Y-118.25
X71.59Y-120.79
X71.59Y-123.33
X71.59Y-125.87
X71.59Y-128.41
X71.59Y-130.95
T4
X66.81Y-141.75
X68.835Y-76.74
X69.81Y-141.75
X71.835Y-76.74
X124.95Y-78.21
X124.95Y-81.21
X124.95Y-97.81
X124.95Y-100.81
X127.75Y-126.8
X127.75Y-129.8
T5
X46.25Y-73.67
X46.25Y-76.21
X46.25Y-78.75
T6
X50.936Y-138.07
X50.936Y-140.57
X53.436Y-138.07
X53.436Y-140.57
X55.936Y-138.07
X55.936Y-140.57
T7
X41.25Y-67.0
X41.5Y-147.0
X133.5Y-67.0
X133.5Y-147.0
M30
