%TF.GenerationSoftware,KiCad,Pcbnew,8.0.7-8.0.7-0~ubuntu22.04.1*%
%TF.CreationDate,2025-01-27T17:29:04+02:00*%
%TF.ProjectId,speaker_amp2,73706561-6b65-4725-9f61-6d70322e6b69,rev?*%
%TF.SameCoordinates,Original*%
%TF.FileFunction,Drillmap*%
%TF.FilePolarity,Positive*%
%FSLAX45Y45*%
G04 Gerber Fmt 4.5, Leading zero omitted, Abs format (unit mm)*
G04 Created by KiCad (PCBNEW 8.0.7-8.0.7-0~ubuntu22.04.1) date 2025-01-27 17:29:04*
%MOMM*%
%LPD*%
G01*
G04 APERTURE LIST*
%ADD10C,0.050000*%
%ADD11C,0.200000*%
%ADD12C,0.102000*%
%ADD13C,0.130000*%
G04 APERTURE END LIST*
D10*
X3750000Y-6300000D02*
X13750000Y-6300000D01*
X13750000Y-15100000D01*
X3750000Y-15100000D01*
X3750000Y-6300000D01*
D11*
D12*
X7024000Y-13824001D02*
X7126000Y-13926001D01*
X7126000Y-13824001D02*
X7024000Y-13926001D01*
X7024000Y-14424000D02*
X7126000Y-14526000D01*
X7126000Y-14424000D02*
X7024000Y-14526000D01*
X7226500Y-7322966D02*
X7328500Y-7424966D01*
X7328500Y-7322966D02*
X7226500Y-7424966D01*
X7226500Y-7922965D02*
X7328500Y-8024965D01*
X7328500Y-7922965D02*
X7226500Y-8024965D01*
X12144001Y-8164000D02*
X12246001Y-8266000D01*
X12246001Y-8164000D02*
X12144001Y-8266000D01*
X12144001Y-10124000D02*
X12246001Y-10226000D01*
X12246001Y-10124000D02*
X12144001Y-10226000D01*
X12424000Y-13023000D02*
X12526000Y-13125000D01*
X12526000Y-13023000D02*
X12424000Y-13125000D01*
X12744000Y-8164000D02*
X12846000Y-8266000D01*
X12846000Y-8164000D02*
X12744000Y-8266000D01*
X12744000Y-10124000D02*
X12846000Y-10226000D01*
X12846000Y-10124000D02*
X12744000Y-10226000D01*
X13023999Y-13023000D02*
X13125999Y-13125000D01*
X13125999Y-13023000D02*
X13023999Y-13125000D01*
D13*
X5283600Y-14191000D02*
G75*
G02*
X5153600Y-14191000I-65000J0D01*
G01*
X5153600Y-14191000D02*
G75*
G02*
X5283600Y-14191000I65000J0D01*
G01*
D11*
X4008277Y-15413984D02*
X4008277Y-15213984D01*
X4008277Y-15213984D02*
X4055896Y-15213984D01*
X4055896Y-15213984D02*
X4084467Y-15223508D01*
X4084467Y-15223508D02*
X4103515Y-15242555D01*
X4103515Y-15242555D02*
X4113039Y-15261603D01*
X4113039Y-15261603D02*
X4122562Y-15299698D01*
X4122562Y-15299698D02*
X4122562Y-15328269D01*
X4122562Y-15328269D02*
X4113039Y-15366365D01*
X4113039Y-15366365D02*
X4103515Y-15385412D01*
X4103515Y-15385412D02*
X4084467Y-15404460D01*
X4084467Y-15404460D02*
X4055896Y-15413984D01*
X4055896Y-15413984D02*
X4008277Y-15413984D01*
X4208277Y-15413984D02*
X4208277Y-15280650D01*
X4208277Y-15318746D02*
X4217801Y-15299698D01*
X4217801Y-15299698D02*
X4227324Y-15290174D01*
X4227324Y-15290174D02*
X4246372Y-15280650D01*
X4246372Y-15280650D02*
X4265420Y-15280650D01*
X4332086Y-15413984D02*
X4332086Y-15280650D01*
X4332086Y-15213984D02*
X4322563Y-15223508D01*
X4322563Y-15223508D02*
X4332086Y-15233031D01*
X4332086Y-15233031D02*
X4341610Y-15223508D01*
X4341610Y-15223508D02*
X4332086Y-15213984D01*
X4332086Y-15213984D02*
X4332086Y-15233031D01*
X4455896Y-15413984D02*
X4436848Y-15404460D01*
X4436848Y-15404460D02*
X4427324Y-15385412D01*
X4427324Y-15385412D02*
X4427324Y-15213984D01*
X4560658Y-15413984D02*
X4541610Y-15404460D01*
X4541610Y-15404460D02*
X4532086Y-15385412D01*
X4532086Y-15385412D02*
X4532086Y-15213984D01*
X4789229Y-15413984D02*
X4789229Y-15213984D01*
X4789229Y-15213984D02*
X4855896Y-15356841D01*
X4855896Y-15356841D02*
X4922563Y-15213984D01*
X4922563Y-15213984D02*
X4922563Y-15413984D01*
X5103515Y-15413984D02*
X5103515Y-15309222D01*
X5103515Y-15309222D02*
X5093991Y-15290174D01*
X5093991Y-15290174D02*
X5074944Y-15280650D01*
X5074944Y-15280650D02*
X5036848Y-15280650D01*
X5036848Y-15280650D02*
X5017801Y-15290174D01*
X5103515Y-15404460D02*
X5084467Y-15413984D01*
X5084467Y-15413984D02*
X5036848Y-15413984D01*
X5036848Y-15413984D02*
X5017801Y-15404460D01*
X5017801Y-15404460D02*
X5008277Y-15385412D01*
X5008277Y-15385412D02*
X5008277Y-15366365D01*
X5008277Y-15366365D02*
X5017801Y-15347317D01*
X5017801Y-15347317D02*
X5036848Y-15337793D01*
X5036848Y-15337793D02*
X5084467Y-15337793D01*
X5084467Y-15337793D02*
X5103515Y-15328269D01*
X5198753Y-15280650D02*
X5198753Y-15480650D01*
X5198753Y-15290174D02*
X5217801Y-15280650D01*
X5217801Y-15280650D02*
X5255896Y-15280650D01*
X5255896Y-15280650D02*
X5274944Y-15290174D01*
X5274944Y-15290174D02*
X5284467Y-15299698D01*
X5284467Y-15299698D02*
X5293991Y-15318746D01*
X5293991Y-15318746D02*
X5293991Y-15375888D01*
X5293991Y-15375888D02*
X5284467Y-15394936D01*
X5284467Y-15394936D02*
X5274944Y-15404460D01*
X5274944Y-15404460D02*
X5255896Y-15413984D01*
X5255896Y-15413984D02*
X5217801Y-15413984D01*
X5217801Y-15413984D02*
X5198753Y-15404460D01*
X5379705Y-15394936D02*
X5389229Y-15404460D01*
X5389229Y-15404460D02*
X5379705Y-15413984D01*
X5379705Y-15413984D02*
X5370182Y-15404460D01*
X5370182Y-15404460D02*
X5379705Y-15394936D01*
X5379705Y-15394936D02*
X5379705Y-15413984D01*
X5379705Y-15290174D02*
X5389229Y-15299698D01*
X5389229Y-15299698D02*
X5379705Y-15309222D01*
X5379705Y-15309222D02*
X5370182Y-15299698D01*
X5370182Y-15299698D02*
X5379705Y-15290174D01*
X5379705Y-15290174D02*
X5379705Y-15309222D01*
D12*
X3645500Y-15691500D02*
X3747500Y-15793500D01*
X3747500Y-15691500D02*
X3645500Y-15793500D01*
D11*
X4113039Y-15833984D02*
X3998753Y-15833984D01*
X4055896Y-15833984D02*
X4055896Y-15633984D01*
X4055896Y-15633984D02*
X4036848Y-15662555D01*
X4036848Y-15662555D02*
X4017801Y-15681603D01*
X4017801Y-15681603D02*
X3998753Y-15691127D01*
X4198753Y-15814936D02*
X4208277Y-15824460D01*
X4208277Y-15824460D02*
X4198753Y-15833984D01*
X4198753Y-15833984D02*
X4189229Y-15824460D01*
X4189229Y-15824460D02*
X4198753Y-15814936D01*
X4198753Y-15814936D02*
X4198753Y-15833984D01*
X4332086Y-15633984D02*
X4351134Y-15633984D01*
X4351134Y-15633984D02*
X4370182Y-15643508D01*
X4370182Y-15643508D02*
X4379705Y-15653031D01*
X4379705Y-15653031D02*
X4389229Y-15672079D01*
X4389229Y-15672079D02*
X4398753Y-15710174D01*
X4398753Y-15710174D02*
X4398753Y-15757793D01*
X4398753Y-15757793D02*
X4389229Y-15795888D01*
X4389229Y-15795888D02*
X4379705Y-15814936D01*
X4379705Y-15814936D02*
X4370182Y-15824460D01*
X4370182Y-15824460D02*
X4351134Y-15833984D01*
X4351134Y-15833984D02*
X4332086Y-15833984D01*
X4332086Y-15833984D02*
X4313039Y-15824460D01*
X4313039Y-15824460D02*
X4303515Y-15814936D01*
X4303515Y-15814936D02*
X4293991Y-15795888D01*
X4293991Y-15795888D02*
X4284467Y-15757793D01*
X4284467Y-15757793D02*
X4284467Y-15710174D01*
X4284467Y-15710174D02*
X4293991Y-15672079D01*
X4293991Y-15672079D02*
X4303515Y-15653031D01*
X4303515Y-15653031D02*
X4313039Y-15643508D01*
X4313039Y-15643508D02*
X4332086Y-15633984D01*
X4474944Y-15653031D02*
X4484467Y-15643508D01*
X4484467Y-15643508D02*
X4503515Y-15633984D01*
X4503515Y-15633984D02*
X4551134Y-15633984D01*
X4551134Y-15633984D02*
X4570182Y-15643508D01*
X4570182Y-15643508D02*
X4579705Y-15653031D01*
X4579705Y-15653031D02*
X4589229Y-15672079D01*
X4589229Y-15672079D02*
X4589229Y-15691127D01*
X4589229Y-15691127D02*
X4579705Y-15719698D01*
X4579705Y-15719698D02*
X4465420Y-15833984D01*
X4465420Y-15833984D02*
X4589229Y-15833984D01*
X4713039Y-15633984D02*
X4732086Y-15633984D01*
X4732086Y-15633984D02*
X4751134Y-15643508D01*
X4751134Y-15643508D02*
X4760658Y-15653031D01*
X4760658Y-15653031D02*
X4770182Y-15672079D01*
X4770182Y-15672079D02*
X4779705Y-15710174D01*
X4779705Y-15710174D02*
X4779705Y-15757793D01*
X4779705Y-15757793D02*
X4770182Y-15795888D01*
X4770182Y-15795888D02*
X4760658Y-15814936D01*
X4760658Y-15814936D02*
X4751134Y-15824460D01*
X4751134Y-15824460D02*
X4732086Y-15833984D01*
X4732086Y-15833984D02*
X4713039Y-15833984D01*
X4713039Y-15833984D02*
X4693991Y-15824460D01*
X4693991Y-15824460D02*
X4684467Y-15814936D01*
X4684467Y-15814936D02*
X4674944Y-15795888D01*
X4674944Y-15795888D02*
X4665420Y-15757793D01*
X4665420Y-15757793D02*
X4665420Y-15710174D01*
X4665420Y-15710174D02*
X4674944Y-15672079D01*
X4674944Y-15672079D02*
X4684467Y-15653031D01*
X4684467Y-15653031D02*
X4693991Y-15643508D01*
X4693991Y-15643508D02*
X4713039Y-15633984D01*
X4865420Y-15833984D02*
X4865420Y-15700650D01*
X4865420Y-15719698D02*
X4874944Y-15710174D01*
X4874944Y-15710174D02*
X4893991Y-15700650D01*
X4893991Y-15700650D02*
X4922563Y-15700650D01*
X4922563Y-15700650D02*
X4941610Y-15710174D01*
X4941610Y-15710174D02*
X4951134Y-15729222D01*
X4951134Y-15729222D02*
X4951134Y-15833984D01*
X4951134Y-15729222D02*
X4960658Y-15710174D01*
X4960658Y-15710174D02*
X4979705Y-15700650D01*
X4979705Y-15700650D02*
X5008277Y-15700650D01*
X5008277Y-15700650D02*
X5027325Y-15710174D01*
X5027325Y-15710174D02*
X5036848Y-15729222D01*
X5036848Y-15729222D02*
X5036848Y-15833984D01*
X5132086Y-15833984D02*
X5132086Y-15700650D01*
X5132086Y-15719698D02*
X5141610Y-15710174D01*
X5141610Y-15710174D02*
X5160658Y-15700650D01*
X5160658Y-15700650D02*
X5189229Y-15700650D01*
X5189229Y-15700650D02*
X5208277Y-15710174D01*
X5208277Y-15710174D02*
X5217801Y-15729222D01*
X5217801Y-15729222D02*
X5217801Y-15833984D01*
X5217801Y-15729222D02*
X5227325Y-15710174D01*
X5227325Y-15710174D02*
X5246372Y-15700650D01*
X5246372Y-15700650D02*
X5274944Y-15700650D01*
X5274944Y-15700650D02*
X5293991Y-15710174D01*
X5293991Y-15710174D02*
X5303515Y-15729222D01*
X5303515Y-15729222D02*
X5303515Y-15833984D01*
X5693991Y-15624460D02*
X5522563Y-15881603D01*
X5951134Y-15633984D02*
X5970182Y-15633984D01*
X5970182Y-15633984D02*
X5989229Y-15643508D01*
X5989229Y-15643508D02*
X5998753Y-15653031D01*
X5998753Y-15653031D02*
X6008277Y-15672079D01*
X6008277Y-15672079D02*
X6017801Y-15710174D01*
X6017801Y-15710174D02*
X6017801Y-15757793D01*
X6017801Y-15757793D02*
X6008277Y-15795888D01*
X6008277Y-15795888D02*
X5998753Y-15814936D01*
X5998753Y-15814936D02*
X5989229Y-15824460D01*
X5989229Y-15824460D02*
X5970182Y-15833984D01*
X5970182Y-15833984D02*
X5951134Y-15833984D01*
X5951134Y-15833984D02*
X5932086Y-15824460D01*
X5932086Y-15824460D02*
X5922563Y-15814936D01*
X5922563Y-15814936D02*
X5913039Y-15795888D01*
X5913039Y-15795888D02*
X5903515Y-15757793D01*
X5903515Y-15757793D02*
X5903515Y-15710174D01*
X5903515Y-15710174D02*
X5913039Y-15672079D01*
X5913039Y-15672079D02*
X5922563Y-15653031D01*
X5922563Y-15653031D02*
X5932086Y-15643508D01*
X5932086Y-15643508D02*
X5951134Y-15633984D01*
X6103515Y-15814936D02*
X6113039Y-15824460D01*
X6113039Y-15824460D02*
X6103515Y-15833984D01*
X6103515Y-15833984D02*
X6093991Y-15824460D01*
X6093991Y-15824460D02*
X6103515Y-15814936D01*
X6103515Y-15814936D02*
X6103515Y-15833984D01*
X6236848Y-15633984D02*
X6255896Y-15633984D01*
X6255896Y-15633984D02*
X6274944Y-15643508D01*
X6274944Y-15643508D02*
X6284467Y-15653031D01*
X6284467Y-15653031D02*
X6293991Y-15672079D01*
X6293991Y-15672079D02*
X6303515Y-15710174D01*
X6303515Y-15710174D02*
X6303515Y-15757793D01*
X6303515Y-15757793D02*
X6293991Y-15795888D01*
X6293991Y-15795888D02*
X6284467Y-15814936D01*
X6284467Y-15814936D02*
X6274944Y-15824460D01*
X6274944Y-15824460D02*
X6255896Y-15833984D01*
X6255896Y-15833984D02*
X6236848Y-15833984D01*
X6236848Y-15833984D02*
X6217801Y-15824460D01*
X6217801Y-15824460D02*
X6208277Y-15814936D01*
X6208277Y-15814936D02*
X6198753Y-15795888D01*
X6198753Y-15795888D02*
X6189229Y-15757793D01*
X6189229Y-15757793D02*
X6189229Y-15710174D01*
X6189229Y-15710174D02*
X6198753Y-15672079D01*
X6198753Y-15672079D02*
X6208277Y-15653031D01*
X6208277Y-15653031D02*
X6217801Y-15643508D01*
X6217801Y-15643508D02*
X6236848Y-15633984D01*
X6474944Y-15700650D02*
X6474944Y-15833984D01*
X6427325Y-15624460D02*
X6379706Y-15767317D01*
X6379706Y-15767317D02*
X6503515Y-15767317D01*
X6617801Y-15633984D02*
X6636848Y-15633984D01*
X6636848Y-15633984D02*
X6655896Y-15643508D01*
X6655896Y-15643508D02*
X6665420Y-15653031D01*
X6665420Y-15653031D02*
X6674944Y-15672079D01*
X6674944Y-15672079D02*
X6684467Y-15710174D01*
X6684467Y-15710174D02*
X6684467Y-15757793D01*
X6684467Y-15757793D02*
X6674944Y-15795888D01*
X6674944Y-15795888D02*
X6665420Y-15814936D01*
X6665420Y-15814936D02*
X6655896Y-15824460D01*
X6655896Y-15824460D02*
X6636848Y-15833984D01*
X6636848Y-15833984D02*
X6617801Y-15833984D01*
X6617801Y-15833984D02*
X6598753Y-15824460D01*
X6598753Y-15824460D02*
X6589229Y-15814936D01*
X6589229Y-15814936D02*
X6579706Y-15795888D01*
X6579706Y-15795888D02*
X6570182Y-15757793D01*
X6570182Y-15757793D02*
X6570182Y-15710174D01*
X6570182Y-15710174D02*
X6579706Y-15672079D01*
X6579706Y-15672079D02*
X6589229Y-15653031D01*
X6589229Y-15653031D02*
X6598753Y-15643508D01*
X6598753Y-15643508D02*
X6617801Y-15633984D01*
X6760658Y-15653031D02*
X6770182Y-15643508D01*
X6770182Y-15643508D02*
X6789229Y-15633984D01*
X6789229Y-15633984D02*
X6836848Y-15633984D01*
X6836848Y-15633984D02*
X6855896Y-15643508D01*
X6855896Y-15643508D02*
X6865420Y-15653031D01*
X6865420Y-15653031D02*
X6874944Y-15672079D01*
X6874944Y-15672079D02*
X6874944Y-15691127D01*
X6874944Y-15691127D02*
X6865420Y-15719698D01*
X6865420Y-15719698D02*
X6751134Y-15833984D01*
X6751134Y-15833984D02*
X6874944Y-15833984D01*
X6951134Y-15633984D02*
X6951134Y-15672079D01*
X7027325Y-15633984D02*
X7027325Y-15672079D01*
X7322563Y-15910174D02*
X7313039Y-15900650D01*
X7313039Y-15900650D02*
X7293991Y-15872079D01*
X7293991Y-15872079D02*
X7284468Y-15853031D01*
X7284468Y-15853031D02*
X7274944Y-15824460D01*
X7274944Y-15824460D02*
X7265420Y-15776841D01*
X7265420Y-15776841D02*
X7265420Y-15738746D01*
X7265420Y-15738746D02*
X7274944Y-15691127D01*
X7274944Y-15691127D02*
X7284468Y-15662555D01*
X7284468Y-15662555D02*
X7293991Y-15643508D01*
X7293991Y-15643508D02*
X7313039Y-15614936D01*
X7313039Y-15614936D02*
X7322563Y-15605412D01*
X7503515Y-15833984D02*
X7389229Y-15833984D01*
X7446372Y-15833984D02*
X7446372Y-15633984D01*
X7446372Y-15633984D02*
X7427325Y-15662555D01*
X7427325Y-15662555D02*
X7408277Y-15681603D01*
X7408277Y-15681603D02*
X7389229Y-15691127D01*
X7627325Y-15633984D02*
X7646372Y-15633984D01*
X7646372Y-15633984D02*
X7665420Y-15643508D01*
X7665420Y-15643508D02*
X7674944Y-15653031D01*
X7674944Y-15653031D02*
X7684468Y-15672079D01*
X7684468Y-15672079D02*
X7693991Y-15710174D01*
X7693991Y-15710174D02*
X7693991Y-15757793D01*
X7693991Y-15757793D02*
X7684468Y-15795888D01*
X7684468Y-15795888D02*
X7674944Y-15814936D01*
X7674944Y-15814936D02*
X7665420Y-15824460D01*
X7665420Y-15824460D02*
X7646372Y-15833984D01*
X7646372Y-15833984D02*
X7627325Y-15833984D01*
X7627325Y-15833984D02*
X7608277Y-15824460D01*
X7608277Y-15824460D02*
X7598753Y-15814936D01*
X7598753Y-15814936D02*
X7589229Y-15795888D01*
X7589229Y-15795888D02*
X7579706Y-15757793D01*
X7579706Y-15757793D02*
X7579706Y-15710174D01*
X7579706Y-15710174D02*
X7589229Y-15672079D01*
X7589229Y-15672079D02*
X7598753Y-15653031D01*
X7598753Y-15653031D02*
X7608277Y-15643508D01*
X7608277Y-15643508D02*
X7627325Y-15633984D01*
X7932087Y-15833984D02*
X7932087Y-15633984D01*
X8017801Y-15833984D02*
X8017801Y-15729222D01*
X8017801Y-15729222D02*
X8008277Y-15710174D01*
X8008277Y-15710174D02*
X7989230Y-15700650D01*
X7989230Y-15700650D02*
X7960658Y-15700650D01*
X7960658Y-15700650D02*
X7941610Y-15710174D01*
X7941610Y-15710174D02*
X7932087Y-15719698D01*
X8141610Y-15833984D02*
X8122563Y-15824460D01*
X8122563Y-15824460D02*
X8113039Y-15814936D01*
X8113039Y-15814936D02*
X8103515Y-15795888D01*
X8103515Y-15795888D02*
X8103515Y-15738746D01*
X8103515Y-15738746D02*
X8113039Y-15719698D01*
X8113039Y-15719698D02*
X8122563Y-15710174D01*
X8122563Y-15710174D02*
X8141610Y-15700650D01*
X8141610Y-15700650D02*
X8170182Y-15700650D01*
X8170182Y-15700650D02*
X8189230Y-15710174D01*
X8189230Y-15710174D02*
X8198753Y-15719698D01*
X8198753Y-15719698D02*
X8208277Y-15738746D01*
X8208277Y-15738746D02*
X8208277Y-15795888D01*
X8208277Y-15795888D02*
X8198753Y-15814936D01*
X8198753Y-15814936D02*
X8189230Y-15824460D01*
X8189230Y-15824460D02*
X8170182Y-15833984D01*
X8170182Y-15833984D02*
X8141610Y-15833984D01*
X8322563Y-15833984D02*
X8303515Y-15824460D01*
X8303515Y-15824460D02*
X8293991Y-15805412D01*
X8293991Y-15805412D02*
X8293991Y-15633984D01*
X8474944Y-15824460D02*
X8455896Y-15833984D01*
X8455896Y-15833984D02*
X8417801Y-15833984D01*
X8417801Y-15833984D02*
X8398753Y-15824460D01*
X8398753Y-15824460D02*
X8389230Y-15805412D01*
X8389230Y-15805412D02*
X8389230Y-15729222D01*
X8389230Y-15729222D02*
X8398753Y-15710174D01*
X8398753Y-15710174D02*
X8417801Y-15700650D01*
X8417801Y-15700650D02*
X8455896Y-15700650D01*
X8455896Y-15700650D02*
X8474944Y-15710174D01*
X8474944Y-15710174D02*
X8484468Y-15729222D01*
X8484468Y-15729222D02*
X8484468Y-15748269D01*
X8484468Y-15748269D02*
X8389230Y-15767317D01*
X8560658Y-15824460D02*
X8579706Y-15833984D01*
X8579706Y-15833984D02*
X8617801Y-15833984D01*
X8617801Y-15833984D02*
X8636849Y-15824460D01*
X8636849Y-15824460D02*
X8646373Y-15805412D01*
X8646373Y-15805412D02*
X8646373Y-15795888D01*
X8646373Y-15795888D02*
X8636849Y-15776841D01*
X8636849Y-15776841D02*
X8617801Y-15767317D01*
X8617801Y-15767317D02*
X8589230Y-15767317D01*
X8589230Y-15767317D02*
X8570182Y-15757793D01*
X8570182Y-15757793D02*
X8560658Y-15738746D01*
X8560658Y-15738746D02*
X8560658Y-15729222D01*
X8560658Y-15729222D02*
X8570182Y-15710174D01*
X8570182Y-15710174D02*
X8589230Y-15700650D01*
X8589230Y-15700650D02*
X8617801Y-15700650D01*
X8617801Y-15700650D02*
X8636849Y-15710174D01*
X8713039Y-15910174D02*
X8722563Y-15900650D01*
X8722563Y-15900650D02*
X8741611Y-15872079D01*
X8741611Y-15872079D02*
X8751134Y-15853031D01*
X8751134Y-15853031D02*
X8760658Y-15824460D01*
X8760658Y-15824460D02*
X8770182Y-15776841D01*
X8770182Y-15776841D02*
X8770182Y-15738746D01*
X8770182Y-15738746D02*
X8760658Y-15691127D01*
X8760658Y-15691127D02*
X8751134Y-15662555D01*
X8751134Y-15662555D02*
X8741611Y-15643508D01*
X8741611Y-15643508D02*
X8722563Y-15614936D01*
X8722563Y-15614936D02*
X8713039Y-15605412D01*
X9074944Y-15910174D02*
X9065420Y-15900650D01*
X9065420Y-15900650D02*
X9046373Y-15872079D01*
X9046373Y-15872079D02*
X9036849Y-15853031D01*
X9036849Y-15853031D02*
X9027325Y-15824460D01*
X9027325Y-15824460D02*
X9017801Y-15776841D01*
X9017801Y-15776841D02*
X9017801Y-15738746D01*
X9017801Y-15738746D02*
X9027325Y-15691127D01*
X9027325Y-15691127D02*
X9036849Y-15662555D01*
X9036849Y-15662555D02*
X9046373Y-15643508D01*
X9046373Y-15643508D02*
X9065420Y-15614936D01*
X9065420Y-15614936D02*
X9074944Y-15605412D01*
X9151134Y-15700650D02*
X9151134Y-15833984D01*
X9151134Y-15719698D02*
X9160658Y-15710174D01*
X9160658Y-15710174D02*
X9179706Y-15700650D01*
X9179706Y-15700650D02*
X9208277Y-15700650D01*
X9208277Y-15700650D02*
X9227325Y-15710174D01*
X9227325Y-15710174D02*
X9236849Y-15729222D01*
X9236849Y-15729222D02*
X9236849Y-15833984D01*
X9360658Y-15833984D02*
X9341611Y-15824460D01*
X9341611Y-15824460D02*
X9332087Y-15814936D01*
X9332087Y-15814936D02*
X9322563Y-15795888D01*
X9322563Y-15795888D02*
X9322563Y-15738746D01*
X9322563Y-15738746D02*
X9332087Y-15719698D01*
X9332087Y-15719698D02*
X9341611Y-15710174D01*
X9341611Y-15710174D02*
X9360658Y-15700650D01*
X9360658Y-15700650D02*
X9389230Y-15700650D01*
X9389230Y-15700650D02*
X9408277Y-15710174D01*
X9408277Y-15710174D02*
X9417801Y-15719698D01*
X9417801Y-15719698D02*
X9427325Y-15738746D01*
X9427325Y-15738746D02*
X9427325Y-15795888D01*
X9427325Y-15795888D02*
X9417801Y-15814936D01*
X9417801Y-15814936D02*
X9408277Y-15824460D01*
X9408277Y-15824460D02*
X9389230Y-15833984D01*
X9389230Y-15833984D02*
X9360658Y-15833984D01*
X9484468Y-15700650D02*
X9560658Y-15700650D01*
X9513039Y-15633984D02*
X9513039Y-15805412D01*
X9513039Y-15805412D02*
X9522563Y-15824460D01*
X9522563Y-15824460D02*
X9541611Y-15833984D01*
X9541611Y-15833984D02*
X9560658Y-15833984D01*
X9779706Y-15700650D02*
X9779706Y-15900650D01*
X9779706Y-15710174D02*
X9798754Y-15700650D01*
X9798754Y-15700650D02*
X9836849Y-15700650D01*
X9836849Y-15700650D02*
X9855896Y-15710174D01*
X9855896Y-15710174D02*
X9865420Y-15719698D01*
X9865420Y-15719698D02*
X9874944Y-15738746D01*
X9874944Y-15738746D02*
X9874944Y-15795888D01*
X9874944Y-15795888D02*
X9865420Y-15814936D01*
X9865420Y-15814936D02*
X9855896Y-15824460D01*
X9855896Y-15824460D02*
X9836849Y-15833984D01*
X9836849Y-15833984D02*
X9798754Y-15833984D01*
X9798754Y-15833984D02*
X9779706Y-15824460D01*
X9989230Y-15833984D02*
X9970182Y-15824460D01*
X9970182Y-15824460D02*
X9960658Y-15805412D01*
X9960658Y-15805412D02*
X9960658Y-15633984D01*
X10151135Y-15833984D02*
X10151135Y-15729222D01*
X10151135Y-15729222D02*
X10141611Y-15710174D01*
X10141611Y-15710174D02*
X10122563Y-15700650D01*
X10122563Y-15700650D02*
X10084468Y-15700650D01*
X10084468Y-15700650D02*
X10065420Y-15710174D01*
X10151135Y-15824460D02*
X10132087Y-15833984D01*
X10132087Y-15833984D02*
X10084468Y-15833984D01*
X10084468Y-15833984D02*
X10065420Y-15824460D01*
X10065420Y-15824460D02*
X10055896Y-15805412D01*
X10055896Y-15805412D02*
X10055896Y-15786365D01*
X10055896Y-15786365D02*
X10065420Y-15767317D01*
X10065420Y-15767317D02*
X10084468Y-15757793D01*
X10084468Y-15757793D02*
X10132087Y-15757793D01*
X10132087Y-15757793D02*
X10151135Y-15748269D01*
X10217801Y-15700650D02*
X10293992Y-15700650D01*
X10246373Y-15633984D02*
X10246373Y-15805412D01*
X10246373Y-15805412D02*
X10255896Y-15824460D01*
X10255896Y-15824460D02*
X10274944Y-15833984D01*
X10274944Y-15833984D02*
X10293992Y-15833984D01*
X10436849Y-15824460D02*
X10417801Y-15833984D01*
X10417801Y-15833984D02*
X10379706Y-15833984D01*
X10379706Y-15833984D02*
X10360658Y-15824460D01*
X10360658Y-15824460D02*
X10351135Y-15805412D01*
X10351135Y-15805412D02*
X10351135Y-15729222D01*
X10351135Y-15729222D02*
X10360658Y-15710174D01*
X10360658Y-15710174D02*
X10379706Y-15700650D01*
X10379706Y-15700650D02*
X10417801Y-15700650D01*
X10417801Y-15700650D02*
X10436849Y-15710174D01*
X10436849Y-15710174D02*
X10446373Y-15729222D01*
X10446373Y-15729222D02*
X10446373Y-15748269D01*
X10446373Y-15748269D02*
X10351135Y-15767317D01*
X10617801Y-15833984D02*
X10617801Y-15633984D01*
X10617801Y-15824460D02*
X10598754Y-15833984D01*
X10598754Y-15833984D02*
X10560658Y-15833984D01*
X10560658Y-15833984D02*
X10541611Y-15824460D01*
X10541611Y-15824460D02*
X10532087Y-15814936D01*
X10532087Y-15814936D02*
X10522563Y-15795888D01*
X10522563Y-15795888D02*
X10522563Y-15738746D01*
X10522563Y-15738746D02*
X10532087Y-15719698D01*
X10532087Y-15719698D02*
X10541611Y-15710174D01*
X10541611Y-15710174D02*
X10560658Y-15700650D01*
X10560658Y-15700650D02*
X10598754Y-15700650D01*
X10598754Y-15700650D02*
X10617801Y-15710174D01*
X10693992Y-15910174D02*
X10703516Y-15900650D01*
X10703516Y-15900650D02*
X10722563Y-15872079D01*
X10722563Y-15872079D02*
X10732087Y-15853031D01*
X10732087Y-15853031D02*
X10741611Y-15824460D01*
X10741611Y-15824460D02*
X10751135Y-15776841D01*
X10751135Y-15776841D02*
X10751135Y-15738746D01*
X10751135Y-15738746D02*
X10741611Y-15691127D01*
X10741611Y-15691127D02*
X10732087Y-15662555D01*
X10732087Y-15662555D02*
X10722563Y-15643508D01*
X10722563Y-15643508D02*
X10703516Y-15614936D01*
X10703516Y-15614936D02*
X10693992Y-15605412D01*
D13*
X3747500Y-16006500D02*
G75*
G02*
X3617500Y-16006500I-65000J0D01*
G01*
X3617500Y-16006500D02*
G75*
G02*
X3747500Y-16006500I65000J0D01*
G01*
D11*
X4113039Y-16097984D02*
X3998753Y-16097984D01*
X4055896Y-16097984D02*
X4055896Y-15897984D01*
X4055896Y-15897984D02*
X4036848Y-15926555D01*
X4036848Y-15926555D02*
X4017801Y-15945603D01*
X4017801Y-15945603D02*
X3998753Y-15955127D01*
X4198753Y-16078936D02*
X4208277Y-16088460D01*
X4208277Y-16088460D02*
X4198753Y-16097984D01*
X4198753Y-16097984D02*
X4189229Y-16088460D01*
X4189229Y-16088460D02*
X4198753Y-16078936D01*
X4198753Y-16078936D02*
X4198753Y-16097984D01*
X4274944Y-15897984D02*
X4398753Y-15897984D01*
X4398753Y-15897984D02*
X4332086Y-15974174D01*
X4332086Y-15974174D02*
X4360658Y-15974174D01*
X4360658Y-15974174D02*
X4379705Y-15983698D01*
X4379705Y-15983698D02*
X4389229Y-15993222D01*
X4389229Y-15993222D02*
X4398753Y-16012269D01*
X4398753Y-16012269D02*
X4398753Y-16059888D01*
X4398753Y-16059888D02*
X4389229Y-16078936D01*
X4389229Y-16078936D02*
X4379705Y-16088460D01*
X4379705Y-16088460D02*
X4360658Y-16097984D01*
X4360658Y-16097984D02*
X4303515Y-16097984D01*
X4303515Y-16097984D02*
X4284467Y-16088460D01*
X4284467Y-16088460D02*
X4274944Y-16078936D01*
X4522563Y-15897984D02*
X4541610Y-15897984D01*
X4541610Y-15897984D02*
X4560658Y-15907508D01*
X4560658Y-15907508D02*
X4570182Y-15917031D01*
X4570182Y-15917031D02*
X4579705Y-15936079D01*
X4579705Y-15936079D02*
X4589229Y-15974174D01*
X4589229Y-15974174D02*
X4589229Y-16021793D01*
X4589229Y-16021793D02*
X4579705Y-16059888D01*
X4579705Y-16059888D02*
X4570182Y-16078936D01*
X4570182Y-16078936D02*
X4560658Y-16088460D01*
X4560658Y-16088460D02*
X4541610Y-16097984D01*
X4541610Y-16097984D02*
X4522563Y-16097984D01*
X4522563Y-16097984D02*
X4503515Y-16088460D01*
X4503515Y-16088460D02*
X4493991Y-16078936D01*
X4493991Y-16078936D02*
X4484467Y-16059888D01*
X4484467Y-16059888D02*
X4474944Y-16021793D01*
X4474944Y-16021793D02*
X4474944Y-15974174D01*
X4474944Y-15974174D02*
X4484467Y-15936079D01*
X4484467Y-15936079D02*
X4493991Y-15917031D01*
X4493991Y-15917031D02*
X4503515Y-15907508D01*
X4503515Y-15907508D02*
X4522563Y-15897984D01*
X4713039Y-15897984D02*
X4732086Y-15897984D01*
X4732086Y-15897984D02*
X4751134Y-15907508D01*
X4751134Y-15907508D02*
X4760658Y-15917031D01*
X4760658Y-15917031D02*
X4770182Y-15936079D01*
X4770182Y-15936079D02*
X4779705Y-15974174D01*
X4779705Y-15974174D02*
X4779705Y-16021793D01*
X4779705Y-16021793D02*
X4770182Y-16059888D01*
X4770182Y-16059888D02*
X4760658Y-16078936D01*
X4760658Y-16078936D02*
X4751134Y-16088460D01*
X4751134Y-16088460D02*
X4732086Y-16097984D01*
X4732086Y-16097984D02*
X4713039Y-16097984D01*
X4713039Y-16097984D02*
X4693991Y-16088460D01*
X4693991Y-16088460D02*
X4684467Y-16078936D01*
X4684467Y-16078936D02*
X4674944Y-16059888D01*
X4674944Y-16059888D02*
X4665420Y-16021793D01*
X4665420Y-16021793D02*
X4665420Y-15974174D01*
X4665420Y-15974174D02*
X4674944Y-15936079D01*
X4674944Y-15936079D02*
X4684467Y-15917031D01*
X4684467Y-15917031D02*
X4693991Y-15907508D01*
X4693991Y-15907508D02*
X4713039Y-15897984D01*
X4865420Y-16097984D02*
X4865420Y-15964650D01*
X4865420Y-15983698D02*
X4874944Y-15974174D01*
X4874944Y-15974174D02*
X4893991Y-15964650D01*
X4893991Y-15964650D02*
X4922563Y-15964650D01*
X4922563Y-15964650D02*
X4941610Y-15974174D01*
X4941610Y-15974174D02*
X4951134Y-15993222D01*
X4951134Y-15993222D02*
X4951134Y-16097984D01*
X4951134Y-15993222D02*
X4960658Y-15974174D01*
X4960658Y-15974174D02*
X4979705Y-15964650D01*
X4979705Y-15964650D02*
X5008277Y-15964650D01*
X5008277Y-15964650D02*
X5027325Y-15974174D01*
X5027325Y-15974174D02*
X5036848Y-15993222D01*
X5036848Y-15993222D02*
X5036848Y-16097984D01*
X5132086Y-16097984D02*
X5132086Y-15964650D01*
X5132086Y-15983698D02*
X5141610Y-15974174D01*
X5141610Y-15974174D02*
X5160658Y-15964650D01*
X5160658Y-15964650D02*
X5189229Y-15964650D01*
X5189229Y-15964650D02*
X5208277Y-15974174D01*
X5208277Y-15974174D02*
X5217801Y-15993222D01*
X5217801Y-15993222D02*
X5217801Y-16097984D01*
X5217801Y-15993222D02*
X5227325Y-15974174D01*
X5227325Y-15974174D02*
X5246372Y-15964650D01*
X5246372Y-15964650D02*
X5274944Y-15964650D01*
X5274944Y-15964650D02*
X5293991Y-15974174D01*
X5293991Y-15974174D02*
X5303515Y-15993222D01*
X5303515Y-15993222D02*
X5303515Y-16097984D01*
X5693991Y-15888460D02*
X5522563Y-16145603D01*
X5951134Y-15897984D02*
X5970182Y-15897984D01*
X5970182Y-15897984D02*
X5989229Y-15907508D01*
X5989229Y-15907508D02*
X5998753Y-15917031D01*
X5998753Y-15917031D02*
X6008277Y-15936079D01*
X6008277Y-15936079D02*
X6017801Y-15974174D01*
X6017801Y-15974174D02*
X6017801Y-16021793D01*
X6017801Y-16021793D02*
X6008277Y-16059888D01*
X6008277Y-16059888D02*
X5998753Y-16078936D01*
X5998753Y-16078936D02*
X5989229Y-16088460D01*
X5989229Y-16088460D02*
X5970182Y-16097984D01*
X5970182Y-16097984D02*
X5951134Y-16097984D01*
X5951134Y-16097984D02*
X5932086Y-16088460D01*
X5932086Y-16088460D02*
X5922563Y-16078936D01*
X5922563Y-16078936D02*
X5913039Y-16059888D01*
X5913039Y-16059888D02*
X5903515Y-16021793D01*
X5903515Y-16021793D02*
X5903515Y-15974174D01*
X5903515Y-15974174D02*
X5913039Y-15936079D01*
X5913039Y-15936079D02*
X5922563Y-15917031D01*
X5922563Y-15917031D02*
X5932086Y-15907508D01*
X5932086Y-15907508D02*
X5951134Y-15897984D01*
X6103515Y-16078936D02*
X6113039Y-16088460D01*
X6113039Y-16088460D02*
X6103515Y-16097984D01*
X6103515Y-16097984D02*
X6093991Y-16088460D01*
X6093991Y-16088460D02*
X6103515Y-16078936D01*
X6103515Y-16078936D02*
X6103515Y-16097984D01*
X6236848Y-15897984D02*
X6255896Y-15897984D01*
X6255896Y-15897984D02*
X6274944Y-15907508D01*
X6274944Y-15907508D02*
X6284467Y-15917031D01*
X6284467Y-15917031D02*
X6293991Y-15936079D01*
X6293991Y-15936079D02*
X6303515Y-15974174D01*
X6303515Y-15974174D02*
X6303515Y-16021793D01*
X6303515Y-16021793D02*
X6293991Y-16059888D01*
X6293991Y-16059888D02*
X6284467Y-16078936D01*
X6284467Y-16078936D02*
X6274944Y-16088460D01*
X6274944Y-16088460D02*
X6255896Y-16097984D01*
X6255896Y-16097984D02*
X6236848Y-16097984D01*
X6236848Y-16097984D02*
X6217801Y-16088460D01*
X6217801Y-16088460D02*
X6208277Y-16078936D01*
X6208277Y-16078936D02*
X6198753Y-16059888D01*
X6198753Y-16059888D02*
X6189229Y-16021793D01*
X6189229Y-16021793D02*
X6189229Y-15974174D01*
X6189229Y-15974174D02*
X6198753Y-15936079D01*
X6198753Y-15936079D02*
X6208277Y-15917031D01*
X6208277Y-15917031D02*
X6217801Y-15907508D01*
X6217801Y-15907508D02*
X6236848Y-15897984D01*
X6484467Y-15897984D02*
X6389229Y-15897984D01*
X6389229Y-15897984D02*
X6379706Y-15993222D01*
X6379706Y-15993222D02*
X6389229Y-15983698D01*
X6389229Y-15983698D02*
X6408277Y-15974174D01*
X6408277Y-15974174D02*
X6455896Y-15974174D01*
X6455896Y-15974174D02*
X6474944Y-15983698D01*
X6474944Y-15983698D02*
X6484467Y-15993222D01*
X6484467Y-15993222D02*
X6493991Y-16012269D01*
X6493991Y-16012269D02*
X6493991Y-16059888D01*
X6493991Y-16059888D02*
X6484467Y-16078936D01*
X6484467Y-16078936D02*
X6474944Y-16088460D01*
X6474944Y-16088460D02*
X6455896Y-16097984D01*
X6455896Y-16097984D02*
X6408277Y-16097984D01*
X6408277Y-16097984D02*
X6389229Y-16088460D01*
X6389229Y-16088460D02*
X6379706Y-16078936D01*
X6684467Y-16097984D02*
X6570182Y-16097984D01*
X6627325Y-16097984D02*
X6627325Y-15897984D01*
X6627325Y-15897984D02*
X6608277Y-15926555D01*
X6608277Y-15926555D02*
X6589229Y-15945603D01*
X6589229Y-15945603D02*
X6570182Y-15955127D01*
X6760658Y-15917031D02*
X6770182Y-15907508D01*
X6770182Y-15907508D02*
X6789229Y-15897984D01*
X6789229Y-15897984D02*
X6836848Y-15897984D01*
X6836848Y-15897984D02*
X6855896Y-15907508D01*
X6855896Y-15907508D02*
X6865420Y-15917031D01*
X6865420Y-15917031D02*
X6874944Y-15936079D01*
X6874944Y-15936079D02*
X6874944Y-15955127D01*
X6874944Y-15955127D02*
X6865420Y-15983698D01*
X6865420Y-15983698D02*
X6751134Y-16097984D01*
X6751134Y-16097984D02*
X6874944Y-16097984D01*
X6951134Y-15897984D02*
X6951134Y-15936079D01*
X7027325Y-15897984D02*
X7027325Y-15936079D01*
X7322563Y-16174174D02*
X7313039Y-16164650D01*
X7313039Y-16164650D02*
X7293991Y-16136079D01*
X7293991Y-16136079D02*
X7284468Y-16117031D01*
X7284468Y-16117031D02*
X7274944Y-16088460D01*
X7274944Y-16088460D02*
X7265420Y-16040841D01*
X7265420Y-16040841D02*
X7265420Y-16002746D01*
X7265420Y-16002746D02*
X7274944Y-15955127D01*
X7274944Y-15955127D02*
X7284468Y-15926555D01*
X7284468Y-15926555D02*
X7293991Y-15907508D01*
X7293991Y-15907508D02*
X7313039Y-15878936D01*
X7313039Y-15878936D02*
X7322563Y-15869412D01*
X7503515Y-16097984D02*
X7389229Y-16097984D01*
X7446372Y-16097984D02*
X7446372Y-15897984D01*
X7446372Y-15897984D02*
X7427325Y-15926555D01*
X7427325Y-15926555D02*
X7408277Y-15945603D01*
X7408277Y-15945603D02*
X7389229Y-15955127D01*
X7741610Y-16097984D02*
X7741610Y-15897984D01*
X7827325Y-16097984D02*
X7827325Y-15993222D01*
X7827325Y-15993222D02*
X7817801Y-15974174D01*
X7817801Y-15974174D02*
X7798753Y-15964650D01*
X7798753Y-15964650D02*
X7770182Y-15964650D01*
X7770182Y-15964650D02*
X7751134Y-15974174D01*
X7751134Y-15974174D02*
X7741610Y-15983698D01*
X7951134Y-16097984D02*
X7932087Y-16088460D01*
X7932087Y-16088460D02*
X7922563Y-16078936D01*
X7922563Y-16078936D02*
X7913039Y-16059888D01*
X7913039Y-16059888D02*
X7913039Y-16002746D01*
X7913039Y-16002746D02*
X7922563Y-15983698D01*
X7922563Y-15983698D02*
X7932087Y-15974174D01*
X7932087Y-15974174D02*
X7951134Y-15964650D01*
X7951134Y-15964650D02*
X7979706Y-15964650D01*
X7979706Y-15964650D02*
X7998753Y-15974174D01*
X7998753Y-15974174D02*
X8008277Y-15983698D01*
X8008277Y-15983698D02*
X8017801Y-16002746D01*
X8017801Y-16002746D02*
X8017801Y-16059888D01*
X8017801Y-16059888D02*
X8008277Y-16078936D01*
X8008277Y-16078936D02*
X7998753Y-16088460D01*
X7998753Y-16088460D02*
X7979706Y-16097984D01*
X7979706Y-16097984D02*
X7951134Y-16097984D01*
X8132087Y-16097984D02*
X8113039Y-16088460D01*
X8113039Y-16088460D02*
X8103515Y-16069412D01*
X8103515Y-16069412D02*
X8103515Y-15897984D01*
X8284468Y-16088460D02*
X8265420Y-16097984D01*
X8265420Y-16097984D02*
X8227325Y-16097984D01*
X8227325Y-16097984D02*
X8208277Y-16088460D01*
X8208277Y-16088460D02*
X8198753Y-16069412D01*
X8198753Y-16069412D02*
X8198753Y-15993222D01*
X8198753Y-15993222D02*
X8208277Y-15974174D01*
X8208277Y-15974174D02*
X8227325Y-15964650D01*
X8227325Y-15964650D02*
X8265420Y-15964650D01*
X8265420Y-15964650D02*
X8284468Y-15974174D01*
X8284468Y-15974174D02*
X8293991Y-15993222D01*
X8293991Y-15993222D02*
X8293991Y-16012269D01*
X8293991Y-16012269D02*
X8198753Y-16031317D01*
X8360658Y-16174174D02*
X8370182Y-16164650D01*
X8370182Y-16164650D02*
X8389230Y-16136079D01*
X8389230Y-16136079D02*
X8398753Y-16117031D01*
X8398753Y-16117031D02*
X8408277Y-16088460D01*
X8408277Y-16088460D02*
X8417801Y-16040841D01*
X8417801Y-16040841D02*
X8417801Y-16002746D01*
X8417801Y-16002746D02*
X8408277Y-15955127D01*
X8408277Y-15955127D02*
X8398753Y-15926555D01*
X8398753Y-15926555D02*
X8389230Y-15907508D01*
X8389230Y-15907508D02*
X8370182Y-15878936D01*
X8370182Y-15878936D02*
X8360658Y-15869412D01*
X8722563Y-16174174D02*
X8713039Y-16164650D01*
X8713039Y-16164650D02*
X8693992Y-16136079D01*
X8693992Y-16136079D02*
X8684468Y-16117031D01*
X8684468Y-16117031D02*
X8674944Y-16088460D01*
X8674944Y-16088460D02*
X8665420Y-16040841D01*
X8665420Y-16040841D02*
X8665420Y-16002746D01*
X8665420Y-16002746D02*
X8674944Y-15955127D01*
X8674944Y-15955127D02*
X8684468Y-15926555D01*
X8684468Y-15926555D02*
X8693992Y-15907508D01*
X8693992Y-15907508D02*
X8713039Y-15878936D01*
X8713039Y-15878936D02*
X8722563Y-15869412D01*
X8798753Y-15964650D02*
X8798753Y-16097984D01*
X8798753Y-15983698D02*
X8808277Y-15974174D01*
X8808277Y-15974174D02*
X8827325Y-15964650D01*
X8827325Y-15964650D02*
X8855896Y-15964650D01*
X8855896Y-15964650D02*
X8874944Y-15974174D01*
X8874944Y-15974174D02*
X8884468Y-15993222D01*
X8884468Y-15993222D02*
X8884468Y-16097984D01*
X9008277Y-16097984D02*
X8989230Y-16088460D01*
X8989230Y-16088460D02*
X8979706Y-16078936D01*
X8979706Y-16078936D02*
X8970182Y-16059888D01*
X8970182Y-16059888D02*
X8970182Y-16002746D01*
X8970182Y-16002746D02*
X8979706Y-15983698D01*
X8979706Y-15983698D02*
X8989230Y-15974174D01*
X8989230Y-15974174D02*
X9008277Y-15964650D01*
X9008277Y-15964650D02*
X9036849Y-15964650D01*
X9036849Y-15964650D02*
X9055896Y-15974174D01*
X9055896Y-15974174D02*
X9065420Y-15983698D01*
X9065420Y-15983698D02*
X9074944Y-16002746D01*
X9074944Y-16002746D02*
X9074944Y-16059888D01*
X9074944Y-16059888D02*
X9065420Y-16078936D01*
X9065420Y-16078936D02*
X9055896Y-16088460D01*
X9055896Y-16088460D02*
X9036849Y-16097984D01*
X9036849Y-16097984D02*
X9008277Y-16097984D01*
X9132087Y-15964650D02*
X9208277Y-15964650D01*
X9160658Y-15897984D02*
X9160658Y-16069412D01*
X9160658Y-16069412D02*
X9170182Y-16088460D01*
X9170182Y-16088460D02*
X9189230Y-16097984D01*
X9189230Y-16097984D02*
X9208277Y-16097984D01*
X9427325Y-15964650D02*
X9427325Y-16164650D01*
X9427325Y-15974174D02*
X9446373Y-15964650D01*
X9446373Y-15964650D02*
X9484468Y-15964650D01*
X9484468Y-15964650D02*
X9503515Y-15974174D01*
X9503515Y-15974174D02*
X9513039Y-15983698D01*
X9513039Y-15983698D02*
X9522563Y-16002746D01*
X9522563Y-16002746D02*
X9522563Y-16059888D01*
X9522563Y-16059888D02*
X9513039Y-16078936D01*
X9513039Y-16078936D02*
X9503515Y-16088460D01*
X9503515Y-16088460D02*
X9484468Y-16097984D01*
X9484468Y-16097984D02*
X9446373Y-16097984D01*
X9446373Y-16097984D02*
X9427325Y-16088460D01*
X9636849Y-16097984D02*
X9617801Y-16088460D01*
X9617801Y-16088460D02*
X9608277Y-16069412D01*
X9608277Y-16069412D02*
X9608277Y-15897984D01*
X9798754Y-16097984D02*
X9798754Y-15993222D01*
X9798754Y-15993222D02*
X9789230Y-15974174D01*
X9789230Y-15974174D02*
X9770182Y-15964650D01*
X9770182Y-15964650D02*
X9732087Y-15964650D01*
X9732087Y-15964650D02*
X9713039Y-15974174D01*
X9798754Y-16088460D02*
X9779706Y-16097984D01*
X9779706Y-16097984D02*
X9732087Y-16097984D01*
X9732087Y-16097984D02*
X9713039Y-16088460D01*
X9713039Y-16088460D02*
X9703515Y-16069412D01*
X9703515Y-16069412D02*
X9703515Y-16050365D01*
X9703515Y-16050365D02*
X9713039Y-16031317D01*
X9713039Y-16031317D02*
X9732087Y-16021793D01*
X9732087Y-16021793D02*
X9779706Y-16021793D01*
X9779706Y-16021793D02*
X9798754Y-16012269D01*
X9865420Y-15964650D02*
X9941611Y-15964650D01*
X9893992Y-15897984D02*
X9893992Y-16069412D01*
X9893992Y-16069412D02*
X9903515Y-16088460D01*
X9903515Y-16088460D02*
X9922563Y-16097984D01*
X9922563Y-16097984D02*
X9941611Y-16097984D01*
X10084468Y-16088460D02*
X10065420Y-16097984D01*
X10065420Y-16097984D02*
X10027325Y-16097984D01*
X10027325Y-16097984D02*
X10008277Y-16088460D01*
X10008277Y-16088460D02*
X9998754Y-16069412D01*
X9998754Y-16069412D02*
X9998754Y-15993222D01*
X9998754Y-15993222D02*
X10008277Y-15974174D01*
X10008277Y-15974174D02*
X10027325Y-15964650D01*
X10027325Y-15964650D02*
X10065420Y-15964650D01*
X10065420Y-15964650D02*
X10084468Y-15974174D01*
X10084468Y-15974174D02*
X10093992Y-15993222D01*
X10093992Y-15993222D02*
X10093992Y-16012269D01*
X10093992Y-16012269D02*
X9998754Y-16031317D01*
X10265420Y-16097984D02*
X10265420Y-15897984D01*
X10265420Y-16088460D02*
X10246373Y-16097984D01*
X10246373Y-16097984D02*
X10208277Y-16097984D01*
X10208277Y-16097984D02*
X10189230Y-16088460D01*
X10189230Y-16088460D02*
X10179706Y-16078936D01*
X10179706Y-16078936D02*
X10170182Y-16059888D01*
X10170182Y-16059888D02*
X10170182Y-16002746D01*
X10170182Y-16002746D02*
X10179706Y-15983698D01*
X10179706Y-15983698D02*
X10189230Y-15974174D01*
X10189230Y-15974174D02*
X10208277Y-15964650D01*
X10208277Y-15964650D02*
X10246373Y-15964650D01*
X10246373Y-15964650D02*
X10265420Y-15974174D01*
X10341611Y-16174174D02*
X10351135Y-16164650D01*
X10351135Y-16164650D02*
X10370182Y-16136079D01*
X10370182Y-16136079D02*
X10379706Y-16117031D01*
X10379706Y-16117031D02*
X10389230Y-16088460D01*
X10389230Y-16088460D02*
X10398754Y-16040841D01*
X10398754Y-16040841D02*
X10398754Y-16002746D01*
X10398754Y-16002746D02*
X10389230Y-15955127D01*
X10389230Y-15955127D02*
X10379706Y-15926555D01*
X10379706Y-15926555D02*
X10370182Y-15907508D01*
X10370182Y-15907508D02*
X10351135Y-15878936D01*
X10351135Y-15878936D02*
X10341611Y-15869412D01*
M02*
