%TF.GenerationSoftware,KiCad,Pcbnew,8.0.7-8.0.7-0~ubuntu22.04.1*%
%TF.CreationDate,2025-01-27T17:29:04+02:00*%
%TF.ProjectId,speaker_amp2,73706561-6b65-4725-9f61-6d70322e6b69,rev?*%
%TF.SameCoordinates,Original*%
%TF.FileFunction,Drillmap*%
%TF.FilePolarity,Positive*%
%FSLAX45Y45*%
G04 Gerber Fmt 4.5, Leading zero omitted, Abs format (unit mm)*
G04 Created by KiCad (PCBNEW 8.0.7-8.0.7-0~ubuntu22.04.1) date 2025-01-27 17:29:04*
%MOMM*%
%LPD*%
G01*
G04 APERTURE LIST*
%ADD10C,0.050000*%
%ADD11C,0.200000*%
%ADD12C,0.100000*%
%ADD13C,0.102000*%
%ADD14C,0.111000*%
%ADD15C,0.120000*%
%ADD16C,0.320000*%
G04 APERTURE END LIST*
D10*
X3750000Y-6300000D02*
X13750000Y-6300000D01*
X13750000Y-15100000D01*
X3750000Y-15100000D01*
X3750000Y-6300000D01*
D11*
D12*
X3935000Y-7260000D02*
X3965000Y-7290000D01*
X3965000Y-7260000D02*
X3935000Y-7290000D01*
X3935000Y-8860000D02*
X3965000Y-8890000D01*
X3965000Y-8860000D02*
X3935000Y-8890000D01*
X3935000Y-9260000D02*
X3965000Y-9290000D01*
X3965000Y-9260000D02*
X3935000Y-9290000D01*
X3935000Y-9660000D02*
X3965000Y-9690000D01*
X3965000Y-9660000D02*
X3935000Y-9690000D01*
X3935000Y-10060000D02*
X3965000Y-10090000D01*
X3965000Y-10060000D02*
X3935000Y-10090000D01*
X3935000Y-10460000D02*
X3965000Y-10490000D01*
X3965000Y-10460000D02*
X3935000Y-10490000D01*
X3935000Y-10860000D02*
X3965000Y-10890000D01*
X3965000Y-10860000D02*
X3935000Y-10890000D01*
X3935000Y-11260000D02*
X3965000Y-11290000D01*
X3965000Y-11260000D02*
X3935000Y-11290000D01*
X3935000Y-11660000D02*
X3965000Y-11690000D01*
X3965000Y-11660000D02*
X3935000Y-11690000D01*
X3935000Y-12060000D02*
X3965000Y-12090000D01*
X3965000Y-12060000D02*
X3935000Y-12090000D01*
X3935000Y-12460000D02*
X3965000Y-12490000D01*
X3965000Y-12460000D02*
X3935000Y-12490000D01*
X3935000Y-12860000D02*
X3965000Y-12890000D01*
X3965000Y-12860000D02*
X3935000Y-12890000D01*
X3935000Y-13260000D02*
X3965000Y-13290000D01*
X3965000Y-13260000D02*
X3935000Y-13290000D01*
X3935000Y-13660000D02*
X3965000Y-13690000D01*
X3965000Y-13660000D02*
X3935000Y-13690000D01*
X3935000Y-14060000D02*
X3965000Y-14090000D01*
X3965000Y-14060000D02*
X3935000Y-14090000D01*
X4335000Y-7260000D02*
X4365000Y-7290000D01*
X4365000Y-7260000D02*
X4335000Y-7290000D01*
X4335000Y-7660000D02*
X4365000Y-7690000D01*
X4365000Y-7660000D02*
X4335000Y-7690000D01*
X4335000Y-8060000D02*
X4365000Y-8090000D01*
X4365000Y-8060000D02*
X4335000Y-8090000D01*
X4560000Y-13545000D02*
X4590000Y-13575000D01*
X4590000Y-13545000D02*
X4560000Y-13575000D01*
X4735000Y-6460000D02*
X4765000Y-6490000D01*
X4765000Y-6460000D02*
X4735000Y-6490000D01*
X4735000Y-6860000D02*
X4765000Y-6890000D01*
X4765000Y-6860000D02*
X4735000Y-6890000D01*
X4735000Y-14860000D02*
X4765000Y-14890000D01*
X4765000Y-14860000D02*
X4735000Y-14890000D01*
X4975000Y-10794000D02*
X5005000Y-10824000D01*
X5005000Y-10794000D02*
X4975000Y-10824000D01*
X5010000Y-12060000D02*
X5040000Y-12090000D01*
X5040000Y-12060000D02*
X5010000Y-12090000D01*
X5135000Y-6460000D02*
X5165000Y-6490000D01*
X5165000Y-6460000D02*
X5135000Y-6490000D01*
X5135000Y-6860000D02*
X5165000Y-6890000D01*
X5165000Y-6860000D02*
X5135000Y-6890000D01*
X5135000Y-8060000D02*
X5165000Y-8090000D01*
X5165000Y-8060000D02*
X5135000Y-8090000D01*
X5135000Y-8860000D02*
X5165000Y-8890000D01*
X5165000Y-8860000D02*
X5135000Y-8890000D01*
X5135000Y-9260000D02*
X5165000Y-9290000D01*
X5165000Y-9260000D02*
X5135000Y-9290000D01*
X5135000Y-9660000D02*
X5165000Y-9690000D01*
X5165000Y-9660000D02*
X5135000Y-9690000D01*
X5135000Y-10060000D02*
X5165000Y-10090000D01*
X5165000Y-10060000D02*
X5135000Y-10090000D01*
X5135000Y-14860000D02*
X5165000Y-14890000D01*
X5165000Y-14860000D02*
X5135000Y-14890000D01*
X5210000Y-11048000D02*
X5240000Y-11078000D01*
X5240000Y-11048000D02*
X5210000Y-11078000D01*
X5260000Y-12060000D02*
X5290000Y-12090000D01*
X5290000Y-12060000D02*
X5260000Y-12090000D01*
X5460000Y-11302000D02*
X5490000Y-11332000D01*
X5490000Y-11302000D02*
X5460000Y-11332000D01*
X5510000Y-12060000D02*
X5540000Y-12090000D01*
X5540000Y-12060000D02*
X5510000Y-12090000D01*
X5535000Y-6460000D02*
X5565000Y-6490000D01*
X5565000Y-6460000D02*
X5535000Y-6490000D01*
X5535000Y-6860000D02*
X5565000Y-6890000D01*
X5565000Y-6860000D02*
X5535000Y-6890000D01*
X5535000Y-8860000D02*
X5565000Y-8890000D01*
X5565000Y-8860000D02*
X5535000Y-8890000D01*
X5535000Y-9260000D02*
X5565000Y-9290000D01*
X5565000Y-9260000D02*
X5535000Y-9290000D01*
X5535000Y-9660000D02*
X5565000Y-9690000D01*
X5565000Y-9660000D02*
X5535000Y-9690000D01*
X5535000Y-10060000D02*
X5565000Y-10090000D01*
X5565000Y-10060000D02*
X5535000Y-10090000D01*
X5535000Y-10460000D02*
X5565000Y-10490000D01*
X5565000Y-10460000D02*
X5535000Y-10490000D01*
X5535000Y-14860000D02*
X5565000Y-14890000D01*
X5565000Y-14860000D02*
X5535000Y-14890000D01*
X5715000Y-11556000D02*
X5745000Y-11586000D01*
X5745000Y-11556000D02*
X5715000Y-11586000D01*
X5760000Y-12060000D02*
X5790000Y-12090000D01*
X5790000Y-12060000D02*
X5760000Y-12090000D01*
X5935000Y-6460000D02*
X5965000Y-6490000D01*
X5965000Y-6460000D02*
X5935000Y-6490000D01*
X5935000Y-6860000D02*
X5965000Y-6890000D01*
X5965000Y-6860000D02*
X5935000Y-6890000D01*
X5935000Y-8860000D02*
X5965000Y-8890000D01*
X5965000Y-8860000D02*
X5935000Y-8890000D01*
X5935000Y-9260000D02*
X5965000Y-9290000D01*
X5965000Y-9260000D02*
X5935000Y-9290000D01*
X5935000Y-9660000D02*
X5965000Y-9690000D01*
X5965000Y-9660000D02*
X5935000Y-9690000D01*
X5935000Y-10060000D02*
X5965000Y-10090000D01*
X5965000Y-10060000D02*
X5935000Y-10090000D01*
X5935000Y-10460000D02*
X5965000Y-10490000D01*
X5965000Y-10460000D02*
X5935000Y-10490000D01*
X5935000Y-14860000D02*
X5965000Y-14890000D01*
X5965000Y-14860000D02*
X5935000Y-14890000D01*
X6060000Y-13310000D02*
X6090000Y-13340000D01*
X6090000Y-13310000D02*
X6060000Y-13340000D01*
X6260000Y-10785000D02*
X6290000Y-10815000D01*
X6290000Y-10785000D02*
X6260000Y-10815000D01*
X6335000Y-6460000D02*
X6365000Y-6490000D01*
X6365000Y-6460000D02*
X6335000Y-6490000D01*
X6335000Y-6860000D02*
X6365000Y-6890000D01*
X6365000Y-6860000D02*
X6335000Y-6890000D01*
X6335000Y-11360000D02*
X6365000Y-11390000D01*
X6365000Y-11360000D02*
X6335000Y-11390000D01*
X6335000Y-11660000D02*
X6365000Y-11690000D01*
X6365000Y-11660000D02*
X6335000Y-11690000D01*
X6335000Y-12060000D02*
X6365000Y-12090000D01*
X6365000Y-12060000D02*
X6335000Y-12090000D01*
X6335000Y-12460000D02*
X6365000Y-12490000D01*
X6365000Y-12460000D02*
X6335000Y-12490000D01*
X6335000Y-14860000D02*
X6365000Y-14890000D01*
X6365000Y-14860000D02*
X6335000Y-14890000D01*
X6460000Y-13310000D02*
X6490000Y-13340000D01*
X6490000Y-13310000D02*
X6460000Y-13340000D01*
X6735000Y-6460000D02*
X6765000Y-6490000D01*
X6765000Y-6460000D02*
X6735000Y-6490000D01*
X6735000Y-6860000D02*
X6765000Y-6890000D01*
X6765000Y-6860000D02*
X6735000Y-6890000D01*
X6735000Y-7260000D02*
X6765000Y-7290000D01*
X6765000Y-7260000D02*
X6735000Y-7290000D01*
X6735000Y-8060000D02*
X6765000Y-8090000D01*
X6765000Y-8060000D02*
X6735000Y-8090000D01*
X6735000Y-9260000D02*
X6765000Y-9290000D01*
X6765000Y-9260000D02*
X6735000Y-9290000D01*
X6735000Y-11360000D02*
X6765000Y-11390000D01*
X6765000Y-11360000D02*
X6735000Y-11390000D01*
X6735000Y-11660000D02*
X6765000Y-11690000D01*
X6765000Y-11660000D02*
X6735000Y-11690000D01*
X6735000Y-12060000D02*
X6765000Y-12090000D01*
X6765000Y-12060000D02*
X6735000Y-12090000D01*
X6735000Y-12460000D02*
X6765000Y-12490000D01*
X6765000Y-12460000D02*
X6735000Y-12490000D01*
X6735000Y-12860000D02*
X6765000Y-12890000D01*
X6765000Y-12860000D02*
X6735000Y-12890000D01*
X6735000Y-14860000D02*
X6765000Y-14890000D01*
X6765000Y-14860000D02*
X6735000Y-14890000D01*
X7135000Y-6460000D02*
X7165000Y-6490000D01*
X7165000Y-6460000D02*
X7135000Y-6490000D01*
X7135000Y-6860000D02*
X7165000Y-6890000D01*
X7165000Y-6860000D02*
X7135000Y-6890000D01*
X7135000Y-14860000D02*
X7165000Y-14890000D01*
X7165000Y-14860000D02*
X7135000Y-14890000D01*
X7420000Y-12885000D02*
X7450000Y-12915000D01*
X7450000Y-12885000D02*
X7420000Y-12915000D01*
X7427500Y-8607500D02*
X7457500Y-8637500D01*
X7457500Y-8607500D02*
X7427500Y-8637500D01*
X7505000Y-12330000D02*
X7535000Y-12360000D01*
X7535000Y-12330000D02*
X7505000Y-12360000D01*
X7505000Y-12465000D02*
X7535000Y-12495000D01*
X7535000Y-12465000D02*
X7505000Y-12495000D01*
X7510000Y-12595000D02*
X7540000Y-12625000D01*
X7540000Y-12595000D02*
X7510000Y-12625000D01*
X7535000Y-6460000D02*
X7565000Y-6490000D01*
X7565000Y-6460000D02*
X7535000Y-6490000D01*
X7535000Y-6860000D02*
X7565000Y-6890000D01*
X7565000Y-6860000D02*
X7535000Y-6890000D01*
X7535000Y-7260000D02*
X7565000Y-7290000D01*
X7565000Y-7260000D02*
X7535000Y-7290000D01*
X7535000Y-8060000D02*
X7565000Y-8090000D01*
X7565000Y-8060000D02*
X7535000Y-8090000D01*
X7535000Y-8747500D02*
X7565000Y-8777500D01*
X7565000Y-8747500D02*
X7535000Y-8777500D01*
X7535000Y-14460000D02*
X7565000Y-14490000D01*
X7565000Y-14460000D02*
X7535000Y-14490000D01*
X7535000Y-14860000D02*
X7565000Y-14890000D01*
X7565000Y-14860000D02*
X7535000Y-14890000D01*
X7565000Y-12885000D02*
X7595000Y-12915000D01*
X7595000Y-12885000D02*
X7565000Y-12915000D01*
X7585000Y-9710000D02*
X7615000Y-9740000D01*
X7615000Y-9710000D02*
X7585000Y-9740000D01*
X7720000Y-9900000D02*
X7750000Y-9930000D01*
X7750000Y-9900000D02*
X7720000Y-9930000D01*
X7735000Y-12020000D02*
X7765000Y-12050000D01*
X7765000Y-12020000D02*
X7735000Y-12050000D01*
X7735000Y-12160000D02*
X7765000Y-12190000D01*
X7765000Y-12160000D02*
X7735000Y-12190000D01*
X7935000Y-6460000D02*
X7965000Y-6490000D01*
X7965000Y-6460000D02*
X7935000Y-6490000D01*
X7935000Y-6860000D02*
X7965000Y-6890000D01*
X7965000Y-6860000D02*
X7935000Y-6890000D01*
X7935000Y-7260000D02*
X7965000Y-7290000D01*
X7965000Y-7260000D02*
X7935000Y-7290000D01*
X7935000Y-10460000D02*
X7965000Y-10490000D01*
X7965000Y-10460000D02*
X7935000Y-10490000D01*
X7935000Y-10860000D02*
X7965000Y-10890000D01*
X7965000Y-10860000D02*
X7935000Y-10890000D01*
X7935000Y-11260000D02*
X7965000Y-11290000D01*
X7965000Y-11260000D02*
X7935000Y-11290000D01*
X7935000Y-11660000D02*
X7965000Y-11690000D01*
X7965000Y-11660000D02*
X7935000Y-11690000D01*
X7935000Y-13660000D02*
X7965000Y-13690000D01*
X7965000Y-13660000D02*
X7935000Y-13690000D01*
X7935000Y-14460000D02*
X7965000Y-14490000D01*
X7965000Y-14460000D02*
X7935000Y-14490000D01*
X7935000Y-14860000D02*
X7965000Y-14890000D01*
X7965000Y-14860000D02*
X7935000Y-14890000D01*
X8010000Y-9510000D02*
X8040000Y-9540000D01*
X8040000Y-9510000D02*
X8010000Y-9540000D01*
X8031000Y-12711000D02*
X8061000Y-12741000D01*
X8061000Y-12711000D02*
X8031000Y-12741000D01*
X8031000Y-12831000D02*
X8061000Y-12861000D01*
X8061000Y-12831000D02*
X8031000Y-12861000D01*
X8031000Y-12951000D02*
X8061000Y-12981000D01*
X8061000Y-12951000D02*
X8031000Y-12981000D01*
X8032000Y-8829000D02*
X8062000Y-8859000D01*
X8062000Y-8829000D02*
X8032000Y-8859000D01*
X8032000Y-8949000D02*
X8062000Y-8979000D01*
X8062000Y-8949000D02*
X8032000Y-8979000D01*
X8032000Y-9069000D02*
X8062000Y-9099000D01*
X8062000Y-9069000D02*
X8032000Y-9099000D01*
X8151000Y-12711000D02*
X8181000Y-12741000D01*
X8181000Y-12711000D02*
X8151000Y-12741000D01*
X8151000Y-12831000D02*
X8181000Y-12861000D01*
X8181000Y-12831000D02*
X8151000Y-12861000D01*
X8151000Y-12951000D02*
X8181000Y-12981000D01*
X8181000Y-12951000D02*
X8151000Y-12981000D01*
X8152000Y-8829000D02*
X8182000Y-8859000D01*
X8182000Y-8829000D02*
X8152000Y-8859000D01*
X8152000Y-8949000D02*
X8182000Y-8979000D01*
X8182000Y-8949000D02*
X8152000Y-8979000D01*
X8152000Y-9069000D02*
X8182000Y-9099000D01*
X8182000Y-9069000D02*
X8152000Y-9099000D01*
X8271000Y-12711000D02*
X8301000Y-12741000D01*
X8301000Y-12711000D02*
X8271000Y-12741000D01*
X8271000Y-12831000D02*
X8301000Y-12861000D01*
X8301000Y-12831000D02*
X8271000Y-12861000D01*
X8271000Y-12951000D02*
X8301000Y-12981000D01*
X8301000Y-12951000D02*
X8271000Y-12981000D01*
X8272000Y-8829000D02*
X8302000Y-8859000D01*
X8302000Y-8829000D02*
X8272000Y-8859000D01*
X8272000Y-8949000D02*
X8302000Y-8979000D01*
X8302000Y-8949000D02*
X8272000Y-8979000D01*
X8272000Y-9069000D02*
X8302000Y-9099000D01*
X8302000Y-9069000D02*
X8272000Y-9099000D01*
X8320000Y-9680000D02*
X8350000Y-9710000D01*
X8350000Y-9680000D02*
X8320000Y-9710000D01*
X8330000Y-13555000D02*
X8360000Y-13585000D01*
X8360000Y-13555000D02*
X8330000Y-13585000D01*
X8335000Y-6460000D02*
X8365000Y-6490000D01*
X8365000Y-6460000D02*
X8335000Y-6490000D01*
X8335000Y-10860000D02*
X8365000Y-10890000D01*
X8365000Y-10860000D02*
X8335000Y-10890000D01*
X8335000Y-14860000D02*
X8365000Y-14890000D01*
X8365000Y-14860000D02*
X8335000Y-14890000D01*
X8370000Y-12365000D02*
X8400000Y-12395000D01*
X8400000Y-12365000D02*
X8370000Y-12395000D01*
X8375000Y-8480000D02*
X8405000Y-8510000D01*
X8405000Y-8480000D02*
X8375000Y-8510000D01*
X8391000Y-12711000D02*
X8421000Y-12741000D01*
X8421000Y-12711000D02*
X8391000Y-12741000D01*
X8391000Y-12831000D02*
X8421000Y-12861000D01*
X8421000Y-12831000D02*
X8391000Y-12861000D01*
X8391000Y-12951000D02*
X8421000Y-12981000D01*
X8421000Y-12951000D02*
X8391000Y-12981000D01*
X8392000Y-8829000D02*
X8422000Y-8859000D01*
X8422000Y-8829000D02*
X8392000Y-8859000D01*
X8392000Y-8949000D02*
X8422000Y-8979000D01*
X8422000Y-8949000D02*
X8392000Y-8979000D01*
X8392000Y-9069000D02*
X8422000Y-9099000D01*
X8422000Y-9069000D02*
X8392000Y-9099000D01*
X8520000Y-12711000D02*
X8550000Y-12741000D01*
X8550000Y-12711000D02*
X8520000Y-12741000D01*
X8520000Y-12831000D02*
X8550000Y-12861000D01*
X8550000Y-12831000D02*
X8520000Y-12861000D01*
X8520000Y-12951000D02*
X8550000Y-12981000D01*
X8550000Y-12951000D02*
X8520000Y-12981000D01*
X8521000Y-8829000D02*
X8551000Y-8859000D01*
X8551000Y-8829000D02*
X8521000Y-8859000D01*
X8521000Y-8949000D02*
X8551000Y-8979000D01*
X8551000Y-8949000D02*
X8521000Y-8979000D01*
X8521000Y-9069000D02*
X8551000Y-9099000D01*
X8551000Y-9069000D02*
X8521000Y-9099000D01*
X8640000Y-12711000D02*
X8670000Y-12741000D01*
X8670000Y-12711000D02*
X8640000Y-12741000D01*
X8640000Y-12831000D02*
X8670000Y-12861000D01*
X8670000Y-12831000D02*
X8640000Y-12861000D01*
X8640000Y-12951000D02*
X8670000Y-12981000D01*
X8670000Y-12951000D02*
X8640000Y-12981000D01*
X8641000Y-8829000D02*
X8671000Y-8859000D01*
X8671000Y-8829000D02*
X8641000Y-8859000D01*
X8641000Y-8949000D02*
X8671000Y-8979000D01*
X8671000Y-8949000D02*
X8641000Y-8979000D01*
X8641000Y-9069000D02*
X8671000Y-9099000D01*
X8671000Y-9069000D02*
X8641000Y-9099000D01*
X8735000Y-6460000D02*
X8765000Y-6490000D01*
X8765000Y-6460000D02*
X8735000Y-6490000D01*
X8735000Y-7260000D02*
X8765000Y-7290000D01*
X8765000Y-7260000D02*
X8735000Y-7290000D01*
X8735000Y-10860000D02*
X8765000Y-10890000D01*
X8765000Y-10860000D02*
X8735000Y-10890000D01*
X8735000Y-14460000D02*
X8765000Y-14490000D01*
X8765000Y-14460000D02*
X8735000Y-14490000D01*
X8760000Y-12711000D02*
X8790000Y-12741000D01*
X8790000Y-12711000D02*
X8760000Y-12741000D01*
X8760000Y-12831000D02*
X8790000Y-12861000D01*
X8790000Y-12831000D02*
X8760000Y-12861000D01*
X8760000Y-12951000D02*
X8790000Y-12981000D01*
X8790000Y-12951000D02*
X8760000Y-12981000D01*
X8761000Y-8829000D02*
X8791000Y-8859000D01*
X8791000Y-8829000D02*
X8761000Y-8859000D01*
X8761000Y-8949000D02*
X8791000Y-8979000D01*
X8791000Y-8949000D02*
X8761000Y-8979000D01*
X8761000Y-9069000D02*
X8791000Y-9099000D01*
X8791000Y-9069000D02*
X8761000Y-9099000D01*
X8880000Y-12711000D02*
X8910000Y-12741000D01*
X8910000Y-12711000D02*
X8880000Y-12741000D01*
X8880000Y-12831000D02*
X8910000Y-12861000D01*
X8910000Y-12831000D02*
X8880000Y-12861000D01*
X8880000Y-12951000D02*
X8910000Y-12981000D01*
X8910000Y-12951000D02*
X8880000Y-12981000D01*
X8881000Y-8829000D02*
X8911000Y-8859000D01*
X8911000Y-8829000D02*
X8881000Y-8859000D01*
X8881000Y-8949000D02*
X8911000Y-8979000D01*
X8911000Y-8949000D02*
X8881000Y-8979000D01*
X8881000Y-9069000D02*
X8911000Y-9099000D01*
X8911000Y-9069000D02*
X8881000Y-9099000D01*
X9135000Y-6460000D02*
X9165000Y-6490000D01*
X9165000Y-6460000D02*
X9135000Y-6490000D01*
X9135000Y-7260000D02*
X9165000Y-7290000D01*
X9165000Y-7260000D02*
X9135000Y-7290000D01*
X9135000Y-10860000D02*
X9165000Y-10890000D01*
X9165000Y-10860000D02*
X9135000Y-10890000D01*
X9135000Y-14460000D02*
X9165000Y-14490000D01*
X9165000Y-14460000D02*
X9135000Y-14490000D01*
X9535000Y-6460000D02*
X9565000Y-6490000D01*
X9565000Y-6460000D02*
X9535000Y-6490000D01*
X9535000Y-8060000D02*
X9565000Y-8090000D01*
X9565000Y-8060000D02*
X9535000Y-8090000D01*
X9535000Y-8860000D02*
X9565000Y-8890000D01*
X9565000Y-8860000D02*
X9535000Y-8890000D01*
X9535000Y-9935000D02*
X9565000Y-9965000D01*
X9565000Y-9935000D02*
X9535000Y-9965000D01*
X9535000Y-10860000D02*
X9565000Y-10890000D01*
X9565000Y-10860000D02*
X9535000Y-10890000D01*
X9535000Y-11260000D02*
X9565000Y-11290000D01*
X9565000Y-11260000D02*
X9535000Y-11290000D01*
X9535000Y-11660000D02*
X9565000Y-11690000D01*
X9565000Y-11660000D02*
X9535000Y-11690000D01*
X9535000Y-12860000D02*
X9565000Y-12890000D01*
X9565000Y-12860000D02*
X9535000Y-12890000D01*
X9535000Y-14060000D02*
X9565000Y-14090000D01*
X9565000Y-14060000D02*
X9535000Y-14090000D01*
X9535000Y-14460000D02*
X9565000Y-14490000D01*
X9565000Y-14460000D02*
X9535000Y-14490000D01*
X9935000Y-6460000D02*
X9965000Y-6490000D01*
X9965000Y-6460000D02*
X9935000Y-6490000D01*
X9935000Y-6860000D02*
X9965000Y-6890000D01*
X9965000Y-6860000D02*
X9935000Y-6890000D01*
X9935000Y-8060000D02*
X9965000Y-8090000D01*
X9965000Y-8060000D02*
X9935000Y-8090000D01*
X9935000Y-8860000D02*
X9965000Y-8890000D01*
X9965000Y-8860000D02*
X9935000Y-8890000D01*
X9935000Y-9935000D02*
X9965000Y-9965000D01*
X9965000Y-9935000D02*
X9935000Y-9965000D01*
X9935000Y-10860000D02*
X9965000Y-10890000D01*
X9965000Y-10860000D02*
X9935000Y-10890000D01*
X9935000Y-11260000D02*
X9965000Y-11290000D01*
X9965000Y-11260000D02*
X9935000Y-11290000D01*
X9935000Y-11660000D02*
X9965000Y-11690000D01*
X9965000Y-11660000D02*
X9935000Y-11690000D01*
X9935000Y-12860000D02*
X9965000Y-12890000D01*
X9965000Y-12860000D02*
X9935000Y-12890000D01*
X9935000Y-14060000D02*
X9965000Y-14090000D01*
X9965000Y-14060000D02*
X9935000Y-14090000D01*
X9935000Y-14460000D02*
X9965000Y-14490000D01*
X9965000Y-14460000D02*
X9935000Y-14490000D01*
X9935000Y-14860000D02*
X9965000Y-14890000D01*
X9965000Y-14860000D02*
X9935000Y-14890000D01*
X10335000Y-6460000D02*
X10365000Y-6490000D01*
X10365000Y-6460000D02*
X10335000Y-6490000D01*
X10335000Y-6860000D02*
X10365000Y-6890000D01*
X10365000Y-6860000D02*
X10335000Y-6890000D01*
X10335000Y-10860000D02*
X10365000Y-10890000D01*
X10365000Y-10860000D02*
X10335000Y-10890000D01*
X10335000Y-11260000D02*
X10365000Y-11290000D01*
X10365000Y-11260000D02*
X10335000Y-11290000D01*
X10335000Y-11660000D02*
X10365000Y-11690000D01*
X10365000Y-11660000D02*
X10335000Y-11690000D01*
X10335000Y-12860000D02*
X10365000Y-12890000D01*
X10365000Y-12860000D02*
X10335000Y-12890000D01*
X10335000Y-14060000D02*
X10365000Y-14090000D01*
X10365000Y-14060000D02*
X10335000Y-14090000D01*
X10335000Y-14460000D02*
X10365000Y-14490000D01*
X10365000Y-14460000D02*
X10335000Y-14490000D01*
X10335000Y-14860000D02*
X10365000Y-14890000D01*
X10365000Y-14860000D02*
X10335000Y-14890000D01*
X10385000Y-10160000D02*
X10415000Y-10190000D01*
X10415000Y-10160000D02*
X10385000Y-10190000D01*
X10385000Y-10560000D02*
X10415000Y-10590000D01*
X10415000Y-10560000D02*
X10385000Y-10590000D01*
X10410000Y-7310000D02*
X10440000Y-7340000D01*
X10440000Y-7310000D02*
X10410000Y-7340000D01*
X10410000Y-7710000D02*
X10440000Y-7740000D01*
X10440000Y-7710000D02*
X10410000Y-7740000D01*
X10410000Y-8060000D02*
X10440000Y-8090000D01*
X10440000Y-8060000D02*
X10410000Y-8090000D01*
X10410000Y-8460000D02*
X10440000Y-8490000D01*
X10440000Y-8460000D02*
X10410000Y-8490000D01*
X10410000Y-8860000D02*
X10440000Y-8890000D01*
X10440000Y-8860000D02*
X10410000Y-8890000D01*
X10410000Y-9260000D02*
X10440000Y-9290000D01*
X10440000Y-9260000D02*
X10410000Y-9290000D01*
X10410000Y-9660000D02*
X10440000Y-9690000D01*
X10440000Y-9660000D02*
X10410000Y-9690000D01*
X10460000Y-12035000D02*
X10490000Y-12065000D01*
X10490000Y-12035000D02*
X10460000Y-12065000D01*
X10460000Y-12435000D02*
X10490000Y-12465000D01*
X10490000Y-12435000D02*
X10460000Y-12465000D01*
X10485000Y-13210000D02*
X10515000Y-13240000D01*
X10515000Y-13210000D02*
X10485000Y-13240000D01*
X10485000Y-13610000D02*
X10515000Y-13640000D01*
X10515000Y-13610000D02*
X10485000Y-13640000D01*
X10735000Y-6460000D02*
X10765000Y-6490000D01*
X10765000Y-6460000D02*
X10735000Y-6490000D01*
X10735000Y-6860000D02*
X10765000Y-6890000D01*
X10765000Y-6860000D02*
X10735000Y-6890000D01*
X10735000Y-8060000D02*
X10765000Y-8090000D01*
X10765000Y-8060000D02*
X10735000Y-8090000D01*
X10735000Y-8860000D02*
X10765000Y-8890000D01*
X10765000Y-8860000D02*
X10735000Y-8890000D01*
X10735000Y-10860000D02*
X10765000Y-10890000D01*
X10765000Y-10860000D02*
X10735000Y-10890000D01*
X10735000Y-11260000D02*
X10765000Y-11290000D01*
X10765000Y-11260000D02*
X10735000Y-11290000D01*
X10735000Y-11660000D02*
X10765000Y-11690000D01*
X10765000Y-11660000D02*
X10735000Y-11690000D01*
X10735000Y-12860000D02*
X10765000Y-12890000D01*
X10765000Y-12860000D02*
X10735000Y-12890000D01*
X10735000Y-14060000D02*
X10765000Y-14090000D01*
X10765000Y-14060000D02*
X10735000Y-14090000D01*
X10735000Y-14460000D02*
X10765000Y-14490000D01*
X10765000Y-14460000D02*
X10735000Y-14490000D01*
X10735000Y-14860000D02*
X10765000Y-14890000D01*
X10765000Y-14860000D02*
X10735000Y-14890000D01*
X11135000Y-6460000D02*
X11165000Y-6490000D01*
X11165000Y-6460000D02*
X11135000Y-6490000D01*
X11135000Y-6860000D02*
X11165000Y-6890000D01*
X11165000Y-6860000D02*
X11135000Y-6890000D01*
X11135000Y-8860000D02*
X11165000Y-8890000D01*
X11165000Y-8860000D02*
X11135000Y-8890000D01*
X11135000Y-10860000D02*
X11165000Y-10890000D01*
X11165000Y-10860000D02*
X11135000Y-10890000D01*
X11135000Y-11260000D02*
X11165000Y-11290000D01*
X11165000Y-11260000D02*
X11135000Y-11290000D01*
X11135000Y-11660000D02*
X11165000Y-11690000D01*
X11165000Y-11660000D02*
X11135000Y-11690000D01*
X11135000Y-12860000D02*
X11165000Y-12890000D01*
X11165000Y-12860000D02*
X11135000Y-12890000D01*
X11135000Y-14060000D02*
X11165000Y-14090000D01*
X11165000Y-14060000D02*
X11135000Y-14090000D01*
X11135000Y-14460000D02*
X11165000Y-14490000D01*
X11165000Y-14460000D02*
X11135000Y-14490000D01*
X11135000Y-14860000D02*
X11165000Y-14890000D01*
X11165000Y-14860000D02*
X11135000Y-14890000D01*
X11535000Y-6460000D02*
X11565000Y-6490000D01*
X11565000Y-6460000D02*
X11535000Y-6490000D01*
X11535000Y-6860000D02*
X11565000Y-6890000D01*
X11565000Y-6860000D02*
X11535000Y-6890000D01*
X11535000Y-8860000D02*
X11565000Y-8890000D01*
X11565000Y-8860000D02*
X11535000Y-8890000D01*
X11535000Y-10860000D02*
X11565000Y-10890000D01*
X11565000Y-10860000D02*
X11535000Y-10890000D01*
X11535000Y-11260000D02*
X11565000Y-11290000D01*
X11565000Y-11260000D02*
X11535000Y-11290000D01*
X11535000Y-11660000D02*
X11565000Y-11690000D01*
X11565000Y-11660000D02*
X11535000Y-11690000D01*
X11535000Y-14060000D02*
X11565000Y-14090000D01*
X11565000Y-14060000D02*
X11535000Y-14090000D01*
X11535000Y-14460000D02*
X11565000Y-14490000D01*
X11565000Y-14460000D02*
X11535000Y-14490000D01*
X11535000Y-14860000D02*
X11565000Y-14890000D01*
X11565000Y-14860000D02*
X11535000Y-14890000D01*
X11935000Y-6460000D02*
X11965000Y-6490000D01*
X11965000Y-6460000D02*
X11935000Y-6490000D01*
X11935000Y-6860000D02*
X11965000Y-6890000D01*
X11965000Y-6860000D02*
X11935000Y-6890000D01*
X11935000Y-8860000D02*
X11965000Y-8890000D01*
X11965000Y-8860000D02*
X11935000Y-8890000D01*
X11935000Y-10860000D02*
X11965000Y-10890000D01*
X11965000Y-10860000D02*
X11935000Y-10890000D01*
X11935000Y-11260000D02*
X11965000Y-11290000D01*
X11965000Y-11260000D02*
X11935000Y-11290000D01*
X11935000Y-11660000D02*
X11965000Y-11690000D01*
X11965000Y-11660000D02*
X11935000Y-11690000D01*
X11935000Y-13660000D02*
X11965000Y-13690000D01*
X11965000Y-13660000D02*
X11935000Y-13690000D01*
X11935000Y-14060000D02*
X11965000Y-14090000D01*
X11965000Y-14060000D02*
X11935000Y-14090000D01*
X11935000Y-14460000D02*
X11965000Y-14490000D01*
X11965000Y-14460000D02*
X11935000Y-14490000D01*
X11935000Y-14860000D02*
X11965000Y-14890000D01*
X11965000Y-14860000D02*
X11935000Y-14890000D01*
X12335000Y-6460000D02*
X12365000Y-6490000D01*
X12365000Y-6460000D02*
X12335000Y-6490000D01*
X12335000Y-6860000D02*
X12365000Y-6890000D01*
X12365000Y-6860000D02*
X12335000Y-6890000D01*
X12335000Y-8860000D02*
X12365000Y-8890000D01*
X12365000Y-8860000D02*
X12335000Y-8890000D01*
X12335000Y-9260000D02*
X12365000Y-9290000D01*
X12365000Y-9260000D02*
X12335000Y-9290000D01*
X12335000Y-10860000D02*
X12365000Y-10890000D01*
X12365000Y-10860000D02*
X12335000Y-10890000D01*
X12335000Y-11260000D02*
X12365000Y-11290000D01*
X12365000Y-11260000D02*
X12335000Y-11290000D01*
X12335000Y-11660000D02*
X12365000Y-11690000D01*
X12365000Y-11660000D02*
X12335000Y-11690000D01*
X12335000Y-13660000D02*
X12365000Y-13690000D01*
X12365000Y-13660000D02*
X12335000Y-13690000D01*
X12335000Y-14060000D02*
X12365000Y-14090000D01*
X12365000Y-14060000D02*
X12335000Y-14090000D01*
X12335000Y-14460000D02*
X12365000Y-14490000D01*
X12365000Y-14460000D02*
X12335000Y-14490000D01*
X12335000Y-14860000D02*
X12365000Y-14890000D01*
X12365000Y-14860000D02*
X12335000Y-14890000D01*
X12735000Y-6460000D02*
X12765000Y-6490000D01*
X12765000Y-6460000D02*
X12735000Y-6490000D01*
X12735000Y-6860000D02*
X12765000Y-6890000D01*
X12765000Y-6860000D02*
X12735000Y-6890000D01*
X12735000Y-7260000D02*
X12765000Y-7290000D01*
X12765000Y-7260000D02*
X12735000Y-7290000D01*
X12735000Y-7660000D02*
X12765000Y-7690000D01*
X12765000Y-7660000D02*
X12735000Y-7690000D01*
X12735000Y-8460000D02*
X12765000Y-8490000D01*
X12765000Y-8460000D02*
X12735000Y-8490000D01*
X12735000Y-8860000D02*
X12765000Y-8890000D01*
X12765000Y-8860000D02*
X12735000Y-8890000D01*
X12735000Y-9260000D02*
X12765000Y-9290000D01*
X12765000Y-9260000D02*
X12735000Y-9290000D01*
X12735000Y-9660000D02*
X12765000Y-9690000D01*
X12765000Y-9660000D02*
X12735000Y-9690000D01*
X12735000Y-10860000D02*
X12765000Y-10890000D01*
X12765000Y-10860000D02*
X12735000Y-10890000D01*
X12735000Y-11260000D02*
X12765000Y-11290000D01*
X12765000Y-11260000D02*
X12735000Y-11290000D01*
X12735000Y-11660000D02*
X12765000Y-11690000D01*
X12765000Y-11660000D02*
X12735000Y-11690000D01*
X12735000Y-12060000D02*
X12765000Y-12090000D01*
X12765000Y-12060000D02*
X12735000Y-12090000D01*
X12735000Y-13660000D02*
X12765000Y-13690000D01*
X12765000Y-13660000D02*
X12735000Y-13690000D01*
X12735000Y-14060000D02*
X12765000Y-14090000D01*
X12765000Y-14060000D02*
X12735000Y-14090000D01*
X12735000Y-14460000D02*
X12765000Y-14490000D01*
X12765000Y-14460000D02*
X12735000Y-14490000D01*
X12735000Y-14860000D02*
X12765000Y-14890000D01*
X12765000Y-14860000D02*
X12735000Y-14890000D01*
X13135000Y-7260000D02*
X13165000Y-7290000D01*
X13165000Y-7260000D02*
X13135000Y-7290000D01*
X13135000Y-7660000D02*
X13165000Y-7690000D01*
X13165000Y-7660000D02*
X13135000Y-7690000D01*
X13135000Y-8060000D02*
X13165000Y-8090000D01*
X13165000Y-8060000D02*
X13135000Y-8090000D01*
X13135000Y-8460000D02*
X13165000Y-8490000D01*
X13165000Y-8460000D02*
X13135000Y-8490000D01*
X13135000Y-8860000D02*
X13165000Y-8890000D01*
X13165000Y-8860000D02*
X13135000Y-8890000D01*
X13135000Y-9260000D02*
X13165000Y-9290000D01*
X13165000Y-9260000D02*
X13135000Y-9290000D01*
X13135000Y-9660000D02*
X13165000Y-9690000D01*
X13165000Y-9660000D02*
X13135000Y-9690000D01*
X13135000Y-10060000D02*
X13165000Y-10090000D01*
X13165000Y-10060000D02*
X13135000Y-10090000D01*
X13135000Y-10460000D02*
X13165000Y-10490000D01*
X13165000Y-10460000D02*
X13135000Y-10490000D01*
X13135000Y-10860000D02*
X13165000Y-10890000D01*
X13165000Y-10860000D02*
X13135000Y-10890000D01*
X13135000Y-11260000D02*
X13165000Y-11290000D01*
X13165000Y-11260000D02*
X13135000Y-11290000D01*
X13135000Y-11660000D02*
X13165000Y-11690000D01*
X13165000Y-11660000D02*
X13135000Y-11690000D01*
X13135000Y-12060000D02*
X13165000Y-12090000D01*
X13165000Y-12060000D02*
X13135000Y-12090000D01*
X13135000Y-13660000D02*
X13165000Y-13690000D01*
X13165000Y-13660000D02*
X13135000Y-13690000D01*
X13135000Y-14060000D02*
X13165000Y-14090000D01*
X13165000Y-14060000D02*
X13135000Y-14090000D01*
X13535000Y-7260000D02*
X13565000Y-7290000D01*
X13565000Y-7260000D02*
X13535000Y-7290000D01*
X13535000Y-7660000D02*
X13565000Y-7690000D01*
X13565000Y-7660000D02*
X13535000Y-7690000D01*
X13535000Y-8060000D02*
X13565000Y-8090000D01*
X13565000Y-8060000D02*
X13535000Y-8090000D01*
X13535000Y-8460000D02*
X13565000Y-8490000D01*
X13565000Y-8460000D02*
X13535000Y-8490000D01*
X13535000Y-8860000D02*
X13565000Y-8890000D01*
X13565000Y-8860000D02*
X13535000Y-8890000D01*
X13535000Y-9260000D02*
X13565000Y-9290000D01*
X13565000Y-9260000D02*
X13535000Y-9290000D01*
X13535000Y-9660000D02*
X13565000Y-9690000D01*
X13565000Y-9660000D02*
X13535000Y-9690000D01*
X13535000Y-10060000D02*
X13565000Y-10090000D01*
X13565000Y-10060000D02*
X13535000Y-10090000D01*
X13535000Y-10460000D02*
X13565000Y-10490000D01*
X13565000Y-10460000D02*
X13535000Y-10490000D01*
X13535000Y-10860000D02*
X13565000Y-10890000D01*
X13565000Y-10860000D02*
X13535000Y-10890000D01*
X13535000Y-11260000D02*
X13565000Y-11290000D01*
X13565000Y-11260000D02*
X13535000Y-11290000D01*
X13535000Y-11660000D02*
X13565000Y-11690000D01*
X13565000Y-11660000D02*
X13535000Y-11690000D01*
X13535000Y-12060000D02*
X13565000Y-12090000D01*
X13565000Y-12060000D02*
X13535000Y-12090000D01*
X13535000Y-12460000D02*
X13565000Y-12490000D01*
X13565000Y-12460000D02*
X13535000Y-12490000D01*
X13535000Y-12860000D02*
X13565000Y-12890000D01*
X13565000Y-12860000D02*
X13535000Y-12890000D01*
X13535000Y-13260000D02*
X13565000Y-13290000D01*
X13565000Y-13260000D02*
X13535000Y-13290000D01*
X13535000Y-13660000D02*
X13565000Y-13690000D01*
X13565000Y-13660000D02*
X13535000Y-13690000D01*
X13535000Y-14060000D02*
X13565000Y-14090000D01*
X13565000Y-14060000D02*
X13535000Y-14090000D01*
X8665000Y-7625000D02*
G75*
G02*
X8585000Y-7625000I-40000J0D01*
G01*
X8585000Y-7625000D02*
G75*
G02*
X8665000Y-7625000I40000J0D01*
G01*
X8665000Y-14175000D02*
G75*
G02*
X8585000Y-14175000I-40000J0D01*
G01*
X8585000Y-14175000D02*
G75*
G02*
X8665000Y-14175000I40000J0D01*
G01*
X8669735Y-11485000D02*
G75*
G02*
X8589735Y-11485000I-40000J0D01*
G01*
X8589735Y-11485000D02*
G75*
G02*
X8669735Y-11485000I40000J0D01*
G01*
X8690000Y-10275000D02*
G75*
G02*
X8610000Y-10275000I-40000J0D01*
G01*
X8610000Y-10275000D02*
G75*
G02*
X8690000Y-10275000I40000J0D01*
G01*
X9015000Y-7625000D02*
G75*
G02*
X8935000Y-7625000I-40000J0D01*
G01*
X8935000Y-7625000D02*
G75*
G02*
X9015000Y-7625000I40000J0D01*
G01*
X9015000Y-14175000D02*
G75*
G02*
X8935000Y-14175000I-40000J0D01*
G01*
X8935000Y-14175000D02*
G75*
G02*
X9015000Y-14175000I40000J0D01*
G01*
X9019735Y-11485000D02*
G75*
G02*
X8939735Y-11485000I-40000J0D01*
G01*
X8939735Y-11485000D02*
G75*
G02*
X9019735Y-11485000I40000J0D01*
G01*
X9040000Y-10275000D02*
G75*
G02*
X8960000Y-10275000I-40000J0D01*
G01*
X8960000Y-10275000D02*
G75*
G02*
X9040000Y-10275000I40000J0D01*
G01*
X4625000Y-8473000D02*
X4625000Y-8573000D01*
X4575000Y-8523000D02*
X4675000Y-8523000D01*
X4625000Y-8727000D02*
X4625000Y-8827000D01*
X4575000Y-8777000D02*
X4675000Y-8777000D01*
X4625000Y-8981000D02*
X4625000Y-9081000D01*
X4575000Y-9031000D02*
X4675000Y-9031000D01*
X4625000Y-9235000D02*
X4625000Y-9335000D01*
X4575000Y-9285000D02*
X4675000Y-9285000D01*
X4625000Y-9489000D02*
X4625000Y-9589000D01*
X4575000Y-9539000D02*
X4675000Y-9539000D01*
X4625000Y-9743000D02*
X4625000Y-9843000D01*
X4575000Y-9793000D02*
X4675000Y-9793000D01*
X4625000Y-9997000D02*
X4625000Y-10097000D01*
X4575000Y-10047000D02*
X4675000Y-10047000D01*
X4625000Y-10251000D02*
X4625000Y-10351000D01*
X4575000Y-10301000D02*
X4675000Y-10301000D01*
X4625000Y-10505000D02*
X4625000Y-10605000D01*
X4575000Y-10555000D02*
X4675000Y-10555000D01*
X4625000Y-10759000D02*
X4625000Y-10859000D01*
X4575000Y-10809000D02*
X4675000Y-10809000D01*
X4625000Y-11013000D02*
X4625000Y-11113000D01*
X4575000Y-11063000D02*
X4675000Y-11063000D01*
X4625000Y-11267000D02*
X4625000Y-11367000D01*
X4575000Y-11317000D02*
X4675000Y-11317000D01*
X4625000Y-11521000D02*
X4625000Y-11621000D01*
X4575000Y-11571000D02*
X4675000Y-11571000D01*
X4625000Y-11775000D02*
X4625000Y-11875000D01*
X4575000Y-11825000D02*
X4675000Y-11825000D01*
X4625000Y-12029000D02*
X4625000Y-12129000D01*
X4575000Y-12079000D02*
X4675000Y-12079000D01*
X4625000Y-12283000D02*
X4625000Y-12383000D01*
X4575000Y-12333000D02*
X4675000Y-12333000D01*
X4625000Y-12537000D02*
X4625000Y-12637000D01*
X4575000Y-12587000D02*
X4675000Y-12587000D01*
X4625000Y-12791000D02*
X4625000Y-12891000D01*
X4575000Y-12841000D02*
X4675000Y-12841000D01*
X4625000Y-13045000D02*
X4625000Y-13145000D01*
X4575000Y-13095000D02*
X4675000Y-13095000D01*
X7159000Y-8473000D02*
X7159000Y-8573000D01*
X7109000Y-8523000D02*
X7209000Y-8523000D01*
X7159000Y-8727000D02*
X7159000Y-8827000D01*
X7109000Y-8777000D02*
X7209000Y-8777000D01*
X7159000Y-8981000D02*
X7159000Y-9081000D01*
X7109000Y-9031000D02*
X7209000Y-9031000D01*
X7159000Y-9235000D02*
X7159000Y-9335000D01*
X7109000Y-9285000D02*
X7209000Y-9285000D01*
X7159000Y-9489000D02*
X7159000Y-9589000D01*
X7109000Y-9539000D02*
X7209000Y-9539000D01*
X7159000Y-9743000D02*
X7159000Y-9843000D01*
X7109000Y-9793000D02*
X7209000Y-9793000D01*
X7159000Y-9997000D02*
X7159000Y-10097000D01*
X7109000Y-10047000D02*
X7209000Y-10047000D01*
X7159000Y-10251000D02*
X7159000Y-10351000D01*
X7109000Y-10301000D02*
X7209000Y-10301000D01*
X7159000Y-10505000D02*
X7159000Y-10605000D01*
X7109000Y-10555000D02*
X7209000Y-10555000D01*
X7159000Y-10759000D02*
X7159000Y-10859000D01*
X7109000Y-10809000D02*
X7209000Y-10809000D01*
X7159000Y-11013000D02*
X7159000Y-11113000D01*
X7109000Y-11063000D02*
X7209000Y-11063000D01*
X7159000Y-11267000D02*
X7159000Y-11367000D01*
X7109000Y-11317000D02*
X7209000Y-11317000D01*
X7159000Y-11521000D02*
X7159000Y-11621000D01*
X7109000Y-11571000D02*
X7209000Y-11571000D01*
X7159000Y-11775000D02*
X7159000Y-11875000D01*
X7109000Y-11825000D02*
X7209000Y-11825000D01*
X7159000Y-12029000D02*
X7159000Y-12129000D01*
X7109000Y-12079000D02*
X7209000Y-12079000D01*
X7159000Y-12283000D02*
X7159000Y-12383000D01*
X7109000Y-12333000D02*
X7209000Y-12333000D01*
X7159000Y-12537000D02*
X7159000Y-12637000D01*
X7109000Y-12587000D02*
X7209000Y-12587000D01*
X7159000Y-12791000D02*
X7159000Y-12891000D01*
X7109000Y-12841000D02*
X7209000Y-12841000D01*
X7159000Y-13045000D02*
X7159000Y-13145000D01*
X7109000Y-13095000D02*
X7209000Y-13095000D01*
D13*
X6717063Y-14211063D02*
X6717063Y-14138937D01*
X6644937Y-14138937D01*
X6644937Y-14211063D01*
X6717063Y-14211063D01*
X6919563Y-7710028D02*
X6919563Y-7637902D01*
X6847437Y-7637902D01*
X6847437Y-7710028D01*
X6919563Y-7710028D01*
X7017063Y-14211063D02*
X7017063Y-14138937D01*
X6944937Y-14138937D01*
X6944937Y-14211063D01*
X7017063Y-14211063D01*
X7219563Y-7710028D02*
X7219563Y-7637902D01*
X7147437Y-7637902D01*
X7147437Y-7710028D01*
X7219563Y-7710028D01*
X12531064Y-7857063D02*
X12531064Y-7784937D01*
X12458938Y-7784937D01*
X12458938Y-7857063D01*
X12531064Y-7857063D01*
X12531064Y-8157063D02*
X12531064Y-8084937D01*
X12458938Y-8084937D01*
X12458938Y-8157063D01*
X12531064Y-8157063D01*
X12531064Y-9817063D02*
X12531064Y-9744937D01*
X12458938Y-9744937D01*
X12458938Y-9817063D01*
X12531064Y-9817063D01*
X12531064Y-10117063D02*
X12531064Y-10044937D01*
X12458938Y-10044937D01*
X12458938Y-10117063D01*
X12531064Y-10117063D01*
X12811063Y-12716063D02*
X12811063Y-12643937D01*
X12738937Y-12643937D01*
X12738937Y-12716063D01*
X12811063Y-12716063D01*
X12811063Y-13016063D02*
X12811063Y-12943937D01*
X12738937Y-12943937D01*
X12738937Y-13016063D01*
X12811063Y-13016063D01*
D14*
X4625000Y-7422500D02*
X4680500Y-7367000D01*
X4625000Y-7311500D01*
X4569500Y-7367000D01*
X4625000Y-7422500D01*
X4625000Y-7676500D02*
X4680500Y-7621000D01*
X4625000Y-7565500D01*
X4569500Y-7621000D01*
X4625000Y-7676500D01*
X4625000Y-7930500D02*
X4680500Y-7875000D01*
X4625000Y-7819500D01*
X4569500Y-7875000D01*
X4625000Y-7930500D01*
D15*
X5033600Y-13747000D02*
X5153600Y-13867000D01*
X5153600Y-13747000D02*
X5033600Y-13867000D01*
X5153600Y-13807000D02*
G75*
G02*
X5033600Y-13807000I-60000J0D01*
G01*
X5033600Y-13807000D02*
G75*
G02*
X5153600Y-13807000I60000J0D01*
G01*
X5033600Y-13997000D02*
X5153600Y-14117000D01*
X5153600Y-13997000D02*
X5033600Y-14117000D01*
X5153600Y-14057000D02*
G75*
G02*
X5033600Y-14057000I-60000J0D01*
G01*
X5033600Y-14057000D02*
G75*
G02*
X5153600Y-14057000I60000J0D01*
G01*
X5283600Y-13747000D02*
X5403600Y-13867000D01*
X5403600Y-13747000D02*
X5283600Y-13867000D01*
X5403600Y-13807000D02*
G75*
G02*
X5283600Y-13807000I-60000J0D01*
G01*
X5283600Y-13807000D02*
G75*
G02*
X5403600Y-13807000I60000J0D01*
G01*
X5283600Y-13997000D02*
X5403600Y-14117000D01*
X5403600Y-13997000D02*
X5283600Y-14117000D01*
X5403600Y-14057000D02*
G75*
G02*
X5283600Y-14057000I-60000J0D01*
G01*
X5283600Y-14057000D02*
G75*
G02*
X5403600Y-14057000I60000J0D01*
G01*
X5533600Y-13747000D02*
X5653600Y-13867000D01*
X5653600Y-13747000D02*
X5533600Y-13867000D01*
X5653600Y-13807000D02*
G75*
G02*
X5533600Y-13807000I-60000J0D01*
G01*
X5533600Y-13807000D02*
G75*
G02*
X5653600Y-13807000I60000J0D01*
G01*
X5533600Y-13997000D02*
X5653600Y-14117000D01*
X5653600Y-13997000D02*
X5533600Y-14117000D01*
X5653600Y-14057000D02*
G75*
G02*
X5533600Y-14057000I-60000J0D01*
G01*
X5533600Y-14057000D02*
G75*
G02*
X5653600Y-14057000I60000J0D01*
G01*
D16*
X3965000Y-6540000D02*
X4285000Y-6860000D01*
X4285000Y-6540000D02*
X3965000Y-6860000D01*
X4125000Y-6540000D02*
X4125000Y-6860000D01*
X3965000Y-6700000D02*
X4285000Y-6700000D01*
X3990000Y-14540000D02*
X4310000Y-14860000D01*
X4310000Y-14540000D02*
X3990000Y-14860000D01*
X4150000Y-14540000D02*
X4150000Y-14860000D01*
X3990000Y-14700000D02*
X4310000Y-14700000D01*
X13190000Y-6540000D02*
X13510000Y-6860000D01*
X13510000Y-6540000D02*
X13190000Y-6860000D01*
X13350000Y-6540000D02*
X13350000Y-6860000D01*
X13190000Y-6700000D02*
X13510000Y-6700000D01*
X13190000Y-14540000D02*
X13510000Y-14860000D01*
X13510000Y-14540000D02*
X13190000Y-14860000D01*
X13350000Y-14540000D02*
X13350000Y-14860000D01*
X13190000Y-14700000D02*
X13510000Y-14700000D01*
D11*
X4008277Y-15413984D02*
X4008277Y-15213984D01*
X4008277Y-15213984D02*
X4055896Y-15213984D01*
X4055896Y-15213984D02*
X4084467Y-15223508D01*
X4084467Y-15223508D02*
X4103515Y-15242555D01*
X4103515Y-15242555D02*
X4113039Y-15261603D01*
X4113039Y-15261603D02*
X4122562Y-15299698D01*
X4122562Y-15299698D02*
X4122562Y-15328269D01*
X4122562Y-15328269D02*
X4113039Y-15366365D01*
X4113039Y-15366365D02*
X4103515Y-15385412D01*
X4103515Y-15385412D02*
X4084467Y-15404460D01*
X4084467Y-15404460D02*
X4055896Y-15413984D01*
X4055896Y-15413984D02*
X4008277Y-15413984D01*
X4208277Y-15413984D02*
X4208277Y-15280650D01*
X4208277Y-15318746D02*
X4217801Y-15299698D01*
X4217801Y-15299698D02*
X4227324Y-15290174D01*
X4227324Y-15290174D02*
X4246372Y-15280650D01*
X4246372Y-15280650D02*
X4265420Y-15280650D01*
X4332086Y-15413984D02*
X4332086Y-15280650D01*
X4332086Y-15213984D02*
X4322563Y-15223508D01*
X4322563Y-15223508D02*
X4332086Y-15233031D01*
X4332086Y-15233031D02*
X4341610Y-15223508D01*
X4341610Y-15223508D02*
X4332086Y-15213984D01*
X4332086Y-15213984D02*
X4332086Y-15233031D01*
X4455896Y-15413984D02*
X4436848Y-15404460D01*
X4436848Y-15404460D02*
X4427324Y-15385412D01*
X4427324Y-15385412D02*
X4427324Y-15213984D01*
X4560658Y-15413984D02*
X4541610Y-15404460D01*
X4541610Y-15404460D02*
X4532086Y-15385412D01*
X4532086Y-15385412D02*
X4532086Y-15213984D01*
X4789229Y-15413984D02*
X4789229Y-15213984D01*
X4789229Y-15213984D02*
X4855896Y-15356841D01*
X4855896Y-15356841D02*
X4922563Y-15213984D01*
X4922563Y-15213984D02*
X4922563Y-15413984D01*
X5103515Y-15413984D02*
X5103515Y-15309222D01*
X5103515Y-15309222D02*
X5093991Y-15290174D01*
X5093991Y-15290174D02*
X5074944Y-15280650D01*
X5074944Y-15280650D02*
X5036848Y-15280650D01*
X5036848Y-15280650D02*
X5017801Y-15290174D01*
X5103515Y-15404460D02*
X5084467Y-15413984D01*
X5084467Y-15413984D02*
X5036848Y-15413984D01*
X5036848Y-15413984D02*
X5017801Y-15404460D01*
X5017801Y-15404460D02*
X5008277Y-15385412D01*
X5008277Y-15385412D02*
X5008277Y-15366365D01*
X5008277Y-15366365D02*
X5017801Y-15347317D01*
X5017801Y-15347317D02*
X5036848Y-15337793D01*
X5036848Y-15337793D02*
X5084467Y-15337793D01*
X5084467Y-15337793D02*
X5103515Y-15328269D01*
X5198753Y-15280650D02*
X5198753Y-15480650D01*
X5198753Y-15290174D02*
X5217801Y-15280650D01*
X5217801Y-15280650D02*
X5255896Y-15280650D01*
X5255896Y-15280650D02*
X5274944Y-15290174D01*
X5274944Y-15290174D02*
X5284467Y-15299698D01*
X5284467Y-15299698D02*
X5293991Y-15318746D01*
X5293991Y-15318746D02*
X5293991Y-15375888D01*
X5293991Y-15375888D02*
X5284467Y-15394936D01*
X5284467Y-15394936D02*
X5274944Y-15404460D01*
X5274944Y-15404460D02*
X5255896Y-15413984D01*
X5255896Y-15413984D02*
X5217801Y-15413984D01*
X5217801Y-15413984D02*
X5198753Y-15404460D01*
X5379705Y-15394936D02*
X5389229Y-15404460D01*
X5389229Y-15404460D02*
X5379705Y-15413984D01*
X5379705Y-15413984D02*
X5370182Y-15404460D01*
X5370182Y-15404460D02*
X5379705Y-15394936D01*
X5379705Y-15394936D02*
X5379705Y-15413984D01*
X5379705Y-15290174D02*
X5389229Y-15299698D01*
X5389229Y-15299698D02*
X5379705Y-15309222D01*
X5379705Y-15309222D02*
X5370182Y-15299698D01*
X5370182Y-15299698D02*
X5379705Y-15290174D01*
X5379705Y-15290174D02*
X5379705Y-15309222D01*
D12*
X3717500Y-15727500D02*
X3747500Y-15757500D01*
X3747500Y-15727500D02*
X3717500Y-15757500D01*
D11*
X4046372Y-15633984D02*
X4065420Y-15633984D01*
X4065420Y-15633984D02*
X4084467Y-15643508D01*
X4084467Y-15643508D02*
X4093991Y-15653031D01*
X4093991Y-15653031D02*
X4103515Y-15672079D01*
X4103515Y-15672079D02*
X4113039Y-15710174D01*
X4113039Y-15710174D02*
X4113039Y-15757793D01*
X4113039Y-15757793D02*
X4103515Y-15795888D01*
X4103515Y-15795888D02*
X4093991Y-15814936D01*
X4093991Y-15814936D02*
X4084467Y-15824460D01*
X4084467Y-15824460D02*
X4065420Y-15833984D01*
X4065420Y-15833984D02*
X4046372Y-15833984D01*
X4046372Y-15833984D02*
X4027324Y-15824460D01*
X4027324Y-15824460D02*
X4017801Y-15814936D01*
X4017801Y-15814936D02*
X4008277Y-15795888D01*
X4008277Y-15795888D02*
X3998753Y-15757793D01*
X3998753Y-15757793D02*
X3998753Y-15710174D01*
X3998753Y-15710174D02*
X4008277Y-15672079D01*
X4008277Y-15672079D02*
X4017801Y-15653031D01*
X4017801Y-15653031D02*
X4027324Y-15643508D01*
X4027324Y-15643508D02*
X4046372Y-15633984D01*
X4198753Y-15814936D02*
X4208277Y-15824460D01*
X4208277Y-15824460D02*
X4198753Y-15833984D01*
X4198753Y-15833984D02*
X4189229Y-15824460D01*
X4189229Y-15824460D02*
X4198753Y-15814936D01*
X4198753Y-15814936D02*
X4198753Y-15833984D01*
X4274944Y-15633984D02*
X4398753Y-15633984D01*
X4398753Y-15633984D02*
X4332086Y-15710174D01*
X4332086Y-15710174D02*
X4360658Y-15710174D01*
X4360658Y-15710174D02*
X4379705Y-15719698D01*
X4379705Y-15719698D02*
X4389229Y-15729222D01*
X4389229Y-15729222D02*
X4398753Y-15748269D01*
X4398753Y-15748269D02*
X4398753Y-15795888D01*
X4398753Y-15795888D02*
X4389229Y-15814936D01*
X4389229Y-15814936D02*
X4379705Y-15824460D01*
X4379705Y-15824460D02*
X4360658Y-15833984D01*
X4360658Y-15833984D02*
X4303515Y-15833984D01*
X4303515Y-15833984D02*
X4284467Y-15824460D01*
X4284467Y-15824460D02*
X4274944Y-15814936D01*
X4522563Y-15633984D02*
X4541610Y-15633984D01*
X4541610Y-15633984D02*
X4560658Y-15643508D01*
X4560658Y-15643508D02*
X4570182Y-15653031D01*
X4570182Y-15653031D02*
X4579705Y-15672079D01*
X4579705Y-15672079D02*
X4589229Y-15710174D01*
X4589229Y-15710174D02*
X4589229Y-15757793D01*
X4589229Y-15757793D02*
X4579705Y-15795888D01*
X4579705Y-15795888D02*
X4570182Y-15814936D01*
X4570182Y-15814936D02*
X4560658Y-15824460D01*
X4560658Y-15824460D02*
X4541610Y-15833984D01*
X4541610Y-15833984D02*
X4522563Y-15833984D01*
X4522563Y-15833984D02*
X4503515Y-15824460D01*
X4503515Y-15824460D02*
X4493991Y-15814936D01*
X4493991Y-15814936D02*
X4484467Y-15795888D01*
X4484467Y-15795888D02*
X4474944Y-15757793D01*
X4474944Y-15757793D02*
X4474944Y-15710174D01*
X4474944Y-15710174D02*
X4484467Y-15672079D01*
X4484467Y-15672079D02*
X4493991Y-15653031D01*
X4493991Y-15653031D02*
X4503515Y-15643508D01*
X4503515Y-15643508D02*
X4522563Y-15633984D01*
X4713039Y-15633984D02*
X4732086Y-15633984D01*
X4732086Y-15633984D02*
X4751134Y-15643508D01*
X4751134Y-15643508D02*
X4760658Y-15653031D01*
X4760658Y-15653031D02*
X4770182Y-15672079D01*
X4770182Y-15672079D02*
X4779705Y-15710174D01*
X4779705Y-15710174D02*
X4779705Y-15757793D01*
X4779705Y-15757793D02*
X4770182Y-15795888D01*
X4770182Y-15795888D02*
X4760658Y-15814936D01*
X4760658Y-15814936D02*
X4751134Y-15824460D01*
X4751134Y-15824460D02*
X4732086Y-15833984D01*
X4732086Y-15833984D02*
X4713039Y-15833984D01*
X4713039Y-15833984D02*
X4693991Y-15824460D01*
X4693991Y-15824460D02*
X4684467Y-15814936D01*
X4684467Y-15814936D02*
X4674944Y-15795888D01*
X4674944Y-15795888D02*
X4665420Y-15757793D01*
X4665420Y-15757793D02*
X4665420Y-15710174D01*
X4665420Y-15710174D02*
X4674944Y-15672079D01*
X4674944Y-15672079D02*
X4684467Y-15653031D01*
X4684467Y-15653031D02*
X4693991Y-15643508D01*
X4693991Y-15643508D02*
X4713039Y-15633984D01*
X4865420Y-15833984D02*
X4865420Y-15700650D01*
X4865420Y-15719698D02*
X4874944Y-15710174D01*
X4874944Y-15710174D02*
X4893991Y-15700650D01*
X4893991Y-15700650D02*
X4922563Y-15700650D01*
X4922563Y-15700650D02*
X4941610Y-15710174D01*
X4941610Y-15710174D02*
X4951134Y-15729222D01*
X4951134Y-15729222D02*
X4951134Y-15833984D01*
X4951134Y-15729222D02*
X4960658Y-15710174D01*
X4960658Y-15710174D02*
X4979705Y-15700650D01*
X4979705Y-15700650D02*
X5008277Y-15700650D01*
X5008277Y-15700650D02*
X5027325Y-15710174D01*
X5027325Y-15710174D02*
X5036848Y-15729222D01*
X5036848Y-15729222D02*
X5036848Y-15833984D01*
X5132086Y-15833984D02*
X5132086Y-15700650D01*
X5132086Y-15719698D02*
X5141610Y-15710174D01*
X5141610Y-15710174D02*
X5160658Y-15700650D01*
X5160658Y-15700650D02*
X5189229Y-15700650D01*
X5189229Y-15700650D02*
X5208277Y-15710174D01*
X5208277Y-15710174D02*
X5217801Y-15729222D01*
X5217801Y-15729222D02*
X5217801Y-15833984D01*
X5217801Y-15729222D02*
X5227325Y-15710174D01*
X5227325Y-15710174D02*
X5246372Y-15700650D01*
X5246372Y-15700650D02*
X5274944Y-15700650D01*
X5274944Y-15700650D02*
X5293991Y-15710174D01*
X5293991Y-15710174D02*
X5303515Y-15729222D01*
X5303515Y-15729222D02*
X5303515Y-15833984D01*
X5693991Y-15624460D02*
X5522563Y-15881603D01*
X5951134Y-15633984D02*
X5970182Y-15633984D01*
X5970182Y-15633984D02*
X5989229Y-15643508D01*
X5989229Y-15643508D02*
X5998753Y-15653031D01*
X5998753Y-15653031D02*
X6008277Y-15672079D01*
X6008277Y-15672079D02*
X6017801Y-15710174D01*
X6017801Y-15710174D02*
X6017801Y-15757793D01*
X6017801Y-15757793D02*
X6008277Y-15795888D01*
X6008277Y-15795888D02*
X5998753Y-15814936D01*
X5998753Y-15814936D02*
X5989229Y-15824460D01*
X5989229Y-15824460D02*
X5970182Y-15833984D01*
X5970182Y-15833984D02*
X5951134Y-15833984D01*
X5951134Y-15833984D02*
X5932086Y-15824460D01*
X5932086Y-15824460D02*
X5922563Y-15814936D01*
X5922563Y-15814936D02*
X5913039Y-15795888D01*
X5913039Y-15795888D02*
X5903515Y-15757793D01*
X5903515Y-15757793D02*
X5903515Y-15710174D01*
X5903515Y-15710174D02*
X5913039Y-15672079D01*
X5913039Y-15672079D02*
X5922563Y-15653031D01*
X5922563Y-15653031D02*
X5932086Y-15643508D01*
X5932086Y-15643508D02*
X5951134Y-15633984D01*
X6103515Y-15814936D02*
X6113039Y-15824460D01*
X6113039Y-15824460D02*
X6103515Y-15833984D01*
X6103515Y-15833984D02*
X6093991Y-15824460D01*
X6093991Y-15824460D02*
X6103515Y-15814936D01*
X6103515Y-15814936D02*
X6103515Y-15833984D01*
X6236848Y-15633984D02*
X6255896Y-15633984D01*
X6255896Y-15633984D02*
X6274944Y-15643508D01*
X6274944Y-15643508D02*
X6284467Y-15653031D01*
X6284467Y-15653031D02*
X6293991Y-15672079D01*
X6293991Y-15672079D02*
X6303515Y-15710174D01*
X6303515Y-15710174D02*
X6303515Y-15757793D01*
X6303515Y-15757793D02*
X6293991Y-15795888D01*
X6293991Y-15795888D02*
X6284467Y-15814936D01*
X6284467Y-15814936D02*
X6274944Y-15824460D01*
X6274944Y-15824460D02*
X6255896Y-15833984D01*
X6255896Y-15833984D02*
X6236848Y-15833984D01*
X6236848Y-15833984D02*
X6217801Y-15824460D01*
X6217801Y-15824460D02*
X6208277Y-15814936D01*
X6208277Y-15814936D02*
X6198753Y-15795888D01*
X6198753Y-15795888D02*
X6189229Y-15757793D01*
X6189229Y-15757793D02*
X6189229Y-15710174D01*
X6189229Y-15710174D02*
X6198753Y-15672079D01*
X6198753Y-15672079D02*
X6208277Y-15653031D01*
X6208277Y-15653031D02*
X6217801Y-15643508D01*
X6217801Y-15643508D02*
X6236848Y-15633984D01*
X6493991Y-15833984D02*
X6379706Y-15833984D01*
X6436848Y-15833984D02*
X6436848Y-15633984D01*
X6436848Y-15633984D02*
X6417801Y-15662555D01*
X6417801Y-15662555D02*
X6398753Y-15681603D01*
X6398753Y-15681603D02*
X6379706Y-15691127D01*
X6684467Y-15833984D02*
X6570182Y-15833984D01*
X6627325Y-15833984D02*
X6627325Y-15633984D01*
X6627325Y-15633984D02*
X6608277Y-15662555D01*
X6608277Y-15662555D02*
X6589229Y-15681603D01*
X6589229Y-15681603D02*
X6570182Y-15691127D01*
X6798753Y-15719698D02*
X6779706Y-15710174D01*
X6779706Y-15710174D02*
X6770182Y-15700650D01*
X6770182Y-15700650D02*
X6760658Y-15681603D01*
X6760658Y-15681603D02*
X6760658Y-15672079D01*
X6760658Y-15672079D02*
X6770182Y-15653031D01*
X6770182Y-15653031D02*
X6779706Y-15643508D01*
X6779706Y-15643508D02*
X6798753Y-15633984D01*
X6798753Y-15633984D02*
X6836848Y-15633984D01*
X6836848Y-15633984D02*
X6855896Y-15643508D01*
X6855896Y-15643508D02*
X6865420Y-15653031D01*
X6865420Y-15653031D02*
X6874944Y-15672079D01*
X6874944Y-15672079D02*
X6874944Y-15681603D01*
X6874944Y-15681603D02*
X6865420Y-15700650D01*
X6865420Y-15700650D02*
X6855896Y-15710174D01*
X6855896Y-15710174D02*
X6836848Y-15719698D01*
X6836848Y-15719698D02*
X6798753Y-15719698D01*
X6798753Y-15719698D02*
X6779706Y-15729222D01*
X6779706Y-15729222D02*
X6770182Y-15738746D01*
X6770182Y-15738746D02*
X6760658Y-15757793D01*
X6760658Y-15757793D02*
X6760658Y-15795888D01*
X6760658Y-15795888D02*
X6770182Y-15814936D01*
X6770182Y-15814936D02*
X6779706Y-15824460D01*
X6779706Y-15824460D02*
X6798753Y-15833984D01*
X6798753Y-15833984D02*
X6836848Y-15833984D01*
X6836848Y-15833984D02*
X6855896Y-15824460D01*
X6855896Y-15824460D02*
X6865420Y-15814936D01*
X6865420Y-15814936D02*
X6874944Y-15795888D01*
X6874944Y-15795888D02*
X6874944Y-15757793D01*
X6874944Y-15757793D02*
X6865420Y-15738746D01*
X6865420Y-15738746D02*
X6855896Y-15729222D01*
X6855896Y-15729222D02*
X6836848Y-15719698D01*
X6951134Y-15633984D02*
X6951134Y-15672079D01*
X7027325Y-15633984D02*
X7027325Y-15672079D01*
X7322563Y-15910174D02*
X7313039Y-15900650D01*
X7313039Y-15900650D02*
X7293991Y-15872079D01*
X7293991Y-15872079D02*
X7284468Y-15853031D01*
X7284468Y-15853031D02*
X7274944Y-15824460D01*
X7274944Y-15824460D02*
X7265420Y-15776841D01*
X7265420Y-15776841D02*
X7265420Y-15738746D01*
X7265420Y-15738746D02*
X7274944Y-15691127D01*
X7274944Y-15691127D02*
X7284468Y-15662555D01*
X7284468Y-15662555D02*
X7293991Y-15643508D01*
X7293991Y-15643508D02*
X7313039Y-15614936D01*
X7313039Y-15614936D02*
X7322563Y-15605412D01*
X7379706Y-15633984D02*
X7503515Y-15633984D01*
X7503515Y-15633984D02*
X7436848Y-15710174D01*
X7436848Y-15710174D02*
X7465420Y-15710174D01*
X7465420Y-15710174D02*
X7484468Y-15719698D01*
X7484468Y-15719698D02*
X7493991Y-15729222D01*
X7493991Y-15729222D02*
X7503515Y-15748269D01*
X7503515Y-15748269D02*
X7503515Y-15795888D01*
X7503515Y-15795888D02*
X7493991Y-15814936D01*
X7493991Y-15814936D02*
X7484468Y-15824460D01*
X7484468Y-15824460D02*
X7465420Y-15833984D01*
X7465420Y-15833984D02*
X7408277Y-15833984D01*
X7408277Y-15833984D02*
X7389229Y-15824460D01*
X7389229Y-15824460D02*
X7379706Y-15814936D01*
X7693991Y-15833984D02*
X7579706Y-15833984D01*
X7636848Y-15833984D02*
X7636848Y-15633984D01*
X7636848Y-15633984D02*
X7617801Y-15662555D01*
X7617801Y-15662555D02*
X7598753Y-15681603D01*
X7598753Y-15681603D02*
X7579706Y-15691127D01*
X7760658Y-15633984D02*
X7884468Y-15633984D01*
X7884468Y-15633984D02*
X7817801Y-15710174D01*
X7817801Y-15710174D02*
X7846372Y-15710174D01*
X7846372Y-15710174D02*
X7865420Y-15719698D01*
X7865420Y-15719698D02*
X7874944Y-15729222D01*
X7874944Y-15729222D02*
X7884468Y-15748269D01*
X7884468Y-15748269D02*
X7884468Y-15795888D01*
X7884468Y-15795888D02*
X7874944Y-15814936D01*
X7874944Y-15814936D02*
X7865420Y-15824460D01*
X7865420Y-15824460D02*
X7846372Y-15833984D01*
X7846372Y-15833984D02*
X7789229Y-15833984D01*
X7789229Y-15833984D02*
X7770182Y-15824460D01*
X7770182Y-15824460D02*
X7760658Y-15814936D01*
X8122563Y-15833984D02*
X8122563Y-15633984D01*
X8208277Y-15833984D02*
X8208277Y-15729222D01*
X8208277Y-15729222D02*
X8198753Y-15710174D01*
X8198753Y-15710174D02*
X8179706Y-15700650D01*
X8179706Y-15700650D02*
X8151134Y-15700650D01*
X8151134Y-15700650D02*
X8132087Y-15710174D01*
X8132087Y-15710174D02*
X8122563Y-15719698D01*
X8332087Y-15833984D02*
X8313039Y-15824460D01*
X8313039Y-15824460D02*
X8303515Y-15814936D01*
X8303515Y-15814936D02*
X8293991Y-15795888D01*
X8293991Y-15795888D02*
X8293991Y-15738746D01*
X8293991Y-15738746D02*
X8303515Y-15719698D01*
X8303515Y-15719698D02*
X8313039Y-15710174D01*
X8313039Y-15710174D02*
X8332087Y-15700650D01*
X8332087Y-15700650D02*
X8360658Y-15700650D01*
X8360658Y-15700650D02*
X8379706Y-15710174D01*
X8379706Y-15710174D02*
X8389230Y-15719698D01*
X8389230Y-15719698D02*
X8398753Y-15738746D01*
X8398753Y-15738746D02*
X8398753Y-15795888D01*
X8398753Y-15795888D02*
X8389230Y-15814936D01*
X8389230Y-15814936D02*
X8379706Y-15824460D01*
X8379706Y-15824460D02*
X8360658Y-15833984D01*
X8360658Y-15833984D02*
X8332087Y-15833984D01*
X8513039Y-15833984D02*
X8493992Y-15824460D01*
X8493992Y-15824460D02*
X8484468Y-15805412D01*
X8484468Y-15805412D02*
X8484468Y-15633984D01*
X8665420Y-15824460D02*
X8646373Y-15833984D01*
X8646373Y-15833984D02*
X8608277Y-15833984D01*
X8608277Y-15833984D02*
X8589230Y-15824460D01*
X8589230Y-15824460D02*
X8579706Y-15805412D01*
X8579706Y-15805412D02*
X8579706Y-15729222D01*
X8579706Y-15729222D02*
X8589230Y-15710174D01*
X8589230Y-15710174D02*
X8608277Y-15700650D01*
X8608277Y-15700650D02*
X8646373Y-15700650D01*
X8646373Y-15700650D02*
X8665420Y-15710174D01*
X8665420Y-15710174D02*
X8674944Y-15729222D01*
X8674944Y-15729222D02*
X8674944Y-15748269D01*
X8674944Y-15748269D02*
X8579706Y-15767317D01*
X8751134Y-15824460D02*
X8770182Y-15833984D01*
X8770182Y-15833984D02*
X8808277Y-15833984D01*
X8808277Y-15833984D02*
X8827325Y-15824460D01*
X8827325Y-15824460D02*
X8836849Y-15805412D01*
X8836849Y-15805412D02*
X8836849Y-15795888D01*
X8836849Y-15795888D02*
X8827325Y-15776841D01*
X8827325Y-15776841D02*
X8808277Y-15767317D01*
X8808277Y-15767317D02*
X8779706Y-15767317D01*
X8779706Y-15767317D02*
X8760658Y-15757793D01*
X8760658Y-15757793D02*
X8751134Y-15738746D01*
X8751134Y-15738746D02*
X8751134Y-15729222D01*
X8751134Y-15729222D02*
X8760658Y-15710174D01*
X8760658Y-15710174D02*
X8779706Y-15700650D01*
X8779706Y-15700650D02*
X8808277Y-15700650D01*
X8808277Y-15700650D02*
X8827325Y-15710174D01*
X8903515Y-15910174D02*
X8913039Y-15900650D01*
X8913039Y-15900650D02*
X8932087Y-15872079D01*
X8932087Y-15872079D02*
X8941611Y-15853031D01*
X8941611Y-15853031D02*
X8951134Y-15824460D01*
X8951134Y-15824460D02*
X8960658Y-15776841D01*
X8960658Y-15776841D02*
X8960658Y-15738746D01*
X8960658Y-15738746D02*
X8951134Y-15691127D01*
X8951134Y-15691127D02*
X8941611Y-15662555D01*
X8941611Y-15662555D02*
X8932087Y-15643508D01*
X8932087Y-15643508D02*
X8913039Y-15614936D01*
X8913039Y-15614936D02*
X8903515Y-15605412D01*
D12*
X3747500Y-16006500D02*
G75*
G02*
X3667500Y-16006500I-40000J0D01*
G01*
X3667500Y-16006500D02*
G75*
G02*
X3747500Y-16006500I40000J0D01*
G01*
D11*
X4046372Y-15897984D02*
X4065420Y-15897984D01*
X4065420Y-15897984D02*
X4084467Y-15907508D01*
X4084467Y-15907508D02*
X4093991Y-15917031D01*
X4093991Y-15917031D02*
X4103515Y-15936079D01*
X4103515Y-15936079D02*
X4113039Y-15974174D01*
X4113039Y-15974174D02*
X4113039Y-16021793D01*
X4113039Y-16021793D02*
X4103515Y-16059888D01*
X4103515Y-16059888D02*
X4093991Y-16078936D01*
X4093991Y-16078936D02*
X4084467Y-16088460D01*
X4084467Y-16088460D02*
X4065420Y-16097984D01*
X4065420Y-16097984D02*
X4046372Y-16097984D01*
X4046372Y-16097984D02*
X4027324Y-16088460D01*
X4027324Y-16088460D02*
X4017801Y-16078936D01*
X4017801Y-16078936D02*
X4008277Y-16059888D01*
X4008277Y-16059888D02*
X3998753Y-16021793D01*
X3998753Y-16021793D02*
X3998753Y-15974174D01*
X3998753Y-15974174D02*
X4008277Y-15936079D01*
X4008277Y-15936079D02*
X4017801Y-15917031D01*
X4017801Y-15917031D02*
X4027324Y-15907508D01*
X4027324Y-15907508D02*
X4046372Y-15897984D01*
X4198753Y-16078936D02*
X4208277Y-16088460D01*
X4208277Y-16088460D02*
X4198753Y-16097984D01*
X4198753Y-16097984D02*
X4189229Y-16088460D01*
X4189229Y-16088460D02*
X4198753Y-16078936D01*
X4198753Y-16078936D02*
X4198753Y-16097984D01*
X4322563Y-15983698D02*
X4303515Y-15974174D01*
X4303515Y-15974174D02*
X4293991Y-15964650D01*
X4293991Y-15964650D02*
X4284467Y-15945603D01*
X4284467Y-15945603D02*
X4284467Y-15936079D01*
X4284467Y-15936079D02*
X4293991Y-15917031D01*
X4293991Y-15917031D02*
X4303515Y-15907508D01*
X4303515Y-15907508D02*
X4322563Y-15897984D01*
X4322563Y-15897984D02*
X4360658Y-15897984D01*
X4360658Y-15897984D02*
X4379705Y-15907508D01*
X4379705Y-15907508D02*
X4389229Y-15917031D01*
X4389229Y-15917031D02*
X4398753Y-15936079D01*
X4398753Y-15936079D02*
X4398753Y-15945603D01*
X4398753Y-15945603D02*
X4389229Y-15964650D01*
X4389229Y-15964650D02*
X4379705Y-15974174D01*
X4379705Y-15974174D02*
X4360658Y-15983698D01*
X4360658Y-15983698D02*
X4322563Y-15983698D01*
X4322563Y-15983698D02*
X4303515Y-15993222D01*
X4303515Y-15993222D02*
X4293991Y-16002746D01*
X4293991Y-16002746D02*
X4284467Y-16021793D01*
X4284467Y-16021793D02*
X4284467Y-16059888D01*
X4284467Y-16059888D02*
X4293991Y-16078936D01*
X4293991Y-16078936D02*
X4303515Y-16088460D01*
X4303515Y-16088460D02*
X4322563Y-16097984D01*
X4322563Y-16097984D02*
X4360658Y-16097984D01*
X4360658Y-16097984D02*
X4379705Y-16088460D01*
X4379705Y-16088460D02*
X4389229Y-16078936D01*
X4389229Y-16078936D02*
X4398753Y-16059888D01*
X4398753Y-16059888D02*
X4398753Y-16021793D01*
X4398753Y-16021793D02*
X4389229Y-16002746D01*
X4389229Y-16002746D02*
X4379705Y-15993222D01*
X4379705Y-15993222D02*
X4360658Y-15983698D01*
X4522563Y-15897984D02*
X4541610Y-15897984D01*
X4541610Y-15897984D02*
X4560658Y-15907508D01*
X4560658Y-15907508D02*
X4570182Y-15917031D01*
X4570182Y-15917031D02*
X4579705Y-15936079D01*
X4579705Y-15936079D02*
X4589229Y-15974174D01*
X4589229Y-15974174D02*
X4589229Y-16021793D01*
X4589229Y-16021793D02*
X4579705Y-16059888D01*
X4579705Y-16059888D02*
X4570182Y-16078936D01*
X4570182Y-16078936D02*
X4560658Y-16088460D01*
X4560658Y-16088460D02*
X4541610Y-16097984D01*
X4541610Y-16097984D02*
X4522563Y-16097984D01*
X4522563Y-16097984D02*
X4503515Y-16088460D01*
X4503515Y-16088460D02*
X4493991Y-16078936D01*
X4493991Y-16078936D02*
X4484467Y-16059888D01*
X4484467Y-16059888D02*
X4474944Y-16021793D01*
X4474944Y-16021793D02*
X4474944Y-15974174D01*
X4474944Y-15974174D02*
X4484467Y-15936079D01*
X4484467Y-15936079D02*
X4493991Y-15917031D01*
X4493991Y-15917031D02*
X4503515Y-15907508D01*
X4503515Y-15907508D02*
X4522563Y-15897984D01*
X4713039Y-15897984D02*
X4732086Y-15897984D01*
X4732086Y-15897984D02*
X4751134Y-15907508D01*
X4751134Y-15907508D02*
X4760658Y-15917031D01*
X4760658Y-15917031D02*
X4770182Y-15936079D01*
X4770182Y-15936079D02*
X4779705Y-15974174D01*
X4779705Y-15974174D02*
X4779705Y-16021793D01*
X4779705Y-16021793D02*
X4770182Y-16059888D01*
X4770182Y-16059888D02*
X4760658Y-16078936D01*
X4760658Y-16078936D02*
X4751134Y-16088460D01*
X4751134Y-16088460D02*
X4732086Y-16097984D01*
X4732086Y-16097984D02*
X4713039Y-16097984D01*
X4713039Y-16097984D02*
X4693991Y-16088460D01*
X4693991Y-16088460D02*
X4684467Y-16078936D01*
X4684467Y-16078936D02*
X4674944Y-16059888D01*
X4674944Y-16059888D02*
X4665420Y-16021793D01*
X4665420Y-16021793D02*
X4665420Y-15974174D01*
X4665420Y-15974174D02*
X4674944Y-15936079D01*
X4674944Y-15936079D02*
X4684467Y-15917031D01*
X4684467Y-15917031D02*
X4693991Y-15907508D01*
X4693991Y-15907508D02*
X4713039Y-15897984D01*
X4865420Y-16097984D02*
X4865420Y-15964650D01*
X4865420Y-15983698D02*
X4874944Y-15974174D01*
X4874944Y-15974174D02*
X4893991Y-15964650D01*
X4893991Y-15964650D02*
X4922563Y-15964650D01*
X4922563Y-15964650D02*
X4941610Y-15974174D01*
X4941610Y-15974174D02*
X4951134Y-15993222D01*
X4951134Y-15993222D02*
X4951134Y-16097984D01*
X4951134Y-15993222D02*
X4960658Y-15974174D01*
X4960658Y-15974174D02*
X4979705Y-15964650D01*
X4979705Y-15964650D02*
X5008277Y-15964650D01*
X5008277Y-15964650D02*
X5027325Y-15974174D01*
X5027325Y-15974174D02*
X5036848Y-15993222D01*
X5036848Y-15993222D02*
X5036848Y-16097984D01*
X5132086Y-16097984D02*
X5132086Y-15964650D01*
X5132086Y-15983698D02*
X5141610Y-15974174D01*
X5141610Y-15974174D02*
X5160658Y-15964650D01*
X5160658Y-15964650D02*
X5189229Y-15964650D01*
X5189229Y-15964650D02*
X5208277Y-15974174D01*
X5208277Y-15974174D02*
X5217801Y-15993222D01*
X5217801Y-15993222D02*
X5217801Y-16097984D01*
X5217801Y-15993222D02*
X5227325Y-15974174D01*
X5227325Y-15974174D02*
X5246372Y-15964650D01*
X5246372Y-15964650D02*
X5274944Y-15964650D01*
X5274944Y-15964650D02*
X5293991Y-15974174D01*
X5293991Y-15974174D02*
X5303515Y-15993222D01*
X5303515Y-15993222D02*
X5303515Y-16097984D01*
X5693991Y-15888460D02*
X5522563Y-16145603D01*
X5951134Y-15897984D02*
X5970182Y-15897984D01*
X5970182Y-15897984D02*
X5989229Y-15907508D01*
X5989229Y-15907508D02*
X5998753Y-15917031D01*
X5998753Y-15917031D02*
X6008277Y-15936079D01*
X6008277Y-15936079D02*
X6017801Y-15974174D01*
X6017801Y-15974174D02*
X6017801Y-16021793D01*
X6017801Y-16021793D02*
X6008277Y-16059888D01*
X6008277Y-16059888D02*
X5998753Y-16078936D01*
X5998753Y-16078936D02*
X5989229Y-16088460D01*
X5989229Y-16088460D02*
X5970182Y-16097984D01*
X5970182Y-16097984D02*
X5951134Y-16097984D01*
X5951134Y-16097984D02*
X5932086Y-16088460D01*
X5932086Y-16088460D02*
X5922563Y-16078936D01*
X5922563Y-16078936D02*
X5913039Y-16059888D01*
X5913039Y-16059888D02*
X5903515Y-16021793D01*
X5903515Y-16021793D02*
X5903515Y-15974174D01*
X5903515Y-15974174D02*
X5913039Y-15936079D01*
X5913039Y-15936079D02*
X5922563Y-15917031D01*
X5922563Y-15917031D02*
X5932086Y-15907508D01*
X5932086Y-15907508D02*
X5951134Y-15897984D01*
X6103515Y-16078936D02*
X6113039Y-16088460D01*
X6113039Y-16088460D02*
X6103515Y-16097984D01*
X6103515Y-16097984D02*
X6093991Y-16088460D01*
X6093991Y-16088460D02*
X6103515Y-16078936D01*
X6103515Y-16078936D02*
X6103515Y-16097984D01*
X6236848Y-15897984D02*
X6255896Y-15897984D01*
X6255896Y-15897984D02*
X6274944Y-15907508D01*
X6274944Y-15907508D02*
X6284467Y-15917031D01*
X6284467Y-15917031D02*
X6293991Y-15936079D01*
X6293991Y-15936079D02*
X6303515Y-15974174D01*
X6303515Y-15974174D02*
X6303515Y-16021793D01*
X6303515Y-16021793D02*
X6293991Y-16059888D01*
X6293991Y-16059888D02*
X6284467Y-16078936D01*
X6284467Y-16078936D02*
X6274944Y-16088460D01*
X6274944Y-16088460D02*
X6255896Y-16097984D01*
X6255896Y-16097984D02*
X6236848Y-16097984D01*
X6236848Y-16097984D02*
X6217801Y-16088460D01*
X6217801Y-16088460D02*
X6208277Y-16078936D01*
X6208277Y-16078936D02*
X6198753Y-16059888D01*
X6198753Y-16059888D02*
X6189229Y-16021793D01*
X6189229Y-16021793D02*
X6189229Y-15974174D01*
X6189229Y-15974174D02*
X6198753Y-15936079D01*
X6198753Y-15936079D02*
X6208277Y-15917031D01*
X6208277Y-15917031D02*
X6217801Y-15907508D01*
X6217801Y-15907508D02*
X6236848Y-15897984D01*
X6370182Y-15897984D02*
X6493991Y-15897984D01*
X6493991Y-15897984D02*
X6427325Y-15974174D01*
X6427325Y-15974174D02*
X6455896Y-15974174D01*
X6455896Y-15974174D02*
X6474944Y-15983698D01*
X6474944Y-15983698D02*
X6484467Y-15993222D01*
X6484467Y-15993222D02*
X6493991Y-16012269D01*
X6493991Y-16012269D02*
X6493991Y-16059888D01*
X6493991Y-16059888D02*
X6484467Y-16078936D01*
X6484467Y-16078936D02*
X6474944Y-16088460D01*
X6474944Y-16088460D02*
X6455896Y-16097984D01*
X6455896Y-16097984D02*
X6398753Y-16097984D01*
X6398753Y-16097984D02*
X6379706Y-16088460D01*
X6379706Y-16088460D02*
X6370182Y-16078936D01*
X6684467Y-16097984D02*
X6570182Y-16097984D01*
X6627325Y-16097984D02*
X6627325Y-15897984D01*
X6627325Y-15897984D02*
X6608277Y-15926555D01*
X6608277Y-15926555D02*
X6589229Y-15945603D01*
X6589229Y-15945603D02*
X6570182Y-15955127D01*
X6865420Y-15897984D02*
X6770182Y-15897984D01*
X6770182Y-15897984D02*
X6760658Y-15993222D01*
X6760658Y-15993222D02*
X6770182Y-15983698D01*
X6770182Y-15983698D02*
X6789229Y-15974174D01*
X6789229Y-15974174D02*
X6836848Y-15974174D01*
X6836848Y-15974174D02*
X6855896Y-15983698D01*
X6855896Y-15983698D02*
X6865420Y-15993222D01*
X6865420Y-15993222D02*
X6874944Y-16012269D01*
X6874944Y-16012269D02*
X6874944Y-16059888D01*
X6874944Y-16059888D02*
X6865420Y-16078936D01*
X6865420Y-16078936D02*
X6855896Y-16088460D01*
X6855896Y-16088460D02*
X6836848Y-16097984D01*
X6836848Y-16097984D02*
X6789229Y-16097984D01*
X6789229Y-16097984D02*
X6770182Y-16088460D01*
X6770182Y-16088460D02*
X6760658Y-16078936D01*
X6951134Y-15897984D02*
X6951134Y-15936079D01*
X7027325Y-15897984D02*
X7027325Y-15936079D01*
X7322563Y-16174174D02*
X7313039Y-16164650D01*
X7313039Y-16164650D02*
X7293991Y-16136079D01*
X7293991Y-16136079D02*
X7284468Y-16117031D01*
X7284468Y-16117031D02*
X7274944Y-16088460D01*
X7274944Y-16088460D02*
X7265420Y-16040841D01*
X7265420Y-16040841D02*
X7265420Y-16002746D01*
X7265420Y-16002746D02*
X7274944Y-15955127D01*
X7274944Y-15955127D02*
X7284468Y-15926555D01*
X7284468Y-15926555D02*
X7293991Y-15907508D01*
X7293991Y-15907508D02*
X7313039Y-15878936D01*
X7313039Y-15878936D02*
X7322563Y-15869412D01*
X7427325Y-15983698D02*
X7408277Y-15974174D01*
X7408277Y-15974174D02*
X7398753Y-15964650D01*
X7398753Y-15964650D02*
X7389229Y-15945603D01*
X7389229Y-15945603D02*
X7389229Y-15936079D01*
X7389229Y-15936079D02*
X7398753Y-15917031D01*
X7398753Y-15917031D02*
X7408277Y-15907508D01*
X7408277Y-15907508D02*
X7427325Y-15897984D01*
X7427325Y-15897984D02*
X7465420Y-15897984D01*
X7465420Y-15897984D02*
X7484468Y-15907508D01*
X7484468Y-15907508D02*
X7493991Y-15917031D01*
X7493991Y-15917031D02*
X7503515Y-15936079D01*
X7503515Y-15936079D02*
X7503515Y-15945603D01*
X7503515Y-15945603D02*
X7493991Y-15964650D01*
X7493991Y-15964650D02*
X7484468Y-15974174D01*
X7484468Y-15974174D02*
X7465420Y-15983698D01*
X7465420Y-15983698D02*
X7427325Y-15983698D01*
X7427325Y-15983698D02*
X7408277Y-15993222D01*
X7408277Y-15993222D02*
X7398753Y-16002746D01*
X7398753Y-16002746D02*
X7389229Y-16021793D01*
X7389229Y-16021793D02*
X7389229Y-16059888D01*
X7389229Y-16059888D02*
X7398753Y-16078936D01*
X7398753Y-16078936D02*
X7408277Y-16088460D01*
X7408277Y-16088460D02*
X7427325Y-16097984D01*
X7427325Y-16097984D02*
X7465420Y-16097984D01*
X7465420Y-16097984D02*
X7484468Y-16088460D01*
X7484468Y-16088460D02*
X7493991Y-16078936D01*
X7493991Y-16078936D02*
X7503515Y-16059888D01*
X7503515Y-16059888D02*
X7503515Y-16021793D01*
X7503515Y-16021793D02*
X7493991Y-16002746D01*
X7493991Y-16002746D02*
X7484468Y-15993222D01*
X7484468Y-15993222D02*
X7465420Y-15983698D01*
X7741610Y-16097984D02*
X7741610Y-15897984D01*
X7827325Y-16097984D02*
X7827325Y-15993222D01*
X7827325Y-15993222D02*
X7817801Y-15974174D01*
X7817801Y-15974174D02*
X7798753Y-15964650D01*
X7798753Y-15964650D02*
X7770182Y-15964650D01*
X7770182Y-15964650D02*
X7751134Y-15974174D01*
X7751134Y-15974174D02*
X7741610Y-15983698D01*
X7951134Y-16097984D02*
X7932087Y-16088460D01*
X7932087Y-16088460D02*
X7922563Y-16078936D01*
X7922563Y-16078936D02*
X7913039Y-16059888D01*
X7913039Y-16059888D02*
X7913039Y-16002746D01*
X7913039Y-16002746D02*
X7922563Y-15983698D01*
X7922563Y-15983698D02*
X7932087Y-15974174D01*
X7932087Y-15974174D02*
X7951134Y-15964650D01*
X7951134Y-15964650D02*
X7979706Y-15964650D01*
X7979706Y-15964650D02*
X7998753Y-15974174D01*
X7998753Y-15974174D02*
X8008277Y-15983698D01*
X8008277Y-15983698D02*
X8017801Y-16002746D01*
X8017801Y-16002746D02*
X8017801Y-16059888D01*
X8017801Y-16059888D02*
X8008277Y-16078936D01*
X8008277Y-16078936D02*
X7998753Y-16088460D01*
X7998753Y-16088460D02*
X7979706Y-16097984D01*
X7979706Y-16097984D02*
X7951134Y-16097984D01*
X8132087Y-16097984D02*
X8113039Y-16088460D01*
X8113039Y-16088460D02*
X8103515Y-16069412D01*
X8103515Y-16069412D02*
X8103515Y-15897984D01*
X8284468Y-16088460D02*
X8265420Y-16097984D01*
X8265420Y-16097984D02*
X8227325Y-16097984D01*
X8227325Y-16097984D02*
X8208277Y-16088460D01*
X8208277Y-16088460D02*
X8198753Y-16069412D01*
X8198753Y-16069412D02*
X8198753Y-15993222D01*
X8198753Y-15993222D02*
X8208277Y-15974174D01*
X8208277Y-15974174D02*
X8227325Y-15964650D01*
X8227325Y-15964650D02*
X8265420Y-15964650D01*
X8265420Y-15964650D02*
X8284468Y-15974174D01*
X8284468Y-15974174D02*
X8293991Y-15993222D01*
X8293991Y-15993222D02*
X8293991Y-16012269D01*
X8293991Y-16012269D02*
X8198753Y-16031317D01*
X8370182Y-16088460D02*
X8389230Y-16097984D01*
X8389230Y-16097984D02*
X8427325Y-16097984D01*
X8427325Y-16097984D02*
X8446373Y-16088460D01*
X8446373Y-16088460D02*
X8455896Y-16069412D01*
X8455896Y-16069412D02*
X8455896Y-16059888D01*
X8455896Y-16059888D02*
X8446373Y-16040841D01*
X8446373Y-16040841D02*
X8427325Y-16031317D01*
X8427325Y-16031317D02*
X8398753Y-16031317D01*
X8398753Y-16031317D02*
X8379706Y-16021793D01*
X8379706Y-16021793D02*
X8370182Y-16002746D01*
X8370182Y-16002746D02*
X8370182Y-15993222D01*
X8370182Y-15993222D02*
X8379706Y-15974174D01*
X8379706Y-15974174D02*
X8398753Y-15964650D01*
X8398753Y-15964650D02*
X8427325Y-15964650D01*
X8427325Y-15964650D02*
X8446373Y-15974174D01*
X8522563Y-16174174D02*
X8532087Y-16164650D01*
X8532087Y-16164650D02*
X8551134Y-16136079D01*
X8551134Y-16136079D02*
X8560658Y-16117031D01*
X8560658Y-16117031D02*
X8570182Y-16088460D01*
X8570182Y-16088460D02*
X8579706Y-16040841D01*
X8579706Y-16040841D02*
X8579706Y-16002746D01*
X8579706Y-16002746D02*
X8570182Y-15955127D01*
X8570182Y-15955127D02*
X8560658Y-15926555D01*
X8560658Y-15926555D02*
X8551134Y-15907508D01*
X8551134Y-15907508D02*
X8532087Y-15878936D01*
X8532087Y-15878936D02*
X8522563Y-15869412D01*
D12*
X3697500Y-16220500D02*
X3697500Y-16320500D01*
X3647500Y-16270500D02*
X3747500Y-16270500D01*
D11*
X4113039Y-16361984D02*
X3998753Y-16361984D01*
X4055896Y-16361984D02*
X4055896Y-16161984D01*
X4055896Y-16161984D02*
X4036848Y-16190555D01*
X4036848Y-16190555D02*
X4017801Y-16209603D01*
X4017801Y-16209603D02*
X3998753Y-16219127D01*
X4198753Y-16342936D02*
X4208277Y-16352460D01*
X4208277Y-16352460D02*
X4198753Y-16361984D01*
X4198753Y-16361984D02*
X4189229Y-16352460D01*
X4189229Y-16352460D02*
X4198753Y-16342936D01*
X4198753Y-16342936D02*
X4198753Y-16361984D01*
X4332086Y-16161984D02*
X4351134Y-16161984D01*
X4351134Y-16161984D02*
X4370182Y-16171508D01*
X4370182Y-16171508D02*
X4379705Y-16181031D01*
X4379705Y-16181031D02*
X4389229Y-16200079D01*
X4389229Y-16200079D02*
X4398753Y-16238174D01*
X4398753Y-16238174D02*
X4398753Y-16285793D01*
X4398753Y-16285793D02*
X4389229Y-16323888D01*
X4389229Y-16323888D02*
X4379705Y-16342936D01*
X4379705Y-16342936D02*
X4370182Y-16352460D01*
X4370182Y-16352460D02*
X4351134Y-16361984D01*
X4351134Y-16361984D02*
X4332086Y-16361984D01*
X4332086Y-16361984D02*
X4313039Y-16352460D01*
X4313039Y-16352460D02*
X4303515Y-16342936D01*
X4303515Y-16342936D02*
X4293991Y-16323888D01*
X4293991Y-16323888D02*
X4284467Y-16285793D01*
X4284467Y-16285793D02*
X4284467Y-16238174D01*
X4284467Y-16238174D02*
X4293991Y-16200079D01*
X4293991Y-16200079D02*
X4303515Y-16181031D01*
X4303515Y-16181031D02*
X4313039Y-16171508D01*
X4313039Y-16171508D02*
X4332086Y-16161984D01*
X4522563Y-16161984D02*
X4541610Y-16161984D01*
X4541610Y-16161984D02*
X4560658Y-16171508D01*
X4560658Y-16171508D02*
X4570182Y-16181031D01*
X4570182Y-16181031D02*
X4579705Y-16200079D01*
X4579705Y-16200079D02*
X4589229Y-16238174D01*
X4589229Y-16238174D02*
X4589229Y-16285793D01*
X4589229Y-16285793D02*
X4579705Y-16323888D01*
X4579705Y-16323888D02*
X4570182Y-16342936D01*
X4570182Y-16342936D02*
X4560658Y-16352460D01*
X4560658Y-16352460D02*
X4541610Y-16361984D01*
X4541610Y-16361984D02*
X4522563Y-16361984D01*
X4522563Y-16361984D02*
X4503515Y-16352460D01*
X4503515Y-16352460D02*
X4493991Y-16342936D01*
X4493991Y-16342936D02*
X4484467Y-16323888D01*
X4484467Y-16323888D02*
X4474944Y-16285793D01*
X4474944Y-16285793D02*
X4474944Y-16238174D01*
X4474944Y-16238174D02*
X4484467Y-16200079D01*
X4484467Y-16200079D02*
X4493991Y-16181031D01*
X4493991Y-16181031D02*
X4503515Y-16171508D01*
X4503515Y-16171508D02*
X4522563Y-16161984D01*
X4713039Y-16161984D02*
X4732086Y-16161984D01*
X4732086Y-16161984D02*
X4751134Y-16171508D01*
X4751134Y-16171508D02*
X4760658Y-16181031D01*
X4760658Y-16181031D02*
X4770182Y-16200079D01*
X4770182Y-16200079D02*
X4779705Y-16238174D01*
X4779705Y-16238174D02*
X4779705Y-16285793D01*
X4779705Y-16285793D02*
X4770182Y-16323888D01*
X4770182Y-16323888D02*
X4760658Y-16342936D01*
X4760658Y-16342936D02*
X4751134Y-16352460D01*
X4751134Y-16352460D02*
X4732086Y-16361984D01*
X4732086Y-16361984D02*
X4713039Y-16361984D01*
X4713039Y-16361984D02*
X4693991Y-16352460D01*
X4693991Y-16352460D02*
X4684467Y-16342936D01*
X4684467Y-16342936D02*
X4674944Y-16323888D01*
X4674944Y-16323888D02*
X4665420Y-16285793D01*
X4665420Y-16285793D02*
X4665420Y-16238174D01*
X4665420Y-16238174D02*
X4674944Y-16200079D01*
X4674944Y-16200079D02*
X4684467Y-16181031D01*
X4684467Y-16181031D02*
X4693991Y-16171508D01*
X4693991Y-16171508D02*
X4713039Y-16161984D01*
X4865420Y-16361984D02*
X4865420Y-16228650D01*
X4865420Y-16247698D02*
X4874944Y-16238174D01*
X4874944Y-16238174D02*
X4893991Y-16228650D01*
X4893991Y-16228650D02*
X4922563Y-16228650D01*
X4922563Y-16228650D02*
X4941610Y-16238174D01*
X4941610Y-16238174D02*
X4951134Y-16257222D01*
X4951134Y-16257222D02*
X4951134Y-16361984D01*
X4951134Y-16257222D02*
X4960658Y-16238174D01*
X4960658Y-16238174D02*
X4979705Y-16228650D01*
X4979705Y-16228650D02*
X5008277Y-16228650D01*
X5008277Y-16228650D02*
X5027325Y-16238174D01*
X5027325Y-16238174D02*
X5036848Y-16257222D01*
X5036848Y-16257222D02*
X5036848Y-16361984D01*
X5132086Y-16361984D02*
X5132086Y-16228650D01*
X5132086Y-16247698D02*
X5141610Y-16238174D01*
X5141610Y-16238174D02*
X5160658Y-16228650D01*
X5160658Y-16228650D02*
X5189229Y-16228650D01*
X5189229Y-16228650D02*
X5208277Y-16238174D01*
X5208277Y-16238174D02*
X5217801Y-16257222D01*
X5217801Y-16257222D02*
X5217801Y-16361984D01*
X5217801Y-16257222D02*
X5227325Y-16238174D01*
X5227325Y-16238174D02*
X5246372Y-16228650D01*
X5246372Y-16228650D02*
X5274944Y-16228650D01*
X5274944Y-16228650D02*
X5293991Y-16238174D01*
X5293991Y-16238174D02*
X5303515Y-16257222D01*
X5303515Y-16257222D02*
X5303515Y-16361984D01*
X5693991Y-16152460D02*
X5522563Y-16409603D01*
X5951134Y-16161984D02*
X5970182Y-16161984D01*
X5970182Y-16161984D02*
X5989229Y-16171508D01*
X5989229Y-16171508D02*
X5998753Y-16181031D01*
X5998753Y-16181031D02*
X6008277Y-16200079D01*
X6008277Y-16200079D02*
X6017801Y-16238174D01*
X6017801Y-16238174D02*
X6017801Y-16285793D01*
X6017801Y-16285793D02*
X6008277Y-16323888D01*
X6008277Y-16323888D02*
X5998753Y-16342936D01*
X5998753Y-16342936D02*
X5989229Y-16352460D01*
X5989229Y-16352460D02*
X5970182Y-16361984D01*
X5970182Y-16361984D02*
X5951134Y-16361984D01*
X5951134Y-16361984D02*
X5932086Y-16352460D01*
X5932086Y-16352460D02*
X5922563Y-16342936D01*
X5922563Y-16342936D02*
X5913039Y-16323888D01*
X5913039Y-16323888D02*
X5903515Y-16285793D01*
X5903515Y-16285793D02*
X5903515Y-16238174D01*
X5903515Y-16238174D02*
X5913039Y-16200079D01*
X5913039Y-16200079D02*
X5922563Y-16181031D01*
X5922563Y-16181031D02*
X5932086Y-16171508D01*
X5932086Y-16171508D02*
X5951134Y-16161984D01*
X6103515Y-16342936D02*
X6113039Y-16352460D01*
X6113039Y-16352460D02*
X6103515Y-16361984D01*
X6103515Y-16361984D02*
X6093991Y-16352460D01*
X6093991Y-16352460D02*
X6103515Y-16342936D01*
X6103515Y-16342936D02*
X6103515Y-16361984D01*
X6236848Y-16161984D02*
X6255896Y-16161984D01*
X6255896Y-16161984D02*
X6274944Y-16171508D01*
X6274944Y-16171508D02*
X6284467Y-16181031D01*
X6284467Y-16181031D02*
X6293991Y-16200079D01*
X6293991Y-16200079D02*
X6303515Y-16238174D01*
X6303515Y-16238174D02*
X6303515Y-16285793D01*
X6303515Y-16285793D02*
X6293991Y-16323888D01*
X6293991Y-16323888D02*
X6284467Y-16342936D01*
X6284467Y-16342936D02*
X6274944Y-16352460D01*
X6274944Y-16352460D02*
X6255896Y-16361984D01*
X6255896Y-16361984D02*
X6236848Y-16361984D01*
X6236848Y-16361984D02*
X6217801Y-16352460D01*
X6217801Y-16352460D02*
X6208277Y-16342936D01*
X6208277Y-16342936D02*
X6198753Y-16323888D01*
X6198753Y-16323888D02*
X6189229Y-16285793D01*
X6189229Y-16285793D02*
X6189229Y-16238174D01*
X6189229Y-16238174D02*
X6198753Y-16200079D01*
X6198753Y-16200079D02*
X6208277Y-16181031D01*
X6208277Y-16181031D02*
X6217801Y-16171508D01*
X6217801Y-16171508D02*
X6236848Y-16161984D01*
X6370182Y-16161984D02*
X6493991Y-16161984D01*
X6493991Y-16161984D02*
X6427325Y-16238174D01*
X6427325Y-16238174D02*
X6455896Y-16238174D01*
X6455896Y-16238174D02*
X6474944Y-16247698D01*
X6474944Y-16247698D02*
X6484467Y-16257222D01*
X6484467Y-16257222D02*
X6493991Y-16276269D01*
X6493991Y-16276269D02*
X6493991Y-16323888D01*
X6493991Y-16323888D02*
X6484467Y-16342936D01*
X6484467Y-16342936D02*
X6474944Y-16352460D01*
X6474944Y-16352460D02*
X6455896Y-16361984D01*
X6455896Y-16361984D02*
X6398753Y-16361984D01*
X6398753Y-16361984D02*
X6379706Y-16352460D01*
X6379706Y-16352460D02*
X6370182Y-16342936D01*
X6589229Y-16361984D02*
X6627325Y-16361984D01*
X6627325Y-16361984D02*
X6646372Y-16352460D01*
X6646372Y-16352460D02*
X6655896Y-16342936D01*
X6655896Y-16342936D02*
X6674944Y-16314365D01*
X6674944Y-16314365D02*
X6684467Y-16276269D01*
X6684467Y-16276269D02*
X6684467Y-16200079D01*
X6684467Y-16200079D02*
X6674944Y-16181031D01*
X6674944Y-16181031D02*
X6665420Y-16171508D01*
X6665420Y-16171508D02*
X6646372Y-16161984D01*
X6646372Y-16161984D02*
X6608277Y-16161984D01*
X6608277Y-16161984D02*
X6589229Y-16171508D01*
X6589229Y-16171508D02*
X6579706Y-16181031D01*
X6579706Y-16181031D02*
X6570182Y-16200079D01*
X6570182Y-16200079D02*
X6570182Y-16247698D01*
X6570182Y-16247698D02*
X6579706Y-16266746D01*
X6579706Y-16266746D02*
X6589229Y-16276269D01*
X6589229Y-16276269D02*
X6608277Y-16285793D01*
X6608277Y-16285793D02*
X6646372Y-16285793D01*
X6646372Y-16285793D02*
X6665420Y-16276269D01*
X6665420Y-16276269D02*
X6674944Y-16266746D01*
X6674944Y-16266746D02*
X6684467Y-16247698D01*
X6855896Y-16228650D02*
X6855896Y-16361984D01*
X6808277Y-16152460D02*
X6760658Y-16295317D01*
X6760658Y-16295317D02*
X6884467Y-16295317D01*
X6951134Y-16161984D02*
X6951134Y-16200079D01*
X7027325Y-16161984D02*
X7027325Y-16200079D01*
X7322563Y-16438174D02*
X7313039Y-16428650D01*
X7313039Y-16428650D02*
X7293991Y-16400079D01*
X7293991Y-16400079D02*
X7284468Y-16381031D01*
X7284468Y-16381031D02*
X7274944Y-16352460D01*
X7274944Y-16352460D02*
X7265420Y-16304841D01*
X7265420Y-16304841D02*
X7265420Y-16266746D01*
X7265420Y-16266746D02*
X7274944Y-16219127D01*
X7274944Y-16219127D02*
X7284468Y-16190555D01*
X7284468Y-16190555D02*
X7293991Y-16171508D01*
X7293991Y-16171508D02*
X7313039Y-16142936D01*
X7313039Y-16142936D02*
X7322563Y-16133412D01*
X7379706Y-16161984D02*
X7503515Y-16161984D01*
X7503515Y-16161984D02*
X7436848Y-16238174D01*
X7436848Y-16238174D02*
X7465420Y-16238174D01*
X7465420Y-16238174D02*
X7484468Y-16247698D01*
X7484468Y-16247698D02*
X7493991Y-16257222D01*
X7493991Y-16257222D02*
X7503515Y-16276269D01*
X7503515Y-16276269D02*
X7503515Y-16323888D01*
X7503515Y-16323888D02*
X7493991Y-16342936D01*
X7493991Y-16342936D02*
X7484468Y-16352460D01*
X7484468Y-16352460D02*
X7465420Y-16361984D01*
X7465420Y-16361984D02*
X7408277Y-16361984D01*
X7408277Y-16361984D02*
X7389229Y-16352460D01*
X7389229Y-16352460D02*
X7379706Y-16342936D01*
X7617801Y-16247698D02*
X7598753Y-16238174D01*
X7598753Y-16238174D02*
X7589229Y-16228650D01*
X7589229Y-16228650D02*
X7579706Y-16209603D01*
X7579706Y-16209603D02*
X7579706Y-16200079D01*
X7579706Y-16200079D02*
X7589229Y-16181031D01*
X7589229Y-16181031D02*
X7598753Y-16171508D01*
X7598753Y-16171508D02*
X7617801Y-16161984D01*
X7617801Y-16161984D02*
X7655896Y-16161984D01*
X7655896Y-16161984D02*
X7674944Y-16171508D01*
X7674944Y-16171508D02*
X7684468Y-16181031D01*
X7684468Y-16181031D02*
X7693991Y-16200079D01*
X7693991Y-16200079D02*
X7693991Y-16209603D01*
X7693991Y-16209603D02*
X7684468Y-16228650D01*
X7684468Y-16228650D02*
X7674944Y-16238174D01*
X7674944Y-16238174D02*
X7655896Y-16247698D01*
X7655896Y-16247698D02*
X7617801Y-16247698D01*
X7617801Y-16247698D02*
X7598753Y-16257222D01*
X7598753Y-16257222D02*
X7589229Y-16266746D01*
X7589229Y-16266746D02*
X7579706Y-16285793D01*
X7579706Y-16285793D02*
X7579706Y-16323888D01*
X7579706Y-16323888D02*
X7589229Y-16342936D01*
X7589229Y-16342936D02*
X7598753Y-16352460D01*
X7598753Y-16352460D02*
X7617801Y-16361984D01*
X7617801Y-16361984D02*
X7655896Y-16361984D01*
X7655896Y-16361984D02*
X7674944Y-16352460D01*
X7674944Y-16352460D02*
X7684468Y-16342936D01*
X7684468Y-16342936D02*
X7693991Y-16323888D01*
X7693991Y-16323888D02*
X7693991Y-16285793D01*
X7693991Y-16285793D02*
X7684468Y-16266746D01*
X7684468Y-16266746D02*
X7674944Y-16257222D01*
X7674944Y-16257222D02*
X7655896Y-16247698D01*
X7932087Y-16361984D02*
X7932087Y-16161984D01*
X8017801Y-16361984D02*
X8017801Y-16257222D01*
X8017801Y-16257222D02*
X8008277Y-16238174D01*
X8008277Y-16238174D02*
X7989230Y-16228650D01*
X7989230Y-16228650D02*
X7960658Y-16228650D01*
X7960658Y-16228650D02*
X7941610Y-16238174D01*
X7941610Y-16238174D02*
X7932087Y-16247698D01*
X8141610Y-16361984D02*
X8122563Y-16352460D01*
X8122563Y-16352460D02*
X8113039Y-16342936D01*
X8113039Y-16342936D02*
X8103515Y-16323888D01*
X8103515Y-16323888D02*
X8103515Y-16266746D01*
X8103515Y-16266746D02*
X8113039Y-16247698D01*
X8113039Y-16247698D02*
X8122563Y-16238174D01*
X8122563Y-16238174D02*
X8141610Y-16228650D01*
X8141610Y-16228650D02*
X8170182Y-16228650D01*
X8170182Y-16228650D02*
X8189230Y-16238174D01*
X8189230Y-16238174D02*
X8198753Y-16247698D01*
X8198753Y-16247698D02*
X8208277Y-16266746D01*
X8208277Y-16266746D02*
X8208277Y-16323888D01*
X8208277Y-16323888D02*
X8198753Y-16342936D01*
X8198753Y-16342936D02*
X8189230Y-16352460D01*
X8189230Y-16352460D02*
X8170182Y-16361984D01*
X8170182Y-16361984D02*
X8141610Y-16361984D01*
X8322563Y-16361984D02*
X8303515Y-16352460D01*
X8303515Y-16352460D02*
X8293991Y-16333412D01*
X8293991Y-16333412D02*
X8293991Y-16161984D01*
X8474944Y-16352460D02*
X8455896Y-16361984D01*
X8455896Y-16361984D02*
X8417801Y-16361984D01*
X8417801Y-16361984D02*
X8398753Y-16352460D01*
X8398753Y-16352460D02*
X8389230Y-16333412D01*
X8389230Y-16333412D02*
X8389230Y-16257222D01*
X8389230Y-16257222D02*
X8398753Y-16238174D01*
X8398753Y-16238174D02*
X8417801Y-16228650D01*
X8417801Y-16228650D02*
X8455896Y-16228650D01*
X8455896Y-16228650D02*
X8474944Y-16238174D01*
X8474944Y-16238174D02*
X8484468Y-16257222D01*
X8484468Y-16257222D02*
X8484468Y-16276269D01*
X8484468Y-16276269D02*
X8389230Y-16295317D01*
X8560658Y-16352460D02*
X8579706Y-16361984D01*
X8579706Y-16361984D02*
X8617801Y-16361984D01*
X8617801Y-16361984D02*
X8636849Y-16352460D01*
X8636849Y-16352460D02*
X8646373Y-16333412D01*
X8646373Y-16333412D02*
X8646373Y-16323888D01*
X8646373Y-16323888D02*
X8636849Y-16304841D01*
X8636849Y-16304841D02*
X8617801Y-16295317D01*
X8617801Y-16295317D02*
X8589230Y-16295317D01*
X8589230Y-16295317D02*
X8570182Y-16285793D01*
X8570182Y-16285793D02*
X8560658Y-16266746D01*
X8560658Y-16266746D02*
X8560658Y-16257222D01*
X8560658Y-16257222D02*
X8570182Y-16238174D01*
X8570182Y-16238174D02*
X8589230Y-16228650D01*
X8589230Y-16228650D02*
X8617801Y-16228650D01*
X8617801Y-16228650D02*
X8636849Y-16238174D01*
X8713039Y-16438174D02*
X8722563Y-16428650D01*
X8722563Y-16428650D02*
X8741611Y-16400079D01*
X8741611Y-16400079D02*
X8751134Y-16381031D01*
X8751134Y-16381031D02*
X8760658Y-16352460D01*
X8760658Y-16352460D02*
X8770182Y-16304841D01*
X8770182Y-16304841D02*
X8770182Y-16266746D01*
X8770182Y-16266746D02*
X8760658Y-16219127D01*
X8760658Y-16219127D02*
X8751134Y-16190555D01*
X8751134Y-16190555D02*
X8741611Y-16171508D01*
X8741611Y-16171508D02*
X8722563Y-16142936D01*
X8722563Y-16142936D02*
X8713039Y-16133412D01*
D13*
X3732563Y-16570563D02*
X3732563Y-16498437D01*
X3660437Y-16498437D01*
X3660437Y-16570563D01*
X3732563Y-16570563D01*
D11*
X4113039Y-16625984D02*
X3998753Y-16625984D01*
X4055896Y-16625984D02*
X4055896Y-16425984D01*
X4055896Y-16425984D02*
X4036848Y-16454555D01*
X4036848Y-16454555D02*
X4017801Y-16473603D01*
X4017801Y-16473603D02*
X3998753Y-16483127D01*
X4198753Y-16606936D02*
X4208277Y-16616460D01*
X4208277Y-16616460D02*
X4198753Y-16625984D01*
X4198753Y-16625984D02*
X4189229Y-16616460D01*
X4189229Y-16616460D02*
X4198753Y-16606936D01*
X4198753Y-16606936D02*
X4198753Y-16625984D01*
X4332086Y-16425984D02*
X4351134Y-16425984D01*
X4351134Y-16425984D02*
X4370182Y-16435508D01*
X4370182Y-16435508D02*
X4379705Y-16445031D01*
X4379705Y-16445031D02*
X4389229Y-16464079D01*
X4389229Y-16464079D02*
X4398753Y-16502174D01*
X4398753Y-16502174D02*
X4398753Y-16549793D01*
X4398753Y-16549793D02*
X4389229Y-16587888D01*
X4389229Y-16587888D02*
X4379705Y-16606936D01*
X4379705Y-16606936D02*
X4370182Y-16616460D01*
X4370182Y-16616460D02*
X4351134Y-16625984D01*
X4351134Y-16625984D02*
X4332086Y-16625984D01*
X4332086Y-16625984D02*
X4313039Y-16616460D01*
X4313039Y-16616460D02*
X4303515Y-16606936D01*
X4303515Y-16606936D02*
X4293991Y-16587888D01*
X4293991Y-16587888D02*
X4284467Y-16549793D01*
X4284467Y-16549793D02*
X4284467Y-16502174D01*
X4284467Y-16502174D02*
X4293991Y-16464079D01*
X4293991Y-16464079D02*
X4303515Y-16445031D01*
X4303515Y-16445031D02*
X4313039Y-16435508D01*
X4313039Y-16435508D02*
X4332086Y-16425984D01*
X4474944Y-16445031D02*
X4484467Y-16435508D01*
X4484467Y-16435508D02*
X4503515Y-16425984D01*
X4503515Y-16425984D02*
X4551134Y-16425984D01*
X4551134Y-16425984D02*
X4570182Y-16435508D01*
X4570182Y-16435508D02*
X4579705Y-16445031D01*
X4579705Y-16445031D02*
X4589229Y-16464079D01*
X4589229Y-16464079D02*
X4589229Y-16483127D01*
X4589229Y-16483127D02*
X4579705Y-16511698D01*
X4579705Y-16511698D02*
X4465420Y-16625984D01*
X4465420Y-16625984D02*
X4589229Y-16625984D01*
X4713039Y-16425984D02*
X4732086Y-16425984D01*
X4732086Y-16425984D02*
X4751134Y-16435508D01*
X4751134Y-16435508D02*
X4760658Y-16445031D01*
X4760658Y-16445031D02*
X4770182Y-16464079D01*
X4770182Y-16464079D02*
X4779705Y-16502174D01*
X4779705Y-16502174D02*
X4779705Y-16549793D01*
X4779705Y-16549793D02*
X4770182Y-16587888D01*
X4770182Y-16587888D02*
X4760658Y-16606936D01*
X4760658Y-16606936D02*
X4751134Y-16616460D01*
X4751134Y-16616460D02*
X4732086Y-16625984D01*
X4732086Y-16625984D02*
X4713039Y-16625984D01*
X4713039Y-16625984D02*
X4693991Y-16616460D01*
X4693991Y-16616460D02*
X4684467Y-16606936D01*
X4684467Y-16606936D02*
X4674944Y-16587888D01*
X4674944Y-16587888D02*
X4665420Y-16549793D01*
X4665420Y-16549793D02*
X4665420Y-16502174D01*
X4665420Y-16502174D02*
X4674944Y-16464079D01*
X4674944Y-16464079D02*
X4684467Y-16445031D01*
X4684467Y-16445031D02*
X4693991Y-16435508D01*
X4693991Y-16435508D02*
X4713039Y-16425984D01*
X4865420Y-16625984D02*
X4865420Y-16492650D01*
X4865420Y-16511698D02*
X4874944Y-16502174D01*
X4874944Y-16502174D02*
X4893991Y-16492650D01*
X4893991Y-16492650D02*
X4922563Y-16492650D01*
X4922563Y-16492650D02*
X4941610Y-16502174D01*
X4941610Y-16502174D02*
X4951134Y-16521222D01*
X4951134Y-16521222D02*
X4951134Y-16625984D01*
X4951134Y-16521222D02*
X4960658Y-16502174D01*
X4960658Y-16502174D02*
X4979705Y-16492650D01*
X4979705Y-16492650D02*
X5008277Y-16492650D01*
X5008277Y-16492650D02*
X5027325Y-16502174D01*
X5027325Y-16502174D02*
X5036848Y-16521222D01*
X5036848Y-16521222D02*
X5036848Y-16625984D01*
X5132086Y-16625984D02*
X5132086Y-16492650D01*
X5132086Y-16511698D02*
X5141610Y-16502174D01*
X5141610Y-16502174D02*
X5160658Y-16492650D01*
X5160658Y-16492650D02*
X5189229Y-16492650D01*
X5189229Y-16492650D02*
X5208277Y-16502174D01*
X5208277Y-16502174D02*
X5217801Y-16521222D01*
X5217801Y-16521222D02*
X5217801Y-16625984D01*
X5217801Y-16521222D02*
X5227325Y-16502174D01*
X5227325Y-16502174D02*
X5246372Y-16492650D01*
X5246372Y-16492650D02*
X5274944Y-16492650D01*
X5274944Y-16492650D02*
X5293991Y-16502174D01*
X5293991Y-16502174D02*
X5303515Y-16521222D01*
X5303515Y-16521222D02*
X5303515Y-16625984D01*
X5693991Y-16416460D02*
X5522563Y-16673603D01*
X5951134Y-16425984D02*
X5970182Y-16425984D01*
X5970182Y-16425984D02*
X5989229Y-16435508D01*
X5989229Y-16435508D02*
X5998753Y-16445031D01*
X5998753Y-16445031D02*
X6008277Y-16464079D01*
X6008277Y-16464079D02*
X6017801Y-16502174D01*
X6017801Y-16502174D02*
X6017801Y-16549793D01*
X6017801Y-16549793D02*
X6008277Y-16587888D01*
X6008277Y-16587888D02*
X5998753Y-16606936D01*
X5998753Y-16606936D02*
X5989229Y-16616460D01*
X5989229Y-16616460D02*
X5970182Y-16625984D01*
X5970182Y-16625984D02*
X5951134Y-16625984D01*
X5951134Y-16625984D02*
X5932086Y-16616460D01*
X5932086Y-16616460D02*
X5922563Y-16606936D01*
X5922563Y-16606936D02*
X5913039Y-16587888D01*
X5913039Y-16587888D02*
X5903515Y-16549793D01*
X5903515Y-16549793D02*
X5903515Y-16502174D01*
X5903515Y-16502174D02*
X5913039Y-16464079D01*
X5913039Y-16464079D02*
X5922563Y-16445031D01*
X5922563Y-16445031D02*
X5932086Y-16435508D01*
X5932086Y-16435508D02*
X5951134Y-16425984D01*
X6103515Y-16606936D02*
X6113039Y-16616460D01*
X6113039Y-16616460D02*
X6103515Y-16625984D01*
X6103515Y-16625984D02*
X6093991Y-16616460D01*
X6093991Y-16616460D02*
X6103515Y-16606936D01*
X6103515Y-16606936D02*
X6103515Y-16625984D01*
X6236848Y-16425984D02*
X6255896Y-16425984D01*
X6255896Y-16425984D02*
X6274944Y-16435508D01*
X6274944Y-16435508D02*
X6284467Y-16445031D01*
X6284467Y-16445031D02*
X6293991Y-16464079D01*
X6293991Y-16464079D02*
X6303515Y-16502174D01*
X6303515Y-16502174D02*
X6303515Y-16549793D01*
X6303515Y-16549793D02*
X6293991Y-16587888D01*
X6293991Y-16587888D02*
X6284467Y-16606936D01*
X6284467Y-16606936D02*
X6274944Y-16616460D01*
X6274944Y-16616460D02*
X6255896Y-16625984D01*
X6255896Y-16625984D02*
X6236848Y-16625984D01*
X6236848Y-16625984D02*
X6217801Y-16616460D01*
X6217801Y-16616460D02*
X6208277Y-16606936D01*
X6208277Y-16606936D02*
X6198753Y-16587888D01*
X6198753Y-16587888D02*
X6189229Y-16549793D01*
X6189229Y-16549793D02*
X6189229Y-16502174D01*
X6189229Y-16502174D02*
X6198753Y-16464079D01*
X6198753Y-16464079D02*
X6208277Y-16445031D01*
X6208277Y-16445031D02*
X6217801Y-16435508D01*
X6217801Y-16435508D02*
X6236848Y-16425984D01*
X6474944Y-16492650D02*
X6474944Y-16625984D01*
X6427325Y-16416460D02*
X6379706Y-16559317D01*
X6379706Y-16559317D02*
X6503515Y-16559317D01*
X6617801Y-16425984D02*
X6636848Y-16425984D01*
X6636848Y-16425984D02*
X6655896Y-16435508D01*
X6655896Y-16435508D02*
X6665420Y-16445031D01*
X6665420Y-16445031D02*
X6674944Y-16464079D01*
X6674944Y-16464079D02*
X6684467Y-16502174D01*
X6684467Y-16502174D02*
X6684467Y-16549793D01*
X6684467Y-16549793D02*
X6674944Y-16587888D01*
X6674944Y-16587888D02*
X6665420Y-16606936D01*
X6665420Y-16606936D02*
X6655896Y-16616460D01*
X6655896Y-16616460D02*
X6636848Y-16625984D01*
X6636848Y-16625984D02*
X6617801Y-16625984D01*
X6617801Y-16625984D02*
X6598753Y-16616460D01*
X6598753Y-16616460D02*
X6589229Y-16606936D01*
X6589229Y-16606936D02*
X6579706Y-16587888D01*
X6579706Y-16587888D02*
X6570182Y-16549793D01*
X6570182Y-16549793D02*
X6570182Y-16502174D01*
X6570182Y-16502174D02*
X6579706Y-16464079D01*
X6579706Y-16464079D02*
X6589229Y-16445031D01*
X6589229Y-16445031D02*
X6598753Y-16435508D01*
X6598753Y-16435508D02*
X6617801Y-16425984D01*
X6760658Y-16445031D02*
X6770182Y-16435508D01*
X6770182Y-16435508D02*
X6789229Y-16425984D01*
X6789229Y-16425984D02*
X6836848Y-16425984D01*
X6836848Y-16425984D02*
X6855896Y-16435508D01*
X6855896Y-16435508D02*
X6865420Y-16445031D01*
X6865420Y-16445031D02*
X6874944Y-16464079D01*
X6874944Y-16464079D02*
X6874944Y-16483127D01*
X6874944Y-16483127D02*
X6865420Y-16511698D01*
X6865420Y-16511698D02*
X6751134Y-16625984D01*
X6751134Y-16625984D02*
X6874944Y-16625984D01*
X6951134Y-16425984D02*
X6951134Y-16464079D01*
X7027325Y-16425984D02*
X7027325Y-16464079D01*
X7322563Y-16702174D02*
X7313039Y-16692650D01*
X7313039Y-16692650D02*
X7293991Y-16664079D01*
X7293991Y-16664079D02*
X7284468Y-16645031D01*
X7284468Y-16645031D02*
X7274944Y-16616460D01*
X7274944Y-16616460D02*
X7265420Y-16568841D01*
X7265420Y-16568841D02*
X7265420Y-16530746D01*
X7265420Y-16530746D02*
X7274944Y-16483127D01*
X7274944Y-16483127D02*
X7284468Y-16454555D01*
X7284468Y-16454555D02*
X7293991Y-16435508D01*
X7293991Y-16435508D02*
X7313039Y-16406936D01*
X7313039Y-16406936D02*
X7322563Y-16397412D01*
X7503515Y-16625984D02*
X7389229Y-16625984D01*
X7446372Y-16625984D02*
X7446372Y-16425984D01*
X7446372Y-16425984D02*
X7427325Y-16454555D01*
X7427325Y-16454555D02*
X7408277Y-16473603D01*
X7408277Y-16473603D02*
X7389229Y-16483127D01*
X7627325Y-16425984D02*
X7646372Y-16425984D01*
X7646372Y-16425984D02*
X7665420Y-16435508D01*
X7665420Y-16435508D02*
X7674944Y-16445031D01*
X7674944Y-16445031D02*
X7684468Y-16464079D01*
X7684468Y-16464079D02*
X7693991Y-16502174D01*
X7693991Y-16502174D02*
X7693991Y-16549793D01*
X7693991Y-16549793D02*
X7684468Y-16587888D01*
X7684468Y-16587888D02*
X7674944Y-16606936D01*
X7674944Y-16606936D02*
X7665420Y-16616460D01*
X7665420Y-16616460D02*
X7646372Y-16625984D01*
X7646372Y-16625984D02*
X7627325Y-16625984D01*
X7627325Y-16625984D02*
X7608277Y-16616460D01*
X7608277Y-16616460D02*
X7598753Y-16606936D01*
X7598753Y-16606936D02*
X7589229Y-16587888D01*
X7589229Y-16587888D02*
X7579706Y-16549793D01*
X7579706Y-16549793D02*
X7579706Y-16502174D01*
X7579706Y-16502174D02*
X7589229Y-16464079D01*
X7589229Y-16464079D02*
X7598753Y-16445031D01*
X7598753Y-16445031D02*
X7608277Y-16435508D01*
X7608277Y-16435508D02*
X7627325Y-16425984D01*
X7932087Y-16625984D02*
X7932087Y-16425984D01*
X8017801Y-16625984D02*
X8017801Y-16521222D01*
X8017801Y-16521222D02*
X8008277Y-16502174D01*
X8008277Y-16502174D02*
X7989230Y-16492650D01*
X7989230Y-16492650D02*
X7960658Y-16492650D01*
X7960658Y-16492650D02*
X7941610Y-16502174D01*
X7941610Y-16502174D02*
X7932087Y-16511698D01*
X8141610Y-16625984D02*
X8122563Y-16616460D01*
X8122563Y-16616460D02*
X8113039Y-16606936D01*
X8113039Y-16606936D02*
X8103515Y-16587888D01*
X8103515Y-16587888D02*
X8103515Y-16530746D01*
X8103515Y-16530746D02*
X8113039Y-16511698D01*
X8113039Y-16511698D02*
X8122563Y-16502174D01*
X8122563Y-16502174D02*
X8141610Y-16492650D01*
X8141610Y-16492650D02*
X8170182Y-16492650D01*
X8170182Y-16492650D02*
X8189230Y-16502174D01*
X8189230Y-16502174D02*
X8198753Y-16511698D01*
X8198753Y-16511698D02*
X8208277Y-16530746D01*
X8208277Y-16530746D02*
X8208277Y-16587888D01*
X8208277Y-16587888D02*
X8198753Y-16606936D01*
X8198753Y-16606936D02*
X8189230Y-16616460D01*
X8189230Y-16616460D02*
X8170182Y-16625984D01*
X8170182Y-16625984D02*
X8141610Y-16625984D01*
X8322563Y-16625984D02*
X8303515Y-16616460D01*
X8303515Y-16616460D02*
X8293991Y-16597412D01*
X8293991Y-16597412D02*
X8293991Y-16425984D01*
X8474944Y-16616460D02*
X8455896Y-16625984D01*
X8455896Y-16625984D02*
X8417801Y-16625984D01*
X8417801Y-16625984D02*
X8398753Y-16616460D01*
X8398753Y-16616460D02*
X8389230Y-16597412D01*
X8389230Y-16597412D02*
X8389230Y-16521222D01*
X8389230Y-16521222D02*
X8398753Y-16502174D01*
X8398753Y-16502174D02*
X8417801Y-16492650D01*
X8417801Y-16492650D02*
X8455896Y-16492650D01*
X8455896Y-16492650D02*
X8474944Y-16502174D01*
X8474944Y-16502174D02*
X8484468Y-16521222D01*
X8484468Y-16521222D02*
X8484468Y-16540269D01*
X8484468Y-16540269D02*
X8389230Y-16559317D01*
X8560658Y-16616460D02*
X8579706Y-16625984D01*
X8579706Y-16625984D02*
X8617801Y-16625984D01*
X8617801Y-16625984D02*
X8636849Y-16616460D01*
X8636849Y-16616460D02*
X8646373Y-16597412D01*
X8646373Y-16597412D02*
X8646373Y-16587888D01*
X8646373Y-16587888D02*
X8636849Y-16568841D01*
X8636849Y-16568841D02*
X8617801Y-16559317D01*
X8617801Y-16559317D02*
X8589230Y-16559317D01*
X8589230Y-16559317D02*
X8570182Y-16549793D01*
X8570182Y-16549793D02*
X8560658Y-16530746D01*
X8560658Y-16530746D02*
X8560658Y-16521222D01*
X8560658Y-16521222D02*
X8570182Y-16502174D01*
X8570182Y-16502174D02*
X8589230Y-16492650D01*
X8589230Y-16492650D02*
X8617801Y-16492650D01*
X8617801Y-16492650D02*
X8636849Y-16502174D01*
X8713039Y-16702174D02*
X8722563Y-16692650D01*
X8722563Y-16692650D02*
X8741611Y-16664079D01*
X8741611Y-16664079D02*
X8751134Y-16645031D01*
X8751134Y-16645031D02*
X8760658Y-16616460D01*
X8760658Y-16616460D02*
X8770182Y-16568841D01*
X8770182Y-16568841D02*
X8770182Y-16530746D01*
X8770182Y-16530746D02*
X8760658Y-16483127D01*
X8760658Y-16483127D02*
X8751134Y-16454555D01*
X8751134Y-16454555D02*
X8741611Y-16435508D01*
X8741611Y-16435508D02*
X8722563Y-16406936D01*
X8722563Y-16406936D02*
X8713039Y-16397412D01*
D14*
X3692000Y-16854000D02*
X3747500Y-16798500D01*
X3692000Y-16743000D01*
X3636500Y-16798500D01*
X3692000Y-16854000D01*
D11*
X4113039Y-16889984D02*
X3998753Y-16889984D01*
X4055896Y-16889984D02*
X4055896Y-16689984D01*
X4055896Y-16689984D02*
X4036848Y-16718555D01*
X4036848Y-16718555D02*
X4017801Y-16737603D01*
X4017801Y-16737603D02*
X3998753Y-16747127D01*
X4198753Y-16870936D02*
X4208277Y-16880460D01*
X4208277Y-16880460D02*
X4198753Y-16889984D01*
X4198753Y-16889984D02*
X4189229Y-16880460D01*
X4189229Y-16880460D02*
X4198753Y-16870936D01*
X4198753Y-16870936D02*
X4198753Y-16889984D01*
X4398753Y-16889984D02*
X4284467Y-16889984D01*
X4341610Y-16889984D02*
X4341610Y-16689984D01*
X4341610Y-16689984D02*
X4322563Y-16718555D01*
X4322563Y-16718555D02*
X4303515Y-16737603D01*
X4303515Y-16737603D02*
X4284467Y-16747127D01*
X4589229Y-16889984D02*
X4474944Y-16889984D01*
X4532086Y-16889984D02*
X4532086Y-16689984D01*
X4532086Y-16689984D02*
X4513039Y-16718555D01*
X4513039Y-16718555D02*
X4493991Y-16737603D01*
X4493991Y-16737603D02*
X4474944Y-16747127D01*
X4713039Y-16689984D02*
X4732086Y-16689984D01*
X4732086Y-16689984D02*
X4751134Y-16699508D01*
X4751134Y-16699508D02*
X4760658Y-16709031D01*
X4760658Y-16709031D02*
X4770182Y-16728079D01*
X4770182Y-16728079D02*
X4779705Y-16766174D01*
X4779705Y-16766174D02*
X4779705Y-16813793D01*
X4779705Y-16813793D02*
X4770182Y-16851889D01*
X4770182Y-16851889D02*
X4760658Y-16870936D01*
X4760658Y-16870936D02*
X4751134Y-16880460D01*
X4751134Y-16880460D02*
X4732086Y-16889984D01*
X4732086Y-16889984D02*
X4713039Y-16889984D01*
X4713039Y-16889984D02*
X4693991Y-16880460D01*
X4693991Y-16880460D02*
X4684467Y-16870936D01*
X4684467Y-16870936D02*
X4674944Y-16851889D01*
X4674944Y-16851889D02*
X4665420Y-16813793D01*
X4665420Y-16813793D02*
X4665420Y-16766174D01*
X4665420Y-16766174D02*
X4674944Y-16728079D01*
X4674944Y-16728079D02*
X4684467Y-16709031D01*
X4684467Y-16709031D02*
X4693991Y-16699508D01*
X4693991Y-16699508D02*
X4713039Y-16689984D01*
X4865420Y-16889984D02*
X4865420Y-16756650D01*
X4865420Y-16775698D02*
X4874944Y-16766174D01*
X4874944Y-16766174D02*
X4893991Y-16756650D01*
X4893991Y-16756650D02*
X4922563Y-16756650D01*
X4922563Y-16756650D02*
X4941610Y-16766174D01*
X4941610Y-16766174D02*
X4951134Y-16785222D01*
X4951134Y-16785222D02*
X4951134Y-16889984D01*
X4951134Y-16785222D02*
X4960658Y-16766174D01*
X4960658Y-16766174D02*
X4979705Y-16756650D01*
X4979705Y-16756650D02*
X5008277Y-16756650D01*
X5008277Y-16756650D02*
X5027325Y-16766174D01*
X5027325Y-16766174D02*
X5036848Y-16785222D01*
X5036848Y-16785222D02*
X5036848Y-16889984D01*
X5132086Y-16889984D02*
X5132086Y-16756650D01*
X5132086Y-16775698D02*
X5141610Y-16766174D01*
X5141610Y-16766174D02*
X5160658Y-16756650D01*
X5160658Y-16756650D02*
X5189229Y-16756650D01*
X5189229Y-16756650D02*
X5208277Y-16766174D01*
X5208277Y-16766174D02*
X5217801Y-16785222D01*
X5217801Y-16785222D02*
X5217801Y-16889984D01*
X5217801Y-16785222D02*
X5227325Y-16766174D01*
X5227325Y-16766174D02*
X5246372Y-16756650D01*
X5246372Y-16756650D02*
X5274944Y-16756650D01*
X5274944Y-16756650D02*
X5293991Y-16766174D01*
X5293991Y-16766174D02*
X5303515Y-16785222D01*
X5303515Y-16785222D02*
X5303515Y-16889984D01*
X5693991Y-16680460D02*
X5522563Y-16937603D01*
X5951134Y-16689984D02*
X5970182Y-16689984D01*
X5970182Y-16689984D02*
X5989229Y-16699508D01*
X5989229Y-16699508D02*
X5998753Y-16709031D01*
X5998753Y-16709031D02*
X6008277Y-16728079D01*
X6008277Y-16728079D02*
X6017801Y-16766174D01*
X6017801Y-16766174D02*
X6017801Y-16813793D01*
X6017801Y-16813793D02*
X6008277Y-16851889D01*
X6008277Y-16851889D02*
X5998753Y-16870936D01*
X5998753Y-16870936D02*
X5989229Y-16880460D01*
X5989229Y-16880460D02*
X5970182Y-16889984D01*
X5970182Y-16889984D02*
X5951134Y-16889984D01*
X5951134Y-16889984D02*
X5932086Y-16880460D01*
X5932086Y-16880460D02*
X5922563Y-16870936D01*
X5922563Y-16870936D02*
X5913039Y-16851889D01*
X5913039Y-16851889D02*
X5903515Y-16813793D01*
X5903515Y-16813793D02*
X5903515Y-16766174D01*
X5903515Y-16766174D02*
X5913039Y-16728079D01*
X5913039Y-16728079D02*
X5922563Y-16709031D01*
X5922563Y-16709031D02*
X5932086Y-16699508D01*
X5932086Y-16699508D02*
X5951134Y-16689984D01*
X6103515Y-16870936D02*
X6113039Y-16880460D01*
X6113039Y-16880460D02*
X6103515Y-16889984D01*
X6103515Y-16889984D02*
X6093991Y-16880460D01*
X6093991Y-16880460D02*
X6103515Y-16870936D01*
X6103515Y-16870936D02*
X6103515Y-16889984D01*
X6236848Y-16689984D02*
X6255896Y-16689984D01*
X6255896Y-16689984D02*
X6274944Y-16699508D01*
X6274944Y-16699508D02*
X6284467Y-16709031D01*
X6284467Y-16709031D02*
X6293991Y-16728079D01*
X6293991Y-16728079D02*
X6303515Y-16766174D01*
X6303515Y-16766174D02*
X6303515Y-16813793D01*
X6303515Y-16813793D02*
X6293991Y-16851889D01*
X6293991Y-16851889D02*
X6284467Y-16870936D01*
X6284467Y-16870936D02*
X6274944Y-16880460D01*
X6274944Y-16880460D02*
X6255896Y-16889984D01*
X6255896Y-16889984D02*
X6236848Y-16889984D01*
X6236848Y-16889984D02*
X6217801Y-16880460D01*
X6217801Y-16880460D02*
X6208277Y-16870936D01*
X6208277Y-16870936D02*
X6198753Y-16851889D01*
X6198753Y-16851889D02*
X6189229Y-16813793D01*
X6189229Y-16813793D02*
X6189229Y-16766174D01*
X6189229Y-16766174D02*
X6198753Y-16728079D01*
X6198753Y-16728079D02*
X6208277Y-16709031D01*
X6208277Y-16709031D02*
X6217801Y-16699508D01*
X6217801Y-16699508D02*
X6236848Y-16689984D01*
X6474944Y-16756650D02*
X6474944Y-16889984D01*
X6427325Y-16680460D02*
X6379706Y-16823317D01*
X6379706Y-16823317D02*
X6503515Y-16823317D01*
X6560658Y-16689984D02*
X6684467Y-16689984D01*
X6684467Y-16689984D02*
X6617801Y-16766174D01*
X6617801Y-16766174D02*
X6646372Y-16766174D01*
X6646372Y-16766174D02*
X6665420Y-16775698D01*
X6665420Y-16775698D02*
X6674944Y-16785222D01*
X6674944Y-16785222D02*
X6684467Y-16804270D01*
X6684467Y-16804270D02*
X6684467Y-16851889D01*
X6684467Y-16851889D02*
X6674944Y-16870936D01*
X6674944Y-16870936D02*
X6665420Y-16880460D01*
X6665420Y-16880460D02*
X6646372Y-16889984D01*
X6646372Y-16889984D02*
X6589229Y-16889984D01*
X6589229Y-16889984D02*
X6570182Y-16880460D01*
X6570182Y-16880460D02*
X6560658Y-16870936D01*
X6751134Y-16689984D02*
X6884467Y-16689984D01*
X6884467Y-16689984D02*
X6798753Y-16889984D01*
X6951134Y-16689984D02*
X6951134Y-16728079D01*
X7027325Y-16689984D02*
X7027325Y-16728079D01*
X7322563Y-16966174D02*
X7313039Y-16956650D01*
X7313039Y-16956650D02*
X7293991Y-16928079D01*
X7293991Y-16928079D02*
X7284468Y-16909031D01*
X7284468Y-16909031D02*
X7274944Y-16880460D01*
X7274944Y-16880460D02*
X7265420Y-16832841D01*
X7265420Y-16832841D02*
X7265420Y-16794746D01*
X7265420Y-16794746D02*
X7274944Y-16747127D01*
X7274944Y-16747127D02*
X7284468Y-16718555D01*
X7284468Y-16718555D02*
X7293991Y-16699508D01*
X7293991Y-16699508D02*
X7313039Y-16670936D01*
X7313039Y-16670936D02*
X7322563Y-16661412D01*
X7379706Y-16689984D02*
X7503515Y-16689984D01*
X7503515Y-16689984D02*
X7436848Y-16766174D01*
X7436848Y-16766174D02*
X7465420Y-16766174D01*
X7465420Y-16766174D02*
X7484468Y-16775698D01*
X7484468Y-16775698D02*
X7493991Y-16785222D01*
X7493991Y-16785222D02*
X7503515Y-16804270D01*
X7503515Y-16804270D02*
X7503515Y-16851889D01*
X7503515Y-16851889D02*
X7493991Y-16870936D01*
X7493991Y-16870936D02*
X7484468Y-16880460D01*
X7484468Y-16880460D02*
X7465420Y-16889984D01*
X7465420Y-16889984D02*
X7408277Y-16889984D01*
X7408277Y-16889984D02*
X7389229Y-16880460D01*
X7389229Y-16880460D02*
X7379706Y-16870936D01*
X7741610Y-16889984D02*
X7741610Y-16689984D01*
X7827325Y-16889984D02*
X7827325Y-16785222D01*
X7827325Y-16785222D02*
X7817801Y-16766174D01*
X7817801Y-16766174D02*
X7798753Y-16756650D01*
X7798753Y-16756650D02*
X7770182Y-16756650D01*
X7770182Y-16756650D02*
X7751134Y-16766174D01*
X7751134Y-16766174D02*
X7741610Y-16775698D01*
X7951134Y-16889984D02*
X7932087Y-16880460D01*
X7932087Y-16880460D02*
X7922563Y-16870936D01*
X7922563Y-16870936D02*
X7913039Y-16851889D01*
X7913039Y-16851889D02*
X7913039Y-16794746D01*
X7913039Y-16794746D02*
X7922563Y-16775698D01*
X7922563Y-16775698D02*
X7932087Y-16766174D01*
X7932087Y-16766174D02*
X7951134Y-16756650D01*
X7951134Y-16756650D02*
X7979706Y-16756650D01*
X7979706Y-16756650D02*
X7998753Y-16766174D01*
X7998753Y-16766174D02*
X8008277Y-16775698D01*
X8008277Y-16775698D02*
X8017801Y-16794746D01*
X8017801Y-16794746D02*
X8017801Y-16851889D01*
X8017801Y-16851889D02*
X8008277Y-16870936D01*
X8008277Y-16870936D02*
X7998753Y-16880460D01*
X7998753Y-16880460D02*
X7979706Y-16889984D01*
X7979706Y-16889984D02*
X7951134Y-16889984D01*
X8132087Y-16889984D02*
X8113039Y-16880460D01*
X8113039Y-16880460D02*
X8103515Y-16861412D01*
X8103515Y-16861412D02*
X8103515Y-16689984D01*
X8284468Y-16880460D02*
X8265420Y-16889984D01*
X8265420Y-16889984D02*
X8227325Y-16889984D01*
X8227325Y-16889984D02*
X8208277Y-16880460D01*
X8208277Y-16880460D02*
X8198753Y-16861412D01*
X8198753Y-16861412D02*
X8198753Y-16785222D01*
X8198753Y-16785222D02*
X8208277Y-16766174D01*
X8208277Y-16766174D02*
X8227325Y-16756650D01*
X8227325Y-16756650D02*
X8265420Y-16756650D01*
X8265420Y-16756650D02*
X8284468Y-16766174D01*
X8284468Y-16766174D02*
X8293991Y-16785222D01*
X8293991Y-16785222D02*
X8293991Y-16804270D01*
X8293991Y-16804270D02*
X8198753Y-16823317D01*
X8370182Y-16880460D02*
X8389230Y-16889984D01*
X8389230Y-16889984D02*
X8427325Y-16889984D01*
X8427325Y-16889984D02*
X8446373Y-16880460D01*
X8446373Y-16880460D02*
X8455896Y-16861412D01*
X8455896Y-16861412D02*
X8455896Y-16851889D01*
X8455896Y-16851889D02*
X8446373Y-16832841D01*
X8446373Y-16832841D02*
X8427325Y-16823317D01*
X8427325Y-16823317D02*
X8398753Y-16823317D01*
X8398753Y-16823317D02*
X8379706Y-16813793D01*
X8379706Y-16813793D02*
X8370182Y-16794746D01*
X8370182Y-16794746D02*
X8370182Y-16785222D01*
X8370182Y-16785222D02*
X8379706Y-16766174D01*
X8379706Y-16766174D02*
X8398753Y-16756650D01*
X8398753Y-16756650D02*
X8427325Y-16756650D01*
X8427325Y-16756650D02*
X8446373Y-16766174D01*
X8522563Y-16966174D02*
X8532087Y-16956650D01*
X8532087Y-16956650D02*
X8551134Y-16928079D01*
X8551134Y-16928079D02*
X8560658Y-16909031D01*
X8560658Y-16909031D02*
X8570182Y-16880460D01*
X8570182Y-16880460D02*
X8579706Y-16832841D01*
X8579706Y-16832841D02*
X8579706Y-16794746D01*
X8579706Y-16794746D02*
X8570182Y-16747127D01*
X8570182Y-16747127D02*
X8560658Y-16718555D01*
X8560658Y-16718555D02*
X8551134Y-16699508D01*
X8551134Y-16699508D02*
X8532087Y-16670936D01*
X8532087Y-16670936D02*
X8522563Y-16661412D01*
D15*
X3627500Y-17002500D02*
X3747500Y-17122500D01*
X3747500Y-17002500D02*
X3627500Y-17122500D01*
X3747500Y-17062500D02*
G75*
G02*
X3627500Y-17062500I-60000J0D01*
G01*
X3627500Y-17062500D02*
G75*
G02*
X3747500Y-17062500I60000J0D01*
G01*
D11*
X4113039Y-17153984D02*
X3998753Y-17153984D01*
X4055896Y-17153984D02*
X4055896Y-16953984D01*
X4055896Y-16953984D02*
X4036848Y-16982555D01*
X4036848Y-16982555D02*
X4017801Y-17001603D01*
X4017801Y-17001603D02*
X3998753Y-17011127D01*
X4198753Y-17134936D02*
X4208277Y-17144460D01*
X4208277Y-17144460D02*
X4198753Y-17153984D01*
X4198753Y-17153984D02*
X4189229Y-17144460D01*
X4189229Y-17144460D02*
X4198753Y-17134936D01*
X4198753Y-17134936D02*
X4198753Y-17153984D01*
X4284467Y-16973031D02*
X4293991Y-16963508D01*
X4293991Y-16963508D02*
X4313039Y-16953984D01*
X4313039Y-16953984D02*
X4360658Y-16953984D01*
X4360658Y-16953984D02*
X4379705Y-16963508D01*
X4379705Y-16963508D02*
X4389229Y-16973031D01*
X4389229Y-16973031D02*
X4398753Y-16992079D01*
X4398753Y-16992079D02*
X4398753Y-17011127D01*
X4398753Y-17011127D02*
X4389229Y-17039698D01*
X4389229Y-17039698D02*
X4274944Y-17153984D01*
X4274944Y-17153984D02*
X4398753Y-17153984D01*
X4522563Y-16953984D02*
X4541610Y-16953984D01*
X4541610Y-16953984D02*
X4560658Y-16963508D01*
X4560658Y-16963508D02*
X4570182Y-16973031D01*
X4570182Y-16973031D02*
X4579705Y-16992079D01*
X4579705Y-16992079D02*
X4589229Y-17030174D01*
X4589229Y-17030174D02*
X4589229Y-17077793D01*
X4589229Y-17077793D02*
X4579705Y-17115889D01*
X4579705Y-17115889D02*
X4570182Y-17134936D01*
X4570182Y-17134936D02*
X4560658Y-17144460D01*
X4560658Y-17144460D02*
X4541610Y-17153984D01*
X4541610Y-17153984D02*
X4522563Y-17153984D01*
X4522563Y-17153984D02*
X4503515Y-17144460D01*
X4503515Y-17144460D02*
X4493991Y-17134936D01*
X4493991Y-17134936D02*
X4484467Y-17115889D01*
X4484467Y-17115889D02*
X4474944Y-17077793D01*
X4474944Y-17077793D02*
X4474944Y-17030174D01*
X4474944Y-17030174D02*
X4484467Y-16992079D01*
X4484467Y-16992079D02*
X4493991Y-16973031D01*
X4493991Y-16973031D02*
X4503515Y-16963508D01*
X4503515Y-16963508D02*
X4522563Y-16953984D01*
X4713039Y-16953984D02*
X4732086Y-16953984D01*
X4732086Y-16953984D02*
X4751134Y-16963508D01*
X4751134Y-16963508D02*
X4760658Y-16973031D01*
X4760658Y-16973031D02*
X4770182Y-16992079D01*
X4770182Y-16992079D02*
X4779705Y-17030174D01*
X4779705Y-17030174D02*
X4779705Y-17077793D01*
X4779705Y-17077793D02*
X4770182Y-17115889D01*
X4770182Y-17115889D02*
X4760658Y-17134936D01*
X4760658Y-17134936D02*
X4751134Y-17144460D01*
X4751134Y-17144460D02*
X4732086Y-17153984D01*
X4732086Y-17153984D02*
X4713039Y-17153984D01*
X4713039Y-17153984D02*
X4693991Y-17144460D01*
X4693991Y-17144460D02*
X4684467Y-17134936D01*
X4684467Y-17134936D02*
X4674944Y-17115889D01*
X4674944Y-17115889D02*
X4665420Y-17077793D01*
X4665420Y-17077793D02*
X4665420Y-17030174D01*
X4665420Y-17030174D02*
X4674944Y-16992079D01*
X4674944Y-16992079D02*
X4684467Y-16973031D01*
X4684467Y-16973031D02*
X4693991Y-16963508D01*
X4693991Y-16963508D02*
X4713039Y-16953984D01*
X4865420Y-17153984D02*
X4865420Y-17020650D01*
X4865420Y-17039698D02*
X4874944Y-17030174D01*
X4874944Y-17030174D02*
X4893991Y-17020650D01*
X4893991Y-17020650D02*
X4922563Y-17020650D01*
X4922563Y-17020650D02*
X4941610Y-17030174D01*
X4941610Y-17030174D02*
X4951134Y-17049222D01*
X4951134Y-17049222D02*
X4951134Y-17153984D01*
X4951134Y-17049222D02*
X4960658Y-17030174D01*
X4960658Y-17030174D02*
X4979705Y-17020650D01*
X4979705Y-17020650D02*
X5008277Y-17020650D01*
X5008277Y-17020650D02*
X5027325Y-17030174D01*
X5027325Y-17030174D02*
X5036848Y-17049222D01*
X5036848Y-17049222D02*
X5036848Y-17153984D01*
X5132086Y-17153984D02*
X5132086Y-17020650D01*
X5132086Y-17039698D02*
X5141610Y-17030174D01*
X5141610Y-17030174D02*
X5160658Y-17020650D01*
X5160658Y-17020650D02*
X5189229Y-17020650D01*
X5189229Y-17020650D02*
X5208277Y-17030174D01*
X5208277Y-17030174D02*
X5217801Y-17049222D01*
X5217801Y-17049222D02*
X5217801Y-17153984D01*
X5217801Y-17049222D02*
X5227325Y-17030174D01*
X5227325Y-17030174D02*
X5246372Y-17020650D01*
X5246372Y-17020650D02*
X5274944Y-17020650D01*
X5274944Y-17020650D02*
X5293991Y-17030174D01*
X5293991Y-17030174D02*
X5303515Y-17049222D01*
X5303515Y-17049222D02*
X5303515Y-17153984D01*
X5693991Y-16944460D02*
X5522563Y-17201603D01*
X5951134Y-16953984D02*
X5970182Y-16953984D01*
X5970182Y-16953984D02*
X5989229Y-16963508D01*
X5989229Y-16963508D02*
X5998753Y-16973031D01*
X5998753Y-16973031D02*
X6008277Y-16992079D01*
X6008277Y-16992079D02*
X6017801Y-17030174D01*
X6017801Y-17030174D02*
X6017801Y-17077793D01*
X6017801Y-17077793D02*
X6008277Y-17115889D01*
X6008277Y-17115889D02*
X5998753Y-17134936D01*
X5998753Y-17134936D02*
X5989229Y-17144460D01*
X5989229Y-17144460D02*
X5970182Y-17153984D01*
X5970182Y-17153984D02*
X5951134Y-17153984D01*
X5951134Y-17153984D02*
X5932086Y-17144460D01*
X5932086Y-17144460D02*
X5922563Y-17134936D01*
X5922563Y-17134936D02*
X5913039Y-17115889D01*
X5913039Y-17115889D02*
X5903515Y-17077793D01*
X5903515Y-17077793D02*
X5903515Y-17030174D01*
X5903515Y-17030174D02*
X5913039Y-16992079D01*
X5913039Y-16992079D02*
X5922563Y-16973031D01*
X5922563Y-16973031D02*
X5932086Y-16963508D01*
X5932086Y-16963508D02*
X5951134Y-16953984D01*
X6103515Y-17134936D02*
X6113039Y-17144460D01*
X6113039Y-17144460D02*
X6103515Y-17153984D01*
X6103515Y-17153984D02*
X6093991Y-17144460D01*
X6093991Y-17144460D02*
X6103515Y-17134936D01*
X6103515Y-17134936D02*
X6103515Y-17153984D01*
X6236848Y-16953984D02*
X6255896Y-16953984D01*
X6255896Y-16953984D02*
X6274944Y-16963508D01*
X6274944Y-16963508D02*
X6284467Y-16973031D01*
X6284467Y-16973031D02*
X6293991Y-16992079D01*
X6293991Y-16992079D02*
X6303515Y-17030174D01*
X6303515Y-17030174D02*
X6303515Y-17077793D01*
X6303515Y-17077793D02*
X6293991Y-17115889D01*
X6293991Y-17115889D02*
X6284467Y-17134936D01*
X6284467Y-17134936D02*
X6274944Y-17144460D01*
X6274944Y-17144460D02*
X6255896Y-17153984D01*
X6255896Y-17153984D02*
X6236848Y-17153984D01*
X6236848Y-17153984D02*
X6217801Y-17144460D01*
X6217801Y-17144460D02*
X6208277Y-17134936D01*
X6208277Y-17134936D02*
X6198753Y-17115889D01*
X6198753Y-17115889D02*
X6189229Y-17077793D01*
X6189229Y-17077793D02*
X6189229Y-17030174D01*
X6189229Y-17030174D02*
X6198753Y-16992079D01*
X6198753Y-16992079D02*
X6208277Y-16973031D01*
X6208277Y-16973031D02*
X6217801Y-16963508D01*
X6217801Y-16963508D02*
X6236848Y-16953984D01*
X6474944Y-17020650D02*
X6474944Y-17153984D01*
X6427325Y-16944460D02*
X6379706Y-17087317D01*
X6379706Y-17087317D02*
X6503515Y-17087317D01*
X6560658Y-16953984D02*
X6693991Y-16953984D01*
X6693991Y-16953984D02*
X6608277Y-17153984D01*
X6760658Y-16973031D02*
X6770182Y-16963508D01*
X6770182Y-16963508D02*
X6789229Y-16953984D01*
X6789229Y-16953984D02*
X6836848Y-16953984D01*
X6836848Y-16953984D02*
X6855896Y-16963508D01*
X6855896Y-16963508D02*
X6865420Y-16973031D01*
X6865420Y-16973031D02*
X6874944Y-16992079D01*
X6874944Y-16992079D02*
X6874944Y-17011127D01*
X6874944Y-17011127D02*
X6865420Y-17039698D01*
X6865420Y-17039698D02*
X6751134Y-17153984D01*
X6751134Y-17153984D02*
X6874944Y-17153984D01*
X6951134Y-16953984D02*
X6951134Y-16992079D01*
X7027325Y-16953984D02*
X7027325Y-16992079D01*
X7322563Y-17230174D02*
X7313039Y-17220650D01*
X7313039Y-17220650D02*
X7293991Y-17192079D01*
X7293991Y-17192079D02*
X7284468Y-17173031D01*
X7284468Y-17173031D02*
X7274944Y-17144460D01*
X7274944Y-17144460D02*
X7265420Y-17096841D01*
X7265420Y-17096841D02*
X7265420Y-17058746D01*
X7265420Y-17058746D02*
X7274944Y-17011127D01*
X7274944Y-17011127D02*
X7284468Y-16982555D01*
X7284468Y-16982555D02*
X7293991Y-16963508D01*
X7293991Y-16963508D02*
X7313039Y-16934936D01*
X7313039Y-16934936D02*
X7322563Y-16925412D01*
X7484468Y-16953984D02*
X7446372Y-16953984D01*
X7446372Y-16953984D02*
X7427325Y-16963508D01*
X7427325Y-16963508D02*
X7417801Y-16973031D01*
X7417801Y-16973031D02*
X7398753Y-17001603D01*
X7398753Y-17001603D02*
X7389229Y-17039698D01*
X7389229Y-17039698D02*
X7389229Y-17115889D01*
X7389229Y-17115889D02*
X7398753Y-17134936D01*
X7398753Y-17134936D02*
X7408277Y-17144460D01*
X7408277Y-17144460D02*
X7427325Y-17153984D01*
X7427325Y-17153984D02*
X7465420Y-17153984D01*
X7465420Y-17153984D02*
X7484468Y-17144460D01*
X7484468Y-17144460D02*
X7493991Y-17134936D01*
X7493991Y-17134936D02*
X7503515Y-17115889D01*
X7503515Y-17115889D02*
X7503515Y-17068270D01*
X7503515Y-17068270D02*
X7493991Y-17049222D01*
X7493991Y-17049222D02*
X7484468Y-17039698D01*
X7484468Y-17039698D02*
X7465420Y-17030174D01*
X7465420Y-17030174D02*
X7427325Y-17030174D01*
X7427325Y-17030174D02*
X7408277Y-17039698D01*
X7408277Y-17039698D02*
X7398753Y-17049222D01*
X7398753Y-17049222D02*
X7389229Y-17068270D01*
X7741610Y-17153984D02*
X7741610Y-16953984D01*
X7827325Y-17153984D02*
X7827325Y-17049222D01*
X7827325Y-17049222D02*
X7817801Y-17030174D01*
X7817801Y-17030174D02*
X7798753Y-17020650D01*
X7798753Y-17020650D02*
X7770182Y-17020650D01*
X7770182Y-17020650D02*
X7751134Y-17030174D01*
X7751134Y-17030174D02*
X7741610Y-17039698D01*
X7951134Y-17153984D02*
X7932087Y-17144460D01*
X7932087Y-17144460D02*
X7922563Y-17134936D01*
X7922563Y-17134936D02*
X7913039Y-17115889D01*
X7913039Y-17115889D02*
X7913039Y-17058746D01*
X7913039Y-17058746D02*
X7922563Y-17039698D01*
X7922563Y-17039698D02*
X7932087Y-17030174D01*
X7932087Y-17030174D02*
X7951134Y-17020650D01*
X7951134Y-17020650D02*
X7979706Y-17020650D01*
X7979706Y-17020650D02*
X7998753Y-17030174D01*
X7998753Y-17030174D02*
X8008277Y-17039698D01*
X8008277Y-17039698D02*
X8017801Y-17058746D01*
X8017801Y-17058746D02*
X8017801Y-17115889D01*
X8017801Y-17115889D02*
X8008277Y-17134936D01*
X8008277Y-17134936D02*
X7998753Y-17144460D01*
X7998753Y-17144460D02*
X7979706Y-17153984D01*
X7979706Y-17153984D02*
X7951134Y-17153984D01*
X8132087Y-17153984D02*
X8113039Y-17144460D01*
X8113039Y-17144460D02*
X8103515Y-17125412D01*
X8103515Y-17125412D02*
X8103515Y-16953984D01*
X8284468Y-17144460D02*
X8265420Y-17153984D01*
X8265420Y-17153984D02*
X8227325Y-17153984D01*
X8227325Y-17153984D02*
X8208277Y-17144460D01*
X8208277Y-17144460D02*
X8198753Y-17125412D01*
X8198753Y-17125412D02*
X8198753Y-17049222D01*
X8198753Y-17049222D02*
X8208277Y-17030174D01*
X8208277Y-17030174D02*
X8227325Y-17020650D01*
X8227325Y-17020650D02*
X8265420Y-17020650D01*
X8265420Y-17020650D02*
X8284468Y-17030174D01*
X8284468Y-17030174D02*
X8293991Y-17049222D01*
X8293991Y-17049222D02*
X8293991Y-17068270D01*
X8293991Y-17068270D02*
X8198753Y-17087317D01*
X8370182Y-17144460D02*
X8389230Y-17153984D01*
X8389230Y-17153984D02*
X8427325Y-17153984D01*
X8427325Y-17153984D02*
X8446373Y-17144460D01*
X8446373Y-17144460D02*
X8455896Y-17125412D01*
X8455896Y-17125412D02*
X8455896Y-17115889D01*
X8455896Y-17115889D02*
X8446373Y-17096841D01*
X8446373Y-17096841D02*
X8427325Y-17087317D01*
X8427325Y-17087317D02*
X8398753Y-17087317D01*
X8398753Y-17087317D02*
X8379706Y-17077793D01*
X8379706Y-17077793D02*
X8370182Y-17058746D01*
X8370182Y-17058746D02*
X8370182Y-17049222D01*
X8370182Y-17049222D02*
X8379706Y-17030174D01*
X8379706Y-17030174D02*
X8398753Y-17020650D01*
X8398753Y-17020650D02*
X8427325Y-17020650D01*
X8427325Y-17020650D02*
X8446373Y-17030174D01*
X8522563Y-17230174D02*
X8532087Y-17220650D01*
X8532087Y-17220650D02*
X8551134Y-17192079D01*
X8551134Y-17192079D02*
X8560658Y-17173031D01*
X8560658Y-17173031D02*
X8570182Y-17144460D01*
X8570182Y-17144460D02*
X8579706Y-17096841D01*
X8579706Y-17096841D02*
X8579706Y-17058746D01*
X8579706Y-17058746D02*
X8570182Y-17011127D01*
X8570182Y-17011127D02*
X8560658Y-16982555D01*
X8560658Y-16982555D02*
X8551134Y-16963508D01*
X8551134Y-16963508D02*
X8532087Y-16934936D01*
X8532087Y-16934936D02*
X8522563Y-16925412D01*
X3547500Y-17226500D02*
X3747500Y-17426500D01*
X3747500Y-17226500D02*
X3547500Y-17426500D01*
X3647500Y-17226500D02*
X3647500Y-17426500D01*
X3547500Y-17326500D02*
X3747500Y-17326500D01*
X3989229Y-17217984D02*
X4113039Y-17217984D01*
X4113039Y-17217984D02*
X4046372Y-17294174D01*
X4046372Y-17294174D02*
X4074943Y-17294174D01*
X4074943Y-17294174D02*
X4093991Y-17303698D01*
X4093991Y-17303698D02*
X4103515Y-17313222D01*
X4103515Y-17313222D02*
X4113039Y-17332270D01*
X4113039Y-17332270D02*
X4113039Y-17379889D01*
X4113039Y-17379889D02*
X4103515Y-17398936D01*
X4103515Y-17398936D02*
X4093991Y-17408460D01*
X4093991Y-17408460D02*
X4074943Y-17417984D01*
X4074943Y-17417984D02*
X4017801Y-17417984D01*
X4017801Y-17417984D02*
X3998753Y-17408460D01*
X3998753Y-17408460D02*
X3989229Y-17398936D01*
X4198753Y-17398936D02*
X4208277Y-17408460D01*
X4208277Y-17408460D02*
X4198753Y-17417984D01*
X4198753Y-17417984D02*
X4189229Y-17408460D01*
X4189229Y-17408460D02*
X4198753Y-17398936D01*
X4198753Y-17398936D02*
X4198753Y-17417984D01*
X4284467Y-17237031D02*
X4293991Y-17227508D01*
X4293991Y-17227508D02*
X4313039Y-17217984D01*
X4313039Y-17217984D02*
X4360658Y-17217984D01*
X4360658Y-17217984D02*
X4379705Y-17227508D01*
X4379705Y-17227508D02*
X4389229Y-17237031D01*
X4389229Y-17237031D02*
X4398753Y-17256079D01*
X4398753Y-17256079D02*
X4398753Y-17275127D01*
X4398753Y-17275127D02*
X4389229Y-17303698D01*
X4389229Y-17303698D02*
X4274944Y-17417984D01*
X4274944Y-17417984D02*
X4398753Y-17417984D01*
X4522563Y-17217984D02*
X4541610Y-17217984D01*
X4541610Y-17217984D02*
X4560658Y-17227508D01*
X4560658Y-17227508D02*
X4570182Y-17237031D01*
X4570182Y-17237031D02*
X4579705Y-17256079D01*
X4579705Y-17256079D02*
X4589229Y-17294174D01*
X4589229Y-17294174D02*
X4589229Y-17341793D01*
X4589229Y-17341793D02*
X4579705Y-17379889D01*
X4579705Y-17379889D02*
X4570182Y-17398936D01*
X4570182Y-17398936D02*
X4560658Y-17408460D01*
X4560658Y-17408460D02*
X4541610Y-17417984D01*
X4541610Y-17417984D02*
X4522563Y-17417984D01*
X4522563Y-17417984D02*
X4503515Y-17408460D01*
X4503515Y-17408460D02*
X4493991Y-17398936D01*
X4493991Y-17398936D02*
X4484467Y-17379889D01*
X4484467Y-17379889D02*
X4474944Y-17341793D01*
X4474944Y-17341793D02*
X4474944Y-17294174D01*
X4474944Y-17294174D02*
X4484467Y-17256079D01*
X4484467Y-17256079D02*
X4493991Y-17237031D01*
X4493991Y-17237031D02*
X4503515Y-17227508D01*
X4503515Y-17227508D02*
X4522563Y-17217984D01*
X4713039Y-17217984D02*
X4732086Y-17217984D01*
X4732086Y-17217984D02*
X4751134Y-17227508D01*
X4751134Y-17227508D02*
X4760658Y-17237031D01*
X4760658Y-17237031D02*
X4770182Y-17256079D01*
X4770182Y-17256079D02*
X4779705Y-17294174D01*
X4779705Y-17294174D02*
X4779705Y-17341793D01*
X4779705Y-17341793D02*
X4770182Y-17379889D01*
X4770182Y-17379889D02*
X4760658Y-17398936D01*
X4760658Y-17398936D02*
X4751134Y-17408460D01*
X4751134Y-17408460D02*
X4732086Y-17417984D01*
X4732086Y-17417984D02*
X4713039Y-17417984D01*
X4713039Y-17417984D02*
X4693991Y-17408460D01*
X4693991Y-17408460D02*
X4684467Y-17398936D01*
X4684467Y-17398936D02*
X4674944Y-17379889D01*
X4674944Y-17379889D02*
X4665420Y-17341793D01*
X4665420Y-17341793D02*
X4665420Y-17294174D01*
X4665420Y-17294174D02*
X4674944Y-17256079D01*
X4674944Y-17256079D02*
X4684467Y-17237031D01*
X4684467Y-17237031D02*
X4693991Y-17227508D01*
X4693991Y-17227508D02*
X4713039Y-17217984D01*
X4865420Y-17417984D02*
X4865420Y-17284650D01*
X4865420Y-17303698D02*
X4874944Y-17294174D01*
X4874944Y-17294174D02*
X4893991Y-17284650D01*
X4893991Y-17284650D02*
X4922563Y-17284650D01*
X4922563Y-17284650D02*
X4941610Y-17294174D01*
X4941610Y-17294174D02*
X4951134Y-17313222D01*
X4951134Y-17313222D02*
X4951134Y-17417984D01*
X4951134Y-17313222D02*
X4960658Y-17294174D01*
X4960658Y-17294174D02*
X4979705Y-17284650D01*
X4979705Y-17284650D02*
X5008277Y-17284650D01*
X5008277Y-17284650D02*
X5027325Y-17294174D01*
X5027325Y-17294174D02*
X5036848Y-17313222D01*
X5036848Y-17313222D02*
X5036848Y-17417984D01*
X5132086Y-17417984D02*
X5132086Y-17284650D01*
X5132086Y-17303698D02*
X5141610Y-17294174D01*
X5141610Y-17294174D02*
X5160658Y-17284650D01*
X5160658Y-17284650D02*
X5189229Y-17284650D01*
X5189229Y-17284650D02*
X5208277Y-17294174D01*
X5208277Y-17294174D02*
X5217801Y-17313222D01*
X5217801Y-17313222D02*
X5217801Y-17417984D01*
X5217801Y-17313222D02*
X5227325Y-17294174D01*
X5227325Y-17294174D02*
X5246372Y-17284650D01*
X5246372Y-17284650D02*
X5274944Y-17284650D01*
X5274944Y-17284650D02*
X5293991Y-17294174D01*
X5293991Y-17294174D02*
X5303515Y-17313222D01*
X5303515Y-17313222D02*
X5303515Y-17417984D01*
X5693991Y-17208460D02*
X5522563Y-17465603D01*
X5951134Y-17217984D02*
X5970182Y-17217984D01*
X5970182Y-17217984D02*
X5989229Y-17227508D01*
X5989229Y-17227508D02*
X5998753Y-17237031D01*
X5998753Y-17237031D02*
X6008277Y-17256079D01*
X6008277Y-17256079D02*
X6017801Y-17294174D01*
X6017801Y-17294174D02*
X6017801Y-17341793D01*
X6017801Y-17341793D02*
X6008277Y-17379889D01*
X6008277Y-17379889D02*
X5998753Y-17398936D01*
X5998753Y-17398936D02*
X5989229Y-17408460D01*
X5989229Y-17408460D02*
X5970182Y-17417984D01*
X5970182Y-17417984D02*
X5951134Y-17417984D01*
X5951134Y-17417984D02*
X5932086Y-17408460D01*
X5932086Y-17408460D02*
X5922563Y-17398936D01*
X5922563Y-17398936D02*
X5913039Y-17379889D01*
X5913039Y-17379889D02*
X5903515Y-17341793D01*
X5903515Y-17341793D02*
X5903515Y-17294174D01*
X5903515Y-17294174D02*
X5913039Y-17256079D01*
X5913039Y-17256079D02*
X5922563Y-17237031D01*
X5922563Y-17237031D02*
X5932086Y-17227508D01*
X5932086Y-17227508D02*
X5951134Y-17217984D01*
X6103515Y-17398936D02*
X6113039Y-17408460D01*
X6113039Y-17408460D02*
X6103515Y-17417984D01*
X6103515Y-17417984D02*
X6093991Y-17408460D01*
X6093991Y-17408460D02*
X6103515Y-17398936D01*
X6103515Y-17398936D02*
X6103515Y-17417984D01*
X6303515Y-17417984D02*
X6189229Y-17417984D01*
X6246372Y-17417984D02*
X6246372Y-17217984D01*
X6246372Y-17217984D02*
X6227325Y-17246555D01*
X6227325Y-17246555D02*
X6208277Y-17265603D01*
X6208277Y-17265603D02*
X6189229Y-17275127D01*
X6379706Y-17237031D02*
X6389229Y-17227508D01*
X6389229Y-17227508D02*
X6408277Y-17217984D01*
X6408277Y-17217984D02*
X6455896Y-17217984D01*
X6455896Y-17217984D02*
X6474944Y-17227508D01*
X6474944Y-17227508D02*
X6484467Y-17237031D01*
X6484467Y-17237031D02*
X6493991Y-17256079D01*
X6493991Y-17256079D02*
X6493991Y-17275127D01*
X6493991Y-17275127D02*
X6484467Y-17303698D01*
X6484467Y-17303698D02*
X6370182Y-17417984D01*
X6370182Y-17417984D02*
X6493991Y-17417984D01*
X6665420Y-17217984D02*
X6627325Y-17217984D01*
X6627325Y-17217984D02*
X6608277Y-17227508D01*
X6608277Y-17227508D02*
X6598753Y-17237031D01*
X6598753Y-17237031D02*
X6579706Y-17265603D01*
X6579706Y-17265603D02*
X6570182Y-17303698D01*
X6570182Y-17303698D02*
X6570182Y-17379889D01*
X6570182Y-17379889D02*
X6579706Y-17398936D01*
X6579706Y-17398936D02*
X6589229Y-17408460D01*
X6589229Y-17408460D02*
X6608277Y-17417984D01*
X6608277Y-17417984D02*
X6646372Y-17417984D01*
X6646372Y-17417984D02*
X6665420Y-17408460D01*
X6665420Y-17408460D02*
X6674944Y-17398936D01*
X6674944Y-17398936D02*
X6684467Y-17379889D01*
X6684467Y-17379889D02*
X6684467Y-17332270D01*
X6684467Y-17332270D02*
X6674944Y-17313222D01*
X6674944Y-17313222D02*
X6665420Y-17303698D01*
X6665420Y-17303698D02*
X6646372Y-17294174D01*
X6646372Y-17294174D02*
X6608277Y-17294174D01*
X6608277Y-17294174D02*
X6589229Y-17303698D01*
X6589229Y-17303698D02*
X6579706Y-17313222D01*
X6579706Y-17313222D02*
X6570182Y-17332270D01*
X6808277Y-17217984D02*
X6827325Y-17217984D01*
X6827325Y-17217984D02*
X6846372Y-17227508D01*
X6846372Y-17227508D02*
X6855896Y-17237031D01*
X6855896Y-17237031D02*
X6865420Y-17256079D01*
X6865420Y-17256079D02*
X6874944Y-17294174D01*
X6874944Y-17294174D02*
X6874944Y-17341793D01*
X6874944Y-17341793D02*
X6865420Y-17379889D01*
X6865420Y-17379889D02*
X6855896Y-17398936D01*
X6855896Y-17398936D02*
X6846372Y-17408460D01*
X6846372Y-17408460D02*
X6827325Y-17417984D01*
X6827325Y-17417984D02*
X6808277Y-17417984D01*
X6808277Y-17417984D02*
X6789229Y-17408460D01*
X6789229Y-17408460D02*
X6779706Y-17398936D01*
X6779706Y-17398936D02*
X6770182Y-17379889D01*
X6770182Y-17379889D02*
X6760658Y-17341793D01*
X6760658Y-17341793D02*
X6760658Y-17294174D01*
X6760658Y-17294174D02*
X6770182Y-17256079D01*
X6770182Y-17256079D02*
X6779706Y-17237031D01*
X6779706Y-17237031D02*
X6789229Y-17227508D01*
X6789229Y-17227508D02*
X6808277Y-17217984D01*
X6951134Y-17217984D02*
X6951134Y-17256079D01*
X7027325Y-17217984D02*
X7027325Y-17256079D01*
X7322563Y-17494174D02*
X7313039Y-17484650D01*
X7313039Y-17484650D02*
X7293991Y-17456079D01*
X7293991Y-17456079D02*
X7284468Y-17437031D01*
X7284468Y-17437031D02*
X7274944Y-17408460D01*
X7274944Y-17408460D02*
X7265420Y-17360841D01*
X7265420Y-17360841D02*
X7265420Y-17322746D01*
X7265420Y-17322746D02*
X7274944Y-17275127D01*
X7274944Y-17275127D02*
X7284468Y-17246555D01*
X7284468Y-17246555D02*
X7293991Y-17227508D01*
X7293991Y-17227508D02*
X7313039Y-17198936D01*
X7313039Y-17198936D02*
X7322563Y-17189412D01*
X7484468Y-17284650D02*
X7484468Y-17417984D01*
X7436848Y-17208460D02*
X7389229Y-17351317D01*
X7389229Y-17351317D02*
X7513039Y-17351317D01*
X7741610Y-17417984D02*
X7741610Y-17217984D01*
X7827325Y-17417984D02*
X7827325Y-17313222D01*
X7827325Y-17313222D02*
X7817801Y-17294174D01*
X7817801Y-17294174D02*
X7798753Y-17284650D01*
X7798753Y-17284650D02*
X7770182Y-17284650D01*
X7770182Y-17284650D02*
X7751134Y-17294174D01*
X7751134Y-17294174D02*
X7741610Y-17303698D01*
X7951134Y-17417984D02*
X7932087Y-17408460D01*
X7932087Y-17408460D02*
X7922563Y-17398936D01*
X7922563Y-17398936D02*
X7913039Y-17379889D01*
X7913039Y-17379889D02*
X7913039Y-17322746D01*
X7913039Y-17322746D02*
X7922563Y-17303698D01*
X7922563Y-17303698D02*
X7932087Y-17294174D01*
X7932087Y-17294174D02*
X7951134Y-17284650D01*
X7951134Y-17284650D02*
X7979706Y-17284650D01*
X7979706Y-17284650D02*
X7998753Y-17294174D01*
X7998753Y-17294174D02*
X8008277Y-17303698D01*
X8008277Y-17303698D02*
X8017801Y-17322746D01*
X8017801Y-17322746D02*
X8017801Y-17379889D01*
X8017801Y-17379889D02*
X8008277Y-17398936D01*
X8008277Y-17398936D02*
X7998753Y-17408460D01*
X7998753Y-17408460D02*
X7979706Y-17417984D01*
X7979706Y-17417984D02*
X7951134Y-17417984D01*
X8132087Y-17417984D02*
X8113039Y-17408460D01*
X8113039Y-17408460D02*
X8103515Y-17389412D01*
X8103515Y-17389412D02*
X8103515Y-17217984D01*
X8284468Y-17408460D02*
X8265420Y-17417984D01*
X8265420Y-17417984D02*
X8227325Y-17417984D01*
X8227325Y-17417984D02*
X8208277Y-17408460D01*
X8208277Y-17408460D02*
X8198753Y-17389412D01*
X8198753Y-17389412D02*
X8198753Y-17313222D01*
X8198753Y-17313222D02*
X8208277Y-17294174D01*
X8208277Y-17294174D02*
X8227325Y-17284650D01*
X8227325Y-17284650D02*
X8265420Y-17284650D01*
X8265420Y-17284650D02*
X8284468Y-17294174D01*
X8284468Y-17294174D02*
X8293991Y-17313222D01*
X8293991Y-17313222D02*
X8293991Y-17332270D01*
X8293991Y-17332270D02*
X8198753Y-17351317D01*
X8370182Y-17408460D02*
X8389230Y-17417984D01*
X8389230Y-17417984D02*
X8427325Y-17417984D01*
X8427325Y-17417984D02*
X8446373Y-17408460D01*
X8446373Y-17408460D02*
X8455896Y-17389412D01*
X8455896Y-17389412D02*
X8455896Y-17379889D01*
X8455896Y-17379889D02*
X8446373Y-17360841D01*
X8446373Y-17360841D02*
X8427325Y-17351317D01*
X8427325Y-17351317D02*
X8398753Y-17351317D01*
X8398753Y-17351317D02*
X8379706Y-17341793D01*
X8379706Y-17341793D02*
X8370182Y-17322746D01*
X8370182Y-17322746D02*
X8370182Y-17313222D01*
X8370182Y-17313222D02*
X8379706Y-17294174D01*
X8379706Y-17294174D02*
X8398753Y-17284650D01*
X8398753Y-17284650D02*
X8427325Y-17284650D01*
X8427325Y-17284650D02*
X8446373Y-17294174D01*
X8522563Y-17494174D02*
X8532087Y-17484650D01*
X8532087Y-17484650D02*
X8551134Y-17456079D01*
X8551134Y-17456079D02*
X8560658Y-17437031D01*
X8560658Y-17437031D02*
X8570182Y-17408460D01*
X8570182Y-17408460D02*
X8579706Y-17360841D01*
X8579706Y-17360841D02*
X8579706Y-17322746D01*
X8579706Y-17322746D02*
X8570182Y-17275127D01*
X8570182Y-17275127D02*
X8560658Y-17246555D01*
X8560658Y-17246555D02*
X8551134Y-17227508D01*
X8551134Y-17227508D02*
X8532087Y-17198936D01*
X8532087Y-17198936D02*
X8522563Y-17189412D01*
M02*
