G04 #@! TF.GenerationSoftware,KiCad,Pcbnew,8.0.7-8.0.7-0~ubuntu22.04.1*
G04 #@! TF.CreationDate,2025-01-27T17:28:36+02:00*
G04 #@! TF.ProjectId,speaker_amp2,73706561-6b65-4725-9f61-6d70322e6b69,rev?*
G04 #@! TF.SameCoordinates,Original*
G04 #@! TF.FileFunction,Soldermask,Top*
G04 #@! TF.FilePolarity,Negative*
%FSLAX46Y46*%
G04 Gerber Fmt 4.6, Leading zero omitted, Abs format (unit mm)*
G04 Created by KiCad (PCBNEW 8.0.7-8.0.7-0~ubuntu22.04.1) date 2025-01-27 17:28:36*
%MOMM*%
%LPD*%
G01*
G04 APERTURE LIST*
G04 Aperture macros list*
%AMRoundRect*
0 Rectangle with rounded corners*
0 $1 Rounding radius*
0 $2 $3 $4 $5 $6 $7 $8 $9 X,Y pos of 4 corners*
0 Add a 4 corners polygon primitive as box body*
4,1,4,$2,$3,$4,$5,$6,$7,$8,$9,$2,$3,0*
0 Add four circle primitives for the rounded corners*
1,1,$1+$1,$2,$3*
1,1,$1+$1,$4,$5*
1,1,$1+$1,$6,$7*
1,1,$1+$1,$8,$9*
0 Add four rect primitives between the rounded corners*
20,1,$1+$1,$2,$3,$4,$5,0*
20,1,$1+$1,$4,$5,$6,$7,0*
20,1,$1+$1,$6,$7,$8,$9,0*
20,1,$1+$1,$8,$9,$2,$3,0*%
G04 Aperture macros list end*
%ADD10RoundRect,0.237500X0.300000X0.237500X-0.300000X0.237500X-0.300000X-0.237500X0.300000X-0.237500X0*%
%ADD11RoundRect,0.237500X0.237500X-0.300000X0.237500X0.300000X-0.237500X0.300000X-0.237500X-0.300000X0*%
%ADD12R,4.400000X3.400000*%
%ADD13RoundRect,0.250000X-0.337500X-0.475000X0.337500X-0.475000X0.337500X0.475000X-0.337500X0.475000X0*%
%ADD14R,2.600000X1.500000*%
%ADD15RoundRect,0.237500X-0.300000X-0.237500X0.300000X-0.237500X0.300000X0.237500X-0.300000X0.237500X0*%
%ADD16C,3.600000*%
%ADD17C,5.600000*%
%ADD18C,1.020000*%
%ADD19R,1.520000X1.520000*%
%ADD20C,1.520000*%
%ADD21RoundRect,0.250000X0.450000X-0.350000X0.450000X0.350000X-0.450000X0.350000X-0.450000X-0.350000X0*%
%ADD22RoundRect,0.250000X0.350000X0.450000X-0.350000X0.450000X-0.350000X-0.450000X0.350000X-0.450000X0*%
%ADD23R,0.212474X1.355433*%
%ADD24R,4.700001X2.899999*%
%ADD25R,3.600000X2.200000*%
%ADD26R,2.500000X7.500000*%
%ADD27R,1.500000X2.600000*%
%ADD28RoundRect,0.250000X0.375000X0.625000X-0.375000X0.625000X-0.375000X-0.625000X0.375000X-0.625000X0*%
%ADD29C,1.800000*%
%ADD30RoundRect,0.250000X0.337500X0.475000X-0.337500X0.475000X-0.337500X-0.475000X0.337500X-0.475000X0*%
%ADD31RoundRect,0.250000X-0.350000X-0.450000X0.350000X-0.450000X0.350000X0.450000X-0.350000X0.450000X0*%
%ADD32C,1.300000*%
%ADD33C,1.700000*%
%ADD34RoundRect,0.237500X-0.237500X0.300000X-0.237500X-0.300000X0.237500X-0.300000X0.237500X0.300000X0*%
%ADD35R,1.665000X1.665000*%
%ADD36C,1.665000*%
%ADD37RoundRect,0.277778X-3.022222X0.722222X-3.022222X-0.722222X3.022222X-0.722222X3.022222X0.722222X0*%
%ADD38RoundRect,0.249999X-2.450001X0.737501X-2.450001X-0.737501X2.450001X-0.737501X2.450001X0.737501X0*%
%ADD39RoundRect,0.250000X-0.475000X0.337500X-0.475000X-0.337500X0.475000X-0.337500X0.475000X0.337500X0*%
%ADD40RoundRect,0.250000X0.475000X-0.337500X0.475000X0.337500X-0.475000X0.337500X-0.475000X-0.337500X0*%
%ADD41R,1.600000X1.600000*%
%ADD42C,1.600000*%
G04 APERTURE END LIST*
D10*
X89462500Y-83350000D03*
X87737500Y-83350000D03*
X89612500Y-96000000D03*
X87887500Y-96000000D03*
D11*
X91750000Y-132862500D03*
X91750000Y-131137500D03*
D12*
X99300000Y-122500000D03*
X110700000Y-122500000D03*
D13*
X59962500Y-71350000D03*
X62037500Y-71350000D03*
D11*
X91750000Y-125812500D03*
X91750000Y-124087500D03*
D14*
X40500000Y-77750000D03*
X40500000Y-80750000D03*
D10*
X89862500Y-122200000D03*
X88137500Y-122200000D03*
D11*
X91750000Y-87112500D03*
X91750000Y-85387500D03*
X82250000Y-121912500D03*
X82250000Y-120187500D03*
D15*
X84600000Y-81825384D03*
X86325000Y-81825384D03*
D16*
X133500000Y-67000000D03*
D17*
X133500000Y-67000000D03*
D10*
X86312500Y-120350000D03*
X84587500Y-120350000D03*
D18*
X72775000Y-73739660D03*
X72775000Y-79739648D03*
D19*
X68835000Y-76739649D03*
D20*
X71834999Y-76739649D03*
D21*
X78250000Y-95750000D03*
X78250000Y-93750000D03*
D22*
X66250000Y-97930000D03*
X64250000Y-97930000D03*
D16*
X41500000Y-147000000D03*
D17*
X41500000Y-147000000D03*
D11*
X82000000Y-83092500D03*
X82000000Y-81367500D03*
D23*
X89212501Y-86875384D03*
X88712500Y-86875384D03*
X88212501Y-86875384D03*
X87712499Y-86875384D03*
X87212500Y-86875384D03*
X86712501Y-86875384D03*
X86212500Y-86875384D03*
X85712501Y-86875384D03*
X85212499Y-86875384D03*
X84712500Y-86875384D03*
X84212501Y-86875384D03*
X83712499Y-86875384D03*
X83212500Y-86875384D03*
X82712499Y-86875384D03*
X82212500Y-86875384D03*
X81712501Y-86875384D03*
X81212499Y-86875384D03*
X80712500Y-86875384D03*
X80212499Y-86875384D03*
X80212499Y-92426152D03*
X80712500Y-92426152D03*
X81212499Y-92426152D03*
X81712501Y-92426152D03*
X82212500Y-92426152D03*
X82712499Y-92426152D03*
X83212500Y-92426152D03*
X83712499Y-92426152D03*
X84212501Y-92426152D03*
X84712500Y-92426152D03*
X85212499Y-92426152D03*
X85712501Y-92426152D03*
X86212500Y-92426152D03*
X86712501Y-92426152D03*
X87212500Y-92426152D03*
X87712499Y-92426152D03*
X88212501Y-92426152D03*
X88712500Y-92426152D03*
X89212501Y-92426152D03*
D24*
X84712500Y-89650768D03*
D25*
X100050000Y-84350000D03*
X108450000Y-84350000D03*
D26*
X61500000Y-78250000D03*
X56000000Y-78250000D03*
D22*
X66250000Y-103010000D03*
X64250000Y-103010000D03*
D21*
X76000000Y-95750000D03*
X76000000Y-93750000D03*
D27*
X95750000Y-148000000D03*
X92750000Y-148000000D03*
D28*
X82400000Y-76750000D03*
X79600000Y-76750000D03*
D16*
X133500000Y-147000000D03*
D17*
X133500000Y-147000000D03*
D29*
X46250000Y-85230000D03*
X46250000Y-87770000D03*
X46250000Y-90310000D03*
X46250000Y-92850000D03*
X46250000Y-95390000D03*
X46250000Y-97930000D03*
X46250000Y-100470000D03*
X46250000Y-103010000D03*
X46250000Y-105550000D03*
X46250000Y-108090000D03*
X46250000Y-110630000D03*
X46250000Y-113170000D03*
X46250000Y-115710000D03*
X46250000Y-118250000D03*
X46250000Y-120790000D03*
X46250000Y-123330000D03*
X46250000Y-125870000D03*
X46250000Y-128410000D03*
X46250000Y-130950000D03*
X71590000Y-85230000D03*
X71590000Y-87770000D03*
X71590000Y-90310000D03*
X71590000Y-92850000D03*
X71590000Y-95390000D03*
X71590000Y-97930000D03*
X71590000Y-100470000D03*
X71590000Y-103010000D03*
X71590000Y-105550000D03*
X71590000Y-108090000D03*
X71590000Y-110630000D03*
X71590000Y-113170000D03*
X71590000Y-115710000D03*
X71590000Y-118250000D03*
X71590000Y-120790000D03*
X71590000Y-123330000D03*
X71590000Y-125870000D03*
X71590000Y-128410000D03*
X71590000Y-130950000D03*
D30*
X86287500Y-139000000D03*
X84212500Y-139000000D03*
D13*
X84425001Y-100250000D03*
X86500001Y-100250000D03*
D31*
X86500000Y-68500000D03*
X88500000Y-68500000D03*
D13*
X84175000Y-79500000D03*
X86250000Y-79500000D03*
D18*
X127950000Y-101750000D03*
X121950012Y-101750000D03*
D19*
X124950011Y-97810000D03*
D20*
X124950011Y-100809999D03*
D18*
X127950000Y-82150000D03*
X121950012Y-82150000D03*
D19*
X124950011Y-78210000D03*
D20*
X124950011Y-81209999D03*
D27*
X95250000Y-68500000D03*
X92250000Y-68500000D03*
D32*
X52185998Y-141909999D03*
D33*
X50936000Y-140569999D03*
X53436000Y-140569999D03*
X55936000Y-140569999D03*
X50936000Y-138069999D03*
X53436000Y-138069999D03*
X55936000Y-138069999D03*
D30*
X86287500Y-118100000D03*
X84212500Y-118100000D03*
D34*
X91750000Y-92187500D03*
X91750000Y-93912500D03*
D15*
X88137500Y-134750000D03*
X89862500Y-134750000D03*
D10*
X86362500Y-136750000D03*
X84637500Y-136750000D03*
D35*
X46250000Y-73670000D03*
D36*
X46250000Y-76210000D03*
X46250000Y-78750000D03*
D15*
X84850001Y-98000000D03*
X86575001Y-98000000D03*
D23*
X89212501Y-125687116D03*
X88712500Y-125687116D03*
X88212501Y-125687116D03*
X87712499Y-125687116D03*
X87212500Y-125687116D03*
X86712501Y-125687116D03*
X86212500Y-125687116D03*
X85712501Y-125687116D03*
X85212499Y-125687116D03*
X84712500Y-125687116D03*
X84212501Y-125687116D03*
X83712499Y-125687116D03*
X83212500Y-125687116D03*
X82712499Y-125687116D03*
X82212500Y-125687116D03*
X81712501Y-125687116D03*
X81212499Y-125687116D03*
X80712500Y-125687116D03*
X80212499Y-125687116D03*
X80212499Y-131237884D03*
X80712500Y-131237884D03*
X81212499Y-131237884D03*
X81712501Y-131237884D03*
X82212500Y-131237884D03*
X82712499Y-131237884D03*
X83212500Y-131237884D03*
X83712499Y-131237884D03*
X84212501Y-131237884D03*
X84712500Y-131237884D03*
X85212499Y-131237884D03*
X85712501Y-131237884D03*
X86212500Y-131237884D03*
X86712501Y-131237884D03*
X87212500Y-131237884D03*
X87712499Y-131237884D03*
X88212501Y-131237884D03*
X88712500Y-131237884D03*
X89212501Y-131237884D03*
D24*
X84712500Y-128462500D03*
D22*
X66250000Y-105550000D03*
X64250000Y-105550000D03*
D30*
X57787500Y-71350000D03*
X55712500Y-71350000D03*
D18*
X130749989Y-130740000D03*
X124750001Y-130740000D03*
D19*
X127750000Y-126800000D03*
D20*
X127750000Y-129799999D03*
D37*
X115450000Y-76250000D03*
X115450000Y-83450000D03*
D16*
X41250000Y-67000000D03*
D17*
X41250000Y-67000000D03*
D22*
X66250000Y-87770000D03*
X64250000Y-87770000D03*
D38*
X118250000Y-126112500D03*
X118250000Y-131387500D03*
D31*
X86500000Y-148500000D03*
X88500000Y-148500000D03*
D25*
X100050000Y-104000000D03*
X108450000Y-104000000D03*
D18*
X70750000Y-138750012D03*
X70750000Y-144750000D03*
D19*
X66810000Y-141750001D03*
D20*
X69809999Y-141750001D03*
D22*
X66200000Y-108090000D03*
X64200000Y-108090000D03*
D25*
X100000000Y-75350000D03*
X108400000Y-75350000D03*
D37*
X115450000Y-95900000D03*
X115450000Y-103100000D03*
D25*
X100050000Y-94950000D03*
X108450000Y-94950000D03*
D12*
X99300000Y-134550000D03*
X110700000Y-134550000D03*
D39*
X80000000Y-119762500D03*
X80000000Y-121837500D03*
D40*
X79750000Y-83037500D03*
X79750000Y-80962500D03*
D28*
X80650000Y-141750000D03*
X77850000Y-141750000D03*
D21*
X40500000Y-85250000D03*
X40500000Y-83250000D03*
D22*
X66250000Y-110630000D03*
X64250000Y-110630000D03*
D41*
X86297349Y-114850000D03*
D42*
X89797349Y-114850000D03*
D41*
X86250000Y-76250000D03*
D42*
X89750000Y-76250000D03*
D41*
X86250000Y-141750000D03*
D42*
X89750000Y-141750000D03*
D41*
X86500000Y-102750000D03*
D42*
X90000000Y-102750000D03*
M02*
